<mxfile host="app.diagrams.net" modified="2023-04-14T02:58:08.063Z" agent="Mozilla/5.0 (Windows NT 10.0; Win64; x64) AppleWebKit/537.36 (KHTML, like Gecko) Chrome/111.0.0.0 Safari/537.36" etag="X-RXPBzylLzBmB-4AFql" version="21.1.6" type="device">
  <diagram name="Trang-1" id="qoVZrKMLX8dAY_3t5RI8">
    <mxGraphModel dx="735" dy="861" grid="1" gridSize="10" guides="1" tooltips="1" connect="1" arrows="1" fold="1" page="1" pageScale="1" pageWidth="827" pageHeight="1169" math="0" shadow="0">
      <root>
        <mxCell id="0" />
        <mxCell id="1" parent="0" />
        <mxCell id="HLB04OiPP8K-Rc5S-tSk-1" value="" style="rounded=0;whiteSpace=wrap;html=1;" vertex="1" parent="1">
          <mxGeometry x="1200" y="40" width="940" height="520" as="geometry" />
        </mxCell>
        <mxCell id="HLB04OiPP8K-Rc5S-tSk-2" value="" style="rounded=0;whiteSpace=wrap;html=1;fillStyle=solid;" vertex="1" parent="1">
          <mxGeometry x="875" y="40" width="125" height="520" as="geometry" />
        </mxCell>
        <mxCell id="HLB04OiPP8K-Rc5S-tSk-3" value="" style="shape=image;imageAspect=0;aspect=fixed;verticalLabelPosition=bottom;verticalAlign=top;image=data:image/png,iVBORw0KGgoAAAANSUhEUgAAAgAAAAIACAYAAAD0eNT6AAAABHNCSVQICAgIfAhkiAAAAAlwSFlzAAAOxAAADsQBlSsOGwAAABl0RVh0U29mdHdhcmUAd3d3Lmlua3NjYXBlLm9yZ5vuPBoAACAASURBVHic7N13lBRV2sfxb0+GGeIgGck5CiqggiBiFjEsoog5i3mVdU1rXLPvijmhKCIYQMwBRUFFBclIzlkyw+Tpfv8oZheVMFN1K3X/PufUUXe5t54O9H3qxgjip8eBm/wOQkQ8sRWobrNsBSDXYCxB8Tjwd7+DSFRJfgeQ4N7xOwARER/pN9BHSgD89ROwwu8gRER8sAr42e8gEpkSAH/FgPf8DkJExAdjsH4DxSdKAPynLjARSUT67fOZEgD/aRhARBKNuv8DQAmA/zQMICKJRt3/AZDidwACWF1hWg4oEsdSU1Mznhn23FA7ZXNyclJv+vsNpkPyk7r/A0AJQDCUDgM09DsQEXFHampqBSKRh+yUTc9INx2On9T9HxAaAggGDQOISKJQ939AKAEIDnWJiUgi0G9dQCgBCA6tBhCReKfu/wBRAhAcGgYQkXin7v8AUQIQLOoaE5F4pt+4AFECECwaBhCReKXu/4CJ+B2A/IWjI4KvvfZ62rfrYDAcERGYPXsWw57+j5MqdPRvwKgHIHgcdZFNmzbVVBwiIv81ddovTqtQ93/AKAEIHkfDADNmTKe4uNhgOCKS6EpKSpg1a6aTKtT9H0BKAILH0WqA3Nxcfps/z2A4IpLo5s2by65du5xUodn/AaQEIJg0DCAigaHu//ikBCCYNAwgIoGg7v/4pQQgmDQMICKBoO7/+KUEILg0DCAivlP3f/xSAhBcGgYQEV+p+z++KQEILg0DiIiv1P0f35QABJuGAUTEN+r+j29KAIJNwwAi4gt1/8c/JQDBpmEAEfGFuv/jnxKA4NMwgIh4Tt3/8U8JQPBpGEBEPFVSUsLMmTOcVKHu/xBI8TsAOaDSYQBbRwSXDgPoiGDxwqDzziElxd7Pyqi3RlNYWGir7J13/ZPt23fYKnv3XfeQnZ1tq+y//30/GzZusFU2yGKxGHl5eU6qeAd1/weeEoBweAebCQBYwwBKAMQLaWlppKQk2yobiURs3zcvL5/8fHsNVixmv53Ky88nNzfXdvk4NsbvAOTANAQQDhoGEJGwUPd/SCgBCAetBhCRsNDs/5BQAhAeWg0gImGg2f8hoQQgPDQMICJBp+7/EFECEB4aBhCRoFP3f4hoFUC4OFoNMHnyJGrWrGkwHJE/s//b//umjbaXnkWjUdv33bT5d0qi9nrHSkrUq/Yn6v4PESUA4VI6DNDQTuG5c+fQoUN7kpLU8SPucNIQL1++1PbWs04a4pUrl7N162ZbZe3uWxCn1P0fMmoJwsXRMEBhYSFr1641GI6IyH+p+z9klACEj6MutuXLlxsKQ0TkD9T9HzJKAMLH0WqAFStWOOqmFRHZC3X/h5ASgPDRMICIBI26/0NICUA4aRhARIJE3f8hpAQgnDQMICJBoe7/kLJ//Jb47XEc7AnQt29f6tevbzAcEahcubLtsjt37rR9Ml9+fr7tshkZGbZPIiwqKnJ0mmAQrFmzhokTJzqp4gngZjPRiJe0D0B4OdoUaPny5UoAxLgdO3b4ct+MjAxf7puamurLfU1avXq10yp09G9IaQggvDQMICKORKNRVq1a5aQKdf+HmBKA8NJqABFxZM2aNRQUFDipQrP/Q0wJQLhpNYCI2GbgN0Cz/0NMCUC4aRhARGxR978oAQg3DQOIiC3q/hclAOGnYQARKTd1/4sSgPDTMICIlIu6/wWUAMQDDQOISLmo+19ACUC80DCAiJSZuv8FlADECw0DiEiZqPtfSikBiA8aBhCRMlH3v5RSAhA/NAwgIgek7n8ppQQgfmgYQET2KxqNsnLlSidVqPs/jug44Pji6IjgzMxMkpKUE9qRkZHBKaecYqtsUVERH3zwgeGIRP4qGo2ya9cuJ1Xo6N84ouOA44ujI4Id/jAktOLiYttlY7EYO3fuNBiNiGt09G8c0eNefHE0DCAish/q/o8zSgDii6PVACIi+6HZ/3FGCUD80QxdEXGDflvijBKA+KNhABExTd3/cUgJQPzRMICImKbu/zikVQDxydFqACm/5JSUaNcje22wUzY3b1dk5MiRtU3HJGKQuv/jkBKA+FQ6DNDQ70ASRVpaelKnw7rXsVM2J0dLACXQ1P0fpzQEEJ80DCAipqj7P04pAYhf6rITERP0WxKnlADEL60GEBGn1P0fx5QAxC8NA4iIU+r+j2NKAOKbuu5ExAn9hsQxJQDxTcMAImKXuv/jnI4Djn+1gYou1p8MzLB7jzPPHsS5519sNiIfJCcnUbtOPVtlo9Eo69auMRyRBN1bI17lvdEj7RbPBToBJeYi2us91rtYv/hM+wDEPy/+Av8I9LFTcOmSRdSr38BwOOGSlJSU8O9BIlq6eKGT4j8AiwyFIglKQwBiwrd2C86ZNYOCgnyTsYgEXmFBAXPnzHJShe2/cyKllACICRPtFiwqLGTOrBkGQxEJvlkzp1NYUOCkiomGQpEEpgRATPgJa7zQlulTfzEYikjwTZ/qaG5dLqC/NOKYEgAxoRBrHoAt06b+ZDAUkeD71dl3/gfAUfeBCCgBEHM0D0CkDDT+L0GhBEBMmWi3oOYBSCLR+L8EhRIAMUXzAETKQOP/EhRKAMQUzQMQKQON/0tQKAEQkzQPQGQ/NP4vQaIEQEyaaLeg5gFIItD4vwSJEgAxSfMARPZD4/8SJEoAxCTNAxDZD43/S5AoARDTNA9AZC80/i9BowRATJtot6DmAUg80/i/BI0SADFN8wBE9kLj/xI0KX4HIHGndB5AHzuFp039iUu51mxE+zB/3hzWr1trq2zL1m2pU7ee4YgsSxYtZNXK5bbKNm7anIaNGpsNaLcVy5exbIm9I+gbHNyIps1bGI7Ism7tGhb8NtdW2dp16tKqTTvDEe2dxv8laJQAiBu+xWYCUDoPID09w3BIf/XOqDf4ePxYW2WH3nkvp5810HBElo8+eI9Rbwy3VfbKa2/iwkuvNByR5ZuvPuf5YU/YKnvO4Iu4/u+3GY7IMuWHSTx83122yp7c73TuvO9hwxH9lcb/JYg0BCBumGi3oOYBSDzS+L8EkRIAcYPmAYjsQeP/EkRKAMQN2g9AZA8a/5cgUgIgbtF+ACJo/F+CSwmAuGWi3YKaByDxROP/ElRKAMQtmgcggsb/JbiUAIhbNA9ABI3/S3ApARA3aR6AJDSN/0uQKQEQN020W1DzACQeaPxfgkwJgLhJ8wAkoWn8X4JMCYC4SfMAJKFp/F+CTAmAuE3zACQhafxfgk4JgLhtot2CmgcgYabxfwk6JQDiNs0DkISk8X8JOiUA4jbNA5CEpPF/CTolAOIFzQOQhKLxfwkDJQDihYl2C2oegISRxv8lDJQAiBc0D0ASisb/JQyUAIgXNA9AEorG/yUMlACIVzQPQBKCxv8lLJQAiFcm2i2oeQASJhr/l7BQAiBe0TwASQga/5ewUAIgXtE8AEkIGv+XsEjxOwBJKN8CfewUnDNzBpu25ZGenmEsmKIS+2XzC2PszIsZi2VPRcX2yxYWuRdXYZH9eouKcS2u/EIHcZWYjauwsIC5szX+L+GgBEC8NNFuwaKiQr6a9Cst2nc1FswOBz/8G3fGWLTBQQaxH1tz7ce1Kce9uDbl2I9ra657cW3caT+uHXlm41owaxqFhRr/l3DQEIB4ydE8gEVzphoMRcS8RXMcDd9r/F88pQRAvORoHsDCOY4mV4m4zuF3VOP/4iklAOI122OcyxbMpKhQ+wFIMBUVFrBi0WwnVWj8XzylOQDitYl2CxYXFbJswUxj8wDqNGhKyw726qpavaaRGPamZt2GtuPKrlXXcDR/rNtuXDXrNjQczf9UrV7Tdlx1GjQ1FsfS+TMo0vi/hEjE7wAk4aQBW4GKdgqfPPAaTj7nGrMRiRjw0VtP88noZ+0WzwWqoyEA8ZCGAMRrmgcgcUnj/xI2SgDED5oHIHFF4/8SRkoAxA8T7RYsnQcgEiQa/5cwUgIgftB+ABJXtP5fwkgJgPhB8wAkrmj8X8JICYD4RfMAJC5o/F/CSgmA+GWi3YKaByBBovF/CSslAOIXzQOQuKDxfwkrJQDiF80DkLig8X8JKyUA4ifNA5BQ0/i/hJkSAPHTRLsFNQ9AgkDj/xJmSgDET5oHIKGm8X8JMyUA4ifNA5BQ0/i/hJkSAPGb5gFIKGn8X8JOCYD4baLdgpoHIH7S+L+EnRIA8ZvmAUgoafxfwi7idwAiwFdAHzsFK1fNpm7DFobDEac6HH4MvU4ZZKvsvF8n89W44YYjMm/tioXs2LbZbvEJwLEGwxEptxS/AxDBGgu1lQDs2LaZHdtszyMUl9Sq19h22W2bNzB/Ztx/phP9DkBEQwASBBP9DkDEYxP9DkBECYAEgaN5ACIho/F/CQQlABIEjvYDEAkZrf+XQFACIEGhNdGSKPRdl0BQAiBBMdHvAEQ8MtHvAERAqwAkOErnAVT0OxBxLomS4oxUCu2UTU6KpgBphkMKCo3/i4jsxVdATFdcXE9j3yUBiN+t60sH74uIURoCkCDR2KjEO33HJTCUAEiQTPQ7ABGXTfQ7AJFSSgAkSLQfgMQzjf9LoCgBkCDRfgASz7T+XwJFCYAEjcZIJV7puy2BogRAgmai3wGIuGSi3wGI7EnHAUvQpAGn+R2EOLYYmG6zbGPgUIOxBMUHYG9vBBEREREREREREREREREREREREREREREREREREREREREREREREREREREREREREREREREREREREREREREREREREREREYFUINnvIGxIxopdREREyikVGAuMByr4HEt5pAPvAB/v/ncREREpo9LGP7b7mgLU8DWisqkGfMf/4lYSICIiUkZ/bvxLr+VAN//COqDOwCL+GreSABERkQNIY++Nf+mVD1wLRPwKcC8iwPVAAfuOeyyaEyAiIrJX+3ry39v1HdDBnzD/oCMwibLFrJ4AERGRPznQk//eriLgKaCOD/HWBZ4GissRr3oCRERE9mCn8f/zsMDzQDMPYm0GvLD7nnbjVRIgIiIJz2njv+cVxeqOvxLINhhjNnDV7rqjhmJVEiAiIgnLZOP/56sY+AV4DOgHNAVSyhBTCtZTfj/gcWAq5e/mVxIgEgJBmkkskkhSgTFAfw/vWQgsAzYBu4Dtu//3KkAm1j4DjbESE6+MAwZgzWcQERGJexfjzlN1GK+LHb6XIiIioTIU/xtfv6+HHL+LIiIiIXQhVve33w2x11cxcIXzt09ERCS8Tgd24n+j7NW1AzjNyDsnIiISci2A6fjfOLt9zQHaGnrPRERE4kIG8B/8b6TdukYAFY29WyIiInHmTGAN/jfYpq41WMMcIiIicgCZwL/Y/wl7Qb+KsHo0Kpt9a0REROJfW2AC/jfm5b2+Atq48H6IiIgklKOADzG3F79b12Sgj0vvgYiISMLqCLxFsIYG8nfH1MHF1y0iIiJAVeB84Ev86RUowXravx44yOXXKiIiInvRELgO63S9TbjX6G8C3gOuBQ725JWJiGt0GqBIfEkC2gM9sSYQNsfaZKh+OetZBSzafc0FvsXaxCdqLFIR8ZUSAJHEkInVU5CJdfxvpd3/DtbRwDuxjgfOAVYAuT7EKCIiIiIiIiIiIiIiIiIi4pVU4Hmgld+ByF+0wvpsUv0ORERE4ksq1jK7GLAB6ORvOLKHtsBarM/mYyDd33BERCRe7Nn4l15bgG5+BiUAHIH1Wez52YxFPQEiIuLQ3hr/PbfAHehfaAnvTKzlinv7bNQTICIitu2v8S+9oljH9oq3rsfajnh/n42SABERKbeyNP57Xm8CFX2JNLFkAK9Q9s9FSYCIiJRZeRv/0msG0NSHeBNFM2Am5f9clASIiMgB2W3895wcOMDzqOPfQGAr9j8XTQwUEZF9ctr473mNAap5G35cqgy8gJnPRD0BIiLyFyYb/9JrGXCcly8izpwALMfsZ6KeABER+YORmG1o9rzeAA7y7qWEXk3c/TxGevdSREQk6HpgHYfrVqOzCbgGSPHqBYVQKnAtsBn3PoftWJ+1iIjIfx2Gu41PDJgLnOjVCwqRk4HfcPe93wQc6tULEhGRcGkPrMPdhigGfAf09ug1BVkfYDLuv99rgXYevSYREQmpRlhP6m43SjFgItZEwYgHrysoIlgT/L7Dm/d4NtDQk1cmIiKhVxWYgDcNVAyYA1yCtdNdvMoALsW75CoGfAlU8eLFiYhI/EijfNvOmri2AMOAQzx4fV7pDDzNX0/tc/t6CS35ExERB67EOvnPy8YrhrW18G1YW+CGTXPgn9jbutfplQ9c7v5LFBGRRNAVWIX3jVnpNR24D2sJWxCXEqYCPYH7sRIXv96nFVirOURERIw5CPgI/xq30ms7MB6rd+Bo/DmFsOLue/8T+BDYsZ94vbrGAzXcfNEi8SSRZh6LmBABrgIeJTjH/xYDC7EmEs7BWk+/Amsb3d8d1l0TawZ9I6A11lK6dlhd/EHpicgFbsI6M0BEykgJgIg9rbG2+O3idyAHkAtsxNoEZzPWk3ouUPCnP5eOldBUBrKxnqRrARU8i9SeX4DBwAK/AxERkcSRAlwP7MT/7u9Eu3YBQ4HkA35KIiIiLmkMfIb/jWKiXJ9gDUmIiIgEwlnAEvxvIOP1WgScXuZPQ0RExEOpWMMC2/C/wYyXayfwL+J7l0QREYkTBwGPYY1V+92AhvXKAR5BS/tERCSEDgIeQolAea5dwH+AOjbebxERSQCpwPF+B1FGtYB7sZbk+d3ABvXagNXVX9PeW+y5E9BZAyIinksFxgJR4EafYymPCsBlWBv2+N3gBuWas/s9CdMY/zVACfAx1h4KIiLigdLGf89G5CFfI7KnC9budUHYRtfrazswAjiW8G1INpQ/vhYlASIiHthb4x/mJAAgEzgf65wBP04d9OrKxzo3YPDu1xxG97D316YkQETERftr/EuvZwn37nBVsBrIscTHDoM7dr+WwbtfW1ilYPXW7O+1jkVzAkREjCtL4196fY61p33YpQG9gH8DU7EO/fG7QT/QVYS1P/+DWKcFxkODmIXVc1GW16+eABERg8rT+Jdes4AGfgTroizgGOAOrIZmDf43+Guwhi7uAHrvjjGe1AWmUb73REmAhELYJt9I4kkFxgD9bZRdC5wK/Go0omCpDrQH2gItsfbIb7j7qmroHtuwjhYuPWJ4z6OHtxi6RxC1x2rM7SSSnwBn8NdTF0UCQwmABJmTxr9UDnApMNpIROGShXW0b3Ws3fSqApWwxrNTdv87WHMNindfO7Ea/E1YjftmrPcw0QwEXsbZZEUlASIiNtjp9t/f9QLxMR4t7krBWk1i6nun4QARkXIw3fiXXpPQ9rKybzWBCZj/3ikJEBEpo6rAT7g3aa23dy9FQqIPsA53vnM/YW4+hohI3MsEvsKdH+Qo1mEzeiqTVKzzB0pw57v2LfGxJFVExFPpwAe488McA2YDHTx7NRI0rbFWiLj1/foE6+wHERGxIQ14H/d+pHOBa4Ekr16Q+C4JuB7Iw73v1btY310REXEgBXgN936sY8APQDuPXo/4pwPwI+5+l17F+s6KiIgh12ON37v1w12ItQQsTMfSStlUwBrrL8C970909z20v4qIiAsG4+6PeAxYAPT16gWJ604AFuHudyYfGOTVCxIRSVRHAL/j7g96DPgSa4tdCacWWDtJuv092YJ18JGIiHigFe4/1cWwhgX+D2s7XQmHbGAY1mfn9vdjIdYZDCIi4qGqwHjc/5GPYe2JfyvO9oYXd2UB/8B6IvfiOzEOqOLJKxMRkb+IAEOxDrLx4kf/d6yJXtrcJTgysSaIurWT35+vYqzvgJaOiogEwPFYJ9h50QDEgPXATVhPneKPLODvwAa8+9x/B4714sWJiEjZNQSm4F1jEMPqbn4IqO/B6xNLA+ARYCveftbfAwd78PpERMSGFKwhAS8mgO15FQMfAt3cf4kJ6xBgBN5/tkVYSZ6OkxYRCYHDsWZoe9lQlF5TscaktXLAucrA5cBk/PkslwFHuf4qRUTEqEpY27L60XDEgF3A60BPtDtceUSAXlhP+7n49/m9jOZ4iIiE2qnASvxrSGLACuAJoDtKBvYmCTgSeJJgfFanuPtyRUTEK5WAp3Dv3PfyXKuwNhfqRWKPK6cBvYH/AKvx/3Mpxvpc9NQvIhKHDsEao/e7sSm9dmFtOTwU6OLi6w6KJlhj+mOAbfj//pdeM4GuLr5uEREJgFSsBncH/jc8f76WAm8A1wCdgGSX3gMvpGAlXNcAbwLL8f/9/fO1HbgFHd8rCUhjkZLIagP3ARcT3F3dcoBfgF+BucBsYB7W5LggyQRaA+2xDlDqAhxKcLvTS7AmiN6JtZGQSMJRAiBiPWk/gTUeHQZRrJ6C37CWqS3Hmri2Yve/b3bpvjWwNltqtPufDbG69FsDjQluEvVnXwM3ArP8DkTET0oARP6nP/AA0MbvQBwqxkoCtvzpn0VYycP23X8uf/c/M3b/swpWI56GtYdB9p/+GfZu8rnAP7EOkBIREfmDJOBvWE/Xfo9P6zJzzQPOJ9zzKURExCOlicB8/G/AdNm7lmCtOFDDLyIi5ZYMDMKahOd3g6arbNc04FzU8IuIiCFHYa1fL8b/Rk7XH68SrP0UTt3npyciIuJQC+BZrCV6fjd8iX7tBJ4Bmu/3ExMRETGoEtbksi+xZtf73Rgm0jUVa3y/0gE/JRERERe1wjozfj3+N47xem0GXgA6lvEzERER8UwqcBLWLnOb8b/RDPu1GXgFOIHEPjhJRERCJBlr4uB/UM9AeRv9EVgT+tLK/a6LSJloJ0ARb6QA3YHjgeOw9soPy9a5botijel/AXwOTMFaaSEiLlICIOKPGsCxWMlAT6Cpv+F4bjHwHVaj/xXunV8gIvugBEAkGGoBh2P1DBy5+6rga0TmFGEdvPM9MBn4Ftjoa0QiogRAJKBSsY7VbQu02+Nq5GNMBxLDOo1wLjAH6+jiuVh78Rf5F5aI7I0SAJFwqYy16U1D/ncsb6PdV12soQU3bQLW8L+jh5fzv6OIF2JtzCMiIaAEQCS+JPHXY3yzgXSsGfWZu/9cFv9bVleEtashwC6gECjgj0cJl/571PVXICIiIiIiIiIiIiIiIiIiIiIiIiIiIiIiIiIiIiIiIiIikmC0EZDEoxSg9u4re/eVtfv/y8Da6CYK7ABKsDa5WYe1w90Or4OVQEjG+r40BGpibZJUZff/nor1ndmGdUrhFmAtsBLI9yNYEROUAEiYpQCdgY5Ae6x985sA9Xf/f3bkAsuw9q+fg7WX/QxgidNgJTCaYX1vDgE6AW2wtlG2853ZgLUN8gxgGvAr1sFHhUYiFXGREgAJk9IGv9fuqwf/e7J32zqsk+wmAV9jJQYSDgcBfbGOX+6LlSC6KR/re/LZ7muey/cTEYlLGcAAYCxW93wsINcS4AmgN1Y3sQRLVeAi4Ausbns/vyvLgPuBlq6+YhGROJCE1bC+gjXu6ndjf6BrLfAw0MqNN0PK5XDgLayncL+/F3u7pgCXAxXcegNERMKoGnAHsAr/f6jtXj8A52J/DoKUXxJWL9GP+P/5l/XagPVdz3bh/RARCY26wKMEq4vf6bUcuAHv5igkqn5Yk+78/rztXjnAg0Bl02+MiEiQNQVeJLjdtSauzcDfseYyiDldCdcT/4GuDcBVqOdIROJcJvBvoAD/f3i9ulZiTUrThEFnqgDPYO3f4Pdn6sY1Byu5ERGJO2cT7jF+p9c04FDH72JiOg1rwqXfn6HbVzHWpFL1GolIXGiDtX7e7x/XIFzFwFNo3LesKgDP4v/n5vX1G9YmVyIioRQBhgB5+P+DGrRrFXCM/bc2IbTF6hb3+7Py69oFnO/4XRQR8Vg28AH+/4gG+SoBHsLab17+6CRgO/5/RkG4ngPSnL2dIiLeOJrEHusv7/Uz0MjOGx2nrsP/HfyCdn2BlpWKSMD9A/1427k2YiVOiSwCPIb/n0VQr1+wzjYQcUyHAYlJycDTwJV+BwJQq2Yl6tWtSlZmOpkV06mYmUa1qhUB2L4jj2g0xubNOazfsJNVq7ewKzcQB7gVAdcCL/gdiA8iWJMjh/gVQJ1alWl4cDbZ2ZlkZKRSpXIFkpIi7NiRT0FhMVu37mLVmm2sXrOVoqISv8JcCPQBVvsVgMQHJQBiSkVgFNbObJ5KT0/h8C6NOKJrE1q2qEXL5rVo3qwmVauUb7v1bdvz+G3BembNWc2sOWv4eeoKZs9dQzQacyny/XoUGIr11JcIIljj3Fd4dcOWzWtxZPemHNa5IYd2PpiWzWuRkVG2qRglJVFWr9nG9Jmr+GnqMn6euoIpvyzzMimYD/QEfvfqhhJ/lACICQcB44FuXt2wQ7t6nNi3LUf3aM4R3ZpQsYI786M2bc7hu8mL+fKb3/jgo1ls2pzjyn324WWs3hTfHjU99DBwq9s36XZYY07v14lTT2xPs6Zme9K378jj86/mMf7j2Xz4ySzy8ouM1r8X07FWkWxz+0YSn5QAiFO1gYl4cNRpnVqVOWfAYZw38HDatanr9u3+org4yjffLWTM+9N4d+yvXg0ZjAEGA4EYn3DJEGCYW5VXrVKB88/txsXnd6dNqzpu3eYPtm3P460xv/DS8MnM/W2dm7eaDByLtaumSLkoARAnqmE1/h3cvEmvHs258do+HHdMa5KTk9y8VZlt257HiLem8MKrk1m0eKPbt3sHOIf47Ak4DXgPF7ZIzq6eybVX9eaay3tSpbI/p+/GYjE++nQ29z38KTNmuTZk/wpwqVuVS/xSAiB2ZQFf4lK3fyQS4cS+bRh68/F0P7yxG7cwIhqN8d646dz/yKf8tmC9m7d6BbiM+JoT0AKYClQyWWlqajLXXdWLf95yIpWy0k1WbVssFmPs+Jn8/fb3Wb1mqxu3GIJ1RoJImSkBEDsygI+wZiIb1+OIZjz28qZnnQAAIABJREFU4Bkc0rGBG9W7IhqNMeb9adx+z3hWrXblBx7gSeAmtyr3WEVgCtDeZKVHH9WcYY8PoFWL2iarNWZXbiH3P/wJTz030fSEwSKs+QCTTVYq8U0JgJRXElaXbX/TFdeqWYl/39OfQWcfRiQSzq9mbl4hDz32OU8+8zUFBcVu3OJarKWWYTccuNBUZWlpydxz+6ncOOQYkpKC/935eepyzrv0NZav2Gyy2mVYZwfsNFmpxK/g/02RoLkTuNdkhZFIhMsuPJL77+5X7qV7QbVw0UYuvvoNfp663HTVxcAJwATTFXvoNGCcqcoaHlydMSMuDVWPEVirBq68fhTvjZtustqXsYaKRA5IZ5NLeRwPvITBxLF6tYqMfOUibhhyTJnXYIdBdnYm55/bjeSUJH74aanJvQSSgFOA94Etpir1UFXgEwyN+3c/vDGfjbuWZk3CtzleRnoqZ57WiWhJlEk/LDFVbWeseRWLTFUo8Us9AFJWBwO/Yh3wY0TXQxsx8tWLOLhBdVNVBtKPPy9j4Pkvs27DDpPVzsSagJlvslIPvAxcYqKiM/sfwmvPn096eoqJ6nz1+sgpXHXDKIqLoyaqWwG0xjqBU2Sf1AMgZZEOfAY0M1Xh1Zf1ZOSrF1G9WqapKgOrQb1qDDzrUH78aSlr1hrbs6U21lP0Z6Yq9EA3rPkLjh88/nZGZ0a8eCFpafHxE9apQ32aNa3J+I9nEYs57i2qirVvxLfOI5N4Fh9/e8RtjwBnmagoEolw312ncv9d/QKzpt8LlbIyGHT24SxcvJHf5htbLtgV6xTBxaYqdNnbWD1JjpzZ/xBGvHghKSnx9f1p16YuDRtU56NPZ+M8B+BwYARgtNtJ4osSADmQQ7G6bR3/2iYnJ/Hc/53DkCt6OQ4qjFJSkjj91I6s37CD6TNXmagygrUL3HCC3917BvB3p5Uc2a0p7755Wdw8+f9Zx/b1SUtP4etvFzitKg2ogcHJlhJ/4vNvkZiSAnwION53NzU1mVHDL2bg3w51HlWIJSVFOPn4duTkFDDll2UmqszC+qEfb6IylyRhTVqs4aSSJo1r8Nm4IVSulGEmqoA6omsTliz9nTnz1jqtqi3wFuDaxhQSbpoEKPtzK9YhLY5EIhFefe48Bp19uIGQ4kMsFuOam0bz8mvfG6kO6AV8d4A/d9DuqwLWOHE6kInVQP959lkBkANs333lYJ08Z2f3mjOw9o6wLT09hclf3kzH9vWdVBMaeflF9DzuCWbOdrx98It4eMKihIsSANmXpsAsrB3bHHnk/tO54ZpjnEcUZ6LRGOdf9jpj3p9morrfsBraRliTNZvu/md9oCZWw+90nWUJsAFYA6wDVmGdTb8Aa9nZCvaeIPwAdHdy40T8Ds39bR3dej/idEOpAqAJ4Lg7QeKPEgDZl/HAqU4r+fv1x/Lgv04zEE58Kiwsoe+p/+HHn40MB/itAJgLTNvjqgR87aTS3j1b8Nm4IaHdHdKJJ4ZN4B93OR7GfxC43UA4EmcS72+UlEUX4Bccfj9OOLYN40ZfGYqtWf20YeNOuvV+xOQSwbiRlpbMtMm30bJ5Lb9D8UU0GuOIPo/y6wxHk0bXAA2Jz9MkxYH4WkcjptyPw8a/Xt2qvPr8YDX+ZVCrZiXeeePSuJ3Z7sSN1/RJ2MYfrEmjD993utNq6mFtHy3yB/rFkT87Avi3kwpSUpIYO+qKwJ7IFkR161QlNTXZxPKvuFEjO4vRIy4hLS38O/050ejgbGbNXcuChRucVJMBjDEUksQJ9QDIn93jtII7hp7EUd2bmoglodx83bF63/Zw/TW9ycpM9zuMQLjjVscP8P2wNo16CetEyZ5Yq0Ekgal/VvZ0JA7PE2/dsjZTJ/2D1FR1LtmxfMVmOnV/kNy8Qr9D8VX1ahVZOPOeuF/zXx6nnPUsX0z4zWSV+Vh/378EPsc6X0ISiHoAZE9XOSkciUQY9vjZavwdaNQwm1tvOs7vMHx3waBuavz/5MYhfUxXmYG1k+TDwAysFRy3Yy0llQSgHgApVR1rtrDtX91BZx/O8OcHm4soQeXnF3HIkf9mydLf/Q7FN7N+ut2zOSRJqU0gYm+LhGjRMoh501sTi8Vo0elfrFjp+inQMeAr4DHgC7dvJv5J7Nk1sqfzcND4Z2Wm89C9/Q2Gk7gyMlJ5+N7+nHXeS36H4osjuzX1dAJpUoWjiCRVtlU2tnMksRJvEoBIJMKgAYfx4GOfu34roO/uaybwKDCKv+4WKSGnIQApdZmTwpdffBS1alYyFUvCO/Wk9nTu1MDvMHxxxmmd/A4hsM4d4Pl22h2BN7E2dTI+BiH+UgIgYG3T2s5u4Yz0VK5PsG1a3RaJRLhz6El+h+GLk4+3/VWMey2a16Rpk4P8uHUnrGGBD7G2mZY4oARAAM5xUvjC87pRp5a9LlTZt5OOb8shHROrF6Bl81o0aezo0MC417d3Kz9vfwrWsMAQNIcs9JQACMCJdgumpCTx9+uPNRmL7BaJRLj5usTqde17jK+NWygc628CANYJksOwznho6HMs4oAmAUpzrFPjbDm2VysOblDdYDiypzP6HULDg8cbm/ldvVpFDqpRiWpVK5KZmQZA5coV/rtlc15uIQWFxeTkFFBUXML2Hfnsyilg/cYdRu5/IEcf1dyT+4TZkd2bEolEiMVifofSC2tuwDlYewlIyCgBENtP/wCDBno+KSmhpKQkcd1Vvbn5tvfK9OerVa1Ih3b1aNK4Bk0a16Bpoxo0bXIQtWtXoUb1TNt7NBQWlrB23TZWr93GqtVbWbN2G8tWbGLW7DXMmbeWXbnOZ8InJUXocaQSgAPJrp5Ji2Y1WbDI0dbApmQDnwK3YS0b9D0rkbJTAiC29xitXCmDfid3MBmL7MVFg7tz/8OfsnVb7h/+98qVMjj80EZ06XQwh3RsQOdODWjUMNuVGNLSkmnUMHuv9UejMRYv+Z1Zc1YzY9Zqps1YyQ9TlpKXX1Sue7RvW4/q1SqaCjmudTu8cVASALDOlHkEaAtcChT7G46UlRKAxFYBqxvPljP7H0KFDHsbqEjZZWWmc8XFRzFm7K90P7wJ3Q5vxBFdm9CmVR2Sk/2fxpOUFKFF85q0aF6Ts07vDFibGf3w01K+nriACd8uYPrMVUSj+3847NVDT/9l1f3wxrw+corfYfzZBUBlrCGBAp9jkTLQLM7E1gP4zm7hcaOv5KTj2hoMR+LVlq25TPhmPh9+OpvPv5r3l94MgPffupxTTmzveWwplc+3vRFQ8c6RxEq2Go7owObNX0en7g96ft8y+hI4HdjldyCyf0oAEtvNWON25ZaSksT6pQ9rv3Ypt+LiKJN+WMzHn83hw09ns2z5JpKTk1i35CGqVvH+gLowJgDRaIzb7h7HzhzrQbu4uOS//56zs4At23axZWsua9duK/dQjCGfYZ1A6MvNpWyUACS2t4Gz7RTsemgjJn15s+FwJBHNmbeWX6at4KLB3X25fxgTgLKKRmMsX7GZOfPWMn3mKr78Zj7Tpq+kpMSTXX1fAy5GEwMDSwlAYpsLtLFTcOiNx3HfXacaDkfEe/GcAOzN5i27+Pyrebw+cgoTJy1yeznhA8Adbt5A7PN/BpH4JQUH6/97ar22SChlV8/k3AGH8fkH1zL/17u46do+ZFZMc+t2twMXulW5OKMegMTVAlhgt/CK3+6nTu0qBsMR8UdyhaMhyd7cg2jeJGLR8M912/j7Tp4YNoHnXvrOjTkDucChwG+mKxZnlAAkrhOwNvAot0pZ6Wxa+SiRiL4+IvFk+YrNDLl5NF9MMN5WzwEOB/JMVyz2aQggcdWzW7BF81pq/EXiUKOG2Xz07tUMf36w6RU+7YBHTVYozikBSFz2E4BmNU3GISIBM+jsw/nx61to27qOyWqvBnRueIAoAUhctg8Vb+zSdrMiEhzNm9Xk+wl/p/+pHU1VGQGeArR9aEAoAUhc9tY9AZUqeb9Zi4h4r2KFNEYNv5hLLjjCVJVtgWtMVSbOKAFIXLYTgKws15YMiUjAJCcn8eyTAxlyxdGmqvwXUMtUZWKfEoDEdBLWOQC2VMrS9r8iiSQSifDYg2cy4IwuJqqrAvzTREXijBKAxFIReAb4COscb1sqZaUbC0hEwiEpKcIrz57H0WY2AbsEqGGiIrFPCUDi6AJMw5qJ62gNX2qaTpEWSUTp6SmMfPUi6tSyPYJYKhMYYiAkcUAJQPxLBm4DfgRamaiwqLDYRDUiEkI1D6rEay9eQFKS471AhmAlAuITJQDxrRLwAfAgBpfe5OcrARBJZL17tuD6q3s7rSYbGGQgHLFJCUD8qg98C5xsuuLcvELTVYpIyNwx9CTq1qnqtJpzTcQi9igBiE9HAr8Ch7hRuRIAEamUlc4j9/d3Wk0PoIGBcMQGJQDxZyDwFQ52+juQ3Fzjp4WJSAgNOKMLnTs5ar+TsH6zxAdKAOLLP4BRgKsL9Q0fEiIiIXbL9X2dVnG2iTik/HSkW/y4HbjfzRsc0rEBjz14Bj2OaObmbUQkRKLRGB263c/CRRttV4HVY7nFXFRSFsl+ByBG3AXc51bldWpX4f8e/htPPTqARgfrICAR+Z9IJEJeXjETJs63XQXWMuUF5qKSstAQQPgNBe5xo+LU1GSGXHE0s3++g/PP7Wpi3a+IxKFzBxxKcrKj5sTYQQNSdtrSLdzuBe50o+KeRzbjmScH0rK5zuwQkf2rU7sKRx/VnK+/tf0QrwTAB+oBCK9LcKHxr5CRygN39+OL8dep8ReRMjuuT2snxTtgcLMyKRv1AITTccDzpis9rEtD3nz5Qho3Cv8ZHVu25rJ6zVZy8wrZtcvat6BK5QwyM9Np1DCbChmJ+VuzY2c+q1ZvZdeuAnbmFADWeu7MzHQOblA9YQ96yssvYvmKzezaVcD2HfkAZGamkVkxjXp1q1G9WkWfIwy+3j1bOCmeAjQCFhkJRspECUD4tAXGYPCzi0Qi3HBNb+6/qx+pqeGbF5qbV8j3Py7l20kL+eGnpcxfuIFNm3P2+eeTkiI0qF+Ntq3q0POo5vTq0YJOHerH3RyHoqISfpq6nG++W8gPU5Ywb/561q3fvt8ydWpXoU2r2hzZvSm9e7bg8C6NQvmd2J9oNMb0mauYOGkRk75fxJzf1rFq9VZisdg+y9TIzqJ1y9oc0bUJR/dozpHdmyZsErkvHdvXp3q1imzZmmu3iuYoAfBUfP3ixb9awBSsTNmIrMx0XnvhfPqd3MFUlZ6IxWJMnLSIN0b9xLgPZ5Kzq8BRffXrVWPQgMMYfE5XWjSvaShKf0ybvpI3Rv3E6PemsXnLLkd11cjO4uwzuzD4nK5ON3zx3cJFGxnx1hRGjvmFNWu3OaqrUlY6/U/txOBzunL0Uc2IRPRTCnDsKf/hu+8X2y1+A/Afg+HIAehbGx4R4DvgKFMVNmqYzftvXU67NnVNVem6aDTGp1/M5f5HPmXa9JXG649EIpx0XFv+ecsJHNalofH63fT9lCU89n9f8fHnc1yp/4iuTbjlhr6cfEI7V+p3y6w5a3jy6a8Z9c4vRKP7fsq3q12butx0bR/O+ZvjmfChd/WNb/Pya9/bLT4MuM5gOHIASgDCpQdW939tpxUd2rkhH4y+koNqZDmPyiO/zljFkJtHM/XXFZ7c7+Tj2zHs8QHUr1fNk/vZtXjJ79ww9B2+mPCbJ/c7+qjmPPXYAFq3dPw1dNW6DTv4590fMHL0z57cr2P7+gx7fADdDmvsyf2C6P+e+Zpb7xhrt/gbwPkGw5EDiK/Bvfi3EusvyaGA7V+ZY45uyfh3rqJa1XBMbMrNK+SGoe9wzY2jWbvOWddteSxaspHhb/xIdvWsQHZ/l5REeeCRTxl82WssXGx7F7ZyW7FyC6+O+IFoLMaR3ZoGcu7Ei8Mnc+Y5LzDVhV6ifdmwcQevj5zCho076X10C1JTEu/ndfnKzYz9cKbd4kuB0QbDkQMI3t9cKYtU4AlgSHkLnt6vE2++fGFoJnYtXLSRcy56ldlz1/gaR/9TO/LisEFUrVLB1zhKbfx9JxdeMYKvvrG9+5oRPY9sxhsvX0id2lV8jaPUzpwCrr5hFKPfm+ZrHK1a1GbUaxfTtnUdX+Pw2sefz+H0gS/YLf4V4PhgASm7xB6wCq8i4FpgEFDmWV5ha/y/nbyII/o86nvjDzDuw5n0OuFJx5PHTPhtwXq69nrE98Yf4LvvF9Ot1yOB+IzWbdhB7xOf9L3xB5i/cD09+j4eiM/IS1mZjpaRVjIVh5SNEoBwe+uuW0+6qnHD7APObDrlxPahavzHjp/BKWc9y46d+X6H8l/z5q+j14lPsnjJ777F8OPPywKTiJRat2EHfU99iim/LPMthsVLfqdH38eZNcf/RKRUzq4CTj/nBcbZ7xIPnbQ0R6uT00zFIWWjBCDEYlufrHrHbSfd+8ukf0T2t4yv22GNefOV8DT+EyYuYPBlr1FQUOx3KH+xYuUW+vZ7ilWrt3p+7znz1tL/7OfZus32OmvXbNmayylnPsuMWas9v/fadds44fSnWbkqeIfJFRQUM+iS4Xz21Ty/Q/HETmcJu7M1q1JuSgBCrJiUVyHWqHKlDMaMuJQ7h574lwlZ7drUZfw7V1GxQjiS65+nLuesQS9SWFjidyj7tGbtNvoNeI7tO/I8u+fyFZs56fRnAtn4l9qxM5/TBjznaUO8dVsuJ57+TCAb/1JFRSWce+Grnq1e8dMuZ/txBPfLHaeUAIRU4ZanhsTg9NL/TkqKcOc/TuK9ty7/70S1GtlZjB11RWAmrh3Ilq25nHvxcHblFvodygHN/W0dF14xYr+7x5lSUFDM2Re8wvqNO1y/l1PrNuzg7Ate8aT3JhaLcdmQkfy2YL3r93IqZ1cBA85/Zb87VMaDbdsdJcXqAfCYEoAQyt/xdAuIPLq3/+/k49vx49e30LlTA95+/RIaHlzd6/BsicViXHTFiEA/yf3Zx5/N4dmXvnP9PkPvHMv0matcv48p06av5J//+sD1+wx7fiLjP57l+n1MWb1mK5cNGelJ0uiXpcs2OSkenr/8cUIJQMjEYrFIUkn0WSJk7OvPNG1yED9+fQs9j2zmZWiOvDHqZz79cq7fYZTbP+/+gOUrNrtW//dTlvDcy5Ncq98tT7/wrZMtYQ9o5aot3HXfR67V75aPP5vDqHem+h2GaxYucbQfRfyPkQSMEoCQKdo+7FKI9DnQnwvT3uRbt+V68sTohrz8Im667T1X6i4ujnL9Le+E8okxFotx/S1jKCpyZy7H9be8Q25e8IeK9mbonWOddpUH1oKFG5wUVwLgsXBMCxcAYhufqR1NYhwQjkH9Mrr33x+7sl46Iz2V+vWr0aZVHWrWtJYY5+UVGW9QFy7eSI8jm9OoYbbRel9+/XuGv/Gj0ToB0tKSqV2rCm1b1aFe3aoAFBQUUVJi9n35fVMOB9evxiEdze6i+NU38/nXgx8brRMgJSWJWjUr07J5LRo3zCY5JYn8/GKKS6JG77NrVyER4JheLY3W67ctW3O57e5xOPjr9X8oCfBUeB4ThcKtw14DLvA7DpM2b9lF8w53Oz7Nr1SN7CwGnX0Yp57UgSO7NfnL4Sw7cwr44qt5jPtoJu+Pn2HsCbV3zxZ8/sG1RuoC6+m/zaH3GhteyKyYxjkDDqPfyR3o3aMF6el/XK+dn1/EN5MWMv7jWbz9zlRjEzGbNK7BnJ/vJCXFXGejwxPn/iA1NZkzTzuE/qd05LhjW/9lI5uSkijfT1nKh5/M4s23f3Z8umKpypUyWDTrntBsx10W4z+exVnnveSkilqAd3tai3oAAqQi1g5/e1W49amOEHmWOEvanhg2gS+/dv70XyEjlb9fdywjh1/EqSd1oOHB1fe6R316WgptWtXhjH6dGHB6Z9au3858Z92WgLVM74S+bf/7RO3U6Pem8dqbzp/+k5OTuPTCIxj9xmUMPLMLzZoctNfGOCUlmeZNa3LKCe25YFA3cnYVMGPWaidPc4A1vNOqZW1jJ07+NHU5/3rAzNP/Gad14p0Rl3HJBUfQulXtvW5ik5QUoeHB1TmuT2suu+hIkiIRpk1f6bhXoKCwmKysDHocEZ55OgfywquT+Hma7Qf4FcADBsORMtAcgGDoAKwDHgL2MW0/8ihx9nnFYjFGvPWT43rq1K7ChI+v5947T6VK5bKPjjRvVpMxIy7luf87h7Q057nw6yOnOK6j1PA3fnBcR1ZmOu+8cSnPPDGQOrUql7lcndpVePbJgXww5spyvZ/7YvZ9cZ4UpaQk8Z9H/8bbr11Cs6YHlblclcoVuO+uU/nui5uMnBA5/I0fQjm/Y2+i0RjjPnK0IuMXU7FI2cVVgxJitwKVgaFYmfB/2OPI3+ItT51MHB6S8d33ix13cTdtchBTvrmFQzs3tF3HJRccwQejr3KcBLwz9lcj699XrtriuIs7u3omk7+6mVNObG+7juP7tOGbT2+gejVn3dRff7vAyNbFeflFvDduuqM60tNT+Ojdq7nq0p626+jUoT6Tv7yJJo1rOIplxcot/PDTUkd1BMV33y9m9RpHu2PG79KIAFMC4L/6wIA9/jsLuA5YjJUI1I1GIvf6EZjbnO6RXqVyBcaOutzISXR9erVk2GNnO6pj67ZcJk5e6DiWDz6eRTRq/8kwNTWZUa9dQptWzk+ia9emLiNfvdjRGH40GmP8J87X63/97QLHuy8+88RAjjna+eS7unWq8v5bl1O50j5X45ZJvJwT8NaYn51W8ZWJOKR8lAD47was433/LBO4LikpsvSmf7zbee264Bz+YsrESc4ay6efOJtWLWof+A+W0UWDu3PugMMc1THxO+cJwMRJixyVv/3WE+nVo7njOEr16dWS224+3lEd3xh4X751+L6cf25Xzj+3q+M4SrVpVYf/PPo3R3WYeF/8tmHjTka/6+gExvXAr4bCkXJQAuCvDODi/f2BaDSW/vQL39Ki07+46Mo3WLLUv5PoTPp9Uw7z5tvfwrXLIQcz4IzOBiOy3HfnqWSk7y0fKxunjXc0GmPS9/brqFO7Cjdc09tRDHtz03XHlmsewZ99N3mR4/Hubyfbf18qZKRyz+2nOLr/3pzzt8McLXOcPXetsZUFfvm/ZyaQl7/P+ctl8QkQH5MhQkYJgL/OAMo0m6iwsISRo3+mQ7cHuOjKN1i0ONyrZebMW+uoQbjj1hNd2eyoQf1qXHheN9vl585b56j7fvWarY42ibn5uj6uHPyUWTGNG6894P5T+7Rla66jeQAlJVHmzV9nu/xFg7sbW6Gxp6SkCHfceoLt8rFYjDnz1hqMyFubNufw4quTnVYz3kQsUn5KAPx1SXkLFBVZiUDH7g8YnV3ttYWL7S+9y8pM59jerQxG80dnnHaI7bL5BUWOjgpesMh+YheJRDijXyfb5Q/kzNMOcZR0LXSQtK5YucXRBMsz+9v/TA/kuD5tqJSVfuA/uA9hTubvuPdDduY42sNjE/CZoXCknJQA+Kcx0Mtu4Wg0RrfDG5uLxmNODg057tjWf9nIxqSjujd1dILiYgfDNEuX2y/bsX09I8vT9qVB/Wq0b2t/Pf+SpfY/8yUOvi/Vq1XkiK5NbJc/kPT0FPo4SEiXLAvnsN7UX1eY2KvidcDMLmBSbkoA/DMIB+//qSd1oGXzWgbD8db2Hfm2y7Y2OPFvb1JSkmjWtKbt8jsczFR38r6YnBDpxj2czOB38p42a1rzLztCmubkO+nkM/dLQUExV93wtqPhrt2Gm4hH7FEC4J8znRS+ccgxpuLwRY6DbsPate1PRisrJ0sLnXSJ7nJQto4H70vdOvbfl5wc+w2dk/e0toPJi2W+h4P3fufO8CUAt9z+PjNnr3ZazQQgfEeAxhH3+lFlfxoDtgdr27au42qXpheczBr2Yv/0++48hasvs7dZTKsW9ntmHL0v1TJtly2r6tXt3yM3z/5ryy+wX9bpRkZlUSnL/n4ABYXON4/y0nvjpvP8K0aOqH7QRCVinxIAfzhaPHzx+UeYiiOUIh4ch9CmVR0jG+mIGaee2J7mNodlnPRalNUyBzta/vkAoiD7ZdoKLhsy0kRVPwFfm6hI7FMC4I9T7RZMT09xvFmNSNjUq1vVlWV8pnz06WzbZWtkZxmMxD3zF66n34DnTJ3cGZe7m4aN5gB4LwuwvR3Z8ce2IdtBN6yImPXeuOlMn7nKdvnGjbINRuOO5Ss2c9IZz5ratOgzrM1/xGdKALzXk71v/VsmZzpYoy4iZi1YtIGrb3zbUR3t29YzFI07VqzcwnGnDXN62E+pQqztzyUANATgPdvT91NTkzmhbxuTsYiITRt/30m/Ac+zdVuu7TrS01PocsjBBqMya/GS3+nb7ykjpznu9hSwwFRl4owSAO/Z3qi9d88WnsyAF5H9y8sv4qxBL7Fsuf0NigB692hBhQz7Z0+4adHijfTtNwyDB5HNB+42VZk4pwTAWxmA7QPaTRxjKiLORKMxLrpyBFN+Wea4LifbTrtp4aKN9O33FOvWbzdVZTFwAWC/u0SM0xwAb3XCwfi/EgAR//3zXx/w/gczHNdTrWpF/ubCiZYmXHfLGJONP1iz/n82WaE4pwTAW7b/tlevVpEO7YI9WUgk3r04fDJPDJtgpK4rL+lBZkXzJzeaMPz5wTSob/RciWCOcyQ4JQDeOtRuwa6HNiYpyf0NcERk7z77ah433PqOkbqqVa3o6Hhlt9WpXYWP3r3a5Jyj24AupioTM5QAeKut3YKHdg7uTGGReDdv/joGX/IaxcVRI/X9+57THJ046YXWLWvz7sjLyEg38vCeAryCegICRQmAt5rZLdi5kxIAET+sXbeNk8981tFphnvqe0wrLhrc3UhdbutxRDNefe48U72PHYGhJioSM5QAeKcaUN1u4Y7tNf4v4rWdOQWcdvYLxtbB169XjdcGZtZ3AAAgAElEQVReuIBIJDzDeWed3pmH7u1vqrrbgYamKhNnlAB4p7ndghUrpAV6H3SReFRSEuWCy183cewtAJWy0hk76nIOqhGOvf/3dMM1x3DJBUYOIcsAHjBRkTinBMA7jewWbNwoO1RPDCLx4KZ/vOfokJ89JScnMeKlC+nYvr6R+vzw1KMDOKp7UxNVnYuDCdFijhIA79S2W7CZzWNQRcSeJ4ZN4LmXvzNX30NncvIJ7YzV54fU1GTeeu1iE72REeAxAyGJQ9oJ0Ds17BZsUM9w938kjUiS3TqLiJUYORREJJA+/mwOt98z3lh9N1/Xh6su7WmsPj/VrlmZ11+8gOP6PUU0GnNS1dFAX+BLM5GJHUoAvGP7Mf6ggyqZjINIck1SsuxN6okVr6c4512j8YgExbTpKznvkuGUlJhZ7nd6v048cPdpRuoKip5HNuPqy3ry9AvfOq3qFpQA+EpDAN45yG7BGtXDN2lIJGxWrNxC/4HPsyu30Eh9XQ45mOHPD47LDbzuv7sfzZra/kkr1RcI5mEICUIJgHcy7RYM46xhkTDZsTOf/gOfZ8PGnUbqa9Qwm3FvX0nFCsHc6tepihXSeHHYIBOTk28yEY/YowTAOxl2C1YM6H7hIvGgqKiEAYNfZu5v64zUV6VyBcaOuoJaNc0O3QXNUd2bctbpjh/gzwbCuzQi5JQAeCfddsF0TdUQcUMsFuPK60fx9bcLjNSXmprM6BGX0LZ1HSP1Bd0Dd/Vz+vuUCgw2FI6UkxIA79h+jE9LUwIg4ob7H/mMN0b9ZKSuSCTCC0+dm1DHdjdqmM3lFx3ltBolAD5RAuCdZNsF43ASkYjfxrw/jfsf/tRYfXcMPZHzBh5urL6wuO3vxzs91rg12hjIF0oAvFNkt2BhYYnJOEQS3uQfl3DJ1W8Sizlay/5fA87owh23nmCkrrCpkZ3FeQO7Oq3mPBOxSPkoAfCO7bVF+ZtzTcYhktAWLNrAWYNepKCg2Eh9PY5oxivPnpfQ23Vfc0VPp69/ANYOgeIhJQDeKbBbMGfjDmIlZp5URBLZps059B/4Alu2mkmqWzavxbsjL0v4ibqtWtSm7zGtnFRRB+hgKBwpIyUA3rF9mPi2bbkUGVqfLJKo8vKLOOOcF1my9Hcj9dXIzmLc21dQrWpFI/WF3ZWX9HBaxfEm4pCyUwLgnS22C+7Io2jTLmKGuixFEk0sFuPyISOZ8ssyI/VVyEjl/VGX07SJ493w4sbxx7ZxmgwpAfBYYvdbeWuT3YKbt+dBDAo27CTj4GomY/JNcrL94b7CIvcToadf+JbvpyyxVfbSC46kTy97S8GcbBtbVOT+ZNGiQvvvvZPP3Knb7v6A0e9NM1JXUlKE11+8gG6HNTZSX7xITU3mpOPbMXL0z3arOArIAnLMRSX7owTAO5vtFly7cQcAJdsKKMkuJDkz/DsDZla0vS8S6ze4Pxzy0aezbW8O0+8k+0OZTpZTbdiww3bZslrn4B6ZmfY/cydeHfEDTwybYKy+f9/Tn/6ndjRWXzw587ROThKANKAL4PiUISkbJQDe2WC34Mr123f/W4yCVdup0KIGESd7A8QKiZXYy0di0e0H/kNlUCnLfmOwbr2ZGPZn7Tr793Dy2ipVsr1jNGs9eF/WOXpf7L82uz6fMI8hN482Vt/F5x/BjUOOMVZfvDm2dysyK6Y5OVBJCYCHlAB4Z4Xdgiv3+GGPFRZTtG4nafUq2w4kVrKR4p2jbJc3wckRx3a75stq4+87WbjYdr5GTQevzUnZKT8vo6QkSnKyO1N7ioujjsbQvd4bf978dZx38WsUF5s52vf4Pm14+vGzjdQVrzIyUjmsS0MmTlpkt4rOJuOR/dMkQO8st1tw1Ybt5Ob/bx+hos27KMkxc2SpX1o2r2m77K8zVrF6zVaD0fzRR5/OJhq1v+yyRfNa9ss2s/++bNqcww8/LbVd/kAm/7iEzVt22S7f0sH7Ul7r1m/nlLOeY/sO24tv/qBt6zq8+eqFpKToJ/NAjuzW1EnxLqbikAPTt9k7KwBbjyLRaIz5y/84h7Bg9TZiDhopv7VoZr8xiMVivDZyisFo/uh1B3XXqlmJqlUq2C7fonktRxuqDH/jR9tlD+S1N+3XHYlEaNbUfnJTHjm7Cug34HljSWKd2lX48J2rqFLZ/ueaSLp3beKkeAscHJ0u5aMEwDsFwCq7hecu2fiH/44VllC41v0xX7e0a1PX0Vj5E09NMHZ2+57GfTiTH3+2383d1eHM8MqVMhw9Kb815hdmzFrtKIa9mTVnDW+/O9V2+bat6zj6vMuqpCTK+Ze9zszZZt6DSlnpjB9zJfXrxcfqGy90PayRkyQ2CWhkLhrZHyUA3pplt+CMBX89q7x4Sx5FW8K5TXBKShJHdLXfVZizq4Chd441GBFs3ZbLP+4e56iOXj1aOI6jd0/7dUSjMW76x7tGlwQWFpZw7c2jHQ2L9OrR3Fg8+3Pzbe/x0aezjdSVnJzEiJcupGN7HVdfHlUqV6BO7SpOqmhgKhbZPyUA3rKdAPw0Z+9PNIVrtlOyK5zzAfr0dnZs6ltjfjG2vKu4OMp5lwxn6TLb2zUAON0OFYBjHb4vk39cwo1D33UcR6nrbx3jqFcE4NhjWhuKZt+eGDaBZ1/6zlx9D53JySe0M1ZfImnauIaT4gebikP2TwmAt2w/mvy27Hd27NrLcQIxKFi5lZgHm8CYdvaZXRzPWL/9nvE886KzVUN5+UWcf/nrfPn1fEf1HNKxgZGJbsf1aUP1as62l31x+GRuu3uco6f2kpIoQ+8cyyuv/+AolhrZWfTt7Twx2p+PP5vD7feMN1bfzdf14apLexqrL9E0beIoAVAPgEeUAHjL9lZk0WiMH2fufQpBrChK/vKtxo429Uqd2lVs75hXqqQkyo1D3+WqG0aRs7cE6QCWLttE7xOf5N2xvzqKA2DQ2Yc5rgMgPT2FAWc4nwz9+FMTOOOcF/h9U/k3Vtv4+05OH/gCTz79teM4BpzRmdTUZMf17Mu06Ss575LhlJSYWe53er9OPHD3aUbqSlRNGjvaIlljLh5RAuCtxcB6u4W/+nnf69+jeUUUrNwG4coBuOoyM09Zr7z+A60738MLr04if48lk/uyYeNObr7tPTp0u59fZ9iem/lflbLSTZyJ/l9XXtrD0bbApT75Yi6tO9/Dg499zo6d+Qf889t35PHAo5/RuvM9fPbVPMf3T0qKcOWljg+J2acVK7fQf+DzTjae+YMuhxzM8OcHG3nvE1ktB/tZoFUAntG33HvvA6fbKdiwTlVmvH31fv9MSrUKpDeoaqd6X8RiMQ7r+TCz5qwxVmdmxTSOO7YNfXq1pF7dqtSrU5W8/CI2bNjBwiUb+eyLufy4e9McU269oS/3393PWH0Afxv8Mh98NNNYfenpKfQ6qgXHHduaxg2zqV3L2kxq/YYdLF2+iS8m/MbESQspLDQ3nHRm/0MYNfxiY/Xtaeu2XI4+/knmL7SdU/9BdvVMxo2+kpo1sozUVx5161SNqyOFx7w/jfMuec1u8U+Ak81FI/uiBMB7NwOP2S3842uX0eoA3Wsp1SuQXr8KYfl4x388i7POe8nvMGyrUrkCc6fe6WgXv72ZOfv/27vvOKnKq4Hjv3unbGUbvVdBOiogIipYooKoYBf1hRhFY4v6xhYsiYklmmjURDFqYhdfRAUUUUEsKE0EkSLSd1mW7TO7s1Pvve8fDyiWhZ25d+ZOeb6fz3z8uO489wi79555yjlljBr3kKWJSiI5HCorP7mVQQM6WT52OKwx8bwnY+7XkGxWfHwrw4akz8z33NdWcu7VL8T69iXAOOuikZojlwASz9Si6ltLDr1RLVLrJ1Qe/4Y5VjlzwhBOP2Wg3WHE7O47Jlj+8AcYOrgLV0w91vJxE+W3Vxwfl4e/YRhcdcOrafPwTzdGUCMrbCppNbcDVmoxmQAk3hqgPNY3z1ncsnXZcLWPcEUDqbIp4O8PnENOtsvuMKJ2xNCuXB3HNe4/3TmRDu1i7/tgl44dCrnr9vFxGfvPf32PF19dHpexJbMMgmX1ZJvb9GlP28gMJBOAxDOAhbG++btdNaz5tmVrnqHKRoJl3pTIAXr3assjD55rdxhRyc/L4vmnL4tb8x2AosIcXnx2alyvYTVVVXjuyUvjUjp34aIN/PnBBZaPK1kjXONH84Vo9JvalJmahU1SUOrcVdKLqTvYC/O/avH3RmqbCOyoSYm+Ab++bDQXn2/NUbpE+NejF3J43w5xv84JYw7jjv89Ne7Xscpdt08wfbyzOdt31KTccddMoQcihMu9ADSaO5UR/XleKSYyAbDHO0DMbdVe/2B9VL9gWkOIwLYaDHPrcgnx9ONT4vbwsNJdt4/nwnOHJ+x6M249ncsutu6YYbxcdN5wbr/5V3aHISWYoRsEdtZ+n5z5/Ic+insQhz6vKllCJgD2aEIcdYmJzx9i1vvRFRXUm8L4t9agm/vFjDu328Frz1+e1PXXr5w2hhm3nJ7QayqKwpOPXsRpJw9I6HWjcfopA3nmn5eY6mYopaZQmQcj+MPx0cYmUx/ia00HJLWITADsM8vMm5+YtRwtyml9IxTBv7WGcHXsPd0TobAghw/mXc+YY0z1FY+La6efwGMPn2/LtV0uB7NfvpLzJh9py/UP5qwzhjLrhcvjWvFPSk6hqkYi9f4ffa2y1tQ9RiYACSITAPu8C9TH+uYd5fUsWLo5+jfqBqFyL4GddRha8q6lFhXm8M6ca5h81jC7QwFE98K/3X8Of3/gXFurxLndDl7891Suvzo5jkkrisKN157IrOcvJzsFT3FI5mj1fsJ7fn7keEuZqWe4uY5cUovJBMA+fuAVMwM8/MJSYt0PpXkC+LdUJfWSQE62i9f+ezn/euRC3G77Pll27lTEB/Ou57qrxtoWw4FUVeHh+yYz+6UrKC6y78h0QatsXn52Kg/eO0mWzs1Ami9EoMzzi/9ta6mpBMB8bW6pRWQCYK+ZZt68dnMF8z+NvRiKEdTwb6kmXNGQ1DurfzP1WD5f9HtGjeiZ0OuqqsK0S49h1ae3ceyo5FuOOHPCEFZ8fKstLWvPOH0wq5fezrmTkm85Qoo/vSlEcEcdNLMMuW13nZnhd5h5s9RyMgGw19fASjMD3PfcJ1HvBfgRQ9QL8H9bjdaQvKdvhgzqzMcLb+Tpx6fQtUtx3K937KjeLHnvRmY+djGtS5K3N0n3biW8+ep05rxyJQMO7xj36w3s35E3XxPX69a1JO7Xk5KP3hQmsL0Wo5kS1RXVjTTE0JnzADvMvFlqOZkA2O8xM2/etL2KF+a1vC5Ac4xQhMD2WoKlHoxIch4XVBSFqZeMYuOXd/P041MY2N/aB57DoXLayQP4YN71fLTgdwmfcTBj/yfy11/4TVziPmZkT2a/dAWrl97OhFMTP+MgJQfNt+9I8UH2Dy3/pszMJYLANjMDSC2XPu2nUtcs4C9At1gHuPeZjzl7XH+KLai8FqlrQvMGcLbLw9U6DyUJ13bdbgdTLxnF1EtG8dXaUl55fSULP9wYU1c4l8vByKN6MHH8YC46bzgdOxTGIeLEUFWFsycO5eyJQ/luSyWvvL6Sd99fz9p1ZehRzhKpqsKwIV0Y/6tBXHz+CPr0NtXfXUoDmjdAcFf9IYuKLV27y8xlNgIRMwNILZd8d/fM9Hvgr2YGuGLycP56g7UFWBSniqtdPs7WuSlxtnvPXi+ff7GVb7dUsunbCir2evA2BPB4A7icDvLzsygpzqVb1xIO692OQQM6MXpUL/Jy3XaHHle1dU18vmwrG76t4LstlZSW1VHvaaKhMYiiiJLGxUW5dOlcTN8+7RhweEeOOboXJcXJ15PllddX8sf7Yy6hcQiGKJttw8/6W69Np3+/+FeVjFW4spFQRcsajB077Rk2bKuM9VIvAZfG+mYpOsl/V88MhYh1r6JYB1BVhfeeuIwRAztbFtR+isshEoHinKScEZAkswzDILijDj2okd29CDVHHmkEQDcI7vYSqWtq0bfXev0cdtajUc84HeA64IlY3yxFR+4BSA4e4G9mBtB1g+v++g7BsHbob46SEdYI7fbg31RJaI8XIyRn6KT0sf/hrzUERbGsLTWEa1v2wEtnelAUDmvpwx9g0fKtZh7+AF+YebMUHVm2K3msBn4DxLzlvKa+iQZfiJOPjtORNd1AbwoTrm7CaAqjOFTUrNTfRmJoOpE6P6HdHjSPH0dhTkoseUjmGYZBcHsdWuOPd61r3iBGMIIjPzsDZ70MwjVNhHbUY0T5geKemR+ZOQLYCNwIJOcu5DQkE4DkEUIsyZxiZpDVm8oZ0Ksd/bq3sSaqZughjUi9n0itHyMcAUVFdam2rJ/GwtANdE+Q0N4GQmVeNG8AI6JjhDS0xiDOgky88WcWI6IT3F6L5vvlxlp6IEKkvgnF7UDNkCqHRlgjtMsTU7nw6vombnl0oZkZgPeBl2N9sxQ9mQAkl1XAhUBrM4MsXrmdSSf2p6hVtjVRHcy+WYFInZ9IbRN6IIKigOJ2JN2naCOkodUHCFU1Ei7zEPH4MYI/X84wwjqaN4izMBvFIVfJ0pER0ghsq0UPHGI5SzfQPAGMpgiOPHf6/jzoBqEqH6Gd9ei/8DvREi+9s5aFX2wxE8UTwAozA0jRSa47tAQwGXjD7CBHHt6RBU9chtuu5iyKgprjwpHrQs1z4ch1oyQ4FiMYQWsKo/lCaL7gj7qVtYTqVMnqUYya5qcEMo0eCBPYVocRie7nQVEUnG3zcLXNR3Gkz61T8wYJ7vH+YjIcjZOm/4fVm/aYGaIfEEODEylW6fNTnF4WA6a7vUw/ZwQPXG9qRcFSitOBmutEdTvFDEGWE9XtQHE5Yp5uNwwDI6ShhzTxz0AYwx9BD0aarVQWVcyKQla3IhyFCZhNkeJO8wQIlh76LPvBKA5VJAJtkrNORssYaN4QocoG9Cbz/UCWrtnFGTe8ZGaIdcAQ04FIUUn9HVzp6VrgK8DUR8+Zb6ykZ+cipp8zwpqoTDIiGppXQ+PnZUIVpwMcoKiquKmqCjgUFEVMuRrGvoe5ZmBohni4R3RLHvIHjdkwCOysx9UhH3e7PGTOnKoMwnt9hPY2Ig77mxhJ0wlXNBCp9uEqyRV1MlKlDbIhCvqEKhstbQT2yMufmx3C9KynFL0U+anNOFWI5Gys2YEWrdhG945FDOrT3nRQcaUb4uEe0THC4tO8EYigB8LiU30gIl4hTexM1nRiboUYS3iNIYymMA65OTDlGJpOcJeHiNVH+3QDzRciXOMTe1+cKqrbQTImiUYoQqTKR7DUQ6SuydJy32s3V3D3U4vNDnMN4r4nJVDy/aRK+7kRRwMHmh3I5VR59f7zOWlkL/NRZTjF7SC7WzFqbmbsCk91elOYwK46jJD19TF+ieJ24CzMxlGQjSPP3r0jRlhD8waJeAI/O+Zopf+5aw5zP95kZojlwCiLwpGiIBOA5DYSWIoFSzV5OW7m/WMKR/SLf8e4tKcquNvn42qbb3ckUrMMwlU+QhWNCZ0pOpDiUvclAlk4cl0o7vhOuBq6ge4PozeGiHgD6P4IZpc7DmXZulLGX/ei2T/iqzDZGl2KjUwAkt8M4F4rBmpTlMvshy5kaN/krTmeShx5brK6FsX9xi5FxwhrBMs8SdfeWnWqKHluHDku1Kx9G2HdjuiPFhoGRlhDD+nipEsgjO4LowfD8X7e/0hE0xl7xXOs3xpz3X+ABqAL4LUmKikaMgFIfiqwCAv2A4CYCXj+T5PlcoBFFIeKu2MrnCU5yF8nuxlEavyiXLW5crQJpThVcRJGARwKqCqKqoIq9i+gG+Kh//0emcTuf2nOU7NXcvvjH5gd5hHgJgvCkWIg71ipoTvwJSYLBO2X5XLw1IwzOXtsfyuGkwBHvpuszoUoaVAaORUZQY3gbk9c17qlH+ytaWTkpTPx+kz9eWvAYcB2a6KSoiXnLlODB5EATMGCBk6abjD3403k57oZObCL6eAkUVkuXOcHw8CR606ZksgHpeaC4o7tZVh3xOxgDMMgsreRQGm9bFKVILpucNmdc/h2Z7XZoV4DnrUgJClGaXCXyih3AH+xcsAbLhrFjCvG4kzXEqc2UFwO3B1a4SzOJpV/xVxF1xBr/GHPzLgnAZo3SLDck7Ad/pLw0POfcd9zn5gdRgMGAaaOD0jmyBmA1PIZMAALjgbut/ybMj5dvZMTR/SiVV6WVcNmNt1A8wbQG4Ko2c7UKRLzE47skcSaAOjBL4lXUzfNFyJUWk+4qhE0+9fCM8nna3dx7QPzrdiC8Arwb/MRSWak5p0ps80DTgS6WjVgWaWXWQu/4fAebejdtcSqYTOeEdaJ1PrRm0Ji13eKJQLJlgDowQjBcg/hPQ1Rt6mVzKuobuSc379mdt0fIACcA9Sbj0oyI7XuSBJABHgbmIRFmwIB/MEwbyxaT503wAlH9cQhq91ZxghpRGoD6P5wSiUCyZIAaE1hQru9hMq9GIfq3ifFRYMvyKSbX2VrWa0Vwz2ELP2bFFLjTiT9lB9YAJwHtLJy4C83lrPwi+8Y3Kc9ndoWWDl0xjOCEdEyuSGEoqqoWY6k3ixodwKg+UKEd3sJVZjvVNcSX3xdStf2hXG/TqoJhCJccNvrrNpQbsVw5YiW5yErBpPMkQlA6qoF5iOSAEtL0u2t9fHSu2vZvruOUUO6kpsty95ayQhrRDwBIp4AKKBmuZKyv4AdCYChGURqmwiVeghX+dATtLP/n68v5/I/vsWe6gZOGtkLh9wUC4gTQ1fe+zYfLNtq1ZDTgDVWDSaZIxOA1FYDfARcAFjer3b91kpeWfA1xQU5DDmsQzJ/WE1Nmo7WECRS7UMPRlAcKqpbJVlODiQyAdB8IcJ7GwmW1qM1BOPe5fFAT81eyR+e+BAQjW2++LqUU0f3kYkvoKDw6Vc7WfPtHiuGexdR2VRKEjIBSH17gA8Rm2pyrR7cHwyzYOl3fLh8Kx1a59OrS4lMBOJAD0SI1PmJ1PkxIjqKqti+VyDeCYDeFCZc7SNY5hFJUCAxtQMO9N95X3HLPxb+6GulFR7mfryJsUf1oE1xXsJjSiaKAqcc3ZvdlV7WbdlrZqgaYAKi9K+UJGQCkB7KEdn1ZCxeDthvT3UDsz9cz7ufbaakMJe+3VqjpFkmoOsGi1du564nF1FSmEOPTsWJD0Iz0H0hIrX7koGwBoqC6nIkfGLA8gRAN9AaQ0RqmsRu/iofelNYlLq1waz3v+GGh979xSNt9Q0BXv9gPQN7tcv4kzGKonD6sX2prPOZmQmYBiyzMCzJAjIBSB+VwFzgDCBuT67KWh9vLdnIW0s2UZCXxeE92qAm4fp1NOq8fp59azW/vX8eM99YxXe7anjro00M69eBXl1svPlrBnpTWMwMVPvQmkIYmo6iqijO+K9Rm04ADE3MbHgChCt9hHZ7iNT5xUPf5vP7by3ZyNV/mYd2kOQjFNaYs3gDum4wemg31DRLeKNhcibgGeCBOIQlmZS5P9Hpqz0iERiZkIu1zmfK6UO4dMIwenQqSsQlLWEY8Nmanbz07lrmfryJwC/sMs9yOXjunkmMH9PXhggPTnGoOHLdKLlO1FwXjmyX5UsGZioB+tY+QKShMSmb8sxZvIHpf55LJIp9Bicc1YOn7zyLdhm+JGAYcPMj7/Gft1e39C1rgdFAU/yikmIlE4D0lAu8hKgVkBCqqjByYBcmn9ifs8b2p11Jct4o126u4K0lG3lz8UZ27jl0HRKXU2XmjLOYNC75GycpDhU12ylqDWQ5UV2OH1rOxjBjYCYB8Cz9I4aWfCe9Zn+4nqv+Mvegn/yb0751Pv+87YyM76SpuB2hwec+Pr90d/3kQ3xrHTAc2JaAsKQYyAQgfanAXcCdWNBAKBoOVeGIwztxyqjenHx0b4b27WBbYSGfP8RnX+1i0cptfLhsK9vL66Iew6EqPHzTaUydeEQcIkwQZV/b2f3LBw7RblZBES1oDxQxMBSDVoNnxFynIBkTgFffW8d1D86P6eF/oHNOGsh9152ckbMBSparMbttwVHZvW/+DvgXcFUz3xoGxiM2KEtJSiYA6e8M4EXAtvn5VnlZjBzYmaMHdeHI/p0Y0KstHdtYWr8IgIims313Heu27GXl+t2sXL+br7+rIBwxf6RMUeCuK8bxuynHWBBpaig67l5QYssdky0BePSVL/jT0x9ZUcMegKJW2dw9fRyXjB+ako20AsEI2VG2rnbkuasUF4NaDb2nct+XFJpPAq4CZpqLUoo3mQBkhj6I5hsj7A5kv+KCHPp2b02PjkV061hEl3YFtCnKpaQwh5KCHNwuJy6nSl6OGxC7sgEamoLUef1U1zdRVeejtMJL6V4PO8rr+HZHNcE414i/+ryR3PvbkzKiVHLhMXfEnAB4lz2IoSf+WN9P6brBHU98yMw3VsZl/D5dS7h16nFMPnFASmyG3VXh4cH/fsqnq3ey7IUrW1zrwNEqa2urDsYQpdM9P13LVxGb/KYd8LV7gD9aErAUV8n/EytZxYX4xbwVefrDlFNH9+GZO88mP9dtdyjSQTQFwlx93zzmfhz/jrP9e7bl5ktHM/H4w3EnYa+HjdurePL/VjDr/W8I7UuSb5t2HLdOPe7gb1QUnIXZs1sNvfO8g30XP8wEPAbcYE3UUrzJBCDzHA88B/S2O5BUNrB3O169/zxZOz5J7dxTz5Q/zGb91spDf7OF2hXnMWXCUKZOPIJuHez92QiGNd5b+h3Pz/uKJV9u/9nyR262i1UvX9XscpzqdoQdBa5f5w+866UWXE4FpiA2Hyff0Q/pF8kEIDPlImYDbgSiWwiUvte6MJeZM87M+F3hyeaT1TuYdveb1Hr9tsWgqgqjh3RjwnF9GT+mb8KSgWBYY+maXcz/ZBNvfrTx+6Wz5lx02o9oTCUAAAfGSURBVGD+dfvEn33dkefe7cxyHpM7eEZpvGKV7CcTgMx2JPAkCaoZkI5UVeGmS0Zz27TjM2JfQDLTdIO/vbiUh57/LKoz/okwuE97jj+yByMGdmbkoM6WbYINR3TWbq5g5foyPl9bykertuPzt3zzpaoqLHpqGsP6dQBAcaq6o1XOk62G/OFaSwKUkpq8Y0kKcBlwH9DJ5lhS1phh3Xnyjol0aS9bKNuhvKqBK//8NkvX7LI7lBbp3K6A/j3b0qNTET06FdG9YxEdWrci2+0kP9dNXo4Ll9NBIBghEIrQFAixp7qRylofuyu9bNpRzead1WzeVUPQZMfE0UO78c7jl6C2ylrjym11Rm6/m3Zb9L8pJTmZAEj75QO3AL8DrD+jlwEK8rJ48IZfceGpg+0OJaO8vWQTN/1tga1T/qnuiotH/f3fryy72e44pMSSCYD0U20QicA1xKG7YCaYeHw/Hr7xtKSthpguKmt9/P7RhQnZ5Z8BtgIDgOQp3iDFXfKdV5Hs1gR8ADyLuBkMBHJsjSjFbN5Zw4vvrKVVnpthfTumXddEuxkGzHp/HRfd8X+s3VxhdzjpogTwAF/YHYiUOPLOJB1KHvBr4HpEQSEpCsMHdOKh3532/SYryZy1myu49bH3Wb6uzO5Q0lE9cBhQbXcgUmLIGQDpUMLACuAJ4FPAjbhJyOODLVBe1cCL76xh++46hvXrSEF+lt0hpaSqOh8z/rmIm/7+HmV7vfG81DeIPTAtK5GXXrIRCf+7dgciJYacAZBi0Ro4DzgfUVgo1RNJL2INNK7dfrKznFx17giuu3AUJQVyVaUlPI0BHn9tOU/NXhnV8bYYvQZMRZyGeQzRRyPTRIAhwEa7A5HiTyYAklkdgMmIzl/jSJ2Ng1uB+ftenyBmOv4E/IE4/17k57r5zaSjuPaCo2ldmCp/XInV4Avy9JxVPDFr+SGL2VjkfsTf/YFV7M4C/gF0T0QASWQ+8PPqQFLakQmAZKVsxIzAKcCxwFGIJYNkUAGsRCxjvANsaOb7piCam2THO6DcbBdTzzyCKycPp3tH25o1JpXyqgaemr2C/85bQ4MvmIhLhhAnXp5p5r9nI2rc3wa0T0RANjKANxBtxOUMQAaQCYAUTznAcEQXwsGIqcUBxP/hWgOsQ+xdWIF48EdTIeYYxI2wo/Wh/ZxDVTj92L5MP3c4Y4Zl2odNYfm6Mv4zdzVvfrTx+2Y1CbAHOBf4vAXfm4dIFG5BLIGlEwORFN8FfGVzLFICyQRASjQn0BXoAfRETK92QtxUWyPqEGQjkocDE4VGIIg4quQHAkAtUAbs2PfaDuwEGiyIsz3wKmJZI2EO69aai08bwgWnDrKsXGyyqvX6mbVwHc/PX8O3OxK+8XwpYh/Lnijfl4+onHkNIplNZX5E855HaX5GTEpjMgGQpOY5gHsR078J/V1xqApjh/fkrLH9GT/msLTZK+D1BXn3s83MWbyBJau2E44kvGa/gdjgdwvmit4owInAtcAEUuvUwEbgBUStjyqbY5FsJBMASTq00xEtlG05zO90qBw7rBsTxvRl3Ihe9OlaYkcYMdtRXs+iFVv5YPlWlqzcTjBxU/w/VQlMw/pjbq2Bc4ALgBNIzlMxe4DZwIuIJTFJkgmAJLVQW2AmMMnuQLq2L2TciJ4cd0R3RgzsnHQbCHdXelm2rpRl68pYsmo7W0pr7Q4JYCHiiF+8Swd2QOygPwkxQ9A2ztdrjg6s4YeTLqv48QkHSZIJgCRF6dfAI0DStP1rV5zH8IGdGda3A/16tKF/z7b07FyM06HG9bq6brCzop71WyvZuK2KDduqWLG+jPIqK7ZgWMYL3IpI3hL9AFQQG1/HIVpvDwX6E5/lgmrEA/+LA171cbiOlEZkAiBJ0euMqIx4tt2BNCfL5aBH52K6tCugW4dCurQvpH3rfIpbZVNckENJQQ5Zbuf3bWcVBRRFQdcNQhGNJn+YUDhCrddPrcdPrddPVa2Pskovuyo8+171BILmWtHG2QJgOlBqdyAHcCP6a/RD/Bx13ffqiKhAmIs4ceAGVMQn+UZEnYoGYDdiKaNs32sTsB5ZvleSJCmhJiFuwoZ8JdWrArFTX5IkSZLipgB4EHEs0e4HX6a/QojlmcKD/o1JkiRJkoV6A3Ow/yGYqa/3Sf1z+ZIkSVIKOwH4DPsfiJnyWgGc3KK/GUmSJElKgNMQDye7H5Dp+lqPaEIlNzJLkiRJSUdBtJT9BPsfmOnyWo548Mf3jKMkSZIkWeRoRCU2Dfsfoqn20oH3EIV1JEmSJCkl9UL0nt+L/Q/WZH/VIXb1943pT1qSJEmSkpAbUTv+Q+SswIEvHbFkcjmiKI4kSZIkpa1OwA2I0wM69j+E7XhtAO5BHKeUJEmSpIzTB/hfYAmi/KvdD+Z4vTRgGXA78vy+JNlCHqGRpORVgjhO+CtgLNDd1mjM2wMs3vdasO/fJUmyiUwAJCl19EQkAmOA4YhPzk47AzoIHdGoZiXik/6Sff8uSVKSkAmAJKWuXESb2SMQycDhiHaz7RMcRw1iDX8j4iG/FtF/3pvgOCRJioJMACQp/RQjlgu6At2ALkCHfV8v2ffPAkT7WYAsfthx70c0NgLwAR6gFnEkr5YfWtHuRLTZ3YVIACRJSjH/D5rWU2wIGPZNAAAAAElFTkSuQmCC;" vertex="1" parent="1">
          <mxGeometry x="897.5" y="60" width="80" height="80" as="geometry" />
        </mxCell>
        <mxCell id="HLB04OiPP8K-Rc5S-tSk-4" value="" style="shape=image;imageAspect=0;aspect=fixed;verticalLabelPosition=bottom;verticalAlign=top;image=data:image/png,iVBORw0KGgoAAAANSUhEUgAAAgAAAAIACAYAAAD0eNT6AAAABHNCSVQICAgIfAhkiAAAAAlwSFlzAAAOxAAADsQBlSsOGwAAABl0RVh0U29mdHdhcmUAd3d3Lmlua3NjYXBlLm9yZ5vuPBoAACAASURBVHic7N13mF1ndej/77tPnyaNerMlq1hywQ2H0HuoISGYBG5ygcAlcEnuDST5JYEQkkDgJrkhlFxCLoQWCDeYjgHHYBnbcsVFrioz6jPSaHpvp+31+2NLQR5Gmpmz3/fsfc5Zn+fxY7DmrL00c+bstd+yXoNSSqm6Iz1HLsYvvwn85yD+dqS8BpEmRBKIeCBgPMHggynjeZPgncJ4BzFyF9nkv5qVO8aj/nsod0zUCSillLJD+g+/gmLpzykVrsUvN4WLZiCZHMYkf4pJfths3H6vnSxVXGgBoJRSNUzGT66klHgbyJuBKykXoDAb/IPYu1AiOUoi9U2yiT/SkYH6oAWAUkrVIJnoXUOh/LsY8x5g2c99ge9DYRoKMyC+vQsbzyeZvplE8m1m/Y4Be4FVtWkBoJRSNUSOHcvSln4vxvwpkF3wBb4P+amgELA5IuB5Pqns51h/6buMMRYrDFUtWgAopVSNkKGeV2D4FLBtyS8ul2BmLPi3TYnkGInUW8zGXd+zG1i5pgWAUkrFnIgkGen9MMifEOZzW4D8ZDAiYJWBdPZGs3HXGy0HVg5pAaCUUjEmIz2bgW8g/IK1oMVCMBpgc20AQCJznHT6F8267f12AysXtABQSqmYkqHTV2DkFmCT9eB+CaZGwS/bjZtITLG8+TrTtq3TbmBlmxd1AkoppX6eDPU+EyN34uLmD+AloaUdEkm7ccvlZkamnpDeQ8+0G1jZpiMASikVMzJ4+hl4chvQ4v5iZZgagbLlkQDPK5HIXm827XzMbmBlixYASikVIzJ0+nKM7AFWVu2ifhkmR4JiwKZEYpZkcpfZcPkJu4GVDToFoJRSMSETvWvOzPlX7+YP4CWgeZn9R8JyOUvZ3yuyL205srJACwCllIoBEfEo+l8BLookgUQKsm3245aKKzhpbrUfWIWlBYBSSsXB6Ok/A14WaQ7pHKQWbi64ZKX886V7/5/aD6zC0DUASikVMRnuvRL8vUAq6lwQHyaG7a8H8Lwy5daNZuvWPruBVaV0BEAppSIkIgb8TxGHmz+A8SDnYPOB7ydIz3zffmBVKS0AlFIqSqO9bwFeEHUaT5HKBmsCbCsVfkFOHfxV+4FVJbQAUEqpiIhICpG/ijqPeeVa7ccUoFz+J/uBVSW0AFBKqaiM9vxXYHPUacwrkYKkg9175cJG6Tn8WvuB1VJpAaCUUhEQEQ/Me6PO44IyTW7ilvMfcxNYLYUWAEopFYWxUy9CuDTqNC4omQnODLCtVLhE+vfvsB9YLYUWAEopFYWy96aoU1iUVMZN3Lz5oJvAarG0AFBKqSqT3t5mDDdEnceipB00BgLwS7/sJrBaLC0AlFKq2tLlF1ONk/5s8JJupgH8UqucPnS5/cBqsbQAUEqpajPmRVGnsCQudgMAlEtvdxNYLYYWAEopVW2CFgAAItGefdDgtABQSqkqkt7eZuCqqPNYEhddAQGkvNVNYLUYWgAopVQ1ZcqXUmufvZ4X/GNbuZwTEQcLDNRi1NabUCmlap2wM+oUKmJc3KcFeo48w0FgtQhaeSmlVDUZbwci0Vx7choOHkFOD0C+AC05zKYNsHMLpBYY5vcMWD4hOFB6HnCvi8jqwrQAUEqpqpL2ql+yUER+dBfctxdKT72LC0BzDvPS58KzrwVj5o9hEm5yE9a7CawWogWAUkpVl4Nj9i5gchr5/NfhVN/5v2ZqBvnerXDsJOY3f3n++X7vPIVBaP5yR4HVAnQNgFJKVZOY6hUA5TLyr9++8M3/XI8fQL7/k/P8oaMCwHjL3ARWC9ECQCmlqknE0ab6efz0MThxammvuXcvdM3zmvNNDYTll3NuAquFaAGglFJ1Su5+sIIXCXLPXvvJnJerykItRAsApZSqR4MjMDha2Ws7jtrNRcWSFgBKKVWPhiu8+QNMz8Js3l4uKpa0AFBKqXoU9gY+M2snDxVbWgAopZRSDUgLAKWUUqoBaQGglFJKNSAtAJRSSqkGpAWAUkop1YC0AFBKKaUakBYASimlVAPSAkAppZRqQFoAKKWUUg1ICwCllFKqAWkBoJRSSjUgLQCUUkqpBqQFgFJKKdWAtABQSimlGpAWAEoppVQD0gJAKaWUakBaACillFINSAsApZRSqgFpAaCUUko1oGTUCSilAnd2yfMR3lYW/xdKZbOp5NMigieAAIkEftIwm/AYThizP53gq+mN/Pv1xhSjzl0pVXu0AFAqQvv6Zd3gDJ8qlOUV47PSHPxXM+/Xlst4ZWgCmkA2AS9LHOGLPzlWfrI55f3ZL24yP6xa4kqpmqdTAEpFYN+YrDgwWP6bhCedyzJyg2doriRO2cebKpqrBqblB7uP+afuPiG/YTtXpVR90gJAqSo7MCCvSRTlcYN5L9CaTcLGVtjQCskKfyMFmCmyYaQgN95x3H/koR5ZZTNnpVT90QJAqSo5dkyyBwfLnzdGbgI2zv3z5hRsboOmVIiLCEwUuGZoVk7e1S2/FiKSUqrOaQGgVBU80Sdr861yD5i3XejrPC8YCWjPhbteoURmYla+dfdx+f/CRVJK1SstAJRy7HCvrEklZDdw3WK+3gCrcrAyZBFQFsxoQf7+7i75ULhISql6pAWAUg49Pirt5aT8BLhyqa9dkYPl2XDXF2B0Vj6w54S8L1wkpVS90QJAKUe6uyWXLsv3BK6oNMbqJmjNhMtDgPG8/K893fL2cJGUUvVECwClHBCRxHRO/g3heWFjrWsKuTCQoAiYzMtn7u2Sl4fNRylVH7QAUMqBziH/EwKvsxLMwPoWyCTChSn7eGN5/wd3dsvTrOSllKppWgAoZdmBgfJfCeZ/2IzpGdjYBqmQRUBJTDJfkJ/e2y0/tw1RKdVYtABQyqKOAfkdY8xfuoidMEHDoMT8nYIXLV8mN12SJ+4/JG12MlNK1SItAJSy5MCAvEaMfNrlNVJn+gR4IYuAmSLtU0l5/HYRPQ9EqQalBYBSFnQOyi8aI/9OFQ7YyiaDNQEmZBEwXWQzJ/wH7GSllKo1WgAoFdKhIbncR26Gyg70qURTCtZauNpkwVx7xwn5XvhISqlaowWAUiF0DMrGssgtwIpqX7s1DSubwseZyMuv3N4lnwofSSlVS7QAUKpCBwekVYz8ALgoqhxWZGFZyG6BAFOz8nt3n5Q/CB9JKVUrtABQqgIPiaQw8g2Ea6LOZXUTtKTDxRBgbEb+4e6j8itWklJKxZ4WAEpVoGXI/yQQi656BljbEiwODMMXzKQv39JGQUo1Bi0AlFqig4PyfjDvijqPc3kE2wNTIX+jiz7J2YLc/1ivrLGSmFIqtrQAUGoJOobkDSB/HXUe80kYOz0CCmWa+qfliZtFQh5DpJSKMy0AlFqkzn55voj8K8GoeyylE0EREDbB2RJrMsf9R6wkpZSKJS0AlFqEzkG5zPfku0Dsn4pzyWBNQFjTRXPZnSfkpvCRlFJxpAWAUgt4ok/Wnmn00x51LovVmoaVOQkdZyIvr9lzXD5mISWlVMxoAaDUBXR3Sy6dkO8CW6LOZalW5AytIccrBBgvyB/c1SW/ayUppVRsaAGg1HmIiDeVk/8n8Myoc6nUuqagbXAYAkzk/U/tOSEvsZKUUioWtABQ6jw6h/xPAK+NOo9QTHBwUCZkj4CyGDNV9G++s1cusZOYUipqWgAoNY+DQ/JuwfzPqPOwwTOwoQWSIX/bS75J56f8R+4ekFY7mSmloqQFgFJzHBiSlyPy0ajzsCnpnTlCOGScfNksK0zIXhGJ7VZIpdTiaAGg1Dk6B+UyI/I1IOSgefxkk3aKgKkS2+88zs1WklJKRUYLAKXOODAuKwW5CVgedS6uNKdhRS58nImivOLO4/U1SqJUo9ECQClgn0jaFORbAtujzsW1FbmgT0BYEwX5o7uOyVvDR1JKRUELANXwRMQkhvzPAS+IOpdqsXF6oACTvvzLnm55hpWklFJVpQWAangdQ/wZmDdFnUc1GYIzA0LvDCiTmC3IHQ/0yzoriSmlqkYLANXQDgzJDXE93c+1xJntgWFPD8yXyY1PyV4RqbuFk0rVMy0AVMPaPyDXmZif7udaJgnrLOwMmCmy/o4uucNGTkqp6tACQDWk/QOy3jPyPaA56lyi1pyCFU3h40zmec5d3fKZ8JGUUtWgBYBqON3dkvOMfBfYFHUucbEiC8uy4eOMzcg77uqSt4WPpJRyTQsA1VBExExl/S8CsV+5XvShawp+OgAHRmGq5PZ6a3KQs7AzYLwg/3Kv7gxQKvZ00Y5qKJ1D/kcw5g1R53Eh+0fgy51weBwK8rP/boD1OfiljXDDVgcXPnNwUPd4UHxUyvfxJgpy+55DsuX5O8yAvQSVUjbpCIBqGAcG5DcF876o8zgfH/i7R4X3PQj7x55684fg6bpnBv71MPzOHjg9bT+HhAfrW8PvDCiUaSok5ZGviyTsZKaUsk0LANUQOvvlGmPkX6LO43zKPrz3frin3yALfzl9s/CH98HRcfu5ZBJ2zgyYKbJxzQm51UpSSinrtABQde/AuKz0jXwbsLDW3Y2/fgQOLvFmPlWGP38Ihmbt59OUgpUWvlsTBV501wn5RPhISinbtABQde0hkZQpyDcxXBJ1Lufz+YOwd6iy106W4E9/CnkHCwTbs9CWCR9nNC/v3tMlbwwfSSllkxYAqq61DPmfBF4YdR7n88MuuKkrXIz+PHzgITv5zLWmOWgWFNZUXr5y33G5LHwkpZQtWgCounVgUN4C5l1R53E+jw3B5ztY1Jz/Qg6Ow8cetxBoDkPQLjgRckFASUhO+v59jz0mDd94Sam40AJA1aUDQ/Jsg3w26jzOp28GPvIIlGzc/c+4oxe+dthevLOSXrAoMOyqwNmSWTa83L/PSlJKqdC0AFB1Z/+ArDciXwcsnHpvX9GHHx0zLHPQheNrx+Cu0/bj5lKwOhc+zmTePO2uE/Kv4SMppcLSAkDVlWPHJHumze/GqHOZjwh8/6ihZwq2NhnaLBcBvsAn9kHHqN24AMstLQocy8ub95yQ3wkfSSkVhhYAqq7kW/xPEeM2v7d1GzpHgv9tDOxqNuQst8op+vDBvW62B65phqyFdsFTRfnn+7vlKitJKaUqogWAqhsHh+Q9GPPfos7jfB4dgIf6nvrfkh7sajEkLR9IPFmCP30AZkO09J2PIVgPEDbfkk9iouDfvW+ftFhJTCm1ZFoAqLrQMSgvQeTvo87jfI6OwY9PzH/XzHlwaYsJ3Xlvrv5Z+MsHLQclKFrWtQQjGGHMlk1rX5N/j52slFJLpQWAqnn7R2SzIP9OTA+3GpqFm44a/Aus+F+ehC1NtksAODAGn3rSelhyKVhlYVHgVNFcdecJ+VL4SEqppdICQNW07m7JeWX5NrA66lzmM1uCb3QaZhfRqW99BtZaWGQ316098L3j9uPaWhQ4kZe37OmS3w4fSSm1FFoAqJo2lfW/BFwXdR7z8QW+c8Qwml/8a7bm7G8PFOBLh4I1CLZZWxRYkM/tOSGXW0lKKbUoWgComtUxJH+IMb8RdR7n8+MThhNLPODHGNjZYsha/s0sC/zN49A7Yzfu2UWBiZD5lnwSs2W57/Z+XRSoVLVoAaBq0oEheZaI/E3UeZzPg72VP3EnDVzWYkK3351rpgx/5mBnQNKD9c3hFwXmS7QxJXfZyUoptRAtAFTNeaJP1hqRbxDTTn/HxuAnJ8PdDXOJoAiwvSxwMA8feMByUCx2CixyzR1d8oXwkZRSC9ECQNUUEUkkE/JvxLTT39AsfO+oQSz0+G9LwiUOdgZ0jMP/ecJ6WJZloc1CSTY5K2/d0y3/NXwkpdSFaAGgakrHsP83Bl4adR7zWcqK/8Val4G1DsY5dp92szNgdQtkQnY2FGBqVr54Z7fssJKUUmpeWgComnFwQH4FMf9f1HnMp5IV/4vl4swAVzsDPGB9K3gWjg8uFv17RSSWvR2UqgdaAKiasL9fdmDky4Q+lNaNSlb8L5YxsLPZkHawM+BvH4cByzsDUl6wPTCsmZJZdUcXPwgfSSk1Hy0AVOx1d0vOeHIjsCzqXObzSL+bPfbnSp05M8D2L+x0Gd7/IJQt7wxoTQdrAsKaLMjL7z4pfxA+klJqLi0AVOxN5/x/NnBt1HnM59Qk7O6uzqBESwK2Ndu/Vu9scHqgbWty4ZsEITA+Ix998JTE8uevVC3TAkDFWseg/J5g3hJ1HvMZL8C3DxnrT88XsjoN6y08Wc/16DB84aDloCY4NChsk6Cy4I3m5fbbRRz8zZVqXFoAqNjqGJRnCPIPUecxn5LAdw4bpiyu+F+sLTlDW8p+3Ju64d5euzFTHqxtDr9wY7bEMnNCbrOSlFIK0AJAxdS+MVkhyI2Ag+NxwvvRccPpqWiubYBdTfbbBfsCH38Suiftxm1OwXIbTYIKPPvO4/Lh8JGUUqAFgIohEfESRfl/wJaoc5nPA73wxGC0OSS94MyAsNvt5sr78BcP228XvDIHTSFHLQSYLMmf3XlUnm8lKaUanBYAKnY6hvwPAS+POo/5HB+H20O2+bWlOQE7HHQKHHLQLtgAa1uCwiUM38fMIv/x0BGJ5Y4QpWqJFgAqVjoH5NVg3hd1HvMZy9tr82vLyjRscLA0rmMcPnvAbsykCU4ODLsgoFCiacLTQ4OUCksLABUb+4blYj9o9hO792XRh28eNswUo87k523OGdodLAr84Un4ySm7MbNJWGXn0KCn7emST4ePpFTjit0HrWpMt4skE2X5f8CKqHOZS4CbjxkGpqPOZH4GuLTZ/qJAEfjnA3Bswm7c9iy0WDjfYCIv7/ppl7w2fCSlGpMWACoWNgz5H8TwnKjzmM+9PXBgOOosLixhziwKtBw378NfPhx0DLRpTXOwRTAMX2C0KF97ok/W2slKqcaiBYCKXOegvFQw7406j/kcH4d7euKx6G8hzY46BY4W7C8KTJxZDxD2A6hQJtM/5f/USlJKNRgtAFSkDvfKGp94zvuPn1n058do0d9CVqfdHB98aAI+Z7lTYCYJqywcGjRdMpvv6JIvho+kVGOJ3Yeuahwi4pWS8hVgfdS5zFUS+HZMF/0t5JJmQ0vCftwfdMF9ljsFLssEBweFNTkrv73nmK4HUGoptABQkekc4k+Al0Wdx3xuPWHojemiv4V4BOsBUpZnA3zgE09Cr+Xjg9c0QypkwSLAVMm/8Z7DssZKUko1AC0AVCTO9Pn/UNR5zOfRAXjM8fG+rmU8uLTFhO7BP9eMD3/xYLAt0hbvzHoAEzLZkph0PiG328lKqfqnBYCqumMjslxEvgY42L0eTt803NZVG4v+FrIsCRdl3Rwf/NHH7MbMJOz0B5gqcvmdJ+Tj4SMpVf+0AFBVN+v7/4zhkqjzmGu2FJzwZ/PpNmqbcrDCQZl13wB866jdmMuzwcFBYU0V5N13dcsLw0dSqr5pAaCqqmNQfs+IeWPUecwlAjcdNYzmo87Evh0OmgQB/NsReNJyfwQb5wWUBTOdl+9/v0ea7GSlVH3SAkBVzf5huVKQv486j/nc1WM4OhZ1Fm4kDOxqMdjeGFAW+NvHYNLiTomEgXUtoY8LoODT0lSQ3VaSUqpOaQGgquKxXmn2fPk6YGGm164jY3Df6aizcKspAVsdNAkaL8IHHrQbM5eEdgvvkukCz7rzuPx5+EhK1SctAFRVZJP+PwGXRZ3HXGN5+EHMTvhzxVWToCOT8H/32425IhcUAmFNFuWDt3fJleEjKVV/tABQznUMyRsE85ao85ir6MO3DhlmSlFnUj2umgT9x0m4y+IoiiFYD+CFHLTwBa9Ukju+LuLgb61UbdMCQDm1r1+2i8hno85jPru7DP2Wm9rE3dkmQQnLswEC/J99WD0xMeXBOgutgmdLrFx9nO+Ej6RUfdECQDlz6JBkEp7cCLRFnctc+4drv9lPpTIe7Giyvx5g1oe/eDjoGGhLcxraMuHjTJbkNXedkDeFj6RU/dACQDlTXu7/LXBd1HnMNTwLtxyvj2Y/lVqRhvVZ+3FPzcA/PmE35pqm8K2CEZgq+J+//6geHazUWVoAKCcODMnLMObdUecxV0ngu4cNBcvn29eiLVlDq4WFdnPdfhruPGUvnjFnpgJC1mxFMakZI3daSUqpOqAFgLLu8VFpNyKfI/x2but+dLzx5v3Pxxi4tNmQdLAe4J8OQr/F9QDZJKy0MGIxWWTnni75WPhIStU+LQCUdemSfAa4KOo85jowDE8MRp1FvGQ82O6gP8BsGf7S8nqAdktbAydm5T13nZCnh4+kVG3TAkBZ1TEkbwd+Peo85hqehf9o8Hn/81mRgvUWFtrNZXs9gCHoEhh6ayCY2bL8SLcGqkanBYCy5lCfbBOJ3/Bq0dd5/4VsyTlcD9BjL17Sg7W2tgYe48bwkZSqXVoAKCtuF0mWEvJVoDXqXOb68Qmd91+IMcGhQU7WAxywux6gJQ2tFjoaTpXkhj3H5LXhIylVm7QAUFasH/L/ysAvRp3HXDrvv3hZD7Y5Wg9guz/AmubwpwYKMF32//3mIYldnwqlqkELABVax7A8F8x7o85jLp33X7qVKVjnYD1Aj+X1AJ6lUwOLvsnmJuRmK0kpVWO0AFChPNYrzfjyRbB+2mwoRR++rfP+FdnS5Oa8ANvrAXJJWGZha+BUgefs6ZJ3hY+kVG3RAkCFkkn4nxDYHnUec/3ohGFQ5/0r4hGsB3BxXsCn98OAxZ/LqiZIhyxWBJgq+P+457ist5KUUjVCCwBVsTPd/v5b1HnMdXAYntR5/1ByCdju4LyAGR8+uNdevLOnBpqQqZZ8kyyIf5uVpJSqEVoAqIocG5HlRuTzxKzb33gBbjkRq5Rq1so0rHWwHqBrCj57wF68bAJWWJgKmCmay+44Lh8JH0mp2qAFgKpIvuT/X2BT1HmcSwS+d8QwW4o6k/pxSZOhycF6gJtPwqMWT2NckQ3aBYc1VZL33tsju8JHUir+tABQS9YxIG/EmDdEncdc95w2nJqMOov64hGcF2D7g8IX+PsnYMpWsWYsdQn08aZn5Sd2klIq3rQAUEtycEA2iJFPRZ3HXCcn4F6LK8zVzzQlYHPO/rTKRAn+7lF78VIerMqFjzNTYv0dJ+Sz4SMpFW9aAKil8eRfgJVRp3Gu2RJ8/5jBl6gzqV/rs7DCQve9uR4dhpuO24u3LAtNqfBxpgry9nv65FnhIykVX1oAqEU7MCDvRHhV1HnM9aMThrF81FnUv205Q8rB+sovH4KeKXvx1jYTegujL5iJSblV9MAgVce0AFCLsn9ENhsjfx91HnM9PhC0+1XupbygP4BtBQm2BtpqFZz0gv4AYRXLNO8+wt3hIykVT1oAqAWJiPHK8hlidtDPSB52d+uWv2pangqmA2w7PQOfftJevLaMnamAWV+eeesReV34SErFjxYAakEHB3kH8PKo8ziXL/D9o9rqNwqbc262Bu7ugYf67cWzMRUAUPTlazoVoOqRFgDqgjoGZaMx8rdR5zHXnpOGHt3yFwlnWwOBjz9pb2ugramAspC69Sh3hI+kVLxoAaAuSEQ+ByyPOo9zdU/AA31RZ9HYmhKw2UGr4IkSfPhhe/FsTQXky/Lc24/Ja8NHUio+tABQ59UxJG/H8Iqo8zjXbCkY+tctf9Fbn3GzNXDfGNx42F48W1MB0yW5UUR00YmqG1oAqHkdHJANIvK/o85jrpuPG8YLUWehztqaM6QdfIp8/TictDTFY2sqwBfSu4+gBwapuqEFgDoP+RzQHnUW53pyEDpHos5CnSvtuTk1sOjDX1vcGmhxV8CLdh+TWI2KKVUpLQDUzzk4JG/F8Mqo8zjXREG3/MXV8lQwHWDb6Vn4wkF78dY2hT8rAKBQku+Ej6JU9LQAUE+xf0DWI/KxqPM4lxAM/espf/G1ucnQ7GCj3A+6oWPUTqxkAlZaOCugLGR/fERuDh9JqWhpAaCewjPyf4jZqv+9fXBsLOos1IV4BF0CXZwa+L8fh5KluYBlWcjZ2RXwyltPyHPDR1IqOloAqP/UOSCvBm6IOo9zjeThjpM69F8LmhJwkYNTAwdm4Z/32YllgDVNwb/DKhX8WyyEUSoyWgAoAA4NSZtv5P9Gnce5ROCHxwxFWyvBlHMbstCWtB/3ttPw6ICdWOkErLAwFVAS07z7qHwzfCSloqEFgAKgLP7fAZuizuNc952GkxNRZ6GWwgDbm42Vfffn8oGPPQlFS62f27NBIRDWTElu2HNaLg8fSanq0wJAsX9IngnmHVHnca7+abjntA7916KsBxc7mAoYLcLHnrDTAcqYoEGQjSwnJ/27LIRRquq0AGhwhw5Jxoh8nhi9F8oCPzhmKOvQf81an4HlDqYC7u033NtrJ1Y2GSwKDKssZsXuY/J34SMpVV2x+dBX0Sgv999vIFZDmHedMvRPR52FCmubg6kAAT61396BQStzkLLwKThbkj++t1tWhI+kVPVoAdDAOgZlF8b8SdR5nOvUJDxg6QlPRSvjwRYHXQInS/D3j9mJ5RlY3Rw+jghmPC/3LeqLjZWZB6VC0wKgQYmIJ8gXAAc93CpT8uEHetBPXVmbhnYL++7nemQIbjtlJ1ZzClot/BYUfS798VH5r4v4Ugt7EOqKhYkYVQktABpUxxDvBJ4VdR7nuq3bMJKPOgtl27YmQ9LBVMBnD8KopffL6iY7JwYWy/KFhU8MNG3hrxQFR7cLQ4ubwGohWgA0oCf6ZC3IR6LO41zHx+HR/qizUC6kPbjEwVTATBn+9lE7sRLGTptgX0jtPsoPLvxVsjb8lSLgObpdiKx0E1gtRAuABpRK+P9AjE76K/lwy3GDjvzXr9VpWOlgKmD/GNzSbSdWWzbYGRDWbFle9ZOjcvV8fybHjmWBzeGvEgHPwbYOAL+82k1gtRAtABrMgQF5AZjfjDqPc91x0lgbylXxtbXZkHbwifPFTpgozDEULwAAIABJREFUho9jgDWWegPkfdk97x+0Z64AHBybVAWeFzRQsM33m6Snp8l+YLUQLQAayD6RtDHyz9j5jLOiZxL26tB/Q0gZ2OqgQdBMGT5maVdAJmGnN0DJZ9XuY/LBn/sD37w4fPQIJdMOggow+WYHgdUCtABoIMlh3gtcFnUeZ5X94JhfXfXfOFakg+kA2/YOw12n7cRamQu2B4Y1U5Y/f6xXnrrJ0MgvhY8cIScFAFAuvdFNYHUhWgA0iH39sl1E3hd1Hue6r9cwOBN1FqraLmkyZCx/8gjwmYOQt9QgyEpN6uP1TnHvf8bs61uL8CIboSOTyroZPyyXni0iej+qMv2GN4hEQj5JjPbbDkwHh/2oxpM0sNXBroDxInzyyfBxJgvBSZQ2FMpy1W2H5DUApEpvARytpKsS40HSQesQKafo6fzv9gOrC9ECoAF0DMkbEF4VdR5nicAtJ7TXfyNrT8FKB6PJ9/TDY0OVv16AkVlr6QAwa+RGkUMZMP/TbuSIZByt1yuXPuAmsDofLQDq3KEhaRORj0Wdx7ke7Ata/qrGtrXJkHLQIOjjT0CxwuJysgAFS0cOn+X75E6cXnM3MTtuu2KJtJu1AOXCOuntjNUOpXqnBUCd8/H/AtgQdR5njeWDw36UShk3ZwUMF+Az+5f+OhEYcrAmJe35rE/PXG8/coRybW7WAhTynxGR2p4mqSFaANSx/f2yQ8T8j6jzOEuA/zhuKn46U/VndRqWO2gQdFsPdIwt7TWDM1C0/PQPcEXzBGmvzt70XgIyDjr4lkst9HT8m/3Aaj5aANQxz8g/EqPDfh4fCFr+KnWubU32jw0uE5wYuNjb7lQRRi3P/QNsys6wMVOnW10yTW6mAgqzb5Ceg4s5VEmFpAVAneoYlF/D8Iqo8zhrqgi3n9Shf/XzMh5c7KBBUP8sfLlj4a8rlKHXwZqU9mSRq1rqueI1kFsWjAZYJVDMf1FOH7rccmA1hxYAdai7W3Ii8g9R53GuH50wzFrao63qz7oMtDqY+b2pC05e4OZe9OHUBNabUbUlizyjbQSv3k+48DxobrdfBPh+kuLMwzJw5FK7gdW5tACoQ9NN/p9guCTqPM7qGIbOkaizUHFmCKYCbLeaLwn8zXlODCz6cHI8OIzKprZkkWe2jZCqt3n/8/ES0NRu/7TAcjnL9NSjWgS4owVAnTk8JBeJmD+OOo+z8mW4tUuH/tXCmhKwwcGKle5p+NbRp/63YtnNzX/ZmZt/3S36W0giAc0r7J8Y6JdzTE8/Lic7r7EbWIEWAHWnLPIJoHnBL6ySPScNkxZOalON4aKcIevgU+nGozBWCP53oQzdLm7+qSLPXNaAN/+zvAQ0L3cwHVDKUM7fLz0du+wGVloA1JGOQXmJwOuizuOs3ml4ZCDqLFQt8XDTJnjWh088Edz0eyahbHlqvjlR4hltI6RMg978zzo7HWAcFAGlwl7p2b/ZbuDGpgVAnbhdJAnyyajzOMsXuEVP+lMVWO6oTfDDQ3DjkZB7/ed5P2e9Ms9cNkKm0W/+ZyXOjATYXtBRLuUolR+VoUNtdgM3Li0A6sSGId4pcEXUeZz16AD0TkWdhapVW5sMSQdLR755HPww9+k5OSUQrm8bJec56CBUyxJJaFqG9XaB5dJypgt77QZtXFoA1IGDA9IKEpuDNKZLsEfb/aoQUsZNb4CywOcP24t3ddsYy5O6yGVeyQxkHSxHKhW2ycmDP7QfuPFoAVAPPP8DAmujTuOsW3XPv7JgbQZaHPQGODgOpyyMTl3aNMmGtIP2gfUk0wxpB6eQF2deJacO/qn9wI1FC4Aad3BULkHM70edx1ndE3BwOOosVD0wwLaccXLmzOdCjgKsTBXY0aRHWi5Kts3+9kCAUv5/Sc+Bp9sP3Di0AKh1Jfk7YtLvv+wHC/903Z+ypTkJaxy8u8eLsPt0Za/NeD7XtY46KUzqkjHBegDb3zDf9yiVd+vpgZXTAqCGHRiSZwGvjzqPs+47DUM6Iqos25wzpBzcbX90CooVVKtXtoyTadS9/pVKJCHTaj9uubicUwe/bT9wY9ACoEaJiDEiH8XNqdxLNpqH+0/HIhVVZ5ImaBBkmw985uDSXrMxM8N6nfevTCYHCQdnPxfzr5Hezl+2H7j+aQFQozoG+U3g2VHncdbuE4aSjv0rR1wtCDw2DccWOZWf9nyuaJ6wn0TDMNDUZr8/AAL5wldFRO9nS6TfsBrU3S05jHwk6jzOOjIKh8eizkLVM0PQG8D6OIDAlxa5IHBX02Tjtvm1xUtCOmc/rl9s43TnZ+0Hrm9aANSgyRzvAWLRErPsw23dOvSv3GtJwGoHCwInS/DjUxf+muXJIhdlp+1fvBFlW+yfHAhQnH2rtgpeGi0Aaszjo9JukNic9vdwPwzrlKiqks05Nx0Cd/dC6QLN/C5rnojHYpu6YNwsCPR9D5+v2Q9cv7QAqDGZsv9+oD3qPCDo+HdPj34squpJGdjoqEPgl47M/2dr03lWpgrWr9nQ0tlgZ4BtxcIz5eT+Z9oPXJ+0AKghHYOyUcT8btR5nHV7tyGvLdBVlW3IQNbyYXMQdAjsn2c0a6c2/HEj0+IgqADyBQeB65IWADVE8D8EOFhBs3S90/DkUNRZqEZkgC0ORgEE+FznU//buvQsbdrr341UxtUowGXaIXBxtINSjTg4IDtB3hx1HhB8UP74hEF025+KyIpUcGzwqOV781ABHhqE61cF/39bUx0s/PN9pFiEQglTKoFf5inndBsPkgkklcAkU5BJUbX2IulmmHGwhcj3PwNcbz9wfdECoFYY+Vti8vPaNwg9OiqqIrY5ZxgrivXW09/qCgqA9mSB9mSNzv139SA37Ub6h6BQ4Gy1vtD3SgCMwWTSyNd/iPmNX4b2Nnd5pjIw64FY3l5ZLl4n3R0bzUU7F9jf0dh0BVcN6BiUZwhyPzH4eRXK8NknDJM6Kqpi4Mi00Je3H/fZq+HDV46xMTNjP7hLj+xDvvIdpHdg4bv9YhgPs+0izFtugO2OdtjNTkLewvGMc6VzXzcbd73BfuD6EfkNRS3s4KD/E+BFUecBcMdJw/0VHqKilG15H/aO2R8FWJH2ufvFAyRq5WiroRHkpttg/2FkahrGxp86zB+WAbNtC+Y9b4WVy+3FheDpf2IQ63OKJpE3W65ycBZx/dBFgDHXMSyvJCY3/4kCPNQXdRZK/cxEKejpb9uvbpipjZu/CPzkfuQfvgAHjgTD9y3NmPVrMU0W1wsLyOHj+O/5EPKtW+zFhTNrENJ2YwJIOSNdnW+1H7h+aAEQYyJifD8+LX/vPGkoaSdUFSMDBXEyjPmaDTXQ3WpyGvnc15Fb7oRS6al/5nmwsh3al2F1oLdURr75H8hffgJmLc4Dphw9qJvyu90Erg9aAMTYwWFeZ+DaqPMA6JuGfcNRZ6HUz5QFxhysRdncXOKKtpgvchkeRT79b3Do+AW/zLQ0Y9autN56VzqPIX/01zBq6XCkVMbBIUGAX3iaHDum0wDnoQVATImIMb58IOo8zrq9W7f9qXgZcTT8/8p1MX/67x9C/umrMDiyuK9PpzFrVoJn9wYrw2P4f/y/YNjGNj4DSQcHPfi+Ryb/DvuB64MWADHVMczrMVwddR4AR8bg+HjUWSj1VEMFNxXpC1fHeOvf+CTy+W/AxBL34aZSmDWrrBcBTE7j/9lHYcZC0eRiHQCA7/+Wm8C1TwuAGBIRD1/+POo8IFhIfLue9qdixhf7TYAAlqV8rloW0wKgVEI+/3UYqfCJO5WCFQ6OERkbR/7yk+HjuBgBACiVrnETuPZpARBDnYP8Boaros4D4LFBGKyxrdCq/k2WgzUAtj1nZZ5ETOtd+e6tcHogVAyTy2Jamy1l9DPS3YN88Zvhgniem9bAUk5ra+D5aQEQMyLiiZH3R50HQNGHu0/F9NNQNbTJ0sJfU4lfWBHTxX8HDsMDj9uJtawtGA2wTHbfDUe7wwVxNQ0gvMVN4NqmBUDMdAzyX4Aro84D4L7ThqmYfh6qxjZecjP/f83yGL7hS6WgyY8txmDal9mLd5YvyD9+KVyMhLN1AC9xE7i2aQEQIyKSwMRj7n+yCA/2Rp2FUvObdHAMdS4h7GyNYQFw98MwNGo3ZiaNydqfc5e+QbjtvsoDJOyPTADgl7e4CVzbtACIkc4hfhPYFXUeAPf2GIra9EfFUN6HgoP35q7WYvzm/0sl5K6H3MRe5uaQH/nOjyp/sedZ71kAgF9ukv59LfYD1zYtAGJCRBJCPPb9j+eDxX9KxZGr+f8dLY4Ch/Hwk0vf8rdY6RRk7A+5y9AI7H2y8gCeo0NPC4lXuAlcu7QAiImDg/wGsCPqPAD29BjK+vSvYmrWUUOqHS0O5hVCkodC3EgXo9nieQHnkB/cXvmLXewEADDyfDeBa5cWAHFh5I+jTgFgeBb2DUWdhVLnV7B5yt05NjfHbARgeBS6epxewuRyTs6ElUPHwa/wKcIkrObyn0RiMb0aJ1oAxEDngLw6Lj3/7zypLX9VvOUdPahvyMVsBKDzuP0jcufyPEzawcr7Ugke3V/Zaz1HBQBc7CpwrdICIAZ85L1R5wDQOw2di2wvrlRUZh1NT63LxqsAkCNd1bmQg3UAAHL/o5W90FUBIP4qN4FrlxYAEevol+dheG7UeQDsOWlq4QR01eDyDgqApoTQmozZu/9UdfbhiosRAIATpyp7nYtdAAC+3+QmcO3SAiBiYuR9UecAcHICjto41Esph3xx0wJ4WSpmq17LZRipzglcxkFXQACpOH9HtyURR5VO7dICIEIdfXI1hlhsTdmjLX9VDXB1m26J29P/6ERQBFSDqyfumQoPETGAcbEyUZwtLqhVWgBESDz/fThZg7s0x8agayLqLJRamKvbdGvcRgBm89W7lmfc3HDD7CV2kQ8SnLSq/pN+MyLS2SdbMeaGqPMAuOd05DWIUoviaAcgybj9ChSq3JLYxSiASOWFjKtKr6/PTeODGqUFQETKSf+9gKOOF4t3fDyY/1eqFsRsoN4dr8oViavthokKbzFORgCAwqiDU5BqlxYAETjcK2uMmDdFnQcEPf+VqhWuRgBc3W8q5mpl/vm4KACMF+LYYUc/aE+qOLcSf1oARKCY8H8XyEadR9eEzv2r2uLqPh271tdNVfx48H03BUAyxJo7VyMSG339xDuHFgBVduiQZIwx74w6D4B79Olf1RhXI+PT5Zj9LrS1hHh6XiJX1U9z3LbdG4y5ohB1FnGiBUCVlVfwW8C6qPM4NQknqrPNWClrXC3Wmy7FrAAwBla3V+VSUnSz4NCsqHC6XXA0JdE4S0gWSwuAavPl96NOAeBuffpXNcgzbqYBxksx/Ci8eENVLmPyjh6KL72kwhc6GpEwXpW3VsRfDN/19atjUF6C4eqo8+iZDPb+K1VrDJB08Kk1UvAo+vEqis22zVW5jhTcFADmuddX9kJXKz3xdAHgHJFvQ2ss8p6oMwBd+X+uVTlY2wSrc8KqJmhLQToB2USwg6ngQ7EM0yUYy0PftGFoBk5OwYw+T0QibcD2t16AoYIXrwOBdmwJqp2SwxWKpbKbngO5LGyr8PA9cfQz8NDHnjm0AKiS/f2yQ5BXRZ1H3zQcaeBfA2NgSxvsWC5sXQbLMxf++pQHJIOv29AMl60Ink58gdNTcGTMcHAYhmfd564C2QRMObhHnJxJxKsAaMrCru3wZKezS8j0tJO45prLKn+xX7KXyLmM1+MmcO3SAqBKPM9/T7AxNlr39zbmSphcEq5aBdesEdoXuOkvhmdgYwtsbBGetzFYULm333B41OEIpgIgZ+W3SJi7muDQRJLr2+O1SNxcfxXisABgqsJ+/RdkMK99eeUvd7UrwZgjbgLXLi0AquDxUWmnJG+OOo+xPBwcjjqL6kp58PS18Kz1QsbRUSCGYFRhS5swPBscrNQx3EBd66qsOWEI/939+WmwzskYfhxethXWrYbeAeuhZWYWSvafts2WTXDx+soDiKMRAI+9bgLXrsifSBtBqsjbgJao83igzzjrrxFHV66C/36V8MJN7m7+c63Iwmu3Cb+1S1gdt23QdSLn6Gd5OI4FgDGYlzzbTexRF/uADea3XxcuhO9oGkYSP3QTuHZpAeCYiBhj5B1R5zFbgsftP0TEUnMSXrdd+OVLhOYq9VKZa1MrvPVy4bkbpOpt3etdLuHmg6tjIoYFAMBVO2G73R0BMjXl5un/yu2wc2vlAUTcHINsPN9suPSA/cC1Labv+PrROcSLgUujzmNvPxTj1u7UgS1t8CvbhKYYvLM9A8/dCJuXCd85ZJh2NLLpimdg85mpjdZ00DF2OG84MhosJo2KIVgIOG35PjFW9BjIe6zOxOwXxRjMr74U+eSXglX7YZXLMDYZPs5cqRTm998aLka5iJPJM+MN2g9a+2LwMVnfBIm87W9Z4OH++n8MvXo1vHxz/J64L2qBt14hfPOQifTGuRTblsFLN8+3YFJ4/sbgFMndXYZBF2vIFqEtab8AAHh4JM0r1sVwS8faVZhXvwj53u7wsYZH7T9lG4P3tt+A1uZwcUqOFmEmkzr/Pw+dAnBoX7+sA14bdR5PDMJUne9Zf/FFwiu3xO/mf1ZrGn5rl7ClLepMFvas9fD6Sy+8W2JLG7zpsuj+Pssd9QS+e7DKp/AtxXOeDleF2F4HyPgEMmu/H4559tPhhc8IH6js6INKkje5CVzbtABwyPN4GxDRLHRAgIf6YnpXtOSFm4RnRH66wsLSCXj9DmFza9SZnN/lK+D5m2RR7XYziWDBo41tlUu1LOXmCN+7BiP4yyyBeeMvBw2CKiBT0zBm/zA8s20L5n9YOt3cRQHgGSHHV+0Hrn1aADgiIp4ReXvUeRwaIbJh2mp43kbhmSF2HFVb0guerjfFsAhIefCSixd38z8rmwxeU20JA60OdgP0ziY4MhXjmdGkh3nTa2HLxiW9TKZngqF/y8wlF2E+9G47wUpFR4cApXrNyh169Nk8tABwpHOEl2Oo9DQMa+r56f/KlfCc6pyXYlXKg9dvj+bJ+UKuXk1Fuya2LyeiUQA37+17BmL2g5krm8G8441w+bZFfblMTMLQiPU0zFWXYT78h+BZuo0UHa29SCR+4iZw7dMCwBHxo1/8NzgDXfZH/GJhQwu88pLabWqQTcKvbZeg1XAMGOC6NZV/P7dWePJrGCscTa7dORDjdQBnJZOYt9yAedULz38DFgme+m3v9/cM5ldeinnff7d38wcoOTqrR7yPuglc+2Ly8VNf9g/IeuDVUefxYJ0+/edSwT7/RI3/9dY0wSu2xKOI2bIsaGJUqWWZ6v89mhPBP7bdO5zh9GyVOkeFYQy88BeD0YDVK5/yR5LPI30Dwby/zUuuWI73F7+P+S+vsRqXUtFNAyAvOWI2Xfqo/cD1QQsABxKe/w4i3mI5W4L9Q1Fm4M7LLhJaIl1aac8VK2HniqizCPf0H6XVGftVoC/wvVM563Gd2XoR5g/eFowGpFMwNAz9Q1C02Hgik8b82ssw//TBcI1+zsfV038ydbObwPUhxqtdapOImI7h6Pv+Pz5Yn41/Lm2Hy1Yu/HWVKAn0T8HATHD8b9E3ZBNCawrWNod7Qr6Ql20WuiZMZMcLt2WCff9hjBeiGY5Zk4IuwPZb/Zuncrxz2+SSFkRGKukFowHXXY585bvw4BOQt3BTbW3BvOiZmF9/JSQd3S5EoOjmUCI8+XMHgeuGFgCWHRrgeXg4KJEXTyQ4ma7epLyg0Y9tJ8bhkYGgw93PF00/+z62ZWBXO1y/RmizuE6sOQkv3iT88Fg0P7PrVofvn3AsoiOmkx60p2HIcv+Y7ukEDw2n+YUV8TodcEFtrZjfexNGBO7Zi9z5AHKsC6ZnFrfC3hjM8jbYvhnzyhcFhxG5VsoHbSZtS6YPmfWXHbcfuH5oAWCZb/w3z3fSWDUdGYNRRyNqUfrF9XZ7+/dOwa1dhlOL7Io6nocHeoO1FdeshhdsFLKWfoOuXAkP9MFAlTsFJg1cvSpcjL5pGIqwed6atGGoYL8w/NapXO0VAGcZA899Oua5Tw8+jaamYV8ncqgrWBQ4MxOMEORykM0EnQZ3bIZLt0O2yvNrBUf7lD3v79wErh/195gYoWPHJJtvldPA8ijzuLHTRPZE5kpTEt51tZ1V877APT2Ge0+H23bclAzOHbDVDe/IGHyjs7q/kk9bBa8OuZvih8cMT0TYaV2Ax8bFemvgtCfsfsEgazOOTqdTUC7BpIPFSonkiLn4aTFYXRNvugjQotkWfo2Ib/4j+aBPe7151no7N/+SD986ZLinJ3zPkelSUGzt7Q+fFwTz8BurfGh02MV/syU4MGwpmQoZYGPWfuFU8A2fO6pnOjtVcDTklcz+tZvA9UULAIsM0S/+e7jPOGmmFaWUB1etDh+n6MONHYYjFkdHRODHJwz399qJd30VV+NvaIH1Ic9ueWwwKKqitioNTQ527t3Y3URfvga2BNYiv+xm8Z+XmjAbdnzcfuD6owWAJU/0yVoML40yh5LAk3W49e9pq4K+82GIwA+OGrodnIIKcGe3YZ+F7/3OFcHBQdUQ9ulfBB6JyWJTV6MAed/wuWM6CuBEftLJyb8kkjr3v0haAFiS9HgTES+q7BgOhmTrjY096vf3Qof9bqj/SYBbjoc/HtczcPUq96MAuRTsCjlDenQ8XotNV6Uh5+Bh/etdTQwW9KPSqnIJCg5WjiaSU2bTro/YD1yf9F1tiUEsHYdVuccH4vE0ZtOqXPBPGL3TsOeU++9N0YebjoafgrncUZ+Dc129KtgBEMbDMes0aYAtOfs5zfqGj3dWeXFGvcs76lGeSL/XTeD6pAWABYf65VoMV0WZw2geuhwNb0dpV3vIYWrg1hPVWxfRPw0P9YWLsSIbvui5EM/AtavDfUNG8nAshotN21OwwsEUyrdONvHAcA2cEVALSgUoOthemcp0mo07P2U/cP3SAsCCcsL/L1Hn8Phg/S3+g/DD1IdGWPQ+f1vuOW0ohNw5FvbvfSHbl8OykI2M9vbH9/12Sc5YPydCgA/tb4vFgseaJsCMg6d/YwQv8av2A9c3LQCsMDdEeXVf4MkI92G70pIK/yR8b0/1h6lnS/BwyK2BW1rd3V3Drqko+US6738hGQ8ucrAg8NBkki8c16mAUPKT4DtYqJTK/KvZsPOg/cD1TQuAkA4OyPVItK1/j47DeI02LLuQTa3hXt8zGcz/R+GRfoMf4j67vgUnpx22Z2BzyMZFTw7Ff7Hp+qybkwI/fbiZ7mndFliRcgnyDn4hvdQ4G3b9N/uB658WACGJ8SN9+gd4og4X/wFsbA73pPr4YHTfl/ECdIUY6UwYWBdyj/58rl8rodt/xmXr34UY4NJm+1MBM77hjx5bTtGP//cgVkRgZgzr+/6MJyTTrzfG6ORMBbQACMnDvD7K60+V4NBolBm4E6ZJjQCHI/6+dI6Eu0lssDzanPLgypB9/09OBL3/a0EuAVub7N+oHxtL8THdFbA0+clgBMC2VOYfzMZLb7UfuDFoARDCoX65VmB7lDnsHyTUUHOctYeY/++fhsmIjtc9K+x5DCsydn+wV1poqFRrp0yuTsNaiyc3nvXF4838uNfR+dD1pjjrZug/lXnEbNz1x/YDNw4tAEIoe9EP/+8brq0P5MVKJ4Jjcit1MgZbIkfywQhNpZZbvnFdF3Lr31QROmpwtOmSnLG+HkCA9+9r0/UAC/HLblb9J5JTpOX59gM3Fi0AQol29f9oPjjSth61h7z59U/HozDqC/Hzabf4gHlxK6wO2dH2kX4o1+BMq2dgZ7MhafnTbrzo8e5HlzNdjsd7LXZEYGoUxPKbxvN8ErmXmTVXxKDMr21aAFTowLA8DdgVZQ712Pf/rJaQPVdGIjyf/lwjIVrltlg8lv3pFvr+Pxbhosqwsgm43MGiwH3jKd61t52CLgp8KgGmR+1v+fOMkMj+ttm4/V67gRuTFgCVKkc//L9/qH4/dMI+rcVlW+R4vvKfUcIDY+FH3JKCHe3hYnSMwERMvqeVaknCrhZj/UPv/qE0f/jYMsp1uhanIjNjQcc/2xK595tNO79iP3Bj0gKgQsZEO/zfOwXDMXnKdSEd8p05G7ITny35EHkYgpX7YV27RvDC9v2vscV/57MsCZe2mNBbIee6tS/Lh/aHbLBQL2YngoV/VhlIZT9uNu38G8uBG5oWABU4PCQXAVdGmcP+Ol38d1bYAiAuc9XFkHmE/T54Bq5eHS7G4Eyw/a9erEjBJQ62B36tu4lPHm7w7YGzk65W/H/ZbLrsD+0HbmxaAFSg5PPqKK8vAgeGo8zAvXrZ2hj2yTvs92Fne/i1BA/3GSfHtkdpXQZ2NBsrUyzn+vThFj58oLVu3r9LMjMBedurkg2kcl8xmy57i+XACi0AKmPklVFevmuy9udjFxL2ydnG0LkNYdcyhP0+hF38VyjD/jotNlen4TIHCwO/cqKZ9zy6vHEWBorAzDgUHDz5p3MfNJt2vdl+YAVaACzZPpE08OIoczhYx4v/ziqEvPE1WVxBH0ZziDx8CVcArMmFP0/h8cFw6xjibnkKrmgxpCz/Sv2oL8vvPNzOZKnef1cFpsegMGM5ridksu80G3f+leXA6hxaACyRGeYFQGQTfSL12/r3XGGP010Wk6Pb21KVP4GHfvpfG3LrH7XR9z+sliRc2WbIWe7pc/9Qmrc8uILe2TptFuSXYXIYSiH2us7HJIqkkr9kNlz2WbuB1VxaACyR8f1Ih/97pqJvcVsNYbfxrQh5jLAtK0PkMRbiczWbhMtXVv56gBPjMFTHO03OlfPgqlbDasuF45NjKV5770ruHHDQjzhKpTxMDtnv759I95BN7zSbrrjNbmA1Hy0AlsgYE2kBcGi0/p/IAMYK4RbArQ95kqANnoFP5s5SAAAgAElEQVQ1IbrvhWkidNWq8OsgHu5rjPfaWQkTLAzc0Wyw+cw+UvB458PtfORgK6WY7E4JJT99psOfzd8xA+nMd8zFV2w063YdsxhYXYAWAEtwcFQuIeLuf50jUV69esp+uIWOm2KwG2tdc7ibcKUjAAa4JmTf//ECHAl5mFGtWp0OpgSyFqsAAb58vJk31/KUgF+GqZFgn79NXjJPpuV1ZuPlr7MbWC1EC4AlMCVeFeX1B2fqu/nPXIMh1hW1pcM9fduwbVm4m/DgbGVP4FuXw4qQ5wg80m8acyvbGc0JuKbNcFHW7ofkwyNpXnPPSr7a1VRDnQMlWOE/MWS5u5+BVGYvqfQms2H7dywGVoukBcAS+BFv/4v6fPtqOzUVbgh6Z3u0n7A7Q7bfPVXhg9a1Ibf+lQUeHwgVoi54wEU5wzXLDMst7ioZL3p8aH8br79vJY+OxmS7yvn4JZgcPXOin8Xfp0RqlEzrDWbT5U83G3YO2guslkILgEW6XSRphBdEmUNng8z/n3Uq5FlfV60K34inUhe1wKoQCwBnipWN9rRlYGvIjrT7h8IdY1xvsh5c3hKsDbDZX2L/eIrf/OlKPrS/jfFizD6KxYfZ8TML/Sw+9XtemVTuk+biK9vNhm3fthdYVSJm77r42jDEdUS4/W+yCKcb7PDLnslwCwFb0+Gfwiv1C+vCPS2dnKrseet6C33/G2HrXyVWp+G6NsMlOXuFQFngq11NvGTPKv7pcEv0hYD4QTvf8UHIz9h76PcSPqnsT8g0bzCbdr3HUlQVkhYAi+QLz4/y+odHrQ7A1YSiD10h1xs9e71Yb/e6kNVNsGN5uBhHKhjtSXnwtFXhrts3HWw1VfNLGFifhaefKQTSlt5b40WPfzzcwgvvXM1HDrYyWKjyR7P4QRvfiaEz7Xwtfdp4Xpl09vtkmtabTZe9xKzb3m8nsLIhGXUCtcIYeV6U1z823phPZQeHDVvaKv8wWt0EV6+CR6s4p/3Si8IVHb7AoQp2e1y2EnIhf6MfbLCtf5XyzhQCa7OG/jz05oVpCx0Tp0qGLx9v5lsnm3jDpml+/aIZtjY7nI8pl4JtfcVZrD5ieMk8yfRXMK3vNhs2OOgRrGzQEYBFEBEDPCeq6/sSNGVpRIdGwh+I84JNEvpAnMW6ciVsDjkHf3Kysjn460Ju/ZspwsGhUCEajkdwsNA1bYYVFt9jUyXDF44388q7VvFX+1dyYraJolj6uBY/aN07NRzM8RdnsHLz94yQzHSSavlds/lpWbNx5+/ozT/edARgEQ6OcKWBkH3VKtc7BbMNuihrqgTHxmBbiCH1XBJes1X4Wqex27tkjvYM/NLm8BfYV8FZDxtbgr4DYTw2CKVGm2eyaFnKMFy0/w28+XSK69ek2DfZyrrMLOsyeVYlC6S9JXQV8n0o56GQD/5tK03jCYnkcRLJr1EufdRcdHmdHh1Vn7QAWATP5/lRfi4eb9Cn/7P2Dhi2LQ/3E9jcBi/bLPzouJsh7kwCfm27kAnZ42W2BPsqeAq/LuTWPxF4dECH/8NodtTfZ/xM8e9j6Mnn6MnnMEBbqsjqZJ5VqQIrUkU8c857QCRYvV8qnvl3CWtP+SYxipfYi5f4GutLXzbmijo/m7R+aQGwCCL+86q+kuwcxxt0/v+so2PBlriwzW2uXQ1TBeHuHrvfz2wSfn2HWGk89MgAS24X25SEXSvCXffwGIxaPtOl0bgqAERg/yhcfs4omABjxRTjxRQn8pBNCMvSJZZ5BVYyTlNpkoRfwPhlKrvxG3wvQYkU0yZDa6J0Y0LK32Rj+Sa94dcPLQAWw5jIFgAWysGccCMTgQd7DS/fEv4J5rkboSkl7O6y0+muLQ2vt3TzLwnsrWAL3jVrCH2mfSXXVU+VMEHPgFkH/f6PTMBLNp25jhdcyzvz7+AnZ4AUBVKcphnOrEcYmoFyfpZcokSOEhlTJkmZpPnZikXBIy8J8pJkVhJMljNMyFNPRWpvMj997ibzTft/MxUlLQAWsL9fdoBsiOr6XRPhF8HVg8cG4Rnrg3n2sK5bA2ubhO8fNaGeei9th1dtEbKWfov29i39/APPwDWrwr1BRvM6zWRLc8JNAdA9BS0VnFSYTkCvn2UsZE7lMi8FPh4uioob3QWwAOPx7Civ36jb/+byBe48ae97sbEF3v404QWbhKYl3sDXNsGvXyq8bru9m/9sCe49vfS/3/blQfe/MB7qc7s4spE0J938vnZX2BjK1oFGpbJcZSeSihMdAViAh3+9EN1NOGwjnHrSMQwn18CmVjvxkgaetR6uXyt0jMChEUPXZLAd7lwGWJ6Brctg10rhIgf9IO85bSra6fH0kIv/Sj48qVv/rHG1DqAgsG8YrlziWo9UIpgmCHvwUKHMunARVBxpAbAAEXNtVPf/2VK4E/HqjQA3Hze89Qqx2pM95QX7969cGXxKThZhuhiMOiS9YJ4/7fAE11OT8HDf0l+3KgcXh+w58ORQ424xdaHF4fvk/r6lFwAAmWTwfg6jJCT3nJDLn7/Z7A8XScWJTgFcgIh4GK6O6vqnJtGh2TmGZ+GuU24rspZUcJTwuubgJuvy5l8W+I/jlS1IvHZN+LEpXfxnV8qDlKNv6f4KTwO1NU2F4QZLkVRMaAFwAYeG2EmEBwD1hDwOt1491Fc/i9Zu6zIVjfKkE8GoRRhdE9Cvfdqsa3Y0rnqqwp+VrQKg7PMiO5FUXGgBcAG+cF2U12/07X/n4wt894hhpMb3rT8xCHsrPBrlypWEbjqkp/654WodwEwZjlewJsheASCX24mk4kILgAswnn9tVNcWCY7DVfObLcF3DhuKDrZcVUPPJNwSoith2M5/k0XoqODAIbWwbNjzmC/g/goKxoQJ1rKEVSizOnwUFSdaAFyAiIlsBKBvhpq9uVVL/zTc2Fl7RUD/NHzj8P/f3p1H+ZVVh73/7vsbapJUGkqzSiqppZbUk1o9060eBI1poCF4IjgGY2Ob2OTZJi9OcAaHLBPHxHGC/YjDezax4ynYBGwwYIgJtKGNmXqm1ZqlVktqlVTzXPUb7n5/XAmL6pJUdc+5de6van/W6uVuL+rcLVXV7+x7zj77SOrK7C3LktoEF8/0WH+JrLRkWDNyMGXS5mMVoK5Ej5/Wu91HMnlhCcAVXLwB8NZQzz9rx/9m5cwIfPKoNMwlNn2TSdIy/ajhXLge/YsVnrW+/5nxdfZ+JqfH0n2d63bRd8V8v6eRTA5YAnAFxy6wDVgR6vlnR+0DerZeHIZPHEl3jn4+vTwK//OgMOYw+S8rww6HmxEh6acw146DZvbKknRozMLA1NzvigB/J1lqyh1+RjJ5YAnAFdSK4d7+Ac5bdfacvDgMf/CC0D8ZOpKZHe6H/3lYGHNMUm5drc73UtnRv+w1Z/TJWge+k6JxU5O3QsB4h5+RTB5YAnAFouwK9exqTMNXuIcwMAV/dEg4NhQ6kr9Xj5MWxp86Lqne3C5XiJKLf1z0TsBpKy7NXJZ1AM/2z/1ripGfD/u6iuNPoMkTSwCuQAiX6fZMWIFWWhPVZDvgU8fDbwn0TsAfHhS+fs7LTezsWsGc7y2Y7onz9vY/H1oy/GQ9mqIHhpC0BXZVrdP82El1vJjb5IW1Ar4CVdkeqgWwNWdxd6g/aaS0f5OyayXz+q2crME3uoVvd7v3YL+ca/HfZA0OWN//edFcEPykfa90LuXnQ7kAU/Vr/++uRoEiPAR8wW0kkweWAFyBCNtDvYT3jNtbmg/DU/Dp48I3z8GDm5Su9mwTgVoMT19IbvWb8Lz6sK4VNjj2pPxOrx0tnS9Z1QAADFYgZu7Lt74KAesRD2AJwIJgCcAMjvbpsrrq2lDPtxUAv7ov9gtY2Qy3dCi3rvbYH52k9uDZHuHZHrxP/JfcvtYtHVXgaTv6N2+yTABqCieH4bo5XgTlYwsAQOBGPyOZ0CwBmEEtZodrpXVaClywGwAz0T8Jf3NG+NrL0LkUti9XtrUnV/3OhWpyUdPxIeHEUJKwZbla1FyE3Slugbvci0Pk9oTEQlS+WHSX1YLLwYEUCYCnpKRe121+RjKhWQIwgwh2hFr+H5py36czV1eN4cQQnBhKsrzmYtJZb3UztDcppULSzKUgyf92spZ8T/omhb7JpJlPfR6X0vd0uLdyfdKO/s27UgRTGf2cHE9RCOgtAYD1fkYyoVkCMAMVtod6tr2lzb/JWtJR8MwIzG+54LWJJNf+uhieShIeM7/KGSYAZ1J0BCxESYMi1xNG9Zg5rj2YvLJjgDMQ4mAJgJ3/N5fbtmzuWxTTPXVB7FhpAOUMP137Un5OeDkKqJTsKODCYAnADBQJ1gNgaCpfb6AmLNfiv7rCc72egjFzUsrwV3k4ZTtpL9sACqWWsJ1SjR+WAMxsS6gHD9oKgLloRRNsdVxsfaEPxnN+R8JCVc7wWuBKDAMptgsLvj7xa+zxNJIJyBKAaS7eAhjs3mvbAjCX3LbGve+/Ff+FU874r/54ihtDvRUCxuFapRt/LAGY5oVhVgDlUM8ftCJAQ1L1f3OH2xgvj0J3yutjjTtfk+2VnEqRALieJvkuxY4CLgCWAExTqhKsAdB4zTq1mcRNq9ybFdmtf2FlWQQIcDZFwzBfCUBddaOfkUxIlgBMU1eC3XaVZk/PLEyuR/8mqsl9CCacrBOA3hQNw4qeckJVHNenTB5YAjCNROFWAIYroZ5s8mTTUljb6jbGM71Jy1gTjq/J9kqGUnxe+CoCrCtL/YxkQrIEYBrVsFsAxtzm+PYfKzxjff+DE5LGO1kZSfF5EQleel2p0uI+ignNEoBphDhYApDVRTKmcbSVYOdytzGODiYtpU14Wa4CpH1h8HEnUF3DFUobfywBmC7gCsBY1d7aFru9a9yXaZ+24r/cKGT4rUjbZtjHNkAcU1BVmz8anH0DpxMJVgRoWwCLmwjs6XBb/h+YglMpLoox2cjyA7au6RqH+UhKFHj8VLiXJeOHJQDTKatCPXo8ZXtPszDsXAFLHRdWv90tmV5NbOYmyxUASG6mnCtfdQkluxWw4VkC8EpLQj3YEoDF7XbH4r9qDAf6PAVjvMj6A3YgxUkAXwlALeCRaeOHJQDTScAEoB7qySa0jpbk+J+L7/TClP0M5Yq33vtXkObosGt76Uu0aL0AGp0lAK/UFurBVasBWLRuX6vOp7OetqN/ueOj4v5q0iQA3o4mxpYANDpLAF4pWAJgL2+LU7kAN6x0G+PUCPSkaA1rspX1CsBIim3DgvipElEJVy9l/HDsNr4gOfZgSydWUKveWpRu6YAmx1fFp87P79t/WxFWt8KqFmgpQrmg3219O1mDqbowUYOeiaRl7WLdmsh6BWAyxd+r+OgEBERYM6BGZwnAZVRVDvdp1r+zM6rZJUCLkuDe93+0mjT/yVJrEba1w7blypZlSQJwdd/7ZxqYgheH4figcGrYLr3yJdXnhq8agNiaATU6SwAu8yQUQ1UA1u0DcVHasgxWNbuN8dQFIc5g9UgEtiyFW1crO1e4FY+taIIVq2HvaqWucHQAnrggnElxpW0jyXpRL819D77WijSyBKDRWQJwmbVnKI4FWtSyi1sWp9vXun3j6zE82+MpmIsigZs64N71yvImv2NDcjZ+10rYtVJ5eRS+elZ40ZoXpRJ45bAU9OnGmSUAlxluohBk/R9LABajZWW4rt1tjMODMOaxf8T2dnioU+mYp0R4wxJ4207l5BA8dlq4kOKK28UsTQLg6xig2BZAw7ME4DIFX9UxKVgB4OKzd406H8l60lPxX1MB9ncqt672MtycbW2HrmXKN7vh8ZdlwWyJZf1rHaPMeVHfU1Bx9jWOJmOWAFymaZTqVKBbrrO8NtTkT0HgFsfJ9vw4nB11j6VrGTy6TVkSeEFXBO5ZD13tyl8eF/pTtLnNm6x/rUspPjh8JSUSYes1Dc76AFymq4tgl6gW7TuxqNywajaV9Ff3lIdb/25dDW+9Pvzkf7l1rfDOG9R5eyQXMl4CKKX4EfC12ihxuM9L44dNO5cREQWCdOS3tbTFxfXo32QNXnDo+x8JvG6L8kiX+zZEFpoK8EM7wm1J+KIZ/92WUnyC+4pJIqz1VIOzBOCVUjTXdJd1xzCTH2tbYYNjv8nn+tKfpReSyX9vzq9yEYFHupS714WOJL+KKd4cfK0AxNgWQKOzaeeVLAEwmbrT8eifAs+kXP4X4Pu6lD0N9Gb9UKdyW86TlSvJurg3zQqAL1YD0Phs2nmlIPtaeVyGNf61lGCXYwf1E0OkLpB7cJOyt4Emf0iSltduUXY63pcQQj3jBKCcZgvAV0x12wJodJYAvFKQFQDBCgEXg1s7oOiY7KXt+79zJdy93u3ZoQjw6FZlbZCbOtLLur9Ha4pCUl8hRQVbAWh0NuW8UrDK1jS/zKZxiMCe1W4fvwNTcCJF17x1rfCmre5XDodUiuD7tyvNDfR7kvUKwMoUnRp9tY1WWwFoeJYAvNJQqAdbArCwbW/HubXu0+dlzku4BUnO+S+EFablTUkBY6PIOgFIc4+ErwSgVOCMn5FMKAvgI8EzpTfUoxvpzcbM3W2OR/+qMXwnxdG/fRuzbe2rwHgtqUsYmEqOKGZp90rYuSLbZ/iS9S3Ia1J8X311WaxHnPAzkgnFppzpRPuy7981s5YcNWMxfi1vSjruuXihDybmOLmua4V7MjhGNzwFLwwk1/teGIepaTNdWxHWL4Edy5VdK5Nz/T69rks5NSKZJxuusrysR4AVKbrxe1kBELh3Pac9jGQCsgTglYKtALRaN6AF64616nwJy9Mpjv69ZrP7cy83MAVfPSMcGrh6NflYDY4NwrFB4Uunk46D9673t3/fWoRXrVceO53vqoYsrmm+pBilOz7sY1uiALGILJAbGxYvSwCmk6gv1M08tgKwMBUjuMnx6N/ZUeieY8nV9nbo9HS3hSp8/Rz83csy58r2Sh2+1Q0HeoXv83ic7/a18OR5GA5ybufalGy3ANIcAQSIPUzbBQnTMdX4ZTUA04ji0GDVTVupcYqbzOzdvMq9vmOut/4JyZl/H6bq8PGjwlfPzn3yv9xYDf7iuPCl03MvZJxJUWDfhvz+zmR9BLAtxYphfPEfVxKxAK5qMpYATKMSbgug3W7XXpBc+/6P1+DwwNy+Zms7rPZwZn68Bh87JJz0eDbm293wmRN+koAbV0FbTlfOKhkvkKc6AugppkgY8zOSCckSgGlCrgC4HhEz+bN5KaxxnIifuTD3fdvbHZMOSE4dfPKozHnrYTZe6IcvnHLfvy9E7glWVqYXRvq2OsURQF8nACIhRTcKkzeWAExTE7pDPXtZU6jzByYrrpOTKjzdM7efiuVNsM3DVbp/dVI4O+o+zpU82wNPnHcfZ+/qfN6lUck4L0lzoZSvbQkhDvaiZPzJ4a9NWLUqL4Z6dlHyu5xp5m5Jyf28+pFBGJljkdtNq9wr/5/rgYP9bmPMxmOnhfOOKwxtJdjqqdjRp0qWRwCATSkSgKqvVQkpHPM0kgnIEoBp9qyTsZDNgNptG2DBuHW1Ol/ylKbv/y7HKvuJGjx2Zn7WouoKn3/RvR7g+hX52wbIugZga4q+Er76EhSV7/gZyYRkCcBMhJOhHm11AAtDJDhfuds7AS+NzO1rVjXj3PXvq2dlzg2HXHSPwQHH1YYdK/Da78CHqQwTgAjYmKK2pOoppkKBJ/yMZEKyBGBmL4Z6cEdL/t5kzNztWgFLHU91PHVB5nxz2/blbs8cqSTL//Pt714Wp6Y5LcV0S+JZyjIBWFpKV/fgYwVAgHKBb7uPZEKzBGBGGmwFwLVi3OSDa9//Sh0OpCiz2rTU7blPXpDML7CZSf8knHA8argxZ3UAvt62Z7I25SpPzUMNQEGo3bFB7CbABcASgBlFL4Z68uoML20x86OjBTY5TkbP9839GJkAG5akf6YqPB+s+gWemeNph+k6HZMfn6qabRfAzhSrHTF+TgEUIzI8G2LmkyUAM5Ao3BbAsrLdCtjo7ljr/in7VIq+/8ubkkt40jozCqMBG7yeHHY7O7+xLT/HaMcz7gFwfYpjnj7e/gEKogHTROOTJQAziOscD/n8NFd8mnxoLibd6Vy8OJwUAM6Va/Hf0cGw02c9Tv7saTUX83OMdiLjBODmFCc9fB0BjKLoJT8jmdAsAZjBrg6OA8H2uGwboHHd3AElx9+qNLf+AaxI0RnucmfmeOIgC6dH3JKQ5Y5/B76MZ1hIUYpgU4qtnklPMRWEb3kZyARnCcAMRKQOHAz1/DWt+dnLNLMnwN7Vbt+74UrS/CeN9qb0z44VLuSgrOucY4f5vByjzXILYFXKP2Ol7meFp1Tgr70MZIKzBOCK9LlQT97oUMhlwtnaDisd30CfvpC+KY5LE6mhSva3181Gn+Mdc3lJALLcArguZbFjxUNMIsrERh53H8nkgSUAVyASBet0tarFCgEb0e2OxX/1OOmPn1ZTiuthLxnMyeWukzW3QsByFD6LqcbJKYCs7Fk19zd5xU9nwrIwul9kHttEmSxZAnAlSrAVACGpaDaNY1lTutaslzs0kFy/m1bZ4bfZ5bm+uXQhLDkkQb5k+fYvwD1r5v51lRrMuavUDApFOeM+iskLSwCupMyzIR/v2tDFzK/b17j3/X8yZfHfJS7Fh1k2rZkrl6Vq1wJMH8YyTADaS+m2OXzdS1ASed7PSCYPcvDrkk87l0kvhLsa2LWRjJk/pQhu6XAbo3scXnZsr+KSgOQp3XRpCeyahPkwluEtgFtS1gdVPK3wCPytn5FMHlgCcHXBVgHWtebzjnPzSrtWJr3oXTyZ4ta/6ZzenHMwcV5SdFnJyPj8/WwMZ9hM6YaU10v7utwpjvgrPyOZPLAp5ipU9Ruhnl2KYIPVATSE2x37/k/W4KDjbXjgtoxfzsHe+SUuBbChtzKqCpMZxSDAgxtSfKG6FVZeUipQebBTjrqPZPLCEoCr0Cj6WsjnX9eep4VZM5MNS2CdY6L2bK+fW9pcJj+XI4Q+FSK3dsahE4CRDIsp28uwIcVlYVOx27bKJaWALdJNNiwBuIoo5htke6fHVW1L0e/bzC/Xt3/V9J3/pnPp499ezkcf/fYyiEMgo9Wwf4qRDJsp7E75eTDhaUuiVJCgL0TGP0sArmLXahlBCNYPYE1rcjmQyafWIuxM0ZP9cieGYXDKTzwuZ/mbi/lYBVjvuJri6+8yreEMVwD2rUv3dZO+CgDrfNzPSCYvLAG4BlUNmvVutVWA3NqzGoquR/88FP9dMjjlNlYeak7Wt7m9QQ8EbGgUk90RwKLAvWvTfa2PBKAQEe/rshbAC40lANeiYesAtlkdQC5FArc69v0fmEquwPWl3/Htd9vy8D9rLtteqjAUcAVgrOZnr30mm9vSnQqqqZ+6iLLoBRHJUbcI44MlANcQFwiaAHQtg0IeNmfN99ix3H3J/CmHvv8zuTCWtBNO67r2sOfoVzW73aVwfhwyvITvmoYyPP53++p0XzflKaZiIXrKz0gmTywBuIYbV8pLwOlQz28qWDFgHu11LP6rxfCdXk/BXBpTk0kwrZYibF/uL565usVxReV04OuMBzIqAIwEHt2c7mvHfCUARf7Sz0gmTywBmBX9Ysin714VfmnW/L2OFtji2Pf/+T5/xVmXO+N4ne5tjolNWsUIbnbspnh2LNzyRU1hNKMCwM5WWJFytWncQwIQCdoc8UfuI5m8sQRgNiT6QsjH71iejx7nJnHbGnU+Mufr6N90p4bdxu1alvQ2mG971ySnKtKKFV7yWE8xVwPV7Nop35ey+K8a+9n/by5w9o4N4rC2ZPLKppVZaIr4IhDsvrRSZNsAeVGK4MZVbmOcGXFbqr+aF4fdVxYe2uSe4MxFcxFetd5x+X807I2GAxnd/1sA3rgl3df6Wv6PCvIlPyOZvLEEYBa2rpBBlGBtgQF2r7RtgDy4uSOpy3DxVEZv/5AUAR4bchtj81K4wTHJmYsHNqrT2z/Akf5wy/9KdgWAnUtgaSnd1/pqAFSM+IifkUzeWAIwWyJBtwG2L89Xv/bFaq9jodpYFQ4PegrmCg71uU+Gr92sLJuHxkBb22Fvygr3S1Th8ICfeNIYrSV3AGThwZTNf1A/+//lApP3d8o33UcyeWQJwCzFyudDPr8YwW7HrnPGzZalsDpFL/bLPX3B7ajebPjoLthchLdcp043813L8iZ40zZ1av0LyeTv0gbZVVbV/6UI3tiV7msn6n56EpQLPOM+iskrSwBmaXcHTwPnQsawx/Ht07i5ba173/9ne7Nfqo4VnvLQYXBDW5IEZHEtdWsR3nq9+9I/wBMZbqnMRl9GzYf2LIfmlH/3YxU/MRRE/szPSCaPLAGYJRFR0KDbABvaYJ3jG6hJp7mYnMZwcWQARjx9MF/Lc31+KsC3L4cf3K5eT6G0N8E7blCnpj+XdI8nRZWhjNVgIqMVnbdsTf+1ox5+ziJB6y181H0kk1eWAMyBxNEnQsdws60CBLFtmXuXvCfn8U11sgbf6vYz1rZ2+PEblY4W97G6lsE7b9DU59qne/xs2Lf/nko2v49rmuCWlIWYk3VPx/9KnNi/RkbdRzJ5ZQnAHIys5otAX8gYblpFpvuyZmbLHd9Weyfmv1PdN7uFMU9H41Y1JxP3vo3pVgPaSvDoVuUf7vSz7A/w0ggcz7ig8moU6MloRWf/hvRf62v5v6xizX8WOJtK5uAOkSqqnwoZQ1PBigFDiBzbvDx5QTJrFHMllTp8zeMbcimCfRvgZ/Yo+zZc+y1eSJoKPdKl/Mwtyk0deOsvoAp/czrs2/9QRtX/RcnH8n+tjf/sPpLJM0+5+OKhUfRxUf3JkDHctVZ5vnf+J5TFbKQqpO31NlWH5z33/Z+tZ3qSVSOf3f3airBvI+zbqPRPJk2N+iZgKhYioKWorGqB9W2wJKW4z20AABwkSURBVOUZ9mt5ugdedmx77KpnKpvfwNs7kr/jNCq1JPFz1VzQo/vXRLb8v8BZAjBH3Sv58vo+LgBrQsWwujXpRf9iwNani83JoWT6T/PO+Z1eP3uyacQKnz0p/MSNfgv5Lln5PTf4zU9KOjgFjwV++68D/RkcPYyAd+5I//Wj1bQ/pd+rVIj+h/MgJvdsC2CO9ovURMJuAwDcvc7e/+fTcAVOpNhvjhWe8HAkz0X/JDx+ZmHcKR0rfO6kBEuoLumvZHP18PXtsMlhtWak4v59LkTE9ZgPOQ9kcs8SgBRUo+BnY7e2wxoPVdlm9h47I9TmOPF8s9u9KY8P3z4PB4OWr/rxN6cl+LW/AN0ZLf//6Pb0Xzvpa/m/yKH9W2XSfSSTd5YApLBzFV8BzoaO405bBZhXvRPwmRMy6ze/wwPw1cDH1C5R4K9eFLob+E63F/rhW+dDRwGjdRjJ4OKhTS2wx+EOhhFPiWapIP+fn5FM3lkCkIKI1EF/P3QcN6yEpeXQUSwuhwfgY4eF3okr/29qCn/7Mnz6uKA5ytGqMfz5MWF4npoR+XR6BD5/Mh/J1LnJbL6pP+BQ+a/g5ftaLFDZt4n/6j6SaQT5+I1qQAf6dXMh1hMkN3YG8+QF+OIp+zbONxG4fjnsWK6saE6OyI1U4fSw8Hxf2N7017KsCd6+c34u+/Hh7Cj82RHxsrztqhrDk8Pqpc/+5Tqa4PceTP/1IxXo9lCzv6wsn3uwSx51H8k0Aps5HBzqjf838H0hY6jH8LvPSy72mU3jWNkMb9upLMv5CtLpUfhfOZn8AU5PKqevsvqT1ntvhFdvTP/1Z0c83P4n0N4sex7olOccRzINwrYAXIj8bugQChG8an2O1plNQ+ifhD98QYKfpb+ag33w8cP5mfxV4XwGpXHrm90m/1oMEx5WnFqLnLXJf3GxBMDB6Eo+DXjquJ7ezR14uVjFLC6jVfjYIeFgf+hIvles8JUzwl+eCH/c73K9Vcii9f87HM79AwxP+enAUC7IRzwMYxqIJQAO7hCpIhq8X3Yktgpg0qnGSbHip44LExlUts/V4BT86WHh6+fmq63Q7ChwNoPiv02tsG+9wwCaJACuihH1lZ38J/eRTCOxBMCRxtFHycFn1Y2r8HJbm1mcDvXD7x0QjgyEeX6s8O1u+Ojzwks5OOc/XV8Vxj1vRQjw4zvdxhiperr5ryhfvVGkAc+HGBeWADjavVqOIHw+dByRwMObg+chpoGNVJJjgn94UDg9j13gjw/B73xH+NLpuTdamg8KnJnw/7u1qx3uWu02xqCHmgQBCgXe6z6SaTR2CsCDQ736atAvhY4D4BNHhWMBr0g1C4MAXe1w2xrluvYkwfSpGsOBPnjqvHAhg6p6n3orcGTMbwJQEPjwq9za/k7W4LSH+0Bayxx8TVd0g/tIptHYZUAe7OqQLx/qjb8F3BU6ltdsVk4Ozb5bnTEzUZILkE4OCcvKyRbTtuXKprakB0Ia1RhODcOxwaTwcCon1f1XoyRH/3x7cJ3b5A9+3v4Bmovyz/2MZBqNrQB4crBH/5GI/knoOAC+/JLkomWqWXiai9C5JLmRcnWL0tGc/P+ai3z3tsHJGlTi5Fx6zwT0TAgXxuHMSNIlsZFcqMAxz2//bQX4/f3Q7LABW4uTBM21+qilSPfD2yKXMkTTwGwFwJPuDj6+vo9fAzaHjmXfRuVAvzCW4250pjFN1uDoYPLP9PcHIQfVsB6pZlP5/7br3CZ/uHjBlIfQWgryH9xHMY3KigA92S9SU5X/J3QcAOUC7N+0kD6KTSNYaD9x56ZgwvM2xaYW+AddbmPECkMejv6Vi4zdt0U+7D6SaVSWAHgk8DvAUOg4AG7qSK4MNsbMXSWGM57f/iOBf3qz+ziDkxD7OfoXvJOpCcsSAI92rZYRQf9b6DgueWSLfndf1hgzey9Nqvd6hUc2wI7lbmPEipd7P4oFKh2dvM99JNPIbHrwrFyIfh3IxUG89ia437YCjJmTsRr0eL5ca2UZfnK3+ziDU8kFYK5aC/I71vjHWALg2dYVMqiqvxU6jkvuXAMbHY8bGbNYKHBiXL3WMwjJ0r/rapwqDHnomVCKmIq38E/dRzKNzhKADJQL0YeAXFyxIgKv26IU7DttzDX1VGDEc+HffWtgzyr3cQan/ByjbCnLh/eL5ODmBxOaTQsZuG6lDCnyn0PHccmaVnhgo20FGHM1VYVT435/T1Y1wf99i/s4Cgx4ePsvF3TygU5+yX0ksxBYApCRSo3fAi6EjuOSu9ZC17LQURiTXyfGlKrH+b8g8L49UPTwKTs4gZfuns2l6DdEpAF6MJr5YAlARvaskzFVyc31miLwxq1Ki7V+MuYVeirJjX8+ff9m2OVY9Q/JxN/voe1vucD4A528330ks1BYApChJZP8NnA6dByXLC3DI122FWDM5aoxnPS89N/VBj/meNXvJf0TyfE/V20leb+I5PC+RROKJQAZ6uyUCVXJ1VnbnStgj+MVpMYsJMfH/Z75b4ng/bf5GatS93Puv7nEuX2b5TfcRzILiSUAGdvVwZ8iPB46jsu9douyrjV0FMaEd34K+j0u/YvAe3bDqhY/4/WN49xjWYBSJO/0EY9ZWCwByJiIaBzLe4HcLL0VBX5gu9JSCh2JMeFMxnBqwu/S/5s2wYMb/Yw1UYNRD8lJW5lvPLRFvug+klloLAGYBzeslqcE/aPQcVxuWRP8g21KZBdCm0UoVjg85nfpf8dS+CkP3f4geenvHXcfpyDELUX5YfeRzEJkCcA8qdSj9wHDoeO4XNcyuG+DFQWaxefkhDLmsRVOewl+5U5/441MJVcvu1rSJH9wzyY54z6SWYgsAZgnN6+V84p8MHQc0927Aa5fEToKY+ZPbyXZ+/elKPBv90KbpyO29Rh6/TT9mah38m73kcxCZQnAPGoe4UPAkdBxXE6AR7cqazwVLRmTZ+N1OD7mb9VLgJ/d7X7L3+V6Jtwv/BGgpRz9grX8NVdjCcA82rpVJqNYfhrnul6/ygV4605lWTl0JMZkp35x399nG7wf2gqv3eRvvIlasvzvqrXMsw90yu+6j2QWMksA5tn1a+SrIpq7X8wlJXjr9UpTIXQkxvinwJExZcLj7P/AWnjHDn/jqULPmPs4xQL1JSV5k/tIZqGzBCCAiOifA7krzOlogTdvU8ROBpgF5uS4MuDxvP+uZfCLe/yNBzA4CVMeEpQlJfngXRslNx1ITX5ZAhDAjlUyrCo/GzqOmVy3HL5vc652KIxxcnYSuj0W/a1vhl/1WPEPSTviPg+Ff60lTt2/Wf6N+0hmMbAEIJDdq+WzwCdDxzGTvWtgnx0PNAtAbxVe8tjsZ2UZfv1uKHncKlPg/Kh7YVAkaFSQR33EZBYHSwACilV+DhgIHcdM9m2EV60PHYUx6Q3X4Nioequ4XVaC37gH2ps8DXjR4GRS/OeqrST/ff9med59JLNYWAIQ0A2r5RwiuT2n++Am5a51oaMwZu7G63BwVL31315ShP90N3Q0exrwoqn6xX7/jpqL9Dy4hX/sPpJZTCwBCGzXKvkE6B+HjuNK9neq3R5oGspEHQ6MKHVPr/4tEfz7O2G97wu0FM6PuS/9F4S4WJRX21W/Zq4sAciBehz9rMCx0HHMRIDXbVFuWBk6EmOubSKGA6NK1efkfwdsW+pnvMv1TcKUh6X/pUX5FVv6N2nYga+cONSv9xHrV4BcnsSPFb5wSniuJ3QkxsxsMobnR5SKp/fgliJ84Da43mOXv0sma3B6BOfX/yVlntzfFd3hJSiz6NgKQE7sWilfU9VfDR3HlUQCr+9S7rSaAJNDk3W/k//SIvzGXdlM/nWF7lGcJ/9ygcnlKg97CcosSpYA5Eh3R/QB4Ouh47gSAV7TqezzdN+5MT5MeJ78l5fgN++BziV+xpvu/Fhy7t+FAG1l+dG9W2XQS1BmUbItgJw5cl63xQV9Esjg3cOfb5yDvzljPz4mrNFaUu3va8+/own+yz2w3PNRv0sGJ6HHQ9X/0rJ87KEu+UfuI5nFzD7Bc+hgjz4qop8m5ys0z/UkdQGx9QwyAQxWL17u4+nnb0sbfPBuf9f6TjdZgzMjSc9/Fy1FPfnwtsI2P1GZxSzXE8xitXu1fFZV/33oOK7lltV2gZAJ40IFDnqc/G9dAb/5quwm/7pC95j75F8uMFFoju7yE5VZ7GwFIKdUNTrcr59BeUPoWK6lZxz+11FhuBI6ErMYnJ2EU57a+wrwuo3wnhu9DHdF50Zh1PH3I4rQpQXZ/8BW+YqfqMxiZysAOSUicaUgbweOh47lWla3wo/doKz13SjFmMsocHxMvU3+kcBPXJ/95N834T75C7C0LO+3yd/4ZCsAOXeoX28h1q8DuZ9eK3X47EnhSC5vNzCNrBrDoTFlxEPjHIDmAvziLXBXxl0uRyvJkT/XlGVJWf7P/i55rZegjLnIEoAGcKhX3w76R6HjmA0FvnkOvnrWigONHyO1ZPJ3PTp3yZom+JU7YUPGKfVUHU4P+yj6o/s1W2Wjtfo1vtkWQAPY1SF/jOoHQscxGwLcsx7etlMzK6gyi8f5qeSMv6/J/84O+Mj92U/+dYWXPVT8lwuML0FutcnfZMFWABqEqsqhvvh/CPJjoWOZreEKfOqY8PJY6EhMo4kVTk4o56f8jFcU+NHr4Afn4fCcKpwdcb/itxBRby/Lq+7bLN/2E5kx38sSgAbyhGppSZ9+HnhN6Fhmq6bwpZeEZy6474OaxWG8DkfGlPG6n/GWl+CXboUbVvgZ71rOj8GwY+ISCdreJj+0b4P8uZ+ojHklSwAazPF+ba/G+rfATaFjmYuTQ/C5k8JoNXQkJs/OXTzi52u9+9YV8K/3QtM8bUf1TUD/hOMgAu1l+VcPbJFf8xKUMVdgCUADOjSoW6WmX1dYGzqWuRirwedPCMeGQkdi8qaqcHRUGfRU5V+O4F3Xwxs2+xlvNoam4IKH7S5r82vmiyUADepIr94do18C2kLHMhcKPNsD/+cloWZlTQborcDxcX9d/bra4Jdvh9XNfsabjZEKnPdy3C/+2/1dxfu9BGXMNVgC0MAO9+prFP0sMI8fdX4MTsHnTwqnRkJHYkKpKJwcV/o8dZAsCrxhE/zUbj/jzdZEDc4Ou0/+bUWef/W26GYvQRkzC5YANLhDPfpmRD8BlELHMleXVgMeOy1MeSr4MvmnQPckvDTp8a1/CfyrvbCuxc94szVVSyr+Xf8crWWOR1tk134RT5sgxlybJQALwME+/UFR/VOgIU/ej1bhr09ZB8HFYLQOJ8aUUU8JX0sBfnw7vH6Ln/HmolKHM8Puk39LibOVLrnuDSKeDj0aMzuWACwQB3v1nYL+Hg3c3OlgH3z5jDBilwotOFWF0xfP9ft46ReB21bAP9sDSwKsfVXjZPJ3rWNpLtK3tC7b7tkhw34iM2b2LAFYQA726v8l6IdDx+GiFsM3uuGb58Rb9zcTTkxytO/spFLztNy/rgX+yQ2wZ5Wf8ebK1+TfVGRgSUm239sp/X4iM2ZuLAFYYA716r8A/Y+h43A1UoGvnBEO9FkDoUakQH8FXpxQpjwlcm0F+JHr4M1dfsZLo1qHMyMeJv8Cw8tErr9nm5z3E5kxc2cJwAJ0qEd/BtHfpoG3Ay45PZIcGTw/HjoSM1uDNXhx3F8nv6LAw+vhp3dDqeBnzDS8LfsXGFwqsssmfxOaJQAL1MUbBH+fBi0MvJwCxwfh8bOWCOTZYBVOT/q7srcgcNsqeM9uWDXP1f3T+Xrzby3S3a6y647rxNphmeAsAVjADvXpW1H9YxrwiOBMVOHwQHLVcP9k6GgMJMnZQBXOTPir7I8EblkOP3Nj9rf2zUalnhz1c538W4r60vLmaPcdG8TSWJMLlgAscEd69I1x0ieg4ZoFXYkqPN8HX3tZGLSDU0GowoVKUtw36WmPPxK4dSW8e3c+Jn5Imvy8PJLcTuiitcSJdV2y+0YRO+NicsMSgEXgSK8+HKOfosHaBl+LKhwfgq+fE86Oho5mcajGycTfPeWvuK8cwZ0dyrt2CqsDL/VfbrQC3R7a+7aW9OlXd0V3iIidazG5YgnAInH4vO7Rgn4O2Bg6lix0j8MT3cIL/e5va+aVhmtwbkrpryaJlw9tRbh/DbxzV/LveTI8RVJv4vhnXVKKv7J/a/EhHzEZ45slAIvI4V7dqKqfQ9gTOpas9E/CE+eT44PWXthNJU4u6ume8rfML8D6FnhDJzzalc9jKoOT0OO4Sy/A0rL81we75Oe8BGVMBiwBWGQO9ehS0I8jPBI6lizVFI4NwDM9wikPF7UsFjEwUIGeqjLg8W2/KYJbVsLbtsGO5X7G9E7hwnhyra+LgqDtTfJP7tssH/ETmDHZsARgEXpMtbihP/5tVXl36FjmQ+8EPNsrPN8HE9XQ0eTPpUr+3otL/L42qkVgUyu8bhO8vhNKeXzdvyhWODcK444/H6WIaltB3nz/VvmCn8iMyY4lAIvYoV59H+ivsUh+DmKFl0fh0IDwQh+ML+J712oxDNWg/+Kbvq82vQKsaoI7VsFbtuWnmv9qqnFS6V9x3DJqinR0ZSG6846tcshPZMZka1F88JsrO9ijPyKiv8sCOyFwLbHCSyPwfK9wdHBx1AtMxsny/kBNGar5W97/nkl/K2xooJ+k8WpS6e98nW+JIyuRu/dulUE/kRmTPUsADId7dZeifw7sDh1LCKpwdhSODQkvDiXV3wuhZmAyhqEqDNeU4Rreju1Bspy/sRVuWQGv64TOJf7Gni8+Kv0FWFKWv3ioS37AV1zGzBdLAAwAR/t0Waz6+wqL/oNseApODMOJoaSAsBFWB2KFsTqM1i9O+NXkCl5fBFjZBLvalfvXCXevgUKO9/SvRoELY8n32UUxor6kLO++f7P8npfAjJlnlgCY71JVOdzHvwD9VSDgtSv5MjiVXEp0dlQ4M5oUFYZUUxivw1gNRuvKWB0m6n5XLQoCK8qwdWlSvf/AeljR5PEBgVTrcG4MphzrP5qKDJWKsm//ZnneT2TGzD9LAMwrHOrTR1D9E2Bl6FjyaKSSbBmcHxd6JqBnwv3o2HQ1TZbwJ+swEcNkXb/73z7f7CFZzl9RhrXN0LUUbuuAW1blu2o/jdEKnB9zbxTVVtJnlzVF91pPf9PoLAEwM3phQLdENf1jhH2hY2kEU/WkeUzPBPROCoOTMFSBvslk7z2Ok0KzOskxu3qcTPJVhUqsVOLk36tx8o/vXQcBmguwtAQry7CuFba3w00rYdtSzw/LGQV6x3C+NyKKiJeU5T88uFl+2UtgxgRmCYC5IlWNDvfzc6j+OlAOHU8jUuDceLJicGYM+iagvyIMV5XhCozWko571TgpRqxp8jXXqkqPSC7PiYByIZncWwpJS922IrQ3JW/1G9qgawlsW9a4e/YuqjGcG3Gv42gu0tdalofv2yTP+InMmPAsATDXdLhX71T0T4AdoWNZTKbqMDqtMc2qBXOnY/aGp5JVGZclfwGWNsvn407evF9kEXeOMAuRJQBmVk6f1paxlviDID8fOhZjrqaucH4Uxhy7+pUjptrK8s59m+XP/ERmTL5YAmDm5FCf/hCq/y+wKnQsxkw3Ukn6+ccOPQ8EaC3zbHNBXn1vp/R7C86YnLEEwMzZc4O6oqkef3Cx3CVg8q+uSaHfcMVtnFJEdUmzvG/fJvmQn8iMyS9LAExqh/v19RrrR4AtoWMxi9dIBXrG3Nr5Jtf38rWmqrzhnh0y7C04Y3LMEgDj5ImXtXVJOf63IL+INQ8y86gaJx39XG/way4w0lSSdzywWT7tJzJjGoMlAMaLoxd0bz3SjwK3hY7FLHCanOnvnXC70OhShX9HJ2+5UcRx88CYxmMJgPHmMdXiul7eJeivInSEjscsPBPVpMjP9ereloKeaW6LfnjfOvmGn8iMaTyWABjvDgzpykI1fj/Ie4Bi6HhM46vF0Due7Pe7aCroWGs5eu++Tvmon8iMaVyWAJjMHO7VXar6XxBeHzoW05hUYWBSGZgQXG4zLhaotxXkY/Ut/IQ19DEmYQmAydzBHn2TiH4IuC50LKYxKDAylbz1u1b3t5X5RgH5gQe65Jyv+IxZCCwBMPPiCdVSWy8/IaK/DGwKHY/Jr7Eq9I279e8XoLWkL7RG0Y/ds0We9BacMQuIJQBmXh1QLUe9/LiI/jtgfeh4TH5MVJPLkiZcFugFWoucaCvJT92zSR7zFpwxC5AlACaIJ17W1iVN/LSo/kuFtaHjMeH4mPiT6471TLEYveuhLfJFb8EZs4BZAmCCOtSjSxF+AdVfsKODi8v4xYl/0v2N/1STyHv2dclfeQvOmEXAEgCTC0ePalO8gn+o6C8Bu0PHY7KhwFgFBibdJv5ChLYU9UCpGP38PlvqNyYVSwBMrqhqdKiXNyL68wIPh47H+BErjF6c+F2a+BSEuKUYP14uFH7yvs1y3F+Exiw+lgCY3HqhR2+LJH4vyI9gDYUaUrUOQ1PJP7HDcb6SaLW5FH22XXnX3q0y6C9CYxYvSwBM7h3q0Q0I70D1HyNsDR2PuTolKewbnILxSvLfaQjJ/n65KL91Xye/KSIOKYQxZjpLAEzDUNXoaB+vjtF3A28BSqFjMn+vFieteocmk5v60ipHTDWX5csIv/Bgpxz1F6Ex5nKWAJiGdOCCritEvBP0J4EdoeNZrJRkb394KnnrT/uKHgnaXOJQk8h/3LdF/sBnjMaYmVkCYBregT69MYrjHxaRt2PthjOnJBX8o1MwXIU45du+AC0lXm4qyifjIh94YL30+IzTGHN1lgCYBeVAn95Y0PgdIG8HNoaOZ6FQYLIKo9Vkmb/uMOk3FznfVJBPq/LvrD+/MeFYAmAWJFWNjvawL47iHxTkDQrbQ8fUaFST7nyjlWTiTzvpFwRtKnC2FMlngA/YpG9MPlgCYBaFI+d1Wz3iYRF9GHgEWBo6pjyqxsle/lg16dSX9uheOWKqXOTpsshfVFr4b/vXyKjfSI0xriwBMIvOyZPaPLmMBySOXy8ir1W4gUX6uxBffMsfryYd+tJW7xeEuFzkTFHkr6MCH36gU57zG6kxxrdF+aFnzOUO9ejSSLi7rvE+RO4TuA9oCR1XFmpxcs3uRBUm60kxn6Z4yy9FVEsFTpdE/o6IT9zfyWdExOHwnzFmvlkCYMw0T6iWWvu5vQD3quo9wC0kNQSFwKHNSawwVbs44deSyb6WYoouCHGxwGBJ4iOFqPDXBeEPrQ2vMY3PEgBjZuEJ1VJLP9cXlduV+AZBblS4HVgfOjYUqpr02J+qKVN1oVpP/ntOL/cCZWGqWOBssSCHgSeLdT5531Z5JqPIjTEBWQJgjINj3bqmUmJbIaYrFrZGEnehslWhC9gClH08px5DTZPe+tU4eZOv1pP/W4lnv4wfRRoXkbFipH1RpGeRwrGS8HwkfLt9E1+/UaTiI15jTP5ZAmBMRlQ1OtLH+lhZR0QHMasQVqHxKoSO5N+lox6zphZTjJH2ap1yvU6pGset9RipqxQrMRJr0i3v0tAFoQ4gQg1QEaoijEfocIQOCIUeES4Qca4QcUZiTrbW+ZZdpGOMueT/B83cE28u/Y5iAAAAAElFTkSuQmCC;" vertex="1" parent="1">
          <mxGeometry x="897.5" y="170" width="80" height="80" as="geometry" />
        </mxCell>
        <mxCell id="HLB04OiPP8K-Rc5S-tSk-5" value="&lt;b&gt;&lt;font style=&quot;font-size: 30px;&quot;&gt;...&lt;/font&gt;&lt;/b&gt;" style="text;html=1;strokeColor=none;fillColor=none;align=center;verticalAlign=middle;whiteSpace=wrap;rounded=0;rotation=90;" vertex="1" parent="1">
          <mxGeometry x="907.5" y="400" width="60" height="30" as="geometry" />
        </mxCell>
        <mxCell id="HLB04OiPP8K-Rc5S-tSk-6" value="" style="shape=image;imageAspect=0;aspect=fixed;verticalLabelPosition=bottom;verticalAlign=top;image=data:image/png,iVBORw0KGgoAAAANSUhEUgAAAgAAAAIACAYAAAD0eNT6AAAABHNCSVQICAgIfAhkiAAAAAlwSFlzAAAOxAAADsQBlSsOGwAAABl0RVh0U29mdHdhcmUAd3d3Lmlua3NjYXBlLm9yZ5vuPBoAACAASURBVHic7d15mGVVfe//z9r7TDX23EADQjMoIDMEFRVoQNAEB2LkJsYBUBzQxKvJzfjH7dwkNzcjEKMGZYzml6QjNMSIGpUWURRFoLtBRmWGHqq7a6465+y9v78/CgxTd1V3nXXWPme/X8/jk+eJZX+/0KfO+uy11l7LCcAumZn70q3N4xKXnWZJdHSa2SuT1PbNMg2aqWaZypkpkkxZJidJTpKLnEmyKLIkity0czYZR26rIvdoHNkDkdztzfHKTR9+q5sM+08IoIhc6AaAvLluve0XR+nrldnJZu7EiansuKkp65meNiWJtbaYk8olTZdK0VNxyf2wFEdffiyN/3P1Kpe0thAAvBABAIX3jfXWNxGlq5z0FpneLOmgnf1skpjqddP0lGli0pRlLQ4EkuLIWbmiJ8sV981GpMsuPqW6oeVFABQeAQCFdPUjVls0mr7JpHfJ6VxJ/Xvy59TrpvGJTBPjfsKAJJXLbrJSdt+olt2fvv/Uyl1eigAoHAIACmXthsYJztz7zLn3SlrUqj/XTJqeMo2OpZqaNslPFlC15oaqFXf1SKXyvz91spvyUwVAERAA0PUuv8PKe1XSd5ncpyQ7wXe9ZmIaHck0PpHJMj814tiltaputh599MOvr/3MTxUA3YwAgK615jbrqfRnHzHZJyXt3+76WSaNj6caGTWlrd48+CznTD098fpq1X3g/DdWfuKlCICuRABA17n8Disvr2QXSPa/Ja0I3Y+ZNDqaamQkU+ZpRsA5qafm7nOl6N0fWlW5208VAN2EAICucsP65K3mdKl2sZM/lCw1jYyaRkdTmac9As6ZemvRLRNLq+/45HFu2E8VAN2AAICucMO9doSl6aclnR66l9kkiWnb0LObBT2JS0pqteivP3R69Y+8FQHQ0QgA6GgzG/yyT5nsTyRVQ/ezOyYnMg1tz5Sl/oJAreY21yrRWy84rfJjb0UAdCQCADrW2nsbxyqNvyjZkaF72VNpatq2LdXkpL8QEEXOenv1jxedXrvYWxEAHYcAgI5jZu6GDdlvy9lfqsOe+ndmYjzT0PbU22uDktRTc4+X4uopHzzDPeavCoBOQQBAR7n+PlvikvSfZTo7dC+t1mhKWzcnanp6ZVCSSiXXrFWz9190Ru+/eCsCoCMQANAxZqb8o+uUwx3+rZJl0rahVBOT/qYCnKT+/ujaD55ePd9bEQC5RwBAR1i7PnmnnL4oqSd0L+0wMpJqxw6P6wGSenujO5+JK6/h5kGgmAgAyL2169NPyNnfSYpC99JOk5OZtm71d2aAJNWq7pkFlerR717lhvxVAZBHBADklpm5G+5JLpG5T4TuJZSpKdOWLYnXEFApR2MDvdkx7zu15xF/VQDkDQEAuWRm7saN6adN+ljoXkKrN0ybN6dezwsol6KpvoU6/oKTq/d7KwIgVwgAyJ3VZtExG9Jr5PTe0L3kRaMhbd6cKPUYAkplV+8ru+MvPLP6U29FAORGodZUkX9m5o7emH6Wwf+FKhVpr71Kijz+xiZNq04m9pPLvz99sL8qAPKCAIBcueGe5BInfTh0H3lUqUjLl5fkPM7bNRtWa45q/Re/a/v4qwIgDwgAyI3r16f/q8gb/uaiVnNatiz2WqPZtL6xqfr6q9dZzWshAEERAJALN6xPfs05+3+h++gEvb2RlizxGwLqdVtWT+p3eS0CICgCAIK7bn3jeHP6J/F5nLOBgUj9/X7/dU1N2WFfuLl+ndciAILhCxdBrbnXFkcu+rIKcsJfKy1ZEqtS8fsiz8R49qtf+E7jt70WARAEAQDBrDaLymn6r5JWhu6lEzknLV8ee30zwCRNjaeXfH5d41h/VQCEQABAMMdszH5X0ptC99HJSiWnZUtLXmukmaKkYd8yM74vgC7CLzSCuPHuxnGS/WnoPrpBT6/TwKDfX+V6PVvCfgCguxAA0HY3PWTVLHJfklQJ3Uu3WLQoVqnkdz/A5KS944rvJ7/itQiAtiEAoO3qU8kfS+6I0H10k8hJS5f6fTXQTKqPJf+6ep35XXMA0BYEALTV9evrR0ru90P30Y1qNef91cBGw/r3tcaXvBYB0BYEALSVc/E/iKl/bxYvihTHvpcCsvM++9360V6LAPCOAIC2uX5D8i5Jp4buo5tFsdPChX5/rbNMLqrrX7wWAeAdAQBtcfUjVnPSX4XuowgG+iOVy35nAaamsiOuuDV5l9ciALwiAKAtFo5mH5Z0YOg+CsFJCzzPAkhSc7L5ae9FAHhDAIB3a26zHjn7vdB9FEl/b+T9mODpuva6Yt3UB70WAeANAQDeVQayj0laEbqPQnHSwkV+XwuUpEbd/YX3IgC8IADAq8vvsLKZfSJ0H0XU2+NU8fy+Rb1hS69eN/nrfqsA8IEAAK+WldN3S9ovdB9FNTDgfxZgqhn9X+9FALQcAQBeObn/GbqHIuvrj7zeFihJ9bqtvObWxgl+qwBoNQIAvLlufeO1csY1sgFFThro9zwLYFKzkf2l3yIAWo0AAG8iF10UugdIAwNO8vtCgKbqOnXNGuOER6CDEADgxZp7rV/S/wjdB6RS2alW9ZsA0sRKo3sln/RaBEBLEQDgRSVN3yapL3QfmNHb5/9XPW1mF3ovAqBlCADwIuPpP1f6ev0vA0xPZ4d+6Yc26LcKgFYhAKDlbrzfBiLprNB94L/FsVPV8zJAlslNTTVYBgA6BAEALWfN9EyTaqH7wAv19nieApCUJvZr3osAaAkCAFrP9JbQLeCl+tqwD6DRtMO8FwHQEgQAtJxJbw7dA16qVHIqlXy/DaDS1eua/P0DHYAAgJa6boMdJGn/0H3g5fl+HVCS0ix7t/ciAOaNAICWilz6+tA9YOeqNf8BIMnsZO9FAMwbAQAt5TLx5Z9jlTbMADSb9grvRQDMGwEALWVOJ4buATtXrTjvlwMlicpXfHvqAL9VAMwXAQAts2aNxZKOCN0Hdq1S8T8L4ErxOd6LAJgXAgBaJjpMh0rqDd0Hdq1UbsNGwFSneC8CYF4IAGiZSOmrQveA2ZU93w4sSZZlnAcA5BwBAC0TyR0UugfMri0zAJnt7b0IgHkhAKB1LDswdAuYXdnzYUCSlKZugfciAOaFAICWMed4/asDlMr+a6RJVvVfBcB8EADQSstDN4DZRZGT8zwJYOZ0xddtsd8qAOaDAIAWsiWhO8DcON8JQFJUaR7qvQiAPUYAQOs4RwDoEL4PA5IkxcmBbagCYA8RANA6xhkAncI5818kixb6LwJgTxEA0EqV0A1gbqLI/xKAXEQgBHKMAICWWG0WSSqF7gNz044lgCS1Pv9VAOwpAgBa4oifMvh3lDZMAESReBUQyDG+tAEgMHvXu2L173uepF+T09FSnjbUWiLpGZnWyXSNu+bSu0N3hNYgAABAQPaBTx0nsy9J9rybNNuwSXP3LJPT0XL6LbvwE9eqNPVx9/nPT4ZuCvPDEgAABGIXfmqVLLv1hYN/rkWSu0BJ73fs4ov7QzeD+SEAAEAAdsGn9peyL0vqxM2Sv6Tp6lWhm8D8EAAAIIjsTyV18HHJ9i678FOrQneBPUcAAIA2sw/9/gI5/UboPuYvuzh0B9hzBAAAaLekcbq64+Css60tL5XCBwIAALSdHRC6gxYZ0Ps+1sHLGMVGAACA9hsI3UDLlCoLQreAPUMAAIB2M2PaHMERAAAAKCACAAAABUQAAACggAgAAAAUEAEAAIACIgAAAFBABAAAAAqIAAAAQAGVQjeA7vDkvT+In9gyHLoN9fT0auHCxVq58lCVSuXQ7QBAbhEA0BIPb30yvuUb3wrdxi9UKlWd9JpTtGrVm1Wt9oRuBwByhyUAdKVGo67v3fpNfe5zf60d24dCtwMAuUMAQFcb2rpJ1177GdXrU6FbAYBcIQCg6w0Nbda6m78Wug0AyBUCAArh9tu/q2azEboNAMgNAgAKodls6JGfPxi6DQDIDQIACmMbmwEB4BcIACgMsyx0CwCQGwQAFMbCBYtDtwAAuUEAQCFEUayDDn5l6DYAIDcIACiEE054nWq13tBtAEBuEADQ9QYHF+qMM88J3QYA5AoBAF1tcGCh3vvei9XfPxi6FQDIFS4DQldyzumYY0/S2We/QwMDC0K3AwC5QwBASxyybL/UTjkrdBsqlcpavHipDjn0cJ76AWAXCABoif1e/bp05WFp6DYAAHPEHgAAAAqIAAAAQAERAAAAKCACAAAABUQAAACggAgAAAAUEAEAAIACIgAAAFBABAAAAAqIAAAAQAERAAAAKCACAAAABUQAAACggAgAAAAUEAEAAIACIgAAAFBABAAAAAqIAAAAQAERAAAAKCACAAAABUQAAACggAgAAAAUEAEAAIACKoVuAN3hyXt/ED+xZTh0G6rVerRo0RKtXHmoSqVy6HYAILcIAGiJh7c+Gd/yjW+FbuMXKpWqTnrNKVq16s2qVntCtwMAucMSALpSo1HX9279pj732b/Sju1DodsBgNwhAKCrDQ1t1rXXfkb1+lToVgAgVwgA6HpDQ5u17uavhW4DAHKFAIBCuP3276rRqIduAwBygwCAQmg2G3r0kYdCtwEAuUEAQGFsYzMgAPwCAQCFYZaFbgEAcoMAgMJYuHBJ6BYAIDcIACiEKIp10EGHhm4DAHKDAIBCOOGE16lW6w3dBgDkBgEAXW9wwSKdceY5odsAgFwhAKCrDQ4s1Hvf81H19w+GbgUAcoXLgNCVnHM69tiTdNbZ79DAwILQ7QBA7hAA0BKHLNsvtVPOCt2GyuWyFi9epkMOPVx9fQOh2wGA3CIAoCX2e/Xr0pWHpaHbAADMEXsAAAAoIAIAAAAFRAAAAKCACAAAABQQAQAAgAIiAAAAUEAEAAAACogAAABAAREAAAAoIAIAAAAFRAAAAKCACAAAABQQAQAAgAIiAAAAUEAEAAAACogAAABAAREAAAAoIAIAAAAFRAAAAKCACAAAABQQAQAAgAIiAAAAUEAEAAAACqgUugF0hyfv/UH8xJbh0G2oVuvRokVLtHLloSqVyqHbAYDcIgCgJR7e+mR8yze+FbqNX6hUqjrppDdq1elvUbXaE7odAMgdlgDQlRqNur73vW/pc5/9K23fvjV0OwCQOwQAdLWhoc36p2s/q3p9KnQrAJArBAB0vaGhzbr55ptCtwEAuUIAQCHc/sPvqtGoh24DAHKDAIBCSJKmHn3kodBtAEBuEABQGNu2D4VuAQBygwCAwjDLQrcAALlBAEBhLFy4JHQLAJAbBAAUQhTFOuigQ0O3AQC5QQBAIZx44smq1XpDtwEAuUEAQNcbXLBIZ5x5Tug2ACBXCADoaoODC/W+916svr6B0K0AQK5wGRC6knNOxx77Gp199jvUPzAYuh0AyB0CAFrikGX7pXbKWaHbULlS0eJFS3XooYerl6d+ANgpAgBaYr9Xvy5deVgaug0AwByxBwAAgAIiAAAAUEAEAAAACogAAABAAREAAAAoIAIAAAAFRAAAAKCACAAAABQQAQAAgAIiAAAAUEAEAAAACogAAABAAREAAAAoIAIAAAAFRAAAAKCACAAAABQQAQAAgAIiAAAAUEAEAAAACogAAABAAREAAAAoIAIAAAAFRAAAAKCASqEbQHd48t4fxE9sGQ7dhmq1mhYtWqoDDzxE5XIldDsAkFsEALTEw1ufjG/5xrdCt/EL5XJFJ73mjVq16i2q1XpDtwMAucMSALpSs9nQ97/3bf3j5/5a27dvDd0OAOQOAQBdbWhos/7p2s9qenoydCsAkCsEAHS9oaHNWrfua6HbAIBcIQCgEG7/4XfVaNRDtwEAuUEAQCEkSVOPPvJQ6DYAIDcIACiMbduHQrcAALlBAEBhmGWhWwCA3CAAoDAWLlwSugUAyA0CAAohimIddNChodsAgNwgAKAQTjjhdZwICADPQwBA1xscXKgzzjwndBsAkCsEAHS1gYEFes/7LlZ//2DoVgAgV7gMCF3JOaejjz5RZ7/lXA0OLAzdDgDkDgEALXHIsv1SO+Ws0G0ojktatGixDjn0CA0OMvADwM4QANAS+736denKw9LQbQAA5og9AAAAFBABAACAAiIAAABQQAQAAAAKiAAAAEABEQAAACggAgAAAAVEAAAAoIAIAAAAFBABAACAAiIAAABQQAQAAAAKiAAAAEABEQAAACggAgAAAAVEAAAAoIAIAAAAFBABAACAAiIAAABQQAQAAAAKiAAAAEABEQAAACggAgAAAAVEAAAAoIAIAAAAFBABAACAAiIAAABQQKXQDQBAp7Pz/9feipsnyGyJFNXm8L84wX9XbfPrduEnh2b9KZftUOoectdcencbesIcEAAAYA/Z6tUlPTFytaz5mzI5yUmy0G21mf353H7MSZFkF37iLmXuV901lz7qty/MhiUAANhTT4z8pszeo5mRH3PijlOky0J3AQIAAOy5zHpDt9ChDgrdAFgCQBczSU8PmzaPSsNTUjMxWZtmZ82kNJWaTVN92pSmra8RRVK57LS4XzrqgEjLBnkIbbvYrlfm/lLSQOhWOou7OXQHIACgSw1PST951DTRCLge66S44tRbcWpMm6YnW9tLmkppanp6Wnp6KNXyxU5nHhUrYl6vbdwVl222Cz/xccldI5YB5uoJNeO57RuAV3xVoOsMT0rffzgLO/i/SKXm1NPvd3zYst10052Z1xp4KXfVZf8kZ38Yuo8OsU2RneO++DdbQjcCAgC6TGbSHY+Z0hyOg+WKU6niNwQMj2Xa+EQO/+G7nLvysr+U3O+G7iPf3A5F2dnuiss2hO4EMwgA6CpPDZsmc/Tk/2KVObwhPl8PPpnff/5u5q665G8JATu1VVF2mrvi738SuhH8NwIAusqm0dAd7Fopdt4XiqemTfXEcxG8rJkQoN8J3UfObFXmzuDJP38IAOgqw5OhO5iFk1wbtt5uHvZfAy/PXXXp38ncp0L3kRMzg/81l2wM3QheigCArtJo5n/62zn/m8Un6/n/99DN3NWXXCLpk6H7CGwLg3++EQDQVdIOGPdcG46KbXbCv4gu56669FLNhIAi/mVskcsY/HOOAAAAnsyEAHexihUCZgb/K//+ntCNYNcIAADgkbvqkn+Us4+qGCGAwb+DEAAAwDN35WWXS+4j6u4QsFmxO53Bv3MQAACgDdxVl3xesg+rO0PAZsXuDPeFS+4N3QjmjgAAAG3irrrsC8+GgG46rnGzLD2dwb/zEAAAoI2eDQEfUXeEgJnB/+pP/zR0I9h9BAAAaDN31WVfkKnDZwJsE4N/ZyMAAEAA7upLr5DsQ+rIEGCbFDkG/w5HAACAQNxVl13ZgSHgSbnoje6KS+8L3QjmhwAAAAG5qy67Uk4XqTNCwBNybpW78pKHQzeC+SMAAEBg7spLr+qAEPCE0pTBv4sQAAAgB9yVl14lcx9UPkPAzOB/7ad/FroRtA4BAABywl19ydUyvUdSGrqXXzA9zuDfnQgAAJAj7upL/0XOvUdSEroXmR6Xcwz+XYoAAAA546685F/l3HsVMgQ8N/hfdcnPg/UArwgAAJBD7spL/lVmYWYCGPwLgQAAADnlrr7s3yT3m2pvCHhMcXIag3/3IwAAQI65qy5Z08YQ8JiiZJW74h8eaUMtBEYAAICca1MIeEyZTmPwLw4CAAB0AHfVJWvk7N3yEwIeVabT3DWXPurhz0ZOEQAAoEO4Ky/7d5l+Q1KzhX/so8q0isG/eAgAANBB3NWXflmmd6s1IeAhJe4NDP7FRAAAgA7jrr70y5LNdybgISVulfunS55qVV/oLAQAAOhA7qrLrptHCHiQwR8EAADoUO6qy65TpF/X7oWAB6SEwR8EAADoZO6KS6+Xy94iaWQOP/4jNUunuKv+4WnffSH/CAAA0OHclX//bUV6naTv7+RHUkmXqjS5yn3xb7a0sTXkWCl0AwCA+XNXXHqfrV59ih4fOVPSr8nZYTKNS3aX4vha94W/ezB0j8gXAgAAdAm3enUm6b+e/Q+wSywBAABQQAQAAAAKiACAlli2RVnoHjB3Tq4dNXq8FwGwxwgAaInTTlMaugfMXdyG3/zMtNh/FQB7igCAlnDOmSQL3QfmptSG7b9m2SH+qwDYUwQAtMSN99uA1IZ5ZbREueL/Vz/JdKj3IgD2GAEALZEmzYNC94C5q9X812jWtdeaNVbxXwnAniAAoCVcGq8K3QPmLoqcenr9TthkmbnR5ckfey0CYI8RADBva9ZYLGcfC90Hds/gYOy9RqOe8LkAcooAgHmrHJ59UhIbvjpMT82pp8fvLEC9riVX3NL8fa9FAOwRAgDm5br1jdea2Z+H7gN7ZsmSWJHnb4HJifTPrvj21AF+qwDYXQQA7LHr72kcE7noq5LY6NWhSiWnpUv8LgWkiZWaSXQbGwKBfCEAYI/cuLFxosuib0oc9tLpevsiLfEcAqbr2Yodi+p3mxnfOUBO8MuI3XbDxuTczKJbJC0L3QtaY2Ag0tJlsdeTHCan7PDLv9V48PKvWK+/KgDmigCA3bJ2Q/p7ZvqyJL7Eu0x/X6S9lpe87gmYmsoOTivTj197m+3rrwqAuSAAYE7W3GuVtRuSqyX7S/G56Vo9PU777FNWqeRvKqBe15KxkfrDV65rvsFbEQCz4oscs7r+PltSTtP/knR+6F7gX7ks7bMiVrXqLwQ0m1abmEhvueLm6Yu9FQGwSwQA7NL16+tHumb6Y0mnhu4F7RNHTnvvXVJ/n7+viDSzaHzcPnPFuulPeysCYKcIANiptRuStzgX3yZpZehe0H7OSUuXxVqwwN8bAiZpbMw+/oVv17/qrQiAl0UAwMtauyF5h6S1kgZC9zJXSRa6g7lxbbgz0Vp4MfOiRZEWLfL7VTE+kf3yP36r8QOvRQC8AAEAL3HD+uR9kv5dUjV0L7tjutnCUc+nNiSARtLafxcLFsQzZwV4bH1qMn3tP35z+t7V66zkrwqA5xAA8ALXb0x/25yukdRxX8Lj06E7mJt2zABM1ltfZGAg0tKlsc8MoKkpO2KvRv2hq9dZGy4sBoqNAIBfuH5j88+d2WXy+pznz/BU6A7mJvZ/CZ+GJ/zMhvT3RVq2vOQ1xEzX7cCpxvTPPrPO+v1VAUAAgKTnBn/3R6H7mI8tY52xBBCX/eer8UnJ15aI3l6nZcv8zgTU61oRNRoPMBMA+EMAgK7fkH6q0wf/yYZpZDJ0F3MTRVLs8aAdScoy06Nb/AWi3t5IS5b63RMwXc9W1JPGPewJAPwgABTc2g3px53sb0P3MV8/3zrzSlmnqNT8zwLc85jf1yL6+yMtXux3PWNqKjt4n6R+p9ciQEERAAps7YbkfMkuC93HfE01TI9t76ThXyqV/e8FGJswPTHkt8bgQKSFnl8RnJyyoy7/1vStXosABUQAKKi1G5PzJF2pDv8MmKSNT0lph5wB8BznpJrHU/akmbMAfvBAoszzv5uFC/weFiRJk5P2hi98u/4Vr0WAgunoL3/smevuafySTFerC/7+f77VtGm0s57+nxOXpJ4+v0sBjYb0tbtSrzWkmcOC+jwHmvGJ7JzPf3v6770WAQqk4wcA7J61d9mBURZ9RV1wne+Tw6afPt2Zg/9zylWnWo/fELBj1PTtDf5DwNKlfi8QkqTJSfutq2+eutBrEaAgOvJ9b+yZmx6ywfpU9j3Jjgrdy3w9NmTa8JR11Ma/XWnUTfUJv/88ixc4venoWGWPe+rT1PTMM6mSFp9E+HxRrGygJz75wtMrt3srAhQAAaAg1q2z0vCS9CZJbwrdy3ykmXTPU5236W8u0lSaGs+UeXxYr5Sl046MtXyhx6t+G6ZnNvnde1Aqqz64oHbw+092T/mrAnQ3lgAKYnhJeok6fPAfnpRuebA7B39p5q2A/sFIFY/T6I2m9M27U33//szbQUHlitOypX5f3U+aqk6MTd9hZnyHAXuIGYACuGFj8j/M9K+h+9hTJunhLab7N1lLb7nLs6Rpmp4wr0/RvT1Oq452WtTrZwzdsSPTyIjfvQd9/dFXP3R69RyvRYAuRQDoctffba90UfpjSYOhe9kTkw3TnY+btk+E7qT9zKTpyUzNur8azkmHHRDphJV+QsCmTYmmp/2lNidpYEH88Q+cWvmMtyJAlyIAdLE1t1lPuT/7gWTHhO5ld5mkx7eZ7n3alHTYO/6tljSkyYnM61GHA/1OZx4dq6/FF0CnqenpZ1KlHjcFxpGy0mB03MWnVDd4KwJ0IdbPuli5P/1cJw7+9aZ0+88zrX+SwV+SShWpf0GkksdLhMbGTf9xe6KHNrV2oI5jp6VL/B4SlGaKNGnfWbPGKl4LAV2GANClZo751ftD97G7to5L33ko05ax0J3kSxRJvQNOtV5/ISBNpdvvS7XunrSlGwR7epwWLvQbAuoNWzSypH6T1yJAl2EJoAt95W7bN4nSeyQtDN3LXJmkBzebHthsnXWrTwBp0zTleYNgreZ0xjGt2yBokp55JlGj7nc/wILB+H0XnFb5orciQBdhBqDLmJlL4vRKddDgP9kwfe/hTA9sYvCfi7js1LfAeV0SmJ42fe1Hpvueas1fiJO0bGks5/GRwySNT2VfuOQu65jPPhASAaDL3Lgh+6hMZ4fuY652TEq3PmTaUcBd/vPhnFPvgPN6rXBmpp88mOq7P23NVEO57LRwod+vnKRp1d5tDZYCgDlgCaCL/Md6W5m6dL2kgdC9zMXTw6a7HjelPPXPS7M+syTg06JBp7ccFyua7/ht0jObEtU9LgXISQN97mMfPL32WX9FgM7HDECXMDOXuvRqdcDgb5Ie2Gz6yWMM/q1Qrjr1DTo5j/PrO0ZN1/8w1fh83+l3M5cG+VwKkElT03bJFV+3xR6rAB2PANAlbtiYvl/SqaH7mI1JWv+E6YFN3XORTx7EpZkQMO8n9F2Yrpu++uNU28fntyRQLjstQieryAAAIABJREFUXOB5KSBRJavUr/NaBOhwLAF0gZlb/tL7Je0TupddyUy68zHT0yMM/b5kmTQ5mnl9QyCOpdOPibXXgj3/+jCTnn4qUdPjAUHOSX0DpbMuOq38TW9FgA7GDEAXqE+lf6acD/5pJv3okYzB37MoknoHnWKPr92nqfTtuzM9uX3P/wznpMVL/Z4NYCYl9YRXAoGdIAB0uOvX14+U9NHQfexKkkk//DmH+7RLFDnvISDLTN/dkOqpeYSAnppTb4/fScjpuva64jvNP/FaBOhQBIAOZmbOufgfJPm9e3UeMpPueDTTNl7zayvnZkJA5DMEmOmWDak2j+75rM7iJZ43BEqamkr/kLMBgJciAHSwG+5J36Ucb/wzSXc+bjz5B+KcU29/JOfxtzwz0813Z9o+sWebDkolp8FBv0sBSdPKfdvqa7wWAToQAaBDrVljscxWh+5jZ0zShidMTw+z5h9SFEt9g5GiyOcdAqZv3pVpbA9fEVywIFIU+14KsDMv//70wV6LAB2GANChyoen50vu8NB97MwDm0yPbWfwz4Moknr6/dZoNqWv35mpmez+/zaKpAWDfgNAmsq5Sfclr0WADkMA6EBr7rWKTH8cuo+deXrY9NBmBv88iUtOPf1+B9l63fT1u/dsKWBwMFbseRZgcjp77TW3Nk7wWgToIASADlROso9KWhm6j5czPCXd9QSH/ORRueJU9Xh3gCSNjGW69b7dDwHOyfs9AWbS9HR2jdciQAchAHSYb6y3Pjn7w9B9vJzppun2RzKlHg+hwfxUe51KZb81HtuU6Z4ndj8CDvRHKnu84VCSpqbtyKvXNU/zWgToEASADjOp7CJJe4Xu48VM0h2PmerN0J1gNj39kdcjgyVp/c9SDY3tZghw0oJBz42ZVG+mn/NbBOgMBIAOsmaNxXL2W6H7eDkPPGPazrv+HcG5mRDg8yBwM+nm9eluH0nc1x8pLnl/I+Cwz69rHOu1CNABCAAdpPyq9DxJB4Xu48W2jUsPbWHVv5PEJXnfD9BoSjffm+7W/8Y5aWDAb19mkrLsH7wWAToAAaCTOPe7oVt4sUYi3fF4xqa/DlTtcSp5XnPfNGS6/+nd+3QMDvg9vEiSpqZ08v/3Q8vdUhrQTgSADnH9+ubpkh0fuo8X2/Ak6/6drNbnvB/Fe9dDmSYbc//5KHIa6Pf71ZRl5iYmG5/1WgTIOQJAh3DO/U7oHl5s86i43a/DRdHMmwE+pZnplt1cChgcjLzfVT41bW+7ep3VPJcBcosA0AFu2Gj7Szo7dB/Pl2QzT//ofJWqU8nzxrttw6aHN83981IqOfX4DiaJlVI1cnugFuAbAaATWPJBSX5vTNlN9z5lmmoSALpFrd95fStAku54MFWyG0cF9/f7/8g3GtkHvRcBcooAkHOrzSIz9/7QfTzfjgnpcc757ypR5P+tgCSVvvfg3N8L7Ol13o8HbtS197W3NI7zWgTIKQJAzh29ITlLTgeE7uM5JuneZ9j1342qNafI80P3U1syjUzM7dPjJO+bAU1SPcn+n9ciQE4RAPLOuQ+EbuH5nh7mwJ+u5fzPAphJ379/7rMA/QP+lybqda1avc5KfqsA+UMAyLGv3GFLnfS20H08JzPp/k2hu4BP5apT5Hko3D5qenxobj9bKjnVqp6XJhIr76v6J7wWAXKIAJBjaSV7p6RK6D6e88iQaaLO5H+3q3nefS9Jdzw099cC+/v8f02liS7yXgTIGQJAjpnsnaF7eE6WSQ9vZfAvglLJeT+Pf3La9LPNc/s89fY672cC1Ov2Ss4EQNEQAHJq7V22UNKpoft4zqPbOfGvSKo9/mtseHRuewGi2KnW4zcCZJmcRcnHvRYBcoYAkFMuTs9VTqb/s0z62ZbQXaCdSmWn2PMbAROTpsfmuBegt9f/V1WjmZ7vvQiQIwSA/MrN9P/jOzj0p4gqPf6/Hu7++dz2AvT1tWEZYFqHr1ljuQjdQDsQAHLopods0KQzQ/chzbwn/fOtobtACOWKvJ8LMDZhGhqbPVxGkfP+imKWWTSyvPkRr0WAHCEA5FBjOj1DUjV0H5I0NCaNs/O/sMqeX8GTpLt+Pre9AD2e9wFIUpbYe7wXAXKCAJBHpjNCt/CcR4YY/Ius0oYYumVYc7ojoKcNSxLNph3pvQiQEwSAXLJcBICppmnzKAGgyJxz3mcBLDPd/fjsewEqFf93AzSb1nPVt+pHeC0C5AQBIGduvNNWmNxhofuQpMe2iTP/0ZZZgEefmdvP1TzvA5CkxBn7AFAIBICcsTjNxeY/SXpqR+gOkAdxyf8lQdMN09bR2fcC+D4PQJKyTGd5LwLkAAEgZ7IoH+v/w5PSRIPnf8wol/0PvPc9OfvP9LRhBqDZ0MHeiwA5QADIGZfl4/S/p4YZ/PHfSm14G2DT9tlnAEolp5LnY4qT1EpXfbeZi99DwCcCQI6sudOWyemA0H2YpGdGQneBPIlj/2cCNJrSMztmD57VNoQRpXau/yJAWASAHInL6Umhe5Bmpv8nmf7Hi5Qr/gfeB5+Z/XNXacNZfc3UTvZfBQiLAJAjkdyJoXuQpC28+oeXUSr7r7F1DktP1ar/r60ksUO9FwECIwDkip0QugNJ2jJOAMBLRbGT8zwJUG+Ypma5dbJScfJ9MUCS2ILV66zktwoQFgEgT0zBZwCaqTQ8EboL5JFzUux5SDSTHnx615sBo0gqe94ImGVy+1XSs70WAQIjAOTEjXfaCkn7hO5j65hx+A92qtSGfQBPbcvJRsBG8lb/RYBwCAA5YaUkF8ePDvH0j10oteE8gNGJ2QNAuQ37EbLEHeO/ChAOASAnMhcdEroHSRqe5PkfOxdFM/cD+JQk0kR91z/TjoOJErNXeC8CBEQAyAlnWfBdx1kmjU6F7gJ553sfgCQ9McstlKWS/6+uLNNi70WAgAgAeeFc8AAwPCVlTABgFu0IAJtmORCoXJb/NwGaVuNNAHQzAkBemAVfAtjB9D/mIGrDkLhjln0Azkklz1cDm0mvsGYuXs0FfCAA5MBqs8jJrQzdx9h06A7QCWLPA68kTc+yB0CSSu14No/dG9tQBQiCAJADx96jfU2qhe5jvM4MAGYXRd5n35Wmpnqy65/xfSmQJKWJ8SYAuhYBIAcsbQZ//1+Sxufw1AVI/i8GkqQts1xI1Y4AYMr29V4ECIQAkAMWR8tD99BMpcYsT1zAc9oRALaN7fpEwLgN316Waan/KkAYBIB8CB4AWP/H7ojasA9geHy2Hry3oMy0yH8VIAwCQB6YCx4Appqs/2PuojacxDvbldTt2IyYmQa8FwECIQDkQhY8AMy24Qp4gTYkgMYstwLG7ZgBSK3HfxUgDAJADkQKPwNAAMDuiNrwzdGYZVaqLQEgc224dQAIgwCQDwtDN1Cf5WkLeD7Xhm+ONNv1LEPk+U4CScoyc2bG9yS6Eh/sHMjDGQD1hD0AmLt2zACk6SyfSTdzIqBv/3y7+v1XAdqPAJAHTtXQLSRp6A7Qcdow+M72uWxHAEgzNgKiOxEA8sDCB4B0169cA0E0Zw2mbTgNcLKxwHsRIAACQA6YXPAAwPiP3eXaMPg2Z1kGaMcMgCLHDAC6EgEgB5yy8AFglg1XwEs4//tGmrPsTWnLXoTIDfqvArQfASAXws8AzLbfCnixdkTG5qzB1P8Ht5RlzACgKxEAAAAoIAJALlgjdAd8EJBH5WiWJ3xrw1kAcTTLrQRAZ+J7Pxei4AEgnu2LFgigNMt5/2351GaabEcZoN0IAPkQPAC0ZTc1uoq1YRdAPMudA+0IAKmMGQB0JQJADrgcLAG04251dJnM//BbK+36v7c2JIBylE34rwK0H1/7OWBSPXQPlTZcrYruYeb/6ds5qTRrAGjDWwCuygwAuhIBIA+cRkO3UOHOM+wGa8PJUbO+42/t6eNnqbb6rwK0HwEgD0zbQrdQacPVquge7Vh7n+2637QNSxBR5LLVqxyXZaMrEQBywMyGQvdAAMDusDYMvrO9AZC14ek/jsRF2ehaBIA8cFHwGYDeSugO0EnaMfjWZvlMtqMHF4XfnwP4QgDIBQsfAKpsAsTctWPw7a/t+jOZtuEK68iJNwDQtQgAORA5BV8C6GUTIHaDteHyiIGeXf/3bdkDELsx70WAQAgAOWBp9lToHiolqcQ+AMxR2oYZgIV9u54BSNqwOu/MnvFfBQiDAJADzaz8SOgeJGkg+J2E6BTWhun3vRfMsgQwy1XBreBiPey9CBAIASAHzjvebZUU/LCRwR72AWB2lvk/ga8USz2zBNKkHXdYR9EG/0WAMAgAOWFyj4XuYbAWugN0gnYMvLVZNgBKUtKGt/Ot4u7wXwUIgwCQE5Hs0dA9MAOAucjaMPAOzrIB0NSGIOKkcr10p98iQDgEgJww6eehe1jYw62AmF3ahgCw9+JdfzUlTf+XEZRi17xglZv2WwUIhwCQE07u3tA9xJG0YJYnL6Ad798fsHTXSbTZ8L8MEZfDH9EN+EQAyAuXbQzdgiQt7mUKADuXpf6PAS6Xpb5ZNgA2mm0IAI43ANDdCAA54cqljWrPHSu7tLgvdAfIs6QNr94NziGENttwBkAUiw2A6GoEgJx4+2FuTFLw8wCWDTgxB4CdSdvw5L1iyVwCgP+TiGKVvu29CBAQASBfgr9zXI6lhb2hu0BeJU3/8fBVK3b9tWQmNTzPADgnOcXf8lsFCIsAkCfO3R26BUlaPsAcAF4qaZrM8wlAtapTbZZ7KRr1NrwBUI4meAMA3Y4AkCOm7LbQPUjSXoMEALxUO87eX75w9s/edN3/9H+ppAe9FwECIwDkSFwu/VBSG16y2rUFvVJvhRCAF0ra8Ordq/ad/XNXb3hvQ+XY3ey/ChAWASBH3n6YG5O54K8DOkkrFobuAnmSplLm+cG7Upb2muUCIOnZJQDP4pL+xXsRIDACQM44Z98P3YMkrZjDFzGKo9mGQXe20/+kmdcQfb+KGJeUnP/Gyk+8FgFygACQM2bKRQBY0Cv1VQkBmNGOk/eO2H8O6//T/vsoldwT3osAOUAAyJlmKV6nHBwI5CTtvzh0F8iDNDGZ5+n/nprT0jm8fTI15f9Xo1wS6/8oBAJAzpz3ardJysfrgAcsclwOBDXa8NR90N5z+6BNt2EpohJHn/FeBMgBAkAOmcu+FroHSaqWpb04E6DQLDMlnnfdR87pyP1n/ypqNmdmI3wql6Kp959auctrESAnCAA5FGX6eugennPgLLeyobs1G/7Xo5YtlMql2X9uasr/G7LlinIx+wa0AwEghxoPlG6TtD10H5K0fEAa5Irgwqq3Yfr/+EPmFjInJtow/V8yXv9DYRAAcui881wq0zdD9/Gcg5kFKKRmw//mvwUDkZb0z/41lKamuuf1/yhy1hirXum1CJAjBICcctKXQ/fwnP0WOdXKhICiacfT/7EHzu0raGrSfy+1mnvow291k94LATlBAMipHYPxf0oaDd2HNHMz2iHLQ3eBdmo2TVnit0Z/j9P+S+f2sxOT7Tj/P7rWexEgRwgAOXXBSjct6auh+3jOgYuZBSiSRhvetz/hkHhOP5dl/g8AiiJZMla61GsRIGcIAPm2JnQDz4ki6dC9QneBdkiaUur56X+gb+5P/5MTmTzfQqxa1d3P9D+KhgCQY8MD8deVk2UASTpgseOWwAKot2G6/cQ5Pv1L0viE/37Klfgq70WAnCEA5NgFK920k/4tdB/PiZx0xIrQXcCnRt2Uen7dfslCp33neMx0kpj36f9SrLR/c+nvvRYBcogAkHNplH0hdA/Pt2KB05L+0F3ABzOp7nkS3DnpjYfP/WtnfNz/03+15r573nnO83mHQP4QAHLunUdWfiy5XB1NeuSKSCwEdJ/6lMk8L7YfsE+k/trcPz3tOPynHEV/5L0IkEMEgA7gTFeE7uH5FvRwRHC3yVL/l/6Uy9LJh879K2dqytRs+u2pUtHWC1ZVfui1CJBTBIAO0GhG/ywpVzuUD9/bqYfXArvGVBuetE86NFa0G984o2P+z/6vVcXJfygsAkAHOO9EN+Kkfw7dx/OVYumY/QkA3aAxbd5v2Vu+yGnlXnP/vCSJacrzWQRxySXJeO1PvRYBcowA0CGcxX8ryf+OqN2wfGDmmGB0riyVpr0PtNKpr577a3+SNDZm3q8hrNV0E+/+o8gIAB3i7ce4B2S6KXQfL3b0fpwN0KnMnp369zjQOie95lWxquXd6CuTxsb8Zt04ljlX/ZjXIkDOEQA6SWR/G7qFFytF0vGvcLwV0IHaMfW/77JIBy3fvU/H6FiqLPPbV7UW/eiiVe5Jr0WAnCMAdJBzjyp/R04/Ct3Hiy3ukw7djfVdhJc2TXXPU/+1qtMpr969rxgzaXTU89y/k8rOfcJvESD/CAAdxkx/E7qHl3PYXk7LB0J3gbnIMvO+6z+KnM441u32F8z4eKY09dtbT9U9dOHpldu9FgE6AAGgw5x7VPxlya0P3cdLOOmEAyL2A+ScmTQ9MXPDnk8nHRZpUe/uf72MjHhuzEmVWnyR3yJAZyAAdBjnnEm2OnQfL6ccSyce6BSTAXKrPmlKPB+us3JFpEP2YElobDxT4nlPQk8t+umFp5Rv8VoE6BAEgA507tGlG/K4F0CSFvZIxx3gxK7A/GnWTY263wF28QKn179q979WzKSRYb9P/85J5VL0Ya9FgA5CAOhQzvQnoXvYmRULnI7YmwSQJ0nif92/r8fpzcfv3vv+zxkdS/0//fdE6z+wqvw9r0WADkIA6FDvOLp0k6RbQ/exM4csdzqA+wJyIUukqTHvZ+rrl0+I9+gLJcukkWHfmxJlaUXv81oE6DAEgA4WZdknJPk/MH0PHbPCad+FhICQskyaHDf5vOSvVJLOPm73Dvt5vpHRzPt7/7Ve942LT6lu8FoE6DAEgA729mMrd8l0Teg+dspJxx/gtIIQEESWSZOeB9c4ls46NtKC3j37O04S09iI3wxbKrnm5KLqb3gtAnQgAkCHM8V/JGkkdB874yQdv7/TMs4IaKv/Hvz91YgjpzOPjbV4YM+/RrZvz+T54V89fe7vPnmcG/ZbBeg8BIAO96vHuC2S+7+h+9iVKJJeszLSPguYCWiHLJMmx/wO/qVYOvO4SMsG9/zvdHraNDnpd+d/tRrt+OCp1T/wWgToUASALtCMo0sl+2noPnYlcjNnBOzP7YFeZemzg7/HWfVSSTrr+PkN/jJp23a/U//OSbWyLvBaBOhgBIAucN6rXcOZXaicXRf8Yk7Ssa9wOmAJIcCHNJEmxszr4F8pS79yYqzF/fP76hgZTdVs+J377625Wy48vXqj1yJAByMAdIl3HFO53UmfC93HbJykY/ZzOnJfDgtqpaRhmhzLZB4X1Pv7nN7+2pIGeub3F9dMTMOeD/0plVxjYmn1HV6LAB2OANBFXCX+Q0lPhO5jLg5a6vRLB3BscCs06jOH/Ph81W/pQqe3nRSrWprnH2TStq2p117lpJ6aPsnGP2DX+PrtMtdtTH4lMv1n6D7masek9ONHTdOez6fvSiZNT/o93tc56ZB9I73m0NY8K4yOZtruee2/p8fd85E31Y7yWgToAswAdJl3HlX6qjldEbqPuVrUK532Kl4T3F1ZNrPe73PwjyOnk4+IWzb4J4lpx7Dvd/7VHNy7eqbXIkCXIAB0ob4s/p+SPRC6j7mqxNJrD4p06HL2BcxF0jRNjJhSj2fn9/U4vfU1kVYub81fiEnaujWVeVz6d5L6a/rIu49ym/1VAboHX7ddau2GxglSdJukSuhedsfQuHTn4ywJ7Ex9ylSf8jvlv//ySKccFrX08WDHjkwjnk/86+l13/jImbU3ey0CdBFmALrUuUdXfuLM5fbGwJ1Z2i+tepXTCg4NeoEslcZHM6+Df7ksnXJUSacc0drBf7pu3gf/aiUaWby9+javRYAuw7dsF1ttFh2zMf0vSWeE7mVPbBo1bXhShZ4NMJOadVN90uTz38Lei51OfXWs8nx3+b9IlpmeftrvVb9x5LL+3ujkC0+v3O6tCNCFCABdbs29tricpndIWhm6lz2RZNJ9m0yPDJm8joA5lCYzr/f5PNinVnE6+YhIK3yc0GjS5i2JpjzOWshJgwOlP/7AaeVcH4cN5BEBoABuvLtxXBZF35fUE7qXPTU8Kd3zdKbtE6E78c/MVJ+U1x3+UeR00Aqn1x7c2un+52vHuv9AX/S1D55R/WWvRYAuRQAoiOs3JBc56fOh+5gPk/TMsOmnz0iTno+RDaU+ZWpM+z3UZ/kSpzceFqvH4/bQyUnTli2JvwKSqlVt+uhZtX2dc7k+AhvIKwJAgaxdn1whpw+E7mO+0kx6bLvpoc2mut8xpm2ShjQ96fcGv4UDkV7zSje/S3zmoNk0PfNM4vc2wpIagwtrB73/ZPeUvypAd2vxlh/k2ZZm/NHllfQASR19UEoczRwl/IpFTj8fMv1sq6npd6bZm0bD1Jg0vwP/oNNrXxlp6YD/vJ+lpi2bU6//PFEkq/WWzmHwB+aHGYCCuekhG6xPZd+TrGuOSk0y6akdpp9tlcY9rpu3jM0M/PUp83YwjnPSskVOxx/ktHSgPW/7mklbPG/6c5IGB9xHLlxVu9xbEaAgCAAFtPYuO1Bx+kNJe4XupZWe2yPw6DbTtvH8vTSQZVJj2tSs+1vjL8XSvssinXhIpJ6ynxo7s3Uo1cS43+X4/oH4MxetqnzcaxGgIAgABfXsSYG3SOoL3YsPEw3TY9ukJ7YH3idgUrNhajSk1ON5BgsGIh22r9PB+7ggp3vtGM404vmc/77+6KsfOr16jtciQIEQAArs+o3NNzlzX5FUDd2LLyZpx4T01Ijp6R1tCgM2c/FNUp/ZEOfjad9J6u2R9l/m9Or9/e7on83YaKZtnm/46+11d3/4zNpxXosABUMAKLi1G5J3SPp3FWBDqJm0dVzaMmraMtba/QJmpqTplDQyJU15GfQj5zTQ77RiiXTYikh9OYht4+OZhoZ8D/7Rgx86o3I4r/sBrUUAgNZuTN4j07Uq2N0Qk42ZILB9YuY/u3O2gNnMSX1pc+Z2vtTDGOgiqa/qtHjQ6YBlkQ5Yolz9DU1MZtq6xfMZ/zX3yJZy9ZWrV7kueeETyA8CACRJN2xILjDpShX4MzGdmHZMSCNT0tj0zP+dapiyzJRmMxfypMnMwN/q43kj51StSv290uJ+p30XO+29KMx6/lxMTGbaujX1utOyWnNP95SrB1+wyk37qwIUV2G/7PFSazekH5Lsc8rVc2ZYjVTaOiINT5rGJk3j06bphtRoSklmykyyTDJzMnvher979rcrimb+Uy45lWKpUp55sh+oSYv6Iy0ZMPXXOudXcWIi09Yhz4N/VZsGF9Re9Z7XulF/VYBi65xvHbTF2vXJb8jpWkltfokMnWBiItPQ1tTrK5a1qnu0VqkezpM/4BdPeniBc48p/YszvdNJfPniBcbHZp78fQ7+PT3up5sr1UMZ/AH/mAHAy7p+ffPNzrnrJPWG7gXhjY6m2r7d7yb8vp7ohx96U/V1XosA+AVmAPCyfvWY8teVZaskbQ7dC8Latt3/4N8/UPoygz/QXgQA7NS5x1Z+FFv8OsnuC90L2s9M2ro11diov8HfOdNAX/TnF60qv8tbEQAviyUAzOo/N9iiptLrJZ0Wuhe0R5aZNm9JVZ/2t+Ifx8oG+nT+Baf1fNFbEQA7RQDAnKy51yrlNL1c0vmhe4Ff9YZp65ZUSeJv8C+X3VRlQXzmh04u3+atCIBdIgBgtzx7VsCnJQU8fR6+TEzMHO3r67ZCSeqpRY8Oliu/9O5VbshfFQCzIQBgt63d0DhBFl0npwNC94LW2bEj08iIv6N9nZP6e6P/+OAZ1bd7KwJgzggA2CM3brS9Mkv/TdKpoXvB/CSpaWhrqmmv6/0u7e/Vxy5cVbvcWxEAu4W3ALBH3n6U29y8Pz7Dyf2BpGbofrBnpqdMzzztd/CvVtxQacAdz+AP5AszAJi3tXc3TlIU/bOkQ0L3grkxSSPDmYZH/J3p7yT19kZrLzqj8mtc5QvkDwEALXHj/TaQNdK/kfSh0L1g1xoNaWgoUWM3rj/eXeWym+6rut+84PTq9d6KAJgXAgBaau365J1y+rSkfUL3ghcxaXgk1fBI5u+p30m9Pe7W3v7qOdzkB+QbAQAtt+YOW1ApJ//HnPu42GeSC42GtG0oUd3jU3+lEk309sUXXPDG0r97KwKgZQgA8OaG9c03yunzJndY6F6KykwaGZl5vc/Xu/3Omfp7468Nbqu847zzXMNPFQCtRgCAV2tus57yQPZ7Mvs9cbNgW01MZNqxPVOS+nvqr9Wix6sld96Fp1du91YEgBcEALTFV+62fROX/oWc3iM+d141G6ZtO1JNT/nc5BdN9tTs9z6wqvYZb0UAeMUXMdrqunsavxRl0WWSuPq1xbLMtGM40/ho5muPn6JI1lOLbli4vfLrTPcDnY0AgLYzM3fjhvQcc+5PJTsmdD+dLjNpbDTVyEimzNPb9nHkrFbVd6t91d98/8nuKT9VALQTAQDBrDaLjt6YvtPJ/kxyrwzdT6fJMmlsLNXoqCn1tM4fx7Jazd1mWfXdH36Te9xLEQBBEAAQ3Lp1VtqxNH2fM/t9gsDsssw0OpppdNSUZX4G/ihy1tOj26ym93/49bWfeSkCICgCAHJjtVl07Ib0V8zptyWdGbqfvElT0+iYaWw09TfVX3JJTzX+Wn9a+shvnOWe9lMFQB4QAJBLN6xvvEYu+h2TzpVUCt1PSPX6zBP/xKS/E/zK5Wiit+aucCr/wQWr3LSfKgDyhACAXLvup7ZPnGTvM9lFkg4O3U+7ZCZNTmQaHcvUqPtb369Wovuqlezvzj+150ovRQDkFgEAHWG1WXTsxuR0k7tI0tslVUP35EO9bhobzzRWhRi3AAAB9klEQVQ54W9Hf6USjVYq9u99rvoH717lhvxUAZB3BAB0nLV32UIXpW8z6V1yOktSJXRP89FoSpMTqcbHTUni52m/XI6mq1X7frkU/8X5p5S/7aUIgI5CAEBHu/4+WxI10nPN6TxJp6pDwkCjIU1OZpqYyNRsehr0S9FUtWq3RaX4rz5wavm/vBQB0LEIAOgaX7nDetNKcnImnRlJb8/TJURZJk1PZ5qaMk1N+XnSj2JZpew2lUrum9WK+/T73lC5o+VFAHQNAgC61pc32GGxsjOds9eb6Q2S9mtXbcukesM0PZ1peto0XbeW7+CPY1m5rG1x7DZETtfFrnoVO/gBzBUBAIXxlXvtFWmavkHSySYdL+lISQPz/XNNUtI0NRqmet00PW1qNqy1472TyiVNR7F7plxyP4qdvvy4KjesXuWSVpYBUBwEABSWmbnrN2qlU3qUkztKZkfK6SBJB0pa9tKfnxnok0RqNDM1m1KjYWo2Tdai0T6KZHHs6nFkIy6OH4mj7K7YuZub45WbPvxWN9maKgBAAABe1jfWW9+EGitjxQeNT7rXTNWTI5OGHSBpQZZZv1nUm5mVJckyxSY550xpOvM75dyz/w9JLrLUyZlzlkZRNOWcjTunkchph+SGosgejWJb78rR7RecXL0/4D82gAL5/wHMOihkQuoIaQAAAABJRU5ErkJggg==;" vertex="1" parent="1">
          <mxGeometry x="897.5" y="290" width="80" height="80" as="geometry" />
        </mxCell>
        <mxCell id="HLB04OiPP8K-Rc5S-tSk-7" value="" style="shape=image;imageAspect=0;aspect=fixed;verticalLabelPosition=bottom;verticalAlign=top;image=data:image/png,iVBORw0KGgoAAAANSUhEUgAAAgAAAAIACAYAAAD0eNT6AAAABHNCSVQICAgIfAhkiAAAAAlwSFlzAAAOxAAADsQBlSsOGwAAABl0RVh0U29mdHdhcmUAd3d3Lmlua3NjYXBlLm9yZ5vuPBoAACAASURBVHic7N13dFxneib4597KyIkIJMCcoyhKDBKVqCyxJVGp253Hds/a491td3vnzOycM3O8e+z1mfHY7XU7tXvb7W63utUKFCVmijmIYCZBkAQBEDnHAgqV6967f1CJAUQVUFXfd289v3N0JJFg1SOocO97v/B+CjLUO31GjiMYWARVmQ0Ds2FglqGqFYphlAAovvmX4rn51UYBAEVcWiKi1NKNm383DEAzAB2ApiMWhRKN6kBUMxAz4NQN2IQGjY8BKN5P/zEIYBDAIBRlANC7AbQAaIFhtDiNrPo/WqaMCUsqUEbc1D7sN3L1YHiDoRjrFUNZBRirAMwBoIrORkRkJjEDCGlAKHbz7zFDdKIp0wE0GYZySVWNGhjKybDqqv5PixWf6GCpZskC4OfNhrvQFn7MAJ4D9CcAZTlgiqqViMhUYsbNYiCoAYEYYP56AACgAcplBTikK9gz6nYd/dM5Skh0qGSzTAGwo9VbGFNcr0DBa4aBJwBkic5ERJRJdACBKDD26eiAhQQMGAcVRXkfodC2H6wu9IoOlAymLgB2NRiuiCv4iqHgmzCUZwA4RWciIqKbIwP+KDAavbmmwELCMIx9BvCrUXi2/ekyJSI60GSZsgD4sDO0SNfwPcD4DoAS0XmIiOjuDABjUWAkYon1Arfrh6L8Qgd++idL3PWiwyTKVAXA1tbgRlVV/nfDMF4F5/SJiEwlEAOGI0BUF50k6QwABwxF+dsfLnFvFx0mXtIXAIZhKB+1h7+iA/8NMNaIzkNERFPjiwHD4S+2HlqKgjMKlP/7j5e4d4iOMhGpC4BtraGnDMX4fwA8KDoLERElj27cHA3wRUUnSZlThqL8ucwjAlIWAO81hxfbbPpfA3hedBYiIkqdsA4MhoGItXYNfEHBQUVRf/DHi101oqPcTqoCYGvHaLGqO/7MAL4HzvETEWUEwwC8ny4UtKiYAuOfdSP6X3+4LH9IdJjPSFMAbG0NvKFA+TsoKBWdhYiI0i+kAf0hy20b/IKCPsXAf/zjpZ5fio4CSFAAvN8RqLQZyj8ZBl4UnYWIiMTSdKA/bLlGQrcwYOyADX/ww0VZnSJzCC0AtrYG3lAU9SeAUSgyBxERycP4dIHgqHUXCALAIBTj3/9gSdZWUQGEFADv9Bk5jlDoxwC+K+L9iYhIfqMRYMi66wIAAAbwMy3q/v5/XKX40/3eaS8A3msPLbAZxlYAy9P93kREZC7+6M0pAStTDNQZuvrqD1a4rqXzfdN6HO7W1tBmm6GfBm/+REQUh2wHUO4BFOEr1lLHULAYNr36r68GtqTzfdNWAGxtDf5nRTE+ApSCdL0nERGZn9sGlLklWLWeWnkKlPf+5mrgP6brDVP+/XzHMGyO9tCPAfxhqt+LiIisKxC7OR1gWHWb4KcM4GfZAfcf/i8PKCldBpnSAmB7l5EVi4XeAzv6ERFREoxFgQGLrwn41E4j1/3GD6uUYKreIGUFwN4eIzsQDX0IA0+m6j2IiCjzjERubhPMAEcjqnvzf1qs+FLx4ikpAD5oHi5QbO7dBrA+Fa9PRESZbSB8czQgA5xEOPTCD1YXepP9wklfBLi3x8iGzb2dN38iIkqVYhfgSus+NmE2KC737v9eZ+Qm+4WT+u17p93wBCKhHQA2JvN1iYiIvkwBMM2d5r3sghjAeqcW2v2Xl4zsZL5u0r53hwzD7jBC7wN4PFmvSURENB67enMkICMoeNjmCL79p4cMe7JeMmkFwEhb6B/A1f5ERJRG2Q4g1yE6RXooUDYXlIV+nKzXS0oB8EFr8P80FHwvGa9FRESUiEInYLd4l6DPGMAf/OhK4P9IxmtN+Vu2tS38sgL9g2S8FhER0WT4Y0B/SHSKtNEVRXn5j5e4d0zlRaZ0097aEVqo6MZpAPlTeR0iIqKp6g0BwZjoFOlieA1DffCHy9yNk32FSU8BvNNn5EA3toI3fyIikkCRM5OGopUCRdHf/8lZI2uyrzDpAsARCv1YAZZN9s8TERElk0MF8jJkQeBNykp/VuhvJv2nJ/OHtrYHXlUM5f3JvikREVEq6AA6xm7+PVMohvHmHy/LejfhP5foH3i/I1Cp6moNYBQm+meJiIhSbTgMjGRGm+DPDNpVfeX/tji7K5E/lPAUgKLj73nzJyIiWeU5ACVzFgMAQHFMV/850T+UUAGwrT34dQXKS4m+CRERUbrYVCAnaf3yTOPFH10JvJ7IH4i7RtraMVqs6I5rAKYlHIuIiCiNNB3oCACG6CBppAA9zlh46X9YWTAcz9fHXyPpjj9HBt38HaoCuwKoigJVAexQMml/CRGRORlADAY0AyiIAj7NQEzPjDLAAMpDDuefAvh+PF8f1y3to9bwMk3RLyKRgsEkFABZdhW5DhVZNgVuVYHLpkLlzZ6IyNR6AjG4VB2aAQQ1wK8ZGIkaGI0q8MUMGNasC2Iq1NXfX+qqnegL47qha4r+o3i/1gxsAPJdNhQ5bMh18GZPRGRFpR47BoJhOFQFOXYgx66gzHXzgq9DwXAE6A0Z6A/fHDGwCLsG/W8APDXRF05469vaHnpOMYzdSYklWI5dxTSXDQVOG2/6REQZoG0sgtwJHl81AP0hA+0BwBezRiWgGnjq+8s8B+71NRM+1SuG8adJSyRIjl3FdI8duY6knX5MREQmkO1QAePebYFsAMrdCsrdwEgEaAkaGAynJ1+q6Cr+wjCMdYqijFvR3PM5+NOT/rYlP1p6ZNtVVGXZkW3njZ+IKFP1BiJwJngbGIkaaBy7+XfzUjb/YKl753i/e89viQLjvyY/UOrZFQWzshxYlOfkzZ+IKMOFtMT/TL5DwZpCBYvzFNhMO2V873v4uP9ZH3YEn9B1HEx+oNTKc6iYne2Ag5P8REQEoCsQg0ed/OkAIQ2o8+kYiiQxVJoYBh794TLPsbv93riPx4aBP0ldpORTAFR47Jif6+TNn4iIPlfgmtpIsNsG3FegYm62Yrp2MIpijHsvv+t/y4edoUW6Zlwb7/dlY1OAeTlOLvIjIqK76vFH4LJN/XUGw8AVn46YeY4b1FUoi7+/1N1w+2/c9Y6pa/geTHLzd6gKFuXy5k9EROOLJGktX7ELWFOgJryoUCBVB37/rr9x+y+8c8VwAsa3U59p6ly2mzd/Dxf6ERHRPdjU5N0nsu3A/YUqpjizkEbGd35y1nDc/qt3xHfmBrfABD3/7YqC+blOuMy7PJOIiNLEk+S1YVk2UxUBZQFP8OXbf/GO6IaCb6Ynz+SpCrAw1wE3F/sREVEc8lIwTez5dHGg3Qy3IkX9xh2/9OV/+aB5uAA2dy8AZ9pCJUgBsIBz/kRElKCBYCQle/oHw8ClEelXBYbDLnfZf56njHz2C7fcRQ2b+1VIfPMHwJa+REQ0KeEU3aOLXcC8HOmHAVyucOilL//CLXdSVcGr6c2TmFyHijKPZQ4lJCKiNErlM/rMLAUFdyyzk43x2pf/7fMC4OfNhtsw8ET6A8XHriiYk+0wx95EIiKSjmGk7g6iAFiWp0reiE556m8bDNdn//Z5AVBoCz8GIEtIpjjM8Ngl/8YSEZHMUr1pzGUD5mWn9j2mKFuLhB7+7F8+LwAMRX9eTJ6JZdtVFLuT0MKJiIgyVjpWj1V4FORJvC1AgfLCZ//8xffDwOMiwsSjKsvOoX8iIpoSRUn9neTmTrWUv82kGcoX93oVAHY1GHmAslxYonvId6g80peIiKYuTU+S+Q4FxdLupzNW/f0VIwf4tAAIOcPrAEg5xl7OVf9ERJQU6RtLnpkt7bi1PYbQOuCzKQDV2CA0zjhy7Cpy+PRPRERJoCbpQKB4FDoU5DvkLAIMBRuAzwoAQ7lPaJpxlHDhHxERmdQMSffVGYqyCvi0AFBgrBQb506qAhQ4WQAQEZE5lTqVlG89nBTDWAEA6jt9Rg6AOYLj3KHQaZNzUQIREVEcVAUoccpYAWD+T84aWaojGFiE9GyPTEihg7d/IiIyt1K3lAWAbcwdXaAqUKR7+lcAHvhDRESmV+gE0tB+IGGKYsxWoWC26CC3y7arYNdfIiIyO7sC5Eq4EEBRtDmqAcwSHeR2OXz6JyIii5DxlEBDwRwVhlohOsjtsiSsloiIiCYjT8ICQDGUchWKUSw6yO1cNo4AEBGRNcjY0NYAilUAJaKD3M7NBQBERGQRMo5qK4pRohpAoeggX+ZQFS4AJCIiy7ApgFO2gW1DKVIVwCM6x5dJfIwyERHRpEi4tt2jAnCJTvFlNhk3TBIREU2BXb57m0sFINWpxRz+JyIiq7EpaTyKMD4uFYBU6xNV+aokIiKiKZFwdNthx83Ou0RkIZFoDNGYBt0wEApFbv5aLIZoNAYACEQiMPQvnkiy3TdnAm12G9yOm5uWXU47bDYb7DYVLqeEG5mJaCoUqZ7+iWh83lE/BoZH0T/igy8Qgj8Qwtinf/kCIfj8QYwFb/57OBJN6ns77DbkZLmRm+VBdpYbuZ/+c262GzlZbmR73CgpyEVJQS4K83Kgci6PSHosAIgkEYxE0N3nxYB3FP1Do+j3jt684Q/7MOAdRTSmCcsWjWkYHvVjeNQ/4dfabCqK83NRUpiL0sI8lBTk3fzngjxUlBYh2yPVumOijMUCgEgA76gfzV196OobRkffIJq7+tHdPwzDkG6hUMI0TUff0Aj6hkZw9S6/X5CbjRmlRZheWoS506dhRmkRZpQVw2HnEeBE6cQCgCiFDAPo7h9CfVsPmjp60NYzgI6+IUQiMdHRhPH6/PD6/Lhyo/3zX7PZbKgsLURlWTHmVpZh4awKVJWVcCqBKIVYABAlkabpaO8ZQH1bN+pbu3GtqQO+QEh0LOlpmobW7gG0dg/gxMXrAACX04GZ5SVYOLsCC2dWYOGs6Zw+IEoiFgBEUxCLaahr6UJtYxvqW7vR3NUHTdNFx7KEcCSKhrZuNLR1YycAVVVQWVqMRbOnY/m8KiyZVwk3dycQTRoLAKIE9Q+N4sqNdtTeaEdNQxtC4YjoSBlB1w209QygrWcAH1fXwKaqmFtZhvsXz8GyeZWYNb0U8m21JpIXCwCiCURjGuqaO3GpvhWXG9rQPTAsOhIB0HT98xECACguyMWKBTOxcsEsLJtfCY9TqianRNJRPmgLSrXsuMBpw7wcDuuRWLpu4FpzB45fqMO5a818yjcZu92G5fOrsG7ZfNy/bC6LAQIA9AU0OFQx22kvjxjoD0t1u+UIANFndN1AY3sPTtU24lRNPUb9QdGRaJJiMQ0X61pwsa4Fjg9tWPZpMbBm2TyuGyD6FEcAKKPphoFrTR2ovtyAs1ea4A9yxb6VuZ0OrF48B2uXz8d9i2bBZmPvgUzCEYBbcQSAMpLX58eJC9dx8Gwt+odGRcehNAlFojhZU4+TNfXI9rjw4PL5eGb9SlSWFYuORpR2HAGgjPHZ0/6hM1dw7moTNJ3b9eim2TNKsemBZXho1SI4nXwusiqOANyKBQBZ3vCoH59cvI79py9j0OsTHYck5nE5sW7lAjy5dgVmVZSIjkNJxgLgViwAyLKut3Rh14kLuFjXYoke+5Rei2fPwPMb78OqRbOhssGAJbAAuBXHushSdMPApest2HH0HBraekTHIROra+lEXUsnSovy8cyGlXh8zTJOD5ClcASALCEUiaL6Uj12Hb+AnkGv6DhkQXnZHjyyZgmeXb8KBXnZouPQJHAE4FYsAMjUvD4/9n5yCQdP1yLIZj2UBk6HHQ+vXowXN65GaVG+6DiUABYAt+J4FpnSWCCEncfP4+Pqmow+WpfSLxKN4dDpWhw9dxXrVyzAlk1rWQiQKbEAIFMJRiI4WF2Lj46c5RM/CaVpOk5cvI7qyw145P4l2PLEWhRyaoBMhAUAmUIoEsWB6svYfvQcAqGw6DhEn9M0HYfPXMGx83V45P7FeHXTWhTkshAg+bEAIKlFojHsO3kJu45fwFiAbXpJXpqm4fCZKzh5qR5PrV+BzY+sQbbHJToW0bi4CJCkdaGuGf+28xgGhtmql8wn2+PGlk0P4sl1K2BTVdFxCFwEeDsWACSd1q5+/GrnMVxv7RIdhWjKKkoK8fXnN2LVolmio2Q8FgC3YgFA0vD6/Nh68DSOnrsKXZfqY0k0ZcvmVeFbLz6C6aVFoqNkLBYAt2IBQMJpmoYDp2vx3v5TCHFlP1mYzaZi09oVeP2pdfC4nKLjZBwWALfiIkAS6lpTB/5l2yH0Do2IjkKUcpqm4+OTl3D6cgO+tflRrF0+X3QkymAsAEiIQCiMt/d+giNnr4Dn9FCmGRkL4O/e3oNVi2bjuy89juL8HNGRKANxCoDS7kJdM36x/QiGRsZERyESzu1y4vWn1uGp9St56mCKcQrgVhwBoLQZGQvgl9uP4syVRtFRiKQRCkfwq53HUH25Eb//yhNcJEhpwxEASjnDAA6fqcXbez9h+940cDqdyMnJQnZOFnKys+DJ8sDpcsLlcsLldsFuswEAHA4bFEVFJBJFLBaDpmkIh6PQdQ2RcATBQAijvjH4fH74RsegaWKenDKJ3W7Dy489gM2ProHNxt4BycYRgFtxBIBSatQfxE+3HsCl6y2io1iOw+FAaWkxSstLUFJciILCAhQW5sOT5U7J+/n9AfhG/Rgd9aGvbwB9vQPo7xtAKMSiLlliMQ3vHziF83XN+MM3n0F5cYHoSGRhHAGglLnc0Iafbj0Ar88vOorpKaqCkpJClJWXoqxsGsrLp6GouACqBB3mRkd86O0bQF/PADo6utHb2w+DfRymzOmw481nNuCZDatER7EMjgDcigUAJV0kGsNv953E/upLXOE/BXaHHTOrZmDOvCrMmTsT2dlZoiPFJRqJoqOjG0032tDa2gHfKBd7TsUDS+fid1/ZhJwUjexkEhYAt2IBQEnV0TuIf3xnH9p7B0VHMaX8/FzMnjsLc+dVobKyHKpqEx1pygYHhtB0ow3XrjZieNgrOo4p5eVk4XuvPolVC9lOeCpYANyKBQAlhW4Y2H38At7bf4qLxRJks9kwd95MLF+5GFVVM2DlnWBDg8O4drUBV680IBAIio5jKooCPPfQarzx9HrY7eYvDEVgAXArFgA0ZaFwBD95fz/OXW0SHcVUikuKsGLFQixesgAud2YdG6vrOtpaO1BbW48bja3gXFH8Zk2fhu//zvMoKcwTHcV0WADcigUATUlbzwD+9te70cdWvnFRFGDu/Nl44IGVKK8oFR1HCl7vKC6cq8XVq/WIRWOi45hCbpYbf/jms1g+v0p0FFNhAXArFgA0aSdr6vGzbQcRifCiPRFFAebMmYX1D92PaaXFouNIKRKJ4NqVepw5UwP/WEB0HOmpqoI3ntqAFx6539LTRsnEAuBWLAAoYZqu47391dh59LzoKPJTFCxYMBvr1q9GcQk7vMVD0zTU1lxDdfUFhIJh0XGkt3rJHPzB60/zdME4sAC4FQsASsioP4h/eHsvrjZ3iI4ivcqq6Xj8ifW88U9SOBzGmdOXcPH8FS4snUB5cQG+/40XMINthO+JBcCtWABQ3Jo6evE3b+1iY58JZGV5sPGxdVi8eD6HZpPA5/Pj5ImzqLvWwLWC9+B2OfFHbz6DVYtmi44iLRYAt2IBQHE5d7UJ//jePs7334OiKli5aikeengNnE4OxyZbT3cfDuw/joH+IdFRpKWqCr7xwiN4ev1K0VGkxALgViwAaEL7Tl7CW7uOw+Dj17imlRbj6Wce5QK/FNN1DdUnL+DcmRroui46jrSe3rAK33hhI48Xvg0LgFvxMCAal64b+PWuY9hXXSM6itSWr1iMxzdtgM3G5iyppqo2PPTwA1i4cA727jmKgX52nLybj09ewvCID3/w+jNwOnmZp7vjCADdVTgSxT+8uw8XrjWLjiItp9OJp555BAsWzhEdJSNpmobqT87h3LnLPHxoHHMry/DDb76IvBxznCORahwBuBULALrDyFgAf/1vO9Dc2Sc6irQqppfi+Rc3ITc3R3SUjNfW1ok9uw4hGAiJjiKlaUV5+JNvfQXTpxWKjiIcC4BbiT9LlKTSPzSK/+sn7/Hmfw+r71+G19/czJu/JGbOnIHf+cYWlJVPEx1FSv1Do/izn77Pn2m6AwsA+lz3wDD+/GdbMTA8KjqKlBRVwRObHsKjj2+AqvJHRya5udl446ubsXjpfNFRpDQWCOEvfvYBrjWxfwd9gVcxAgB09g3hL362DUMjPLv9bhxOB17Z8hxW3rdUdBQah81mwzPPPo6161eLjiKlUCSKv/rVDtQ2tomOQpJgAUBo7uzDn/9/W9ngZxxutxOvvvY8Zs6aIToKTUBRgA0PrcGmpx4GuzDdKRKJ4a/+bSfOXr0hOgpJgAVAhrve2oW/+JdtGOMCqrvyeNx47Y3NPLnPZFasXIJnnnuMUzV3oWka/u7tPThxoU50FBKMPx0Z7GpzB/7qF9sRCkdER5GSy+3Cq68/j5Jp7K9uRkuWzMezzz8OReVIwO103cBPPziAI2evio5CArFDRIa63NCGH721E7EYD1m5G6fTiS2vPY+SaezsZ2YLF81FLBbD/n1HeY7AbXTdwL98eBAGgMcf4NqWTMQRgAzU2NqNv/3Nbt78x6GqKja/9BTKykpER6EkWLpsIR57fL3oGFIyDODnHx7CyZp60VFIABYAGeZGey/+8hfbEY5ERUeRkqIATz69EVUzp4uOQkm0avVyrFq9XHQMKRmGgZ+89zFO1zaKjkJpxgIgg7T3DOJ//nI7ghHO+Y9nzQMrsXTZQtExKAUee2wd5s6dJTqGlHTdwD+++zEuXW8VHYXSiAVAhugZ9OJ//OuH8Ae52n88VTOn46GHHxQdg1JEURU8+8JjKCwsEB1FSpqm4cdv78a15k7RUShNWABkgEGvD//95x9iZCwgOoq0cnOz8fyLT3LFuMU5nU68sHkT7A6uf76bSDSGH/1qJ5o6ekVHoTRgAWBx3lE//vxnH2DQ6xMdRV6Kgmeeewwej0t0EkqDkmlFeOwxLgocTygcwV/+Yjs6+4ZER6EUYwFgYZFIDH/z613s7T+BNWuWo7KKi/4yyfKVizF7zkzRMaTlD4bwP/71Q7YGtzgWABal6wb+4d29HMqbQEFhPjY8/IDoGCTAU89shMvNUZ/xDI/68aO3dnLHkIWxALCoX+86hvPXmkXHkJqiAJuefBg2m010FBIgOzsLGx/hos97ae3qx9/9di90nV2UrIgFgAXtOXER+6prRMeQ3uIlC7jfP8MtW74IZeXTRMeQ2qXrLfjFjiOiY1AKsACwmIt1LXh77wnRMaRnd9jx0EY+/WU6RVHwxKaHeXDgBA6drsW+k5dEx6AkYwFgIc2dffj7dzhcF4/716xATk6W6BgkgbLyEsxbMFt0DOm9tes4zl5tEh2DkogFgEV4R/3463/bwQU7cXC7nVjzwArRMUgiGx56gD0gJvBZy+D23kHRUShJWABYgKbp+Pvf7mWjnzitWr0cTqdTdAySSFFRARYunCs6hvTCkSh+9KudGAuwo6gVsACwgF/tPIrrrV2iY5iC0+nEfTwUhu5i9RqOCsVjYHgU/7x1P3Ser2x6LABM7sTF6zhwulZ0DNNYumwB3G4+/dOdyspKMKOyXHQMU7hY14KPDp0VHYOmiAWAibX1DODnHx0SHcNUVqxcLDoCSWzlqqWiI5jGB4dO8/RAk2MBYFL+YBj/7693IRKJiY5iGjMqy1FUXCg6Bkls3vxZcLk4QhQPwzDwT+/tQ9/QiOgoNEksAExINwz807v70D/EHv+JWLx4vugIJDmbzYYFi7gYMF58EDE3FgAmtOPIOVyq59BbIlRVxfwFc0THIBPgboDEtPcM4q09x0XHoElgAWAyLZ19+ODQGdExTKdq5nS4edwvxWFGZTm3iSbo0OlanK5tFB2DEsQCwETCkSj+8d2PoWma6CimM2dOpegIZBKqqmI2Py8J+8VHh+Ed9YuOQQlgAWAib+06hu6BYdExTGnmLF7QKX4zZ84QHcF0fIEQ/nnrfrA9gHmwADCJc1ebcPjsVdExTCknNxuFRQWiY5CJTK8sEx3BlGob27H35EXRMShOLABMwDvqx8+2HRQdw7QqKkpFRyCTKSgogCfLLTqGKb2z7yTaegZEx6A4sACQnGEAP9t2kL23p6Cigk9zlBhFAUpLS0THMKVYTMM/vLMPkSi3BsqOBYDk9p+q4Za/KZpWWiQ6AplQUTGnjSarq28I7+2vFh2DJsACQGKDXh/e28cfoqkqLOSFnBJXVMSukVOx95NLaGjrER2D7oEFgMR+ufMogpGI6Bim5nQ6kZWdJToGmVBhUb7oCKZmGAb+9aND0DRddBQaBwsASZ2sqceFa82iY5heXl4OFEV0CjKjHBaOU9beM4hdxy+IjkHjYAEgobFACL/aeUx0DEvIyvaIjkAmlc0CICk+OHQaXf3sXyIjFgASemvXMfj8QdExLIEFAE2W3WFnS+AkiMU0/PzDQ2wQJCEWAJK51tSBTy5dFx3DMngBp6lwOOyiI1jC9ZYuHDl7RXQMug0LAIlEojH89IODrJSTyG6ziY5AJma38/OTLL/ZcwIjYwHRMehLWABIZOex8xgYHhUdw1JsvIDTFNjsHAFIlmA4gnf3nRQdg76EBYAkhkf9XC2bChxNoSkwdH6AkunYhTo0dfSJjkGfYgEgibf3nEA4EhUdw3JiGtuR0uRFY/yZTCbDMPDWrqOc5pQECwAJNLb3oPpyvegYlsQmJDRZuq4hwN04SdfQ1oNTtQ2iYxBYAAhnGMCvdh5jRZwiUY6q0CQND41A11lApgJHPOXAAkCwTy7WoamjV3QMywoGeYoiTU5He7foCJY1NDKG3ccvio6R8VgACBSJxHhiVooFAhzCpclputEmOoKl7Th2DoNen+gYGY0FgEC7jl/A4MiY6BiWFvBz3zElbsQ7irb2LtExLC0SCF9iywAAIABJREFUjWHrwdOiY2Q0FgCCBEJh7D3JIbBUG/MHoWma6BhkMtXV58GFOal34mIdugd4ToAoLAAE2XnsAvzBsOgY1mcYGBnhMCPFr6O9C9evNYqOkRF03cC2g2dEx8hYLAAE8AVC2H+yRnSMjDHiZXdFio/PN4a9uw/z4T+Nqi83oL1nUHSMjMQCQICdR88hGImIjpExBge9oiOQCYSCYWx7fw/G2K8+rQzDwLZDHAUQgQVAmo2MBbD/9GXRMTLKQD+fLuje/GMBbNu6G0NDLBZFOHu1Ea3dA6JjZBwWAGm2/fBZRCJsT5tO/X0sAGh83V29+M1b29DbyxuQKIYBbD14SnSMjMOjrtLIO+rH4XNXRcfIOMPeEUQjUTicDtFRSCK6ruP8ucs4eeI8dJ07RUS7cK0ZN9p7Ma+qTHSUjMERgDTafuw8IlE+/aeboRvo6mK3RfpCX/8g3vnNRzhx7Axv/hLZfvSs6AgZhSMAaeIPhnGMT//CdLR3Y9bsStExSLDRER+qT57HtWuN3OcvoQt1zejqH8b0aYWio2QEFgBpcvB0LUI8/EKYzk72dc9kwUAI58/V4ML5K2wMJTHDAPaevIR/99LjoqNkBBYAaaBpOg5w5b9QvT0DiEQicDqdoqNQGoVDYZw9cwkXL1xFLMbpNzM4dv4aXtu0Fnk5WaKjWB4LgDQ4WVOPIfb8F0rXdXR39XEaIENEIhGcP1eLC+dqEWHPDVOJxTQcOF2LLZvWio5ieSwA0mDvJ+z5LwOuA7C+WDSGK7V1OH3qEk+CNLGPq2vwwsbVcHHnTkqxAEix2sY2NriQRDtPd7MsTdNwuaYOZ05d5I3fAsYCIZy4eB2b1i4XHcXSWACk2K7jfPqXRW/vAMbGAsjh3KJlGAbQUN+E40dPw+fjNJuV7DlxEY8/uAyqooiOYlnsA5BC3QPDuHKjTXQM+oxh4EZDk+gUlCT9fYN4/90d2L3zIG/+FtQz6MXlBl4/U4kFQAodPnOVW40lU1/fLDoCTVEoGMaRQ9X4za+3obOjR3QcSqEjZ9k7JZU4BZAimqbh+MU60THoNl1dfZwGMCnDAOrqGnHk0EmEQ2HRcSgNLtQ1w+vzoyA3W3QUS+IIQIqcu9YMn5+LkaRjGGhs4CiA2Yx4R7H1vV3Yt/swb/4ZRNN1nLhwXXQMy2IBkCKHzlwRHYHG0chpANPQdR1nTl3Ev/3ifXRwF0dGOni2llOpKcIpgBToHxrF1aYO0TFoHJ1dvfCPBZDNaQCpjY76sGfXYXTzIKeM1j80irqWTiyZM0N0FMvhCEAKHD53FQZLVnkZBuquNYpOQfdw7Voj3vrlB7z5EwDgMEdUU4IFQJJpuo5jF66JjkETuHy5jkWahCKRCPbuOYx9uw+zhS997szVG/AFQqJjWA4LgCSrqW+Fd9QvOgZNYMQ7iva2TtEx6EtGvKN45zfbUXeVozN0q1hMw8maetExLIcFQJJV1zSIjkBxunyJIzWy6OzowW/f/giDg8Oio5CkTvHamnQsAJIoGtNw4XqL6BgUp6amdoz5OFoj2sULtdj63i4EOcRL99DY3o1Br090DEthAZBEF6+3IBTmvKVZ6LqO2lruMRbFMIDjR0/hyKFq6LouOg5JzjCAM1duiI5hKSwAkujUZQ5RmU1tTR1vPgIYuoGDB47j3NnLoqOQiZyq5TU2mVgAJEkkEsOl+lbRMShBfn8AN27w/1s66bqOPbsPobaGrbIpMTfae9E3NCI6hmWwAEiSi/UtCEeiomPQJJytvshOY2liGAb27DqE+us8lZEmh9MAycMCIEm4+t+8+voH0drcLjqG5RkGcHD/CTSwFTNNwalabhNNFhYASRCKRFHTwGFkMzt16rzoCJZ38sQZ1F7msD9NTUtnH3o5DZAULACSoLaxHZFoTHQMmoKe7n60tbIxUKpcrrmGM6cviY5BFnGhjqNIycACIAn49G8N1Sc5CpAKPd19OHKoWnQMspCa+jbRESyBBUASXG7gh9EKurt60dnRLTqGpQQCQezcvh+apomOQhZS19KJEBddTxkLgCnq7BtidyoLOVV9QXQEyzB0A7t2HMDYWEB0FLKYWEzD9WZO2U0VC4Ap4t5/a2lv60J7W5foGJZw/txldHb0iI5BFlXDkdcpYwEwRSwArOfwoZPsDjhFQ0NenPzknOgYZGEX61tERzA9FgBTEI5E0dDGOWOrGRocxhWeETBpuq5j3+7DnPenlOofGkXPoFd0DFNjATAFV290IBbjRc6KTn5yDuFwWHQMU6q5dBW9vQOiY1AGuMwR2ClhATAFnIOyrmAghDOnLoqOYTqhUIQLKSlteA2eGhYAU3C9lYvFrOzC+avwDrPjWCKqT55DKMiRE0qP663d0HUe5DFZLAAmKRiOoLNvSHQMSiFd13Ds6GnRMUzDOzyCy5euiY5BGSQUjqCzn9fhyWIBMEn1rd0weISc5TXdaEVrS4foGKZw5vQl7p6gtGto5ULsyWIBMEmN7dzfnCn27zvKBYET8I2Ooe4aj2ml9ONOrMljATBJDS380GWKsbEAjh89IzqG1M6euQRd544YSr96FgCTxgJgEjRdR1Nnr+gYlEZXauvQ1sbWo3cTCkVw9UqD6BiUofqHRjE0MiY6hinZRQcwo7buAR5EkWEMA9i/9xi++Z1X4XQ6RceJiwLAY1eRZVPgsilwqwpcNhUqALsKqFAABdANA5oO6ADCuoGQpiOkGwjFDPg1HRMtdam7Vo9YjMdhkziN7T1Ymz9fdAzTYQEwCZxzykw+3xhOHDuDJ558WHSUcTlVBQVOG/LsKnIcKmzKxH/Gpiiw2W7+s9umIN/xxcCgbgD+mI7RmA5vRENIu7MaqK1h10QSq761G2uXswBIFAuASbjRzuH/THW55hrmL5yDqqrpoqN8zgagwGVDscuGHLuKOO75cVMVINehItehYobHDn9Mx1BYw1BER8ww0N3Vi8HB4SS+I1HibvDQqUnhGoBJaO1hm9NMZRjAgX3HpNgVoCpAmceO5YUuzM52IDfJN/+7ybarqMp2YGWBC7OyHOhoaU/xOxJNrKN3CDq3ZSeMBUCCYjENvQM8gCKTjYz4sG/30QnnxlNFVYDpHjtWFrpR6bHDrqT6tn8nRQFK3Db8/nMb8O2vPIZsjzvtGYg+E45E0TfErp2JYgGQoM6+IWhsdpLxmppaUXOxNu3vm+9UsSzPhQqPHba0v/ud7HYbnlq3Av/zh9/EMxtWQRFQjBABQEfvoOgIpsMCIEFtHP6nTx09cga9Pf1peS+bomBurgPzc5xwxrOyL82yPW5888VH8F9+bwuK8nNEx6EM1N7DAiBRLAAS1M4qkz6l6xp27jiQ8sNvsuwqluQ5UeiQ4Zn/3hbNno4/+6OvYdWi2aKjUIZhAZA4FgAJ4jATfZlvdAz79h5J2bkQJW4bFuc64ZLwqX88OVlu/PCbm/HqpnXgjAClSztHZxPGAiBBbawy6TbNTW04cSz5pwaWeeyYleUw5U1UUYBXNj2I7736FGwqLzOUen3Do2zQliD+ZCZg1B/E6FhAdAyS0Lmzl1F7uS5pr1eV7UClx/xtOjauXoz/9WvPwW6Xf/qCzM0wDHT28mjgRLAASEBnHz9cNL5DB06is2PqXSJnZNlR6rLODXPN0rn4ozefhaqacCiDTKWzn9foRLAASEA/95nSPei6hh3b98PrHZ30a5S6bCh3m//J/3Zrls7Ftzc/JjoGWdzA8OR/9jIRC4AEDHh9oiOYgtPpRMX0UsyeU4W5c2dhRmU5srI8omOlRSgYxtb3dsE3mvjpZAVOG6qyHSlIJYdNa5fj+YdXi45BFtbPAiAh1nvUSCF+uMZXMq0IS5YuwOw5VSgqKrjr13iHR9DY2IrGhua07Z8XwTc6hq3v78YbX90cd+HjUhXMtvDN/zNvPrsBje09PFCLUoLX6MSwAEgAP1x3mjW7Eg+uuw8zZpRP+LUFhfl44MGVeODBleju6kP1yfNoa+1IQ8r08w6P4KMP9uLVN16Y8PhgRQHm5jjiOrnP7Gyqiv/w1Wfx3/7+bfgCIdFxyGJ4jU4MpwASwA/XF2bOqsRXf+clvPLqc3Hd/G9XMb0UW157Dq9/dTOKigtTkFC83t4BfLTtY8SisXt+3XS3HVn2zPlRLM7PwTc3Pyo6BlmQ1+dHNKaJjmEaHAGIk6Zp8Pq4BbCgIA8PbXwQCxbOScrrzZhRjm98awvOn6vFyRPnoOvW+uHt7OjGtq178NKWZ+46EuBWFZRZcNHfRDasXIgj567i6o3kjQApCuD2uOF2ueH2uODxuGGzqXC5XVAVFU7nF9/ncDh6R/OmmBZDNBJFMBhCMBBGMBRMeZdHSi7DAAZHfCgvvvs0JN0q8648k9Tv9aWs25sZqKoN69bfhwfWroSqJneLmqqqeODBlaiqmo6dO/ZPagGdzDo7e/D+u7vwyqvPw+Nx3fJ7M7PN2egnGb770uP4Lz/+DWIJPLF5PG4UlxSisLAABYV5yM3NQU5ONvLycpCV7Un6YUSGbiAYCiEYCCIYDMPvD8DrHcXw8Ai8w14MD40iEokk9T1pagaGR1kAxIkFQJwyeXtJSUkRnn7+MZROK07p+5SVl+Dr39iCPbsPobXFWmsD+noHsPXdndjy+vOfLwzMd6rIdWTO0P/tyosL8MSDy/HxyUt3/f2CwnyUlhajtGwaSsuKUTqtGC63665fmyqKqiAry3PPxZzBQAhDw154h0Yw7B1Bb08/ensGEI2yK50I/UOZe61OFAuAOA14rfVUGq/V9y/DxkfXQU1TO1e3x4WXX3kWp6rP4/SpC7DSoMvAwBDefXs7Xt7yLAoK8y253z9RL25cjUNnahGLaSgqKkBlVQVmVFagsqrCNFtHPVluzMgqv2UtjK7rGBzworu7Fz3dfejp6cfwkFdgyswxMMLt2vHiFShOPn9mzf87nA489fQjWLhobtrfW1EVrH9oDcrLS7Fnz2GEQ9aZh/V6R/Hb33yI7379K8gpqhAdR7ii/Bz83tdeQNiVhfz8XNFxkkZVVUwrLcK00iKsXLUEwM0eET09vWhu7kBLUztGR3mjSoUx7i6JGwuAOGXSlqXc3Gy8tOVZlJQUCc0xe24Vvv6NV7Dzo/3o67fOIUyhUAR5+r13BmSSNQtn4orXOkXeeNweF2bPmYnZc2YCm4DRER+am1rRdKMdHR3d0HVddERL8PmDoiOYBguAOGVKVVlSUoSXtjyL3Nxs0VEAAHn5uXjz6y/h8KGTqK1J3mE7IhXmZWPp3ErRMaThVhVk21X4Y5l1A8zLz8Wq1cuxavVyhIJhtLa040ZjK5qa2qBp1toNk06Z9LA2VSwA4pQJH6ryipt78ydqXJNuNpsNTz61EWVl03D44Cemvzg+fN9iHoxzm2KnLeMKgC9ze1xYtGQ+Fi2Zj3A4jMb6Fly71oiuzm5LrYNJh0y4VicLC4A4+S3+oaqYXopXXpXv5v9ly1csQml5CXZ+tB+jJl7o8/B9i0RHkE6RS0V7ELzZAXC5XFi2YhGWrVgEr3cUVy7X4UrtdQTZkyAumTJamwyZuwcpQVb+UJVOK5b+5v+Z0mnF+Po3XsG8BbNFR5mU4vwczCgVu7ZCRjZFQbaNl6PbFRTk4eFH1uL3/v3X8dSzj6LYol0zk8kfDLGQjBN/4uLkC1hzYUl+fi5elnDY/15cbhc2f+UpPPP843A4zXWAzhLO/Y8rL4N7IkzEZrNh2bKF+Ma3X8PLW57BjMrE229nCk3TEWJzprhwCiAOum4gELLeB8rlcuLlLc+aZr/17ZYsmY+KilLs3X0IPd3mOF2Qi//Gl+tQAWvW2UmjKPh8J0FHexc+OXEW3V19omNJx+cPwuMyz0ONKCy54+APha3XBlhR8Ozzj6NwnKN7zaKgIA9vfPUrWLfh/rQ1K5qK+TP55DaebJsKLo2MX2XVdLz5tZfw0ivPWPZArcmy8pRtMnEEIA6RiPVaeq5bdx/mzJ0pOkZSqKqK9Rvux/wFs3Hg4+Po6Zbzichms2FaYZ7oGNJSFMCpKgjrFiu2U2zO3JmYNbsSNZeuovqT8wiHrTdamahIjH024iH/I5MEoibfdna7iullWLf+ftExkq6kpAhvfu0lPPn0RinXNJQV58NmglEKkdx2jgFMhqqquG/1cnzn372JRYvniY4jXCIHTGUyXo3ioGnW2Z/sdDrx7POPQ7HoPnRFAZavWIxvfec16XYKTC8x93RLOrhZIE2JJ8uN5154Al95+WnTru1JhlgG95RIBH/a4hCz0AjAI4+ts1TP9fHk5GZj81eewutvbkZZWYnoOACAvJws0RGkZ+cVKSnmzpuFb3/3dcydO0t0FCGsNmqbKvxxi0PUIsNJ02eUYdnyzGpCM6OyHF/9+it4YfOTwgsfrkqemE2x5siUCC63C5tffjqtp3nKwkoPbanERYBxsMIUgKqqeOLJh5GJ11dFARYsnIO582aitqYO585dhm80/cc7uxzm6lkggkVnpoRRFGDNAytQVlaCHdv3W+pkzXvhGoD4ZFZZOElWGAFYsWqJ8NP9RLPZbFi1ehm++7tv4ulnH037Fkink/X2RGyiA1hUZVUFvvb1l02/7TdeLADiwwIgDmY/fMbpdGLdutWiY0hDVVUsXbYQ3/rOa/jKy09j9pwqpGNohBeliZl/rE1eBQV5eOPNzZiWAa2oozxaOS58JIlD1ORTAGvWrIAnyy06hnQURcHcebMwd94s+EbHUHvlOq7W1mPM50/J+4Us2E8i2XjdTi1PlhuvvfEitm3dY5rumZPBYjs+LADiYt7GJE6nE/etWSY6hvRy83KwYcMarF9/P3p7+tHY2IIbja3wDo8k7T1CbNAyIc3EP2tm4XK58Mqrz2HrO7vQ1z8oOk5KWK5za4qwAIiDXTXvzOTKVYulbIojK0VRUF5RivKKUmx8ZC2GhrzoaOtCV1cvOjt7pjQ64OdxrhPSeN1OC5fLhZdfew6//c1Hpj5aezwOu3mv2enEAiAOdpNuTrbZbLjv/uWiY5haUVEBiooKsPK+pQAAn28MA/1DGBoagdc7guEhL/xjAQQCIUQmOIGsZ9CbjsimFmIFkDZZWR5see15vPObDxG0WHFqt7EAiAcLgDjYTPphmr9gNrKz2XwmmXJzc5Cbm4M5c+/8PV3XEAyE71g0qqgKHA4nst0ciZlIyOTrbcymoCAPL2x+Eh+8vwe6hRZg2G3mfGhLNxYAcTBrNbnq06dWSg9VtSH7Ht3+NABR3YCDm93vygB4EJAAlVXT8fAjD+LYkVOioySNnVMAcWGZFAeHCavJ4uJCVEwvEx2DbuOP8QY3npBmgPd/Me5fs8JSbYPN+tCWbua7swlgxmpy0ZL5oiPQXfi4PWlcvii/NyI99cwjljlAyMECIC4sAOJgtgJAUYCFi+4ySU3C+aLWmWdNtlGe4CaUJ8uNJ5/eKDpGUpjtmi0KC4A42E12kEZp2TThB9/Q3QU1A1GOc9/BMIAxFkfCzZ03C/Pnm38qwGbSnVvpxu9SHJwOc62VnGeBH2ArG45wqPt2I1GNPQAk8ejjG+Aw+cFVDpu5rtmisACIQ7bHbapT9ObMqRIdge5hIMIn3dsN8nsijdy8HKx5cKXoGFOSm83W5/FgARAHm02FyyTd9HJyslAyrVh0DLqHYExHkI+7n4sZBka4AFAq969ZbuoFgTkeFgDxYAEQJ7NUlDOqpouOQHHoC8VER5BGf0gDW7fLxeFwYO26+0THmBRFUZDlcYmOYQosAOJkloqysrJcdASKw2BEQ4SjANCNmwUAyWf5ysWm7CSa7XFBNdOcrUAsAOKUa5LjdNn8xxwMA+jlKAD6wzFE+fgvJZvNhlWrzddNNNfEUxfpxgIgTjkm+FDZbDYUFuaLjkFxGohoGd36VjMM9Ab59C+zFSuXmm5HQLZJHtZkwAIgTjkm+FAVFRdANVnPgkymG0CbPyo6hjCdQT79y87tdmLBwjmiYyTELOu1ZMC7RZzMUACUlBSJjkAJGo3qGM7AFfCBmI4Bzv2bwvIVi0RHSEiuSdZryYAFQJxys+WfAiiZxgLAjNr9McQyaCpAN4AWfxSZ819sbhXTy1BYWCA6RtzM8LAmCxYAcSrKyxYdYUIlJYWiI9AkRHUDTWOZc0NsD0TZB8FkFiw2zzRAcX6O6AimwQIgTiWFeaIjTKiomCMAZuWL6egJWn9XwGBEw0CYQ/9ms2CBeQqAkgL5r9WyYAEQp5JCuQ/XUVUV2SaYpqDxdQdjlj4nwB/TM3rRo5mVlBQh3yQ31pIic+SUAQuAOHmcTql7AXg8bihsfmFqBoBmfxSjFjwVL6QZaPRFkUFLHSxn1qxK0RHiIvvDmkxYACRA5mmALG59sQTDAG6MRTAWs04RENYNNPgiiHHLn6nNmj1DdIQJ5Wa54THJuS0yYAGQgGkSFwAej/ladtLd6QbQ4ItgxAIjAUHNwPXRCCJ89De9yqoKyH4sqswPaTJiAZAAqQsAiacnKHH6pyMBgyZeE+CL6rg+EkaUN39LcDqdKC6SezugzNdoGbEASIDMc0vZJmhVTIkxDKBlLIrWQNR0p+X1hTQ0jEVg3vKF7qasolR0hHtiAZAYFgAJkHl7iYvzXpY1ENJQ54uY4tyAmGGg0RdBuwmLFppYeXmJ6Aj3xCmAxNhFBzCTGdMkbrQj99QcTVEgpuPqSBhlbjsq3HbppmINAIOhGDpDWkZ1Ncw0RUUSXwMBTJf5Gi0hFgAJKC7IQ5bbhUAoLDrKHbgF0Pp042avAG9Ew8xsB3LscgzgtfcM4pfbj0DNzsYzzz0mOg6lUHGx3DfYyrJi0RFMhQVAAhQFmFFahIa2btFR7sT7f8b4bGV9jl1FuduOfKeYQqC9ZxC7TlzAyUvXoX/61F8xvRQrVi4RkodSz+1xwZPlRjAQEh3lDoV52VL3apERC4AEzSwvlrIA4AhA5hmL6Wgcu1kIlLhsKHDZYEvxe8ZiGi5cb8GRs1dwubHtjnn+I4eqUVFRipJpfBKzqrzcHCkLgCo+/SeMBUCCKiVfBEOZZyymYyymQw1EUeiwocCpItehwpakojAcieJ6azfOXWvC6csN8AfHnwLTNA07dxzE73zjZTi5MNWScnOz0ds7IDrGHap4bU4YC4AEzSyXtcrkCECm042bh+0MRjQoADx2Fbl2FVk2BS6bArdNhW2Cj0k4EkXPgBfdg1509g3hWlMHbnT0QtPib0rkHR7B8aNnsOmph6f2H0RSysmV87Q9zv8njgVAgqrKiqEokG6LUyQcER2BJGLg5s6BwG0thW0KYFcVqABURYGCm4WDBgNdXX341VsfJuX9ay9fw/yFszFzpvztYykxbrdLdIS7mskRgITJsYzYRNwuJ4ol7AcQknBnAslHM4CwZiCoGfB/OnUQ0HSENQMdXX1Jex/DAA5+fBzRKE//sxqXhAWAzaZi+jS5uxTKiAXAJMi42CQYCoqOQCbX1z+U1NcbGfHhVPWFpL4mieeRsACoKCmEzZbqJbDWwwJgEubOkK8dZjDAEQCamq7OnqS/5oVztfAOjyT9dUkgCXccza0sEx3BlFgATMKC2RWiI9yBUwA0FX5/ICU3al3XceLY6aS/LtGXLZxZLjqCKbEAmIR5M8pgs8n1rQsGOAVAk9fRnrreFo2Nreho70rZ6xMtmCXfQ5kZyHUXMwmX0yHditNQKAxdN//58SRGKgsAADhx/GxKX58yV26WG+WStyiWFQuASVowU66KU9d1jI74RMcgEzIMoKWlPaXv0dPdl/IigzLTglkVMi5LMAUWAJO0UMIhp6Ehr+gIZEL9fQMY8/lT/j5nz1xK+XtQ5pHtYcxMWABM0kIJP3TDQ1xtTYlrampLy/u0tnSgr38wLe9FqRONyNXbYZGE12KzYAEwSQV52SgplKsh0BC3W9EkNDe2pu29Ll+6lrb3otQISLTg2G63YZaE27LNggXAFMg2CjDMKQBK0PCwN61P5fV1TYhFY2l7P0q+QFCekwDnTC+Fw84GQJPFAmAKls+vEh3hFlwDQIm6XteU1veLRCJobGhJ63tScgX8AdERPrdi/kzREUyNBcAUrFgwU6rVp+FQGCPcCUAJuF53I+3veeVKfdrfk5InKNEIwMqFLACmggXAFOTnZGFmxTTRMW6RinauZE093X1C2vR2dnYjGGTnSrPyj8mxBiA3y43ZnP+fEhYAU7RywSzREW7R1dUrOgKZRG1NnZD3NXQDrc2p7TtAqeOXZApgxYJZUGUagjUhFgBTtGqhXAVAZztHAGhikUgE9fXNwt4/1Y2HKDXGxgKIRCKiYwC4OQVLU8MCYIrmV5Uj2+MWHeNzXq8XwYA8c3Qkp2tXGhCNitvP3dLSAUM3hL0/Tc7gQHKPjJ4sRVFYACQBC4ApUlUFy+ZVio7xOcMAOjkNQPdgGECN4P344VAYAwPDQjNQ4gb65SgA5syYhrxsj+gYpscCIAlWSlaJsuc63UtrS5sUW0Z7e/tER6AEyTICsFKyqVezYgGQBKsWzYYi0WKUG43NMDi6SuM4d7ZWdAQAQHd3v+gIlKCBQTkKgFULZouOYAksAJIgPycLi2ZNFx3jc2M+P/r6BkTHIAkN9A+io71LdAwAQG8PCwAz0XUdQ4Pi240XF+RibmWZ6BiWwAIgSdatXCA6wi1uNIhb4U3yOn3qougInxsaGoamaaJjUJz6+4ak+P+1fsUCqRqwmRkLgCR5cNk82FR5vp0NbLdKtxkaHJbqc2HoBkbZudI02ts7RUcAcLMAoOSQ545lcnnZHiyaI880gHd4BIODXGVNXzhVfQGyLQ4ZGRkVHYHi1N4mfuqotCgfs6bL1X3VzFgAJNG65XJVpjx0hT4zNDgstPHPeEa8LADMQNc1dHeJ37WxXrKpVrNjAZBEDy6bB5tNnm/p1Sv1MCSUBkwoAAAgAElEQVR74iMxThw/K93TPwAMe8dER6A4dHf1CW0c9RnZHrLMTp67lQXkZLmxdK48TYFGR3xoa5Vj3o7E6enuR3NTq+gYdxUMyNFXnu5NhuH/ipJCVJUXi45hKSwAkmydZAtURHd8I/GOHa2W8eEfABAK8VRAM2hp6RAdAetWzhcdwXJYACTZ2uXz4XE6Rcf4XHNzG3w+DrNmqoaGZnR1ytsaWqaz5enuRkd86OsV27NBUYCH71ssNIMVsQBIMrfTgbUSVaqGbuCyoGNfSaxIJIKjh6tFx7inUJAjALK7XndD+AjSkrmVKCvKFxvCglgApMDja5aJjnCL2st1UjTwoPQ69cl5jPn8omPckyxHy9L4rl9vEh0Bjz8g1zXVKlgApMC8qjLMqigRHeNzwUAIdVcbRcegNBroH8TFi1dFx5iQLvrRku5poH9I+AFAOVlurFkyV2gGq2IBkCKPrFkqOsItTlVfgK5zFCATGIaBgwc+ga7roqNMiNtU5Xa97oboCNh432I47DbRMSyJBUCKbLxvEZxOu+gYn/P5xnCltl50DEqDK5evo7tL3oV/X2boLABkZRgGGurFD/8/9oBcD1NWwgIgRbLcLjy4dJ7oGLc4VX0BsVhMdAxKoVAwjE9OnBEdI24cAZBXS3M7RgSf1TB/ZgVmlBYJzWBlLABSSLaFK/6xAK5c5o4AKzt6+CSCXFlPSXDx/BXREfAEn/5TigVACi2cNR1VZXJ1rjp96hJiUY4CWFFjfQuuXTPXYk+7XZ5pMvrC4MCQ8NP/crLcbP2bYiwAUkhRgOcevk90jFsEAkFcuFArOgYlmc/nx4H9R0XHSJjDwQJARufPXxG+9/+p9SukWkdlRSwAUuyhVYtQlJ8jOsYtTldf5DnsFmIYBvbtOYJQyHx76lkAyCcYCOG64JEku92GJ9euEJohE7AASDGbTZXugxyLxXDwwAnRMShJzp+9jI528Ye1TIadBYB0amquCW8ctnH1YuTnZAnNkAlYAKTBprXL4XY6RMe4RWtLBxoa5DsfnhLT1z+IT06cEx1j0hwOuX4uMl04HMZFwVOEigI895BcU6dWxQIgDbI9LukaAwHAkYMn2YrVxDRNw8e7j5i6wZPH4xYdgb7k7Oka4ecz3Ld4DqZPKxSaIVOwAEiT5x9aBZsq17fb7w/g5InzomPQJB088AkGBLdpnaqsLI/oCPQp/1gAFy+K3/r3wsOrRUfIGHLdkSyspDAPa5bK18/60qUrUh8XS3d36cIVXK29LjrGlGXlsACQRfXJc8K3CM+ZUYpFs6cLzZBJWACk0eZH7oeiiE5xK0M3sHvXQeHDfhS/zs4eHD1yWnSMpMjmCIAUhoe8uHqlQXQMfOWxNaIjZBQWAGk0e0Yp7pfwVKsxnx979xwRvu+XJubzjWHn9v2mnvf/siwPV3rL4JPjZ4QfHjVr+jSsWSJX+3SrYwGQZq89uQ6KbMMAAFqa23BJgvk/Gl80EsVH2/YhGAiJjpI02ZwCEK61pQONja2iY+D1J9dJN0JqdSwA0qyyrBgPLpOzyj1+9DT6+gdFx6C7MAzg431HMdBv7kV/t8vLzxUdIaPFonL0BJkzoxQrF84WHSPjsAAQ4PWn10u3IwC4ua1s946D3BooodPV59FQb62+DXa7HVlZnAIQ6fjxs1J0BX3j6Q18+hdAvrtQBigvLsD6lXIecuEdHsGOD60zx2wFV6/U41S19bZr5ufn8qIvUE93P2ouiZ/2WzCzAsvnV4mOkZFYAAjyyqa1sNnk/Pa3t3fhwP5PRMcgAI2Nrdj/8TFLLtDMz88THSFj6bqG/fuOwtDFf7Bef3q96AgZS847UAYoK8rHxtWLRccY19Xa6zhz+qLoGBmtva0Le3YelOIinQqc/xfn1KmLGBwcFh0DS+dVYsmcGaJjZCwWAAJteWKt1Mddnjxx1nTny1tFT3c/tn/0sfBDWVKpoECuUzIzRWdHD86euiQ6BhRFwVefeUh0jIzGAkCgovwcbN4ob+MLwwAO7DuGzo5u0VEyysDAED78YDeikajoKCmVX8ApgHQLBkLYs+ug8D3/APDI6sWYM6NUdIyMxgJAsBceWY3iAnmHQjVNw4fb9qGzo0d0lIzg9Y5i2/t7EApZfycGC4D0MgwDe/ccxthYQHQUuJ0Ozv1LgAWAYE6HHV99Vu5hsGgkim0f7EFbW6foKJY2NDiM99/ZAb9f/AU65RQFeXnyFr5WdKb6IlpbOkTHAAC89PgDKMjNFh0j47EAkMD6FQuwaJbcB2DEojF89ME+NDWJ7xhmRb09A3j3nR1SPJ2lQ25OFmw2m+gYGeNGQwtOSrKVdFpRHp596D7RMQgsAKTxzc2PSNki+Ms0TcPOjw6i6QaLgGTqaO/G1vd2ZdSBTBz+T5/+vkHs3XMEsuwl/Z3nNsJhZ/EnAxYAkphVMQ2PSLwt8DO6rmHn9oOW60onSmNjK7Zt3ZNx3Rfz2AMgLfxjAXz04T5Eo3IsKF06pxIPSHgseqZiASCR159eD7fLKTrGhHRdw+6dB3Di2GkYkjxVmFHd1Ubs3nHA0lv9xpOfxy2AqRYKRbDtgz0Y8/lFRwEA2FQVX39xo+gY9CUsACRSkJuNN5/ZIDpGXAwDOHumBrt3HJTm6cIsPvve7d17RIrtWCK4PS7RESwtFo1h+4d7pTo86rmH78PM8hLRMehLWABIZtPa5Vg4q0J0jLg1NDTjnbd3wOcbEx3FFDRNw769h3Hi2Glp5mRFcDjlH+kyK13XsGP7fnR19oqO8rmSwjy88sSDomPQbVgASEZVFPzelk2mWiQz0D+It9/6UKoLjox8Pj/e/e121F1ld0WnwyE6giVpmoYdHx2QZrvfZ3735SfgcvL/uWxYAEiooqQQmx+Vt0Pg3QQCQbz7zg4cOVTNkwTvoqO9G2+/tQ29PQOio0hBNzJz6iOVbg77f4zmpjbRUW7x6P1LeNqfpFgASOqlx9ZgRmmR6BiJMQxcvFCL3771EYYkOGhEBoZu4FT1BWx9fxcCgaDoONIIZ0Cnw3SKRqP4cNs+6Z78c7Pc+OpzD4uOQeNgASApm82G39/yJFRV7t4Ad9PXP4hf/2obzp6pyehdAr7RMbz/3i5Uf3LOsif6TVambXtMpVAwjPff3YWO9i7RUe7w7a/8/+3deXRU150n8O99VSpVad+FNsQiiUXsIDZjFtkG25jNGEhCYjtpJ17S7RgmmUym087SfbpPzumenkmnOzmddDpxfCaexAZsYkziDYwxGMdmMbtAu9C+l1T7u/OHwI3YtFXVfa/q+zmHc4xUVe/rsqX7q/vu/d0VSIyzq45Bt8ECwMAmF2Tj3oUzVccYlUAggMOHjmHXy/vQ3maclcjhcu5sBV58YRcPUrqN7q4e1REiQndXD3730l40N7WqjnKT2SWFWDSzWHUMugPjnkVLAIBHVi/BqYpaNLV3qY4yKvV1jXjxN7sxbVoRli1fiLg4h+pIIeV09uPAO4dx+RK7Jd5J05UW1RFMr/FKM/a+9iZc/W7VUW6SEGfHVzaWq45BQ+AMgMHZbTF4Zutqc/dNlxLnzlbghf/8PY5/fDoiFwnquo5PPjmNF/7z9xz8h6GtvZP9I8bgzJmLePl3+ww5+APA4+tXIjWJh/0YHQsAE5iQl4VNEbCH1uPx4r2DR/GbX+/CxQuVEdMEp7qqFi/+ehcOHTjKQW2YdF1HdZWxFqyZQSAQwMF3j+KtP75n2EJ6VVkpFs4oUh2DhoG3AEzioRXzcfZyPc5GwC/Nrs5uvPH6O0hKSsTc+aUoLZ2CGBPuEW5qbMGRDz5GbQ2PSR6NT0+eQ3HJRNUxTKOnuxd/2PsWWlvaVUe5rey0ZHzuAa76Nwuxu9ZlqOXJKTYLJieYbzAIh45uJ/76Jy+hz2XMab/Rio21YeasaZgztxTxCXGq4wyp8UozPjx63HBbrsxo85YHkV9g7KOwjeDSxWq89eZ78HiMu3vComn47lc3Y3JBtuoot9XSH0CMpmbm5NNuiVaPoYZbFgBm89GZS/iX3+5XHSMkNM2CiZMLMH16MSZMLICmGecOld/vx8Xzl3Hy5Dm0NLOZT7CkpCZj+5c2wWrlZOSteL1eHDp4DKc/Pa86ypC2rl5i+AZmLAAG40+dyZSVFuGuOVNw+MQF1VGCTtcDuFxRjcsV1XA4YjG5aAImFxWiYHyekkWQUpeoq2vAhfOVuFRRzb3rIdDV2Y0/7T+IB9beA2G+lhchVVNdj7fePGSY0/zuZEphLh5cNk91DBohFgAm9Ni6Fbhc12zarYHD4XJ5cPrTCzj96QXE2GKQl5eDgvE5KCjIRXpGashmB3p7+1Bb24Da6nrU1jbA7fKE5Dr0XyouViEp+RiW3b1QdRRD6O934f2DH+L8+UumOC8qMd6Bp7euNmXTsmjHWwAm1djWie/99PdwG/ieYKhYrVZkZqUhKzsTaWnJSElJQnJKMhIS4oY9U+D1etHd5URXVze6OrvR0tyKxqZW9Dn7Q5yebmfmrGlYWb4YmmbiLa9jIHWJkyfP4sjhj00z26RpAt98dL1pev3zFsBgLABM7OOzlfjxb/eZ4lNCuMTG2hAfHwdrjBUWiwUxV+8te7weSAm4XG64+t3w+/2Kk9Kt5ORmY80DK5GcnKg6SljV113BoQMfoqXVuCv8b+XzD9yFB+6aqzrGsLEAGIwFgMn99o3DeOPwcdUxiILGarVi0ZJ5mD9/JkSETys3N7Xh2NHjqKw0X/Oo+dMn4dnPP2iqtRssAAbjGgCT27ZmKeqa23D6Up3qKERB4ff7cfjQMVRerkb5PcuQkWmyUzGHobWlHceOfoLLl2tMOYOXk5GKJzffa6rBn27GGYAI0NPnwvP/9v/Q0e1UHYUouIRAcfEELFu+EElJ5r8t0HilGX8+dgpVVeYc+AHAYbPhe089glyzHVcOzgDciDMAESAp3oFnP/8A/u4Xu+D3G7M9KNGoSImKi1WoqqzDnLnTMXf+TNMdKOX1enHh/GWcOnkOba3mPhlTCOCJzeWmHPzpZpwBiCCHPjmHn+96W3UMopCxWCyYOnUy5syfgYwM4w5CUgJXGppw5vQFVFRUwe+LjEWnm8oXYlO5ebdrcgZgMM4ARJC7501Da2cP9rz7keooRCERCARw5sxFnD17ETm52Zg6rQglJZMQa49VHQ1Sl2hoaMKlSzWovFSFXhM08BmJxTOLsXGVeQd/uhkLgAizqXwRWjt7IrJTINE1A5+wm3GloRkH3jmKCRPzMWFiPsaPz0NySlLYcnR39aChvhH1dY2orqk37PG8YzVlQi6+xkV/EYcFQIQRAnhi0z3o7O3D2cs8rIYin64HUHm5BpWXB7bSJSUnomB8LrKy0pGZmY6MjLSgnDbZ5+xHa2s72to60drShitXmk3RpnescjNT8dz2tbBao7NBUyTjGoAI5fJ48bf//grqm83VWIQo6IRAclICEhLikZCUgISEODjsdsTabRCaBlvMwO8bXdfh8/ng9/vh8fjQ5+yH09mH3t4+9PY64XFHX1voxDg7nn9qC7LTklVHCQquARiMMwARyhFrw47ta/GDf38ZPWxvS9FMSnR396K7uxdoUB3GPGwxVuz40kMRM/jTzYxz3ioFXWZaEnZsXwubjXUeEQ2fpgk8vWU1igrGqY5CIcQCIMJNLsjGju1rEcP7d0Q0DEIAj61bifnTJ6mOQiHGAiAKlE4uwNe33Q+Lhf+5iejOPnf/XVhVVqo6BoUBR4QoMW/aRDzDM7uJ6A623LfEVKf70diwAIgiZaVF+IuN5dzLS0Q3Wb9yAdatmK86BoURC4Aoc/e8adi+drnqGERkIPctnoVH7l2sOgaFGQuAKLSaP+xEdNWyuVOxfe3dqmOQAtwfFqXWr1wAKSVeeftD1VGISJHl86fjKxtWQeN9wajEGYAotmFVGR5dt4JrAoii0D0LZ+IrG1dxYXAU4wxAlLt30UxYNA2/eu0ApDRWm0oiCo21y+dh2+qlqmOQYpwBIKwqK8XTW1ezTwBRFNhUvpCDPwHgDABdtXhmMWJjrPjJS/vh86s5LIOIQkcI4AsP3I01S2erjkIGwY989Jm5Uyfivz22DvYgHJ1KRMahaQJf2VDOwZ8GYQFAg0yfmI9vPb4eCXF21VGIKAhsMVb85ecewIoF01VHIYNhAUA3KR6fgx88tRU5GamqoxDRGCTE2fHfH9+ABTzYh26BBQDdUmZaEp5/cjOmTMhVHYWIRiE7LRnPP/kISgpzVEchg2IBQLcV77Dj249vwJJZJaqjENEIFI3PwfNPbcG49BTVUcjAuAuA7shqteCpLasxLiMFu985pjoOEQ1h4YwiPPnIfYixWlRHIYNjAUBDEmJg73BKYjxe2HsQAV1XHYmIbiAEsGFlGTaVL2J3TxoWFgA0bKvKSpGXlYafvLQfXb19quMQ0VV2WwyeePgeLJxRpDoKmQjXANCIlBTm4IdPb0XReC4sIjKCcekp+N5TWzj404ixAKARS0mKx18/sQlrl89THYUoqs2dOhE/eGYr8rLSVEchE+ItABoVi6Zh2+qlKMhOxy9ffRder191JKKooWkCG1aWYcOqMh7lS6PGAoDGZOnsKcjLSsePf7sPrR09quMQRbyEODue2boGM4oKVEchk+MtABqzwpwM/PDprZjPbmNEITWlMBd/+8w2Dv4UFJwBoKCId9jxjS88iMPHz+PXew/C7fWpjkQUMSyahvUrF2DDyjJoWuRO+Xt9fnh8fkgpYY+Jgc3GISqU+O5SUN01dypKCnPx05ffxKXaRtVxiEwvIzUJT2+5D8URtvOmqb0LZy/X40L1FVxp7URje+dNa4lirBbkZKQiJzMVJYU5KJ1cgNxMnlESLGJ3rUuqDnG9FJsFkxN4HK3ZBXQdrx34M1498BF03VD/ixGZxl1zpuCx9Ssj5ohut8eLgx+fw/vHz6OmsXVUr5GfnY675kzBygXTEe8Y2amlLf0BxGiBUV13rD7tlmj1GOt3IQsACqmK2ib87OU/cYEg0Qg4Ym14fMPKiDmHw+X1Yt+h43jzyCn0uz1BeU2HzYbyRTOwbsV8xNljh/UcFgCDsQCgkOtzefDi6+/h8IkLqqMQGd6s4vH48sZypCcnqI4SFB+duYwXX38PnT2h6R6alBCHLzxwF5bOnjLkY1kADMYCgMLmfHUDfrn7XTS1d6mOQmQ48Y5YbFu9FCvLSlVHCQqfP4CX/vgB3jxyMizXKyudjCcevgeOWNttH8MCYDAWABRWXq8fuw8cwxvvH+faAKKrFs4owqPrViAp3qE6SlD09rvxTy+8hsr6lrBet2BcOr716HqkJMXf8vssAAZjAUBK1DS24j/2vIvqhvD+giAyktSkeDy2biXmTZuoOkrQdPX04R9+uQeNbZ1Krp+RmoTvfHkjMtOSbvoeC4DBWACQMgFdx/73T2DXOx/C51fzQ0mkghACKxZMx+cfuAsO2+2nrM3G5fHi73+xCzWNbUpzZKUl4/mvbUZSQtygr7MAGIwFACnX1N6F375xGMfPV6mOQhRyJYU5+OKDd2NCXpbqKEGlS4l//PVrOH2pTnUUAEDx+Bz8zyc2waL9V8NbFgCDsQAgwzhXWY8X9x1CXVO76ihEQZeaFI+t9y3B0jlTEYnn97z67kd45e0PVccYZO3yedi2eulnf2cBMBg7AZJhTJuUjx8+sw2HPj6Hl986ip4+l+pIRGNms1lx3+JZ2LCyLGIa+tzoSksH9hz4SHWMm+w7dBwLpk3G5IJs1VEMiYcBkaFYNA0ry0rxo+e+iLXL58FisaiORDQqQgys7v/Rs9uxbfXSiB38AeBXrx1EIKCrjnETKSV+8/pBSGN98DYMzgCQIV3bE333nKl46U8f4MT5atWRiIatpDAH29bcheLx41RHCbnTl+pwvrpBdYzbqqxvwSfnKnla6S2wACBDy81Kw84vPoTK+mbsOfARCwEytMkF2Vi/YgHmTo2cbX1D2fvex6ojDOm1g39mAXALLADIFCblZ2PnFx9CRW0TXnn7KM5erlcdiegz+dnp2LiqDGWlRRG5wO92mju6cb7K+D+LVQ0tqGlsgyOZJwlejwUAmUrx+HH4H1/eiIs1jXjlraM4V2XcqUeKfLlZaXi4fGHUDfzXHD5x3jT31w+fOI97VyxRHcNQWACQKZUU5uA7f7EJJy/WYO/BP+NiTaPqSBRFCsal46Hl87FoZjG0aBz5rzpxoUZ1hGE7eaGGBcANWACQqc0uKcTskkLUXGnF/g9O4OipCgR0461GpshQPD4HDy2fhzlTJkblJ/7r9bs9qG1sVR1j2BrbOtHd40RGSmSctxAMLAAoIhTmZuLJR+7Dw+WLsP/ISbz38Vl4vD7VsSgCWCwa5k+bhAeXzcOk/Mjq3jcW1Y2tpjvQq6GpDRkpBapjGAYLAIoomWlJ+NLau7Hl3kV475Nz2Pf+cXR0O1XHIhNy2GxYNn8aHlw2F+nJCarjGE5Tq/mO9W7u6ATAAuAaFgAUkeyxNqxeMhvlZTNw7MwlHPjoLC7UNJhmwRKpU5ibiZULSrF0TklEHdQTbG1dvaojjFhnFz8MXI8FAEU0q9WCpbOnYOnsKWhq78LBj8/i0Cfn0ePsVx2NDMQea8PiWcUoX1AacYf0hIrL7VUdYcQ8XvNlDiUWABQ1xqWnYNvqpdhy7xKcq6rHux+dwcdnK7loMIpNyMtC+YJSLJ5dEtGtekPB5/erjjBiXq4LGoQFAEUdTRMonVyA0skFaO/qxaFPzuPo6QpcaelQHY3CID0lEYtnFuPuuVORm5WmOo5pxVjNd05HDIu8QVgAUFRLT0nExvIybCwvQ0NLB46dvoSjpyrQ2NapOhoFUWpSPBaUFmHRjCIUj8+J+i18wWCPNd/6iNgYFgDXYwFAdFVeVho2lS/EpvKFnxUDR05eRFO7+VY7E5AQZ8fskkIsmzsV0yblR3XDnlBIM+HOiBQTZg4lFgBEt3B9MVBZ34ITF6pwqqIGVQ2tkNxKYFh5WWkDzaGmTMCUCbkc9EMoJ8N8ffWz0lNURzAUFgBEQ5iUn4VJ+Vl4+J5F6O1341xlPU5frsOJ89Xo6u1THS+qxdpiUFQwDnOnTsD8aZOQnpKoOlLUGJ+TASFgqq21edkZqiMYCgsAohFIjLNj4YwiLJxRBH29RHVDC05drMWpS7WoamhBIBBQHTGiaZpAwbgMzCgqwKziQpSMz4HFoqmOFZWS4h3Iz0pHXXO76ijDkp6SiLSUJAD8Gb2GBQDRKGlCYFJ+NiblZ2NjeRkCAR11TW24WNuIizWNOFdZj95+t+qYphZri8H4cRkomZCDkvE5KCnMRbwjVnUsumpWSaFpCoA5JYWqIxgOCwCiILFYNEzIy8KEvCysXjIbUgKNrR24UNOIitpGXK5rRnNHl+n6p4eLEEBGahIm52WjqDAHU8bnoGBcBjSN9/GNatncqXj90CeqYwzL0jlTVUcwHCsACYA/YURBJsTAefG5WWlYVVYKAAgEdDS1d6G6oQX1rR1oaOlAdUNr1K0lsMfaMC4jBXmZqZiYl4W8rDSMz8lEYpxddTQagbysNEzKz0ZlfbPqKHeUm5mKooJxaHVx+v860grAD8AwmyN1M60oIRohi0VDXlYa8m5oQNPt7EddUzsaWjrQ0tmDtqt/Wjt74DZp97IYqwWZqUnITE1CRkoSMlITkZeZhoJx6VysF0EeWj4fP/6/+1THuKN1KxYo7/0QMN7Y5rMC8MJQBYDqBEThl5wQh+SiOMwouvmkst5+N1o7etDWNVAQdHQ70dPnQm+/C84+N5wuN5z9bnh94WnNarVakBBnR6LDjoS4gT9J8Q6kJScg4+pgn5maiJTE+LDkIbXmT5uEwtxM1FxpVR3llnKz0rB4VrHqGAhIgYEJd8PwWAF4ABjmJ9WAVRKRUolxdiTG2Yc8i97r9aP3ajHQ1++Gx+uD7+quhH6XZ+AxgQB83oFCod/jhS51JNgHpt1jYiywWQeWBTnsNgghYNE02GNjEGePRVK8A/FxdvbMp0GEAL6yYRW+/7PfG7JHxmMPLYdFU79TxG+898ZjlYDLSAsA/IZ7j4jMwWazIt2WwLPrKewm5mVhzZLZ2P/BCdVRBllVVoppk/JVxwAA+Ix35phLE4ChTkDx6ZK7NImITGbbmiWYlJ+tOsZnCsalY/uDd6uOAQAISMBruAJAtGtSok11jBt5AoZ7p4iI6A4sFgue+8KDyExLUh0FKUnx2LF9LWwxxtjp3h8w4tS2bNM0TRiwADDim0VERHeSkhSPbz22XukC0MQ4O7756DpkpKovRK5xhWd97ogIoE2TUjfcBk5jVktERDSUcekpeP5rm5UcFpSekojvfm0zxo8zVs//bgMWABKyWRNAjeogN+o14GoJIiIanozUJDz/5GbMnToxbNecUVSAHzy91ZCnFHZ5VSe4mYRWZZUCVcbamgj0+3UEpIRFdecGIiIalXiHHc9tX4u3j32K3//pCFye0IyCdlsMNt2zEGuWzjHk8c8BCfQacXubFNVWPSCrjNZrWwJw+iSSbcbKRUREwycEcO+imSgrnYxdb3+I9z45H7QTMy2ahsWzS7Dl3sVIM/DW1w6vAQd/AJoFVeKPTTK+3+vuAaC+U8J10mItmBjPhiNERJGivduJt46ewgcnL6CzZ3TnXyQlxGHJrGKsXjx7xDsOWvoDiNHCu9H8dI9Ei9twRUBAJtoTBQDsrnVVAChSHGgQTQCzUu2wqA5CRERBpesSFbWNOFNZhwtVV1Df0oHePtctH5sYZ0duZhqmTMxF6aR8lEzIHXVnv3AXAAEJvN+mw2jr2oXE+edKHdOubpIUpwBpqAJAl0C3J4C0WJYARESRRNMEpkzIxZQJuZ99rd/tQV+/B/1uD6SUiHfYEeewId5h3hMiWz3ScIM/AEiBU/ATPn4AAAp+SURBVMDAccCQQp4UEg+rjXSzVhYARERRIc4eizh7rOoYQVV/60kNIzgFXLvvr4sjSqPchtOvw+nnlkAiIho7PYzryrt8QI/PgB//AUDiCHC1APA7Yo8AMGCrAqDJiC2UiIjIhMI3INf0G/bDq98G+zHgagGwNUs4IcVptZlurduno4+zAERENFZhGv+7fEC7JzzXGjGB418vFU7g+q1/AgdU5RlKbb/faL2KiIjIZKQM/UgiAVT0GnnEEgev/dP1eyneUJBkWPr9OtrcPCSYiIhGLxwr8q+4pTE7/12lC7nv2j9/VgDEemIPAhhdZ4YwaHD54dON+6YSEZGxhfpmsicAXHaG+CJj0xdjsX9w7S+fFQAPFgsPhHxXTaahBaREldPHWwFERDQqQoRuBJEAzvRI+A39QVW8+Wyx+Gx1wuB2SlK8EvY8I9Dr17krgIiIRiWU/e5r+iS6jLrt7xopX77+r4Pfj4B7DwCjrl0EADS6/DwumIiIRiw2RBVAmxeo7DP24C8At8Vm33v91wa9HZsmpnYB8k/hjTUyEsDlXi/6uTWQiIiGyReQsISgEZDTL3Gm2wzjkXjj2WLRc/1Xbq6HJF4MW55RCgC41OuD29D3WoiIyChCMXPcHwBOdhmz3/+NpNBvGttvKgB8TsceSLSEJ9Lo+aRERa8XHhYBREQ0BFeQx4q+APBJpw6PGT78A81xfY69N37xpgJga6nwSiFeCE+msfEGJM738HYAERHdWUAP3jjh9AMnOnV4TTP0iF89uUD4bvzqrZdEaPg5Qr9lMij8usSFXi96uDCQiIhuwxak+//tXlN98gcAXUr84lbfuGUB8HC+/SIgXw9tpuDRJVDR60W9iy2DiYhosD6/jrGeLC8BVPdJnOzSYeBGfzcREK/uLLVfutX3brspQgrxT6GLFBrNLj8qer3sGEhERJ/pHuNcvTswMOVv9K1+tyKE/o+3/d6dnri71nUMQFnQE4WYRQC5cTHIjLXc+V+QiIgiXk2vF0kxI3+eBNDgkrjsNMdK/1s4smO6Y+ntvnnHtghSih8GP0/oBSRQ1+fD+R4vnFwgSEQU1eyjmP7v8AJ/7pC42GvawX/IMXzID8h7al1HJLA4eJHCL8GqYZzdimRbKBtBEhGR0XR4AhBy+KfJdvokavokOrwhDBUGEvhg53THXXd6jHXoFxHfA+Qfgxcr/Jx+HZecXiRYNWTEWpASa8EY14MQEZEJOP0BJA7xC1+XQLNbot4l0Rshx81IDd8d6jHDukW+u9a1H8CaMScyCE0AqTEWpNgsSIwRsAiuFCAiijS6BNpcHsRoN/+O90ug3SvR6gHaPBIRtnb8zR3THauHetCQMwAAIKS2Uwr95HAfb3S6BNq9AbR7AxAA4qwaEq0aHFYBuyYQa9U4Q0BEZHItbj9iNQG/LuHWBxr49Pgkun0CzoCEjKxB/xq/lNqO4Txw2B99d9f2/ysgnhl9JnOJ0QQsArAIAU0AVogRvFtERKSEBPwYWLh3pV/C6ZeIprXgAuKfn5tu3zmcxw77E71P+P4mRto2A8gedTIT8ekSA30TI7NEJCKKZH4d6DL5Qr5RaJQe17B37w17WfzWguQOCfnc6DIRERGFT/dNne+jgJB/uWNuatdwHz6ifXEPj497CZCvjjwVERFReAQk4IyyAkBC/mHHtLhdI3nOiDfGWwW+DqB9pM8jIiIKh25f1N28bRWQXxvpk0ZcAKwriGsQQn51pM8jIiIKNT0aP/1L7as7psc3jvR5o2qNt7EgbjeA/xjNc4mIiEKl24dI29N/RwL42c7S2FHdmh91b9w4m/0bAD4d7fOJiIiCyacDPVG18l+c0BOHt+XvVkZdAKwZJ/oQwHpwPQARERlAuyea7v2LTlixeWeBcI32FcZ0Os6miY5qKcXjAKKozQIRERmN0w+4h3/mj9npkNi+o8ReOZYXGfPxeA8X2v8AIb8z1tchIiIaDR1Ap0d1ivCRkN/cUWp/Y6yvE7TmtntqXT+VwFPBej0iIqLhaHMPzABEAynlT3aWxv1VMF5rzDMA1yQX2P9KCLwerNcjIiIaitMfPYM/hHwtf7ojaB15g1YArBLC74V9i5R4N1ivSUREdDs+HeiIlql/gXe67Y5tW4UI2kqHoJ9vt/eKjPP73fsB3B3s1yYiIgIGVvs3ugBvFCz8E8DRGGm/7+ulwhnM1w3aDMA163JFPwLu9ZA4EuzXJiIiAoB2d3QM/hL4wB1rvz/Ygz8QwhPu/9gk4/u97j0A7g3VNYiIKPp0eoHu6Gj4c9Cr2dd9e6roDcWLB30G4Jo140SfT9jXQ8g/hOoaREQUXXp9UTL4C/lat8N+f6gGfyCEBQAAbC0QLl++Y6OA/NdQXoeIiCJfv3+g21+kk8DPu5scm78/UbhDeZ2Q3QK40Z7a/m9KiB8hxEUHERFFHlcAaHFFfKtfXUJ+c+f0uH8Ox8XCVgAAwJ4694NS4kVApobzukREZF79AaDVDcjIHv17pNQeHe3JfqMR1gIAAF6tcxcFpP6KgJgV7msTEZG5OP0Dnf4imzgBKzaPtbf/SIV9On5Dgf1SjNWxREj8PNzXJiIi8+j2Rf7gL4CfycTYpeEe/K9eW509df2bpBQ/B5CuMgcRERmHlECHd2DFfwRrFVI88Vyp/TVVAZQuyNtYELdbgz4LkGG750FERMbl14EmV2QP/gJiN6DPVjn4D+QwiD017nVSyH8DkK86CxERhZ/r6mI/PUIX+wmgCcC3n5vueEF1FsBAW/I2Ftr3xkjPLEj5LwCi5WwnIiLCQHe/ZlfEDv4+QPxv6XFPM8rgDxhoBuB6u+rdJZqU/0tKrFWdhYiIQscTGGju49VVJwmZtzRoO74xPfa06iA3MmQBcM2uGtcyIfB3AFaozkJERMGjy4FP/RF8r/+IFOIfdk6z71Ud5HYMXQBc80q1e62myb8BsEh1FiIiGpte38DgH6HT/UekFD/cWWrfrzrIUExRAFyzu6ZvPjTtG5D4AgCL6jxERDR8Tj/Q7QF8kTfw6xJyn4D2f3ZMt7+lOsxwmaoAuOblOnexVcdXJeRjEMhSnYeIiG5NAnBePcHPH3kDfzMgfiUlfrGz1H5JdZiRMmUBcM3vzkhbTJJrHaT2RQF5vwTsqjMREdHAYN/nA3p8QCCCBn4BuAHxhhT6i3F9jr1PLhCmXcVg6gLgevsqZJLH5t4AITcD4h4ACaozERFFE11K9AUEnL6B1f0RxAmIt4SUr2g2+2vPFose1YGCIWIKgOvtq5CxHpt7mRTifgG5EsAcAFbFsYiIIo5PB9yBgSY+Ln/EHNfrh8BxKcUBIeX+btjf/36p8KoOFWwRWQDc6HctMiHG5V4EgSVSiNlCylkAJoMLCYmIRsSnAx4dcPsHBv0ImN4PALgEIU5BypOQOOL32z/81mzRpzpYqEVFAXArv6uTDqvwlUCXE4QMTBQaJkopsiGQCSnTAZEOiPiBR8sksFggogh2bUueLgdGRF0CAR0+n46AH0L6dAm/DpsuTfG7MABcnaaXsg+abAdEOyRapZDNQqJKSkuVZkGVHm+r2FkgXIrzKvH/AWQby/+9SwmOAAAAAElFTkSuQmCC;" vertex="1" parent="1">
          <mxGeometry x="897.5" y="460" width="80" height="80" as="geometry" />
        </mxCell>
        <mxCell id="HLB04OiPP8K-Rc5S-tSk-8" value="" style="group" connectable="0" vertex="1" parent="1">
          <mxGeometry x="1020" y="240" width="150" height="60" as="geometry" />
        </mxCell>
        <mxCell id="HLB04OiPP8K-Rc5S-tSk-9" value="" style="endArrow=classic;html=1;rounded=0;" edge="1" parent="HLB04OiPP8K-Rc5S-tSk-8">
          <mxGeometry width="50" height="50" relative="1" as="geometry">
            <mxPoint as="sourcePoint" />
            <mxPoint x="150" as="targetPoint" />
          </mxGeometry>
        </mxCell>
        <mxCell id="HLB04OiPP8K-Rc5S-tSk-10" value="" style="endArrow=classic;html=1;rounded=0;" edge="1" parent="HLB04OiPP8K-Rc5S-tSk-8">
          <mxGeometry width="50" height="50" relative="1" as="geometry">
            <mxPoint x="150" y="60" as="sourcePoint" />
            <mxPoint y="60" as="targetPoint" />
          </mxGeometry>
        </mxCell>
        <mxCell id="HLB04OiPP8K-Rc5S-tSk-11" value="&lt;b&gt;&lt;font color=&quot;#6082b6&quot; style=&quot;font-size: 20px;&quot;&gt;MQTT&lt;/font&gt;&lt;/b&gt;" style="text;html=1;strokeColor=none;fillColor=none;align=center;verticalAlign=middle;whiteSpace=wrap;rounded=0;" vertex="1" parent="HLB04OiPP8K-Rc5S-tSk-8">
          <mxGeometry x="50" y="3" width="60" height="30" as="geometry" />
        </mxCell>
        <mxCell id="HLB04OiPP8K-Rc5S-tSk-12" value="" style="group" connectable="0" vertex="1" parent="1">
          <mxGeometry x="1230" y="210" width="180" height="120" as="geometry" />
        </mxCell>
        <mxCell id="HLB04OiPP8K-Rc5S-tSk-13" value="" style="rounded=1;whiteSpace=wrap;html=1;" vertex="1" parent="HLB04OiPP8K-Rc5S-tSk-12">
          <mxGeometry width="180" height="120" as="geometry" />
        </mxCell>
        <mxCell id="HLB04OiPP8K-Rc5S-tSk-14" value="" style="shape=image;verticalLabelPosition=bottom;labelBackgroundColor=default;verticalAlign=top;aspect=fixed;imageAspect=0;image=https://www.inovex.de/wp-content/uploads/2021/03/technologie-partner-hive-mq.png;" vertex="1" parent="HLB04OiPP8K-Rc5S-tSk-12">
          <mxGeometry x="5.7000000000000455" y="15" width="168.59" height="95" as="geometry" />
        </mxCell>
        <mxCell id="HLB04OiPP8K-Rc5S-tSk-15" value="&lt;b&gt;&lt;font color=&quot;#6082b6&quot; style=&quot;font-size: 20px;&quot;&gt;MQTT Broker&lt;/font&gt;&lt;/b&gt;" style="text;html=1;strokeColor=none;fillColor=none;align=center;verticalAlign=middle;whiteSpace=wrap;rounded=0;" vertex="1" parent="1">
          <mxGeometry x="1240" y="340" width="160" height="30" as="geometry" />
        </mxCell>
        <mxCell id="HLB04OiPP8K-Rc5S-tSk-16" value="" style="group" connectable="0" vertex="1" parent="1">
          <mxGeometry x="1530" y="210" width="159" height="150" as="geometry" />
        </mxCell>
        <mxCell id="HLB04OiPP8K-Rc5S-tSk-17" value="" style="group" connectable="0" vertex="1" parent="HLB04OiPP8K-Rc5S-tSk-16">
          <mxGeometry width="159" height="150" as="geometry" />
        </mxCell>
        <mxCell id="HLB04OiPP8K-Rc5S-tSk-18" value="" style="rounded=1;whiteSpace=wrap;html=1;" vertex="1" parent="HLB04OiPP8K-Rc5S-tSk-17">
          <mxGeometry width="148" height="120" as="geometry" />
        </mxCell>
        <mxCell id="HLB04OiPP8K-Rc5S-tSk-19" value="" style="shape=image;verticalLabelPosition=bottom;labelBackgroundColor=default;verticalAlign=top;aspect=fixed;imageAspect=0;image=https://topdev.vn/blog/wp-content/uploads/2019/05/kafka.png;" vertex="1" parent="HLB04OiPP8K-Rc5S-tSk-17">
          <mxGeometry x="24.5" y="5" width="110" height="110" as="geometry" />
        </mxCell>
        <mxCell id="HLB04OiPP8K-Rc5S-tSk-20" style="edgeStyle=orthogonalEdgeStyle;rounded=0;orthogonalLoop=1;jettySize=auto;html=1;exitX=0.5;exitY=1;exitDx=0;exitDy=0;" edge="1" parent="1" source="HLB04OiPP8K-Rc5S-tSk-21">
          <mxGeometry relative="1" as="geometry">
            <mxPoint x="1990" y="450" as="targetPoint" />
            <Array as="points">
              <mxPoint x="1604" y="450" />
            </Array>
          </mxGeometry>
        </mxCell>
        <mxCell id="HLB04OiPP8K-Rc5S-tSk-21" value="&lt;b&gt;&lt;font color=&quot;#6082b6&quot; style=&quot;font-size: 20px;&quot;&gt;Kafka Cluster&lt;/font&gt;&lt;/b&gt;" style="text;html=1;strokeColor=none;fillColor=none;align=center;verticalAlign=middle;whiteSpace=wrap;rounded=0;" vertex="1" parent="1">
          <mxGeometry x="1524" y="340" width="160" height="30" as="geometry" />
        </mxCell>
        <mxCell id="HLB04OiPP8K-Rc5S-tSk-22" value="" style="group" connectable="0" vertex="1" parent="1">
          <mxGeometry x="1430" y="240" width="80" height="60" as="geometry" />
        </mxCell>
        <mxCell id="HLB04OiPP8K-Rc5S-tSk-23" value="" style="endArrow=classic;html=1;rounded=0;" edge="1" parent="HLB04OiPP8K-Rc5S-tSk-22">
          <mxGeometry width="50" height="50" relative="1" as="geometry">
            <mxPoint as="sourcePoint" />
            <mxPoint x="79.99999999999999" as="targetPoint" />
          </mxGeometry>
        </mxCell>
        <mxCell id="HLB04OiPP8K-Rc5S-tSk-24" value="" style="endArrow=classic;html=1;rounded=0;" edge="1" parent="HLB04OiPP8K-Rc5S-tSk-22">
          <mxGeometry width="50" height="50" relative="1" as="geometry">
            <mxPoint x="79.99999999999999" y="60" as="sourcePoint" />
            <mxPoint y="60" as="targetPoint" />
          </mxGeometry>
        </mxCell>
        <mxCell id="HLB04OiPP8K-Rc5S-tSk-25" value="&lt;b&gt;&lt;font color=&quot;#6082b6&quot; style=&quot;font-size: 16px;&quot;&gt;Kafka Connector&lt;/font&gt;&lt;/b&gt;" style="text;html=1;strokeColor=none;fillColor=none;align=center;verticalAlign=middle;whiteSpace=wrap;rounded=0;" vertex="1" parent="1">
          <mxGeometry x="1427" y="245" width="86" height="50" as="geometry" />
        </mxCell>
        <mxCell id="HLB04OiPP8K-Rc5S-tSk-26" value="" style="group" connectable="0" vertex="1" parent="1">
          <mxGeometry x="1800" y="213" width="154" height="120" as="geometry" />
        </mxCell>
        <mxCell id="HLB04OiPP8K-Rc5S-tSk-27" value="" style="group" connectable="0" vertex="1" parent="HLB04OiPP8K-Rc5S-tSk-26">
          <mxGeometry width="154" height="120" as="geometry" />
        </mxCell>
        <mxCell id="HLB04OiPP8K-Rc5S-tSk-28" style="edgeStyle=orthogonalEdgeStyle;rounded=0;orthogonalLoop=1;jettySize=auto;html=1;exitX=0.5;exitY=0;exitDx=0;exitDy=0;" edge="1" parent="HLB04OiPP8K-Rc5S-tSk-27" source="HLB04OiPP8K-Rc5S-tSk-29">
          <mxGeometry relative="1" as="geometry">
            <mxPoint x="190" y="-93" as="targetPoint" />
            <Array as="points">
              <mxPoint x="74" y="-93" />
            </Array>
          </mxGeometry>
        </mxCell>
        <mxCell id="HLB04OiPP8K-Rc5S-tSk-29" value="" style="rounded=1;whiteSpace=wrap;html=1;" vertex="1" parent="HLB04OiPP8K-Rc5S-tSk-27">
          <mxGeometry width="148" height="120" as="geometry" />
        </mxCell>
        <mxCell id="HLB04OiPP8K-Rc5S-tSk-30" value="&lt;b&gt;&lt;font color=&quot;#6082b6&quot; style=&quot;font-size: 20px;&quot;&gt;Ingestion Service&lt;/font&gt;&lt;/b&gt;" style="text;html=1;strokeColor=none;fillColor=none;align=center;verticalAlign=middle;whiteSpace=wrap;rounded=0;" vertex="1" parent="HLB04OiPP8K-Rc5S-tSk-27">
          <mxGeometry x="-6" y="47" width="160" height="30" as="geometry" />
        </mxCell>
        <mxCell id="HLB04OiPP8K-Rc5S-tSk-31" value="" style="group" connectable="0" vertex="1" parent="1">
          <mxGeometry x="1700" y="240" width="80" height="60" as="geometry" />
        </mxCell>
        <mxCell id="HLB04OiPP8K-Rc5S-tSk-32" value="" style="endArrow=classic;html=1;rounded=0;" edge="1" parent="HLB04OiPP8K-Rc5S-tSk-31">
          <mxGeometry width="50" height="50" relative="1" as="geometry">
            <mxPoint as="sourcePoint" />
            <mxPoint x="79.99999999999999" as="targetPoint" />
          </mxGeometry>
        </mxCell>
        <mxCell id="HLB04OiPP8K-Rc5S-tSk-33" value="" style="endArrow=classic;html=1;rounded=0;" edge="1" parent="HLB04OiPP8K-Rc5S-tSk-31">
          <mxGeometry width="50" height="50" relative="1" as="geometry">
            <mxPoint x="79.99999999999999" y="60" as="sourcePoint" />
            <mxPoint y="60" as="targetPoint" />
          </mxGeometry>
        </mxCell>
        <mxCell id="HLB04OiPP8K-Rc5S-tSk-34" value="&lt;b&gt;&lt;font color=&quot;#6082b6&quot; style=&quot;font-size: 16px;&quot;&gt;Consume&lt;/font&gt;&lt;/b&gt;" style="text;html=1;strokeColor=none;fillColor=none;align=center;verticalAlign=middle;whiteSpace=wrap;rounded=0;" vertex="1" parent="1">
          <mxGeometry x="1697" y="200" width="86" height="50" as="geometry" />
        </mxCell>
        <mxCell id="HLB04OiPP8K-Rc5S-tSk-35" value="&lt;b&gt;&lt;font color=&quot;#ea6b66&quot; style=&quot;font-size: 16px;&quot;&gt;Alarm&lt;/font&gt;&lt;/b&gt;" style="text;html=1;strokeColor=none;fillColor=none;align=center;verticalAlign=middle;whiteSpace=wrap;rounded=0;" vertex="1" parent="1">
          <mxGeometry x="1697" y="260" width="86" height="50" as="geometry" />
        </mxCell>
        <mxCell id="HLB04OiPP8K-Rc5S-tSk-36" value="" style="group" connectable="0" vertex="1" parent="1">
          <mxGeometry x="1990" y="60" width="134" height="115" as="geometry" />
        </mxCell>
        <mxCell id="HLB04OiPP8K-Rc5S-tSk-37" value="" style="group" connectable="0" vertex="1" parent="HLB04OiPP8K-Rc5S-tSk-36">
          <mxGeometry width="134" height="115" as="geometry" />
        </mxCell>
        <mxCell id="HLB04OiPP8K-Rc5S-tSk-38" value="" style="rounded=1;whiteSpace=wrap;html=1;" vertex="1" parent="HLB04OiPP8K-Rc5S-tSk-37">
          <mxGeometry width="128.77922077922076" height="115" as="geometry" />
        </mxCell>
        <mxCell id="HLB04OiPP8K-Rc5S-tSk-39" value="" style="shape=image;verticalLabelPosition=bottom;labelBackgroundColor=default;verticalAlign=top;aspect=fixed;imageAspect=0;image=https://images.g2crowd.com/uploads/product/image/large_detail/large_detail_251be2af3ae607c45c14e816eaa1cf41/postgresql.png;" vertex="1" parent="HLB04OiPP8K-Rc5S-tSk-37">
          <mxGeometry x="17.449999999999818" y="5" width="99.11" height="110" as="geometry" />
        </mxCell>
        <mxCell id="HLB04OiPP8K-Rc5S-tSk-40" value="&lt;b&gt;&lt;font color=&quot;#6082b6&quot; style=&quot;font-size: 20px;&quot;&gt;Database&lt;/font&gt;&lt;/b&gt;" style="text;html=1;strokeColor=none;fillColor=none;align=center;verticalAlign=middle;whiteSpace=wrap;rounded=0;" vertex="1" parent="1">
          <mxGeometry x="1977" y="180" width="160" height="30" as="geometry" />
        </mxCell>
        <mxCell id="HLB04OiPP8K-Rc5S-tSk-41" value="" style="group" connectable="0" vertex="1" parent="1">
          <mxGeometry x="1993" y="390" width="148" height="160" as="geometry" />
        </mxCell>
        <mxCell id="HLB04OiPP8K-Rc5S-tSk-42" value="" style="group" connectable="0" vertex="1" parent="HLB04OiPP8K-Rc5S-tSk-41">
          <mxGeometry x="7" width="110" height="120" as="geometry" />
        </mxCell>
        <mxCell id="HLB04OiPP8K-Rc5S-tSk-43" value="" style="group" connectable="0" vertex="1" parent="HLB04OiPP8K-Rc5S-tSk-42">
          <mxGeometry width="110" height="112.5" as="geometry" />
        </mxCell>
        <mxCell id="HLB04OiPP8K-Rc5S-tSk-44" value="" style="rounded=1;whiteSpace=wrap;html=1;" vertex="1" parent="HLB04OiPP8K-Rc5S-tSk-43">
          <mxGeometry width="110" height="112.5" as="geometry" />
        </mxCell>
        <mxCell id="HLB04OiPP8K-Rc5S-tSk-45" value="" style="shape=image;verticalLabelPosition=bottom;labelBackgroundColor=default;verticalAlign=top;aspect=fixed;imageAspect=0;image=https://upload.wikimedia.org/wikipedia/commons/thumb/a/a1/Grafana_logo.svg/800px-Grafana_logo.svg.png;" vertex="1" parent="HLB04OiPP8K-Rc5S-tSk-43">
          <mxGeometry x="10.9553846153846" y="11.25" width="88.09499999999998" height="90" as="geometry" />
        </mxCell>
        <mxCell id="HLB04OiPP8K-Rc5S-tSk-46" value="&lt;b&gt;&lt;font color=&quot;#6082b6&quot; style=&quot;font-size: 20px;&quot;&gt;Dashboard&lt;/font&gt;&lt;/b&gt;" style="text;html=1;strokeColor=none;fillColor=none;align=center;verticalAlign=middle;whiteSpace=wrap;rounded=0;" vertex="1" parent="1">
          <mxGeometry x="1977" y="510" width="160" height="30" as="geometry" />
        </mxCell>
        <mxCell id="HLB04OiPP8K-Rc5S-tSk-47" value="" style="endArrow=classic;html=1;rounded=0;" edge="1" parent="1">
          <mxGeometry width="50" height="50" relative="1" as="geometry">
            <mxPoint x="2056.58" y="215" as="sourcePoint" />
            <mxPoint x="2056.58" y="370" as="targetPoint" />
          </mxGeometry>
        </mxCell>
        <mxCell id="HLB04OiPP8K-Rc5S-tSk-48" value="&lt;font color=&quot;#6082b6&quot; style=&quot;font-size: 16px;&quot;&gt;&lt;b&gt;Smartfarm Sensors&lt;/b&gt;&lt;/font&gt;" style="text;html=1;strokeColor=none;fillColor=none;align=center;verticalAlign=middle;whiteSpace=wrap;rounded=0;" vertex="1" parent="1">
          <mxGeometry x="897.5" y="600" width="120" height="30" as="geometry" />
        </mxCell>
        <mxCell id="HLB04OiPP8K-Rc5S-tSk-49" value="" style="shape=image;imageAspect=0;aspect=fixed;verticalLabelPosition=bottom;verticalAlign=top;image=data:image/png,iVBORw0KGgoAAAANSUhEUgAAAgAAAAIACAYAAAD0eNT6AAAABHNCSVQICAgIfAhkiAAAAAlwSFlzAAALEwAACxMBAJqcGAAAABl0RVh0U29mdHdhcmUAd3d3Lmlua3NjYXBlLm9yZ5vuPBoAACAASURBVHic7N13nFTV/f/x17kzs50OS5FeVUSqig0pK9hLDMQkStFEE/P9ml8SE7+JCoPGXhNLgoUF1KgQSzSx0hQrAruoKGABFNldFFjKttmZ+/n9MRhRd4XdKefOzOf5eOzDxwN27nnL7sz93HM/9xyDitmSkAxx4TaEo4Ec23niZUsYKiLJGcsA2YbaPCi+oIW5JDmjKqVU5jK2A6S6RfVyDC5LgCzbWeItmQXAvtr6eeyCPHNu8kdWKr0Eg0FnYXa/VgD+upAsDU6rtJ1JeYcWADFaVCdrgENt50gEWwWAA3TP5pAfZpu1yR9dKe8aHZxf4Hdq+rni9kU4yGC6Ap2ALkBroJWBNgKtiL6VGhMS2OnATmCnwBcgFcDnxlAeEbMpgKz3td294blLL61L/P+ZskELgBgsqZauro/PbOdIFFsFAEA7PzdOyzP/Z2d0pewaPmtWoFVZYBDGGWxEBoMzCORQoif7ZHKBT4E1wDsGSiO+yOolV12wHowkOYuKMy0AYvBSnRziwPu2cySK1QLAxwPT8s3P7IyuVHIV3TCrVaQ2+wQfcoxgjgFGALm2c32P7cAbBt40jrOstZvzxoLgpJDtUKpp/LYDKKVUpgkGg84yp9dRuHISmCKplSMd8EvqXJO1BU4VOFVcl+1UV40LznkFzEIf7rMvBqfp7bsUkDK/bV6kMwCJozMAKt0MnzUr0KY8d6xI5GwwZ5L86fykEVgL5ingycXByW/r7QJv0gIgBloAJI4WACpdjLl6znDHZTJwLlBoO48FnxrkkYjPLV5y1YXrbIdRX9MCIAZaACSOFgAqlY0PzisMG5nmiPxMoK/tPB7yBsbMqm6RO/+N306qsR0m02kPgFJKxcnY4OxjHJz/ieD+wAjZOu/9HUcjcnT+rurbi4Jz5ro+7lp81dSPbYfKVFoAKKVUDILBoPOK6XEqYi43cKye9PdPoA3w/0yES8cF5zwruNcvDl7wuu1cmUYLAKWUaoaJ8+f7drxf/dNlcIUR+tvOk6Ic4DSDc9rYYPHLDgQXBqcttR0qU2gBoJRSTRAMBp1X6XHu9vdrpgMDbOdJFwZzgsCSccE5S3Fk+qLp05bZzpTuvm+pSKWUUvs4ceacccvouVIwD4PoyT8xRuOaV8YF57xUdHXxINth0pnOACil1H6MC84+1OC72RU5xXaWDFIkrlk1Njjnvuwsd8Zzf7rgC9uB0o0WAEop1YjTg7Pyasj6g2D+KEja7fiZAvwGfhkKOT8eN3NusO0huXctmDTJ0sPJ6UdvASilVAOKZs49s5rsDwQzg9Te7jtkYAfRjX1SVWtE7tjxftVrRVfPHWo7TLrQGQCllNrH6OA/2vuou0tEfmQ7SyNqgI0gn4LZFP3iU4PZiBPZiStVDv491dm++lf/+NMd+75w4vz5vrKP61vm1tXmCibHYFpiTDsR6SGYHkBPoDvQA+gKBJL8//a9BHMUriwfG5xzQzvyrtENiGKjKwHGQFcCTBxdCVDZUDRzzqki3At0sZ1lr3oD7wi8ZmBlxGHlCe7GD4LBYMKv5kcHl/iNs2mAz2W4EP0y0V0KsxM99oEQeM+HM+2l4OQVtrOkKi0AYqAFQOJoAaCSafzN8/IjVe5dwFTLUWqBpYL5j+O4L7c5OP99L93zPvq2+bm5u/YMNcaMM8KpgjkCu7eS64Erj2fjLckoitKNFgAx0AIgcbQAUMky5uo5A43LowYOsxRhq8G84Br3mWwJvPBc8LxdlnI02ejgP9o7pm6MI87pIKftXeHPArPYIXz+S8ELt9gZPzVpARADLQASRwsAlQxFwTmTBWYBOUkeeqeBR1xM8eLglOVJHjshRgeX+P1m0wRXzAUGOY3kN05udR3njCXTJ7+V5HFTlhYAMdACIHG0AFCJNnbmnGlGeIDkfQ4KmCVAcXXL3MfTeTe8k6+b3aG+3jnPFS5I8szKHuOYUQunTylJ4pgpSwuAGGgBkDhaAKhEGh18sK+PyGogLwnD7TLI3xyfb9aLV03ekITxPGXc1cVH4JpLgXNJzpNnH0TocfjS4JhwEsZKafoYoFIq4zi4fyDxJ/9twF/rsgN3fvtxvEyyaPq0t4Hzi4KzZwjO5cAUEvskwSE+Nv4QeDSBY6QFXQhIKZVhxBjknAQOsNUgM01OXZ9FwalXZ/LJf18Lgxd8sig49WIC9T0MMhNIZLPjWQk8dtrQGQClVEYZ++cHuhP2t03AoXcbI9eEhTuXBqfVJuD4aWHRFT+vAIInXzf77rqQM9PARYAvnmMIZnA8j5eutABQSmUUcf0FcW5+EpB5/oD/jy9ccX5ZfA+dvvZu7nPJmKsfmGVc5y8Gc0K8jm2S09uR8rQAUEpllCw3XBaO30ffKtfh0iXTp70WrwNmmiXTL1wNjB47s/h0I+avRJcjjtXncThG2tMCQCmVUV4I/mz7uOCc9UD/GA5TieGy42VjcXB68legmxicn7XNV92NiNsD4/RwRHoI9DSYzi7kO5Aj0BIIGGgF0WkKoBKoM1DtInscnCrB/QycTzGyyYizKYyzscOhWWXJXoFw8Yxpz5wenLWomqwrwPyB2M5Pr8crVzrTAuAABYNBZ2F2v1b7/tm6jza37Nm10FakhKuLQP23PgIi9WHcSBI+F+rrW4y68r5e+/5Rld+tWBm8uDrxg6t0Z5BiwVzfzJcvNThTFs6Y/OmiuKZq2PBZswItK7L7f7Umv4Fjt1M9xETwgbP3zB69qSFEn+2WfV4v3zxc26+/zyD7vkJAcPHhsv39cP244JwPDWalGFYaMSvbkLM80ZvvPBN9f19RFCx+BsyDAn2bcRjXdSiOd7Z0pOsAfMvo4PwCx9Qc74gMdzFDDdKX6O5YrW1n8xJx3ehXJELEjSDhCOIm50LIcXx1OOwymI9wzGvi5BQvu/6CtF2PQcXf0bfNz83bVf0u0KcJL6szRq46Tjbdmsh15yfOn+/bvrbqGONyqmBOBAbhjV35qgRZgXGec4z77MLp095N5GCjg/MLHGpuM8jPm/ZKuWdRcNqvEpMqvWgBAIy79r6OJuyfJGLOBo4ltff+tsaNRHDDYdz6EG4kebOiBsDnqzbGWZ5lnOsW3fSLl5I2uEpZY66eM9BxeRlodwDfvsZ1Ij/de7867sZdN7cdIU4GORUYz94rdY/71MCzgvlPdcvcRYla2XBvb8D9wIFMt76U1XbX6c9demldIrKkmwwuAMScOHPuWBEuFTiVOD+Gkukk4hIO1RGprweR/b8gjhyff7dxnLlVec7lestAfZ+x18zpYyI8CBzdyLeEBHObizsz3o/2BYNB51V6jQUuEuRMUvvCY5fB/AuYtzA4ZWG8Dz4+OK8wjNxukJ808i0h4I625F2V6NsU6SQjC4BxM4tPRMyNwFDbWdKduEKkrpZIqH7v/cbkcRwnIn7/XH9uxcVLg0FdFlQ1atzM4hNFzNkOMgyMX2CrGF7DF35o8ZU/2xTXsYJz+xvcnwjOVJAe8Ty2FwisxZg5xh+as/eZ/7gZH5x3mIt7rsBgQVoYqATzuvjNw4uvnKKd/02UUQVA0TXzDiEiMwWZaDtLphFXqK+rwQ3VJ31sx/HVOQFzz8s3/Oq3SR9cqb3GXV18PC5XgJlgO0uShMA85PjcG166atqHtsOo78qIAqDohlmtpDb7FmAaOtVvlRsOE66tSWqPwFccn3+bP2DOWXL9JS8nfXCVsYqC844T3BlAke0slrjAsw7OzJeCk1fYDqO+lvYFQFGweKRgHqJp3b4qkQTq62px6+qSfFMAwBF/lu/hl2+85PykD60yyt7mtenACNtZPEKAfwtucHHwglW2w6g0LgBGB5f4/Wy8UjBXolf9nuSGw9RXVyNJbhIE8Pl9m/24oxfffOnHSR9cpbVxwbn9Qe4ATradxaNcg3lYAqHfx7tHQDVNWhYAo4PFnXyYJ4GRtrOo7yeuUF9TjRtOfo+ecZwwgcDkV2/4xSNJH1ylndHB4tZ++D/B/IbU7uhPlkox5oZ2knu7du7bkXZXxqODD/b1I4uAw21nUftnjMHJCoC4SLL7AkQcXPcHvU44w2x69T9Lkzu4Sh9iioI9LzCYp/Y2+KXd52qC5BgoqqH+nN5jzv5gw9KnNtoOlGnSagZg7/3+Z4D2trOoJhIIh+oI19rZRdWXnf3wKzf84jwrg6uUNT44rzCCez9wuu0sKU6A+/Ko+80zunZH0qRNAVA0c845IjwE5NjOopovEqojXFNroTkQHH9g6bKbLxljYWiVgsbOnHuyEZkNdLKdJY18ILjnaZNgcqRFATAmOOcMBx5HNzdKC5FQPfU1di4CtAhQ+3N6cFZeNdnXA5fazpKmwga5ts2h+dcke0fCTJPyBcCJM+eMc4V/o1f+aSUSClFfk5ClxffLCWT9e9lNv9QpXfUdo4MP9vUReRboZzsLIAY+FvgQ5FOM2WRENkUcswmoFde30/HX1Yd8ubsA8utqTASntYPJqndMviOmpYjbw4GeAj3BdAcOBjrb/J/ax8La3MgPXrv8wt22g6SrlC4A9t7zfwkosJ1FxV+4to5wnZ2eAH9W4CFdK0Dta8K1D3YO10dWYu8EuRVYZpAVxpi360VWLg1Oq4z3IGP/PPcgJ8IIV2SEia5hcDyQH+9xDoQgL7c7NH+czgQkRsoWAEVXFw8S17yCbtOb1upraoiE7Dwh5MsK3PLKjZf83srgynPGBec8A5yWxCHFwCqB/wjmP6PYsCKR2xA35uS//jW7bnvLE0x007RTSfaiaobLFs2YemtSx8wQKVkAHHf9w22y6+rfRlf3ywBCqMrOOgEAvqzAT1+58ZJ/WBlcecaJweIhLqYkGWMJrDVQ7BB56KXghVuSMWZTjLl6zkCfy1SB84GOSRiyrLJzXY+VF1+c/I1E0lzKFQB7t9B8RpBTbGdRySEihPbsQdzk7x9gHCecnZU9cNH1F61P+uDKM8bOnDvDiAQTOMQe4FHBLV4cvOD1BI4TN8NnzQq0Kc85BZELEr6lumOOWTR9yhsJO36GSrmu+WX0uAY9+WcUYwyBvDxCVVWQ5GWDxXX9ofr61ycG53fR1coylxEZlKBDV4K5kyz+suhPU7YlaIyE2HtF/i/gXydeU9zPjTj/B3I+EIj3WOIyENACIM5SqgAomjn3TBH5o+0cKvkcn49ATo6VJwPcSLhdRdWXi4Hjkj648gSDyZU4rk4h8IUx3J4l/rufC563K24HtmTvdr8XFgXnzQT39wIXArnxOr4xkh2vY6mvObYDHKiTr5vdQUTuJQVvW6j48GVl4QvE/eLigLjh+mOP//3f/9fK4Mo6QTbH6VD1wF+z8fddNGPq9elw8t/XwuDkTxcGp/5vBH9/g3kQ4lQ1idkUl+Oob0iZAqAu5Ps7UGg7h7LLn5OLMcmvAQUQN3zruD/9IxlNT8pzzLI4HOR51xcZtCg49dfpduL/tqXB8zYvDE6ZjDHjgHdjPFyILJ3+T4SUKACKgnMmG+QHtnMo+4xjCOTGbWaxScSNBEKh7S9YGVxZ5cs3TwJfNvPl5caYsxYFp5685KoL18Uzl9ctmjFlSYQew4zht0CzFvUw8Hiq9UekCs8XACcGH+gC3GE7h/IOJxCwditAIpHBo/9wz/+zMriy5sXfT67CmMua8dKnImQNWjhjyr/iHipFLA2OCS+cMfV2cIcDTX2Ucqfjdy9PRC6VAgWAi+8ugTa2cyhv8efmYuFOAAKEI5GbRgfv1tUnM8yiGVPmAjcd4LfvxvCzRcGpZy8N/qS5MwdpZVHwgvfbkjdSMDcAB7KyX5XAGS9eecFnic6WqTxdAIybOXcMcLbtHMp7jDH4s+1s/yCuG4hUO49YGVxZtSg49XJBpgGNTkkbzLMGd8iiGVMfSGK0lLAgOCm0ODjljzjmeKD0e771VR8yYnFw6ivJypaJPNtRH13wp+dygeG2syhvEoTQbjsLBIEjTm7OkGXX/fwdC4Mry04PzsqrIfuHAqOALkCtgfdxzOMLp09JyoqBAKODxa39OCNc3L7g9AC6g/Qw0f0KsgzkS3Qd/yygxkCtYHaBhIDPQTYZ2Ogas8kYs7a6ILf0jd9OStKztmLGBuceb5AJBtMLwDVmHcJzi4NTlicnQ2bzbAFQFJxzkcAs2zmUt7n19YSqrW0d/P6ymy8ZaGVwlZHGXPPAABNxTnYwR0p0o56+xPdzPAy8B6wQ5DUXnl8anFYex+MrD/FkAXBy8KGWIcLrSc460yrFhaqq7O0VkJN9zivX/+IJK4OrtDdx/nzfjvdrxghyuoFTJHrCTyYBVgLPGsc8lczZDZV4niwAxgXn/gnkWts5VGpwIxFCe/ZYGdvn83/+yi2/6mplcJW2xv95drdwxPcTI/ILoKftPPt4X4yZ5xdT/GJw8lbbYVRsPFcAnB6clVdN9gZ00R/VBDZnAZws31nLbvyfjH3MS8XPuGDxSWD+AIzGg5/P+wgZeFwwNywKTtE+mBTlub0Aqk3OzxHRk79qEl9WlrUCAJdbiW6KolQziBk7c85pRsyVwJG20xygLIEfg/x4XHDOQhwzXXfrSz2eqjCHz5oVaF2W/RHQ3XYWlXpCVXtwwwfyeHH8Zedln7D42l/oI0uqSYqCxaMF5w6QwbazxMF/wPx2UXCKbp2dIjw1A9C6PHsyevJXzeTLysENV1kZOxRy7wYStWWsSjNj/zz3ICfM9YKcB+KpC7EYnAoyflxwzt9MTt30hf938U7bgdT389ZCQMKvbEdQqcvn92McO7/SEgkPPP7aWZ2tDK5SRjAYdIpmFv/ehGW9IOfjsVnYOAgAl0pt9tqimXPPtB1GfT/P/PKNC849HGS17RwqtYVrawnX1VkZ2+cPzHvl5kumWBlceV5RcF53wZ1LtMEvIxjMgzW54V+9dvmFu21nUd/loRkA92LbCVTq82VlWatqXXF1x0rVoKJg8U8E9x0y6OQPIMj5OTW+0qJg8UjbWdR3eaIAOPq2+bkG82PbOVTqM46D8dtpbZFIpOCEK2ZNtDK48qyxM+fOEMzDQCvbWSzpLZglY2cWn247iPomTxQAebtqztEd/1S8+LKyrI3t1tVfYW1w5TljZxZPNCJB2zk8IMeIeWR8sPhg20HU1zxRAIBMsp1ApQ/HH7CyVTCAuHIYiEfeV8qm04Oz8oyYe2zn8JD8COZAt1NWSWD9g+r04Kw8YJztHCp9GAPGF7AytojrO+4Ps7QRUFFF1iSgve0cHnPa+D/P7mY7hIqyXgDUkHUSkGc7h0ovvoCdAgDAwf2ZtcGVZxjMCUkaKgKsAZmL4TIwE3HkSPGbrnXZgbZtycteFJxqqlvm5dVlB9pGkF6uw3EG+SmYK4B/AhuTlNW4YXN8ksZS+2F9ISDB6LOiKu6cgB9qie5llmRuJDI8+aMqrzHQJYG/fp8Z+I9g/hMhd+nS4KT97ob1xm8n1QA1wA6iJ/zX9v378cF5hRFkPMipBiYkqi9LcDol4riq6awWABPnz/dtf7/6FJsZVHoyxmB8PsTC0sDiutknTJ815uWrL16S9MGVZ0j0yjyeqoAFODJ70fSpr4KJa32xd3e/h4CHJgbnZ+2g6jTBTANOIp7nCiN2FupQ32G1ANixtuZw9B6ZShCf30/Y0t4AbigyDdACIKPJB2BOjsOBthrk9gCBe54Lnrcr+kfT4nDYxi0ITgoBTwBPjP/z7G7hsO/3BvkZkBv70c37sR9DxYPVHgAROcbm+Cq9OY69+tZE0IVPMp3DUzEeoRLM7/Ko67UwOO2Gr0/+yfXilRd8tjg45VIfTk+QvwD1MRxua2Wn2lfjFE3FyG4ToHC01fFVWnP8PourAkZ6WBpaeUR0mp5lzXipK5j7srLc/ouCU257JnhxdbyzNceLwclbFwWn/T/jcwYbeLFZBzHctPLii2MpIFQc2X4KQGcAVOIYA9Y2B3Kzxv3x3v5WBlceYcT1RX4ObG/CizbiyOjFwSkXPfenC75IVLJYLLxq8gcLg1MniOECoClr/C+t7FT310TlUk1nrQAYd+19HYFetsZXmcGxtCwwQBj3p9YGV56w5KoL10m0D2DLAXz7PJNTN2TR9GnNmTVIusUzphb7fM5gDmCWw2Cerc2NnKFX/95i8dPRf7i1sVXGcBwn7q3YB0pcV/sAFIuDU5aPu27u4YTcP4G5kG/uCSDAMoO5ZmFwykJLEZvtxasmbwA5YdzMeZMR+TUwdJ+/FgOrBHPHwuDkh+P91IKKnbXtgItmzvmlCLpMpkqoSH2Y+uoqK2M7Pv/6Zbf8aoCVwZUnjQ4u8TtsONwY0w6csE/Mmr2P36WFcdfe15GIvz9Qm+WXjV69jaGirM0AiNDH1tgqcziWegAABCm0NrjypKXBMWFgle0cibLoip9XABW2c6gDY7EJUPraG1tlDJ+xN8/lSgtLIyul1H5ZLACMFgAq4QwGYyw9CSCub/TvZulCV0opT7L5GGBHi2OrTGLxNoCbY/RRQKWUJ9ksAAosjq0yiLVOV8Cp1z4ApZQ3WSkARgeX+IEcG2OrDGTslQDicztYG1wppb6HpRmAjXr1r5LH4hSAGGlrb3SllGqcpccAAwUQtjO0yjjG4p0uE3baWRtcZTz5ca+OhH3tQHJxZRc5ToV5+CMrmwop77FUANT77d6ZVRnF5gyAI1n2RleZRs7t1oVI4FyMGQ8ykgitMG70L31AvYtM6v0Z8CrCvyH0pFmwucZmZmWPvaWAlVJKxYWc0/Ng/M5VuPwIgy+6wnCjugE/xvBjyKqUSb3uQswtZsEnO5MUV3mE7d0AlVJKNZNMxCc/6j0Tn7Ma4SdEr/ObojWYKzF8IJN6nZ6IjMq7tABQSqkUJBMHFkCvxxGmA7HeauoM5l8yqXdQ9P5sxtACQCmlUoxM7NsBat7EmDPjeFgDzGBSr2ItAjKDFgBKKZVC5KLhAYjMxzAwMSOYKUzqPT0xx1ZeogWAUkqlksrKezBmdIJHmSGTep+T4DGUZVoAKKVUipCJfU4C+VkShjLAvfLj/rqZVRrTAkAppVKABHEwckcSh2xLJHxFEsdTSaYFgFJKpYL3e58NDEjyqBfJ2QfrapZpSgsApZRKDRdYGDOPrNCPLIyrkkALAKWU8jg5vUseUGRncM6yMq5KOC0AlFLK6/Jzjib2xX6a61gZPVqXjU9DWgAopZTXRTjM4uh5tPu0l8XxVYJoAaCUUl5nTFer4wfobnV8lRBaACillNcZybc6vjgFVsdXCaEFgFJKeZ1I2HKAkN3xVSJoAaCUUp5nttsdPmJ3fJUQWgAopZTnyUdWh6/LsTu+SggtAJRSyuuEty2O/rF5cu02i+OrBNECQCmlPM4s2LAOwyY7g/OilXFVwmkBoJRSqeERK6MasTOuSjgtAJRSKhUYcw+Q7G785Ty64dUkj6mSRAsApZRKAebRjz8DipM6qCOXGZCkjqmSRgsApZRKFfVZVwAVSRrtSfPohmVJGktZoAWAUkqlCPPk2m0IPyThtwLMFurNLxI7hrJNCwClMpRsWJIjG5bk2M6hmsYs+ORVMBclcIjdGHO6efLjrQkcQ3mAbvGoVAaQ7StaUeefgJEi4FigO1AAIOUlu4HPgFcRs4js8Aum7YidFuOq/TDzP54rP+qTg8idQCB+R5ZtiO90M/+jVfE7pvIqLQCUSlOyZk0W7cITEJlISH7wPRvKtAAOBQ7FyEWEfHVSXvISRhYQql1guh1Tk8TY6gCZxz6eJef2XYfrLgDax+GQqxDnR2bBR7rqX4bQWwBKpRnZsnK4lJf+hXahzeA+jZHzgabsJpcNnIaYuQRyt0hZ6TypWFUkIiZBkVUzmUc/Wko4cvguJ/dfQvN+PLt8eRFE/pfWbUaaBR/ryT+D6AyAUmlAtqw8BOP8CMN5QJ84PrnVGiPnI+Z8tpZulvLSJ3CYYwqHlMRrABUb88SmstHBBy/rXVdx5g+2v8moXR/QIrL/SZvPs9ryYqvBPNX2iE1PX/OLu2BDEtIqL9ECQKkUJV+s6kLETAQmEr2vn+AB6QpyKS6XSnnJ+wgLgDmm89CNCR9b7dem7Pbc3vk07ux0CgfXbObQ6s/pGtpGS7eaXDfEHieH7f4CNmV34J287nya3QEAA67l6MoSLQCUSiGy7c2WhLPOQsxEIpyEvffwoRhmAFdJeckbwALCoYdM16N00xjLwsbhvbzuvJfX3XYU5XFaACjlcSLzfWztOwbXmUy9/ICm3c9PNIfo7MOx+LNvkPKShQjz2J71LzNwYLKXrVVKNYEWAEp5lGxZORzHN5kKORcoxHh9RVbJAU7DcBrtQpVSVvoMjjuPwqGLjPF8eKUyjhYASnnIPs18PwX6pvAy7F83D1aUfCblpU/iSLEpHFpqO5hSKkoLAKUsS3ozX9KZbto8qJT3aAGglAXy2eu5+HNPwzDZcjNfsn2zedCYefhrHzXtRu6yHUypTJMpHzpKWfeNZj4jZ7N3Kd4MFW0eFDmW+py/aPOgUsmnBYBSCZZ6zXzJtk/zYPvQDikr/bc2DyqVeFoAKJUAPdrmMu6QQs4e1mUKjvPrFG7mSy6hjTYPKpUcWgAoFSetcv2cMKADJw/syGEHtcREl2ZvbTlWCvt286CZhz88z3QYUWY7mVLpQAsApWKQ7Xc4pk87Th5UyJE92+L36X45CXIoRm4g4rvuv82DTs4jpsPBu20HUypVaQGgVBM5Dgzr3pqTB3ZiVP925Gb5bEfKJF83D0ZqtXlQqRhoAaDUARrQsYCTBnVi3MHtaZufZTuO0uZBpWKiBYBS36NTy2zGHVLI6Yd3omvbXNtxVGO+0TxY+qlUrHqEsK/YHDR4ne1oSnmVFgBKfUvLnACjD27/7WY+lTq6I+ZyfO7l/20e9IXmmsIjy20HU8pLtABQCm3mS2PR5kE3oM2DSn2LFgAqY2kzX0ZpuHmwU+Qp9UxC3AAAIABJREFUY0bU2w6nlA1aAKiM06t9PicdVsjJh3XUZr6MtE/zYIVvu5SX/BPHPEiHwa9p86DKJFoAqIzwVTPfaYd3ops286mvtQUuwpWL/ts86DizTYch620HUyrRtABQaatFtp9RfVpR1LcVh3Vuoc18an+izYMR0eZBlRG0AFBpJdtnGNmjFScOaMOIbi3wO3rWV83yVfPgtVJe8qY2D6p0pAWASnmOgUM75XNivzaM6deavIA286m48fHf5sGaO6Si5N+I8yAd65/X5kGV6rQAUCmrZ5sciga0YXz/trTN019llXC5CBPBnajNgyod6KemSimFBQHG9m3DhEPa0K1Vju04KnPt2zy4SSpWParNgyrVaAGgPO+rZr4T+7dhYMd8beZTXtPjO82Djm+O6TiownYwpb6PFgDKk7J8huFdW1I0oDXH9mylzXwqVUSbByV8rZSXLMHIg5jsJ0zhwD22gyn1bVoAKM9wDAzr2oJx/dpwXK9W5AYc25HSW+W26H9bt7ObIz35gCLEFCGhu6Ws9EkcHqZw/UJjJkVsh1MKtABQHqDNfElUUw3vvg2lb8AHK8EFeg+AIcfAiOMhv4XthOmoILpTIedT0U+bB5Vn6KetskKb+ZIoXA/rVkPJ61D6FoRqv/n3H38Q/frXPDh4CAw5GoaMhKxsO3nT23ebB415wBQO/dB2MJV5tABQSdMiy8fIXi05sV9bhh5UoM18ifbZJ/D2UlixDPbs2v/3h+vhvbejX088AIeNgCNGQ/9B6A8rIaLNg8LlUlG6EpEHMf5HtXlQJYsWACqhtJkvyco3R6/0314KX8ZwHqmuguUvR79at4vOCBw5Grr2jldStS+R4cBwJHyrNg+qZNECQMWdMYaBnfKiK/P1bUNeljbzJdTO7VD6JpS+Hp3Kj7fKbbD0P9GvTt1g6DFw5AnQrmP8x1L7Ng/+/euVB7c/Z8yYsO1wKr1oAaDiRpv5kujbzXwRNznjln8Gzz0Gzy/Yp3lwFOQXJGf8zLLPyoOtt0l5yeM45kFTOORV28FUetBPaRWTDvlZHN+7JRMGtKVPe91mN6FcFz58Lzq931AzXzKJ+93mwSNHwaAjwacfKwnQjr3Ng1JeuhaRx/C5D5nC4R/ZDqZSl75TVZNpM1+SNbWZL9n2bR7My9fmwYSTgzHMwHVmfNU8eMuSLW8+v+4L28FUitECQB0QbeZLsorNsCoOzXzJ1mDz4Bjo2st2svS0t3nwsjFdImP7teSlD7ez7OOd1IaTdEtIpTQtAFSjtJkvyRLdzJdsDTUPHjUa2hbaTpaOfMO6FjCsawH/b5Tw5qadLFxXyfLPdiatPUSlHi0A1Hf0bJPDqD6tGT+gDZ1aZNmOk97qQ7BmBSx/JbnNfMn27ebBESfA8OMgR/tG4i3bZzihd2tO6N2abVX1vPLJTl7+pJL3yqpsR1MeowWAAr5u5hs/oC19tZkvsbzUzJds+zYPPv6ANg8mWLv8AGcPas/Zg9rzaWUdSz+qZNGH2/l8Z8h2NOUB+o7LYAXZPo7uqc18SfNVM9/KV2H3Tttp7Nu3eTC3AAYN1+bBBOreOpvJIzoyeURH1n9Zw8J121n8USU7a3R5gUxl5V02Oljc04fZYGPsTBdwHEZ0a6HNfMlS8Tmseg1WvAxflNtOkxpat4chR2nzYBK4AmvKq6sHdcn9JeJ73HQarPcJMogWABngq2a+E3q3Zlz/NrTM9tmOlN6q9kQX6Fnxcno089nUqVt01cEjRkOrNrbTpLudiHkaYxboyoOZQQuANNatVQ4nH9KWsf1a0z4/YDtOequtgXfeghWvwPp3o/f5Vfw4TvTWwIhRcPhR2jyYeJ8jPILr3G8OGrzOdhiVGFoApKG+7XO58MjOjOjWQm+lJlIkAmtL4O1Xosvy1mtjVVIEsmDQEXDEKDh4KPh0RiuBBMPzGP5kCoeW2g6j4ksLgDTidww/O6ozPzi8A3prP0FEYOP66Kp8q16Fqt22E2W2/BYw7DgYcTz07K/Ng4kTRsxf6BT+ozEj6m2HUfGhBUCaaJXjJzihB4M666YsCbH18+j0/oplqbUyXyZp3zFaCIwYBYUH2U6Trl7GjfzQdBnxpe0gKnZaAKSBvCyHW8/oQ7/2ebajpJd9m/k+WRu9+lepQZsHE+kd6nyjTY/Dd9gOomKjBUCK8zuGm07vw+Gd821HSQ91tbD6LVi5DNat1ma+VOc4MGAwDD8eBh8F2Tm2E6WLpXSMjNfbAalNFwJKcb869iA9+cdq35X5Vr8VLQJUenBd+KAk+vVoYJ+VB4/S5sHYjGar7w7gV7aDqObTAiCFje/fhtMHtrMdI3WVb4blS+GtJbC70nYalWjfXnlw2NHRWwS9BmjzYHMIl0hF6WrTcci9tqOo5tFbACnq0I553HpmHwKO7tDXJNu/iHbvv7kItpbZTqO8oE376C2CkWO0ebDp6nGdcabL4GW2g6im0wIgBbXN83PPOf11cZ8DVb0bSt7UZj61f181Dx45Blq2tp0mRZhywuYI03XwZttJVNNoAZBiAo7DbWf14ZBC7fj/Xt/YZndVdNEepQ6UcXTb4qYwsopQ7XGm2zE1tqOoA6c9ACnmf48/SE/+jdFmPhUvjW5brM2DDRIzDH/eLGCy7SjqwGkBkELOOqw9pxzS1nYM7/mqmW/5EtilzXwqzvZtHsxrAUNHavNgQ4ycL2Wly03nIXfZjqIOjN4CSBGHdc7nltP76Pa9X/lvM99i2LrFdhqVidp2iC5DPHIsFHaxncYrwogZbzoPWWI7iNo/LQBSQGFBgHvO6U/r3AyfsNFmPuVV2jy4r20Y35Gm4+Gf2A6ivp8WAB6X7TPcflY/+nfI0Cakr6ZftZlPpQLHid4a0ObB1biRY0yXEdW2g6jGZfglpff9bkz3zDv5iwsb1keb+Va+CrXaWKxShLtP8+ATs2HgCDjqhEzctngwxj9PRCYaY3SqzqO0APCwHw0pZGzfDJpO1GY+lU7qQ1D6evQrE5sHjZxDeellwM22o6iG6S0AjxrWtYAbTu1D2vf87fgyuvHOm0uiW+4qle4yq3nQReQ003nYc7aDqO/SAsCDOrXI4u5z+tMqJ02nDGv2wCrdZlep/zYPHjUGWqTpbJ9hB8Y90hQO/8h2FPVNWgB4TG7A4c6z+9GzbZptWxquj26v+9bL8O5b2syn1L4cB/odFr1FkJbbFpu1BGqPMu1G7rKdRH1NewA8xACXje6WPid/beZT6sC4Lqx7J/r1WFYaNg/KwdRnzxWRH2hToHdoAeAh543oyAl90mAa8KtmvreXws4dttMolVr2bR7ML4AhabNt8VlsLbkSuMZ2EBWltwA84ugerbj6pB6YVH2DazOfUonVthCGHQsjx0FhZ9tpmkswMtF0HPa47SBKCwBP6NYqh7vO6Ut+VopN9dXsgXdXRq/017+rzXxKJUu33tFVB4cdk4rNg7sRc7TpPGSN7SCZTgsAy/ICPu78QV96tEmR+/7faOZbDpGw7URKZa5UbR4U1pPDUabNUF3wwyLtAbDIGMOfirp7/+SvzXxKeVOjzYPDwOfYTtc4Q39q5VGR+acaM0kfCbJECwCLph3RiZE9WtqO0Tht5lMqdTTWPNj7YNvJGmbMBCr6zQSutB0lU+ktAEtG9W7FVSf29GZT7+ZPYO5foGKz7SRKqVh17ApTfg1de9tO0hBBZJLpPOyftoNkIg/PEaWv7q2zuWx0d2+e/Kv2wAO36MlfqXRRsRnuuxF277SdpCEGY+ZI+TuDbAfJRFoAJFmLbD9/PqU3eVke/KePROCBm2Bbhe0kSql42vFl9L3tzabdfIg8LVtWtLcdJNN48CyUvhwDfyzqTpeWWbajNOyJYvhIn8xRKi19shaenGs7RWN64vgfFVmifWlJpAVAEl00sgtHdmthO0bDlr8My3TDLqXS2ivPwusv2U7RCBlHeZsbbKfIJFoAJMm4fm344eAOtmM0bON6ePRvtlMopZJhwX3w8fu2UzTMyO+krHSa7RiZQguAJOjTPpffntDVdoyG7aqE2TdHF/hRSqW/SASKb4XK7baTNMxwj5SVHGE7RibQAiDBWmb7mDmhJ9l+D/5TRyIw28MfBEqpxPB04S85GHlcylcX2k6S7jx4VkoffscwY0JPOrXwaNPfgvvgE49OBSqlEsvTt/5MN3CfkDVrPPrhmR60AEigS449iMFdCmzHaNiy5zzcDKSUSorlL8Orz9tO0ZhjaR+6zXaIdKYFQIKM79+GMwa2sx2jYZ+shSfm2E6hlPKCx2d79/Ff4VdSXvJz2zHSlRYACXBIxzx+M9qjTX/eXhBEKZVs3l8A7G7Zsvp42yHSkRYAcdY2z8+M8T0JOB78pw3XwwM3e3VJUKWULVV7op8NoTrbSRoSwJH5snm1R6+qUpcHz1Kpy+8Ypp/Yk/b5AdtRGvbYvfDpR7ZTKKW8aPMGePTvtlM0QjrhlwXy4YfZtpOkE112MY4uPb4rh3XOtx2jYYufhrcW206RPjp2ha49obArtOsAWdmQ69GffbqpqYpeqW7bGt3o5vONUPG57VTpYcUr0LUXjD3DdpIGyEgK9twLTLGdJF1oARAnZx3WnlMOaWs7RsPWvwvPPGg7RWozDgwYBCNGwYDB0KqN7URqXzu3w9rV8PbL8OEaENd2otT19IPQuRscMtR2ku8yTJaykuWm89C7bUdJB1Y2pB0dLO7pw2ywMXYiDOyUz61n9MHveHB/3+1b4eY/QNVu20lSU1Y2HFMEY86ANrpZWUrY/gUseRreWOTVe9rel9cCfncDdOhkO0lDwggnms5Dl9oOkuq0AIhRYUGAe87pT+tcD06m1NXC7X+CLZtsJ0k9xsCRo+GM86BFa9tpVHPsqoSn58Hbr4CI7TSpp2PXaBGQk2s7SUO2gXOE6TQ4Lc4jtmgTYAyyfIbghF7ePPmLwD/u0ZN/c7RpD/87E376P3ryT2UtW8N5l0Z/lq119qbJKjbDw3d6tXhqB+4TsmVFnu0gqUwLgBj8elRX+nfwZHUMLz4OJa/ZTpF6Bg6Hy2+BvgNtJ1Hx0ncgXH6rN+9pe93qt6KfJd40BMd3n+0QqUwLgGaaNKQDEwZ4tOnvgxJ47jHbKVLPkaPhZ/8Xvf+p0kt+AVz8Jzj2RNtJUs+zj8GaFbZTNOYnUrHqd7ZDpCotAJphWNcCLjyyi+0YDdu6BebeDq52QTfJ6FOjU/4+fUukLceBSRfDqJNtJ0kt4sLcO6B8s+0kDRNzk5St0h9qM+inXRN1apHFFUU9vXmeqK2B+2+C6irbSVLLiOPh7KnRxj+V3oyBcy6MzvaoA/fVZ0tNte0kDXFwzMOydWVf20FSjRdPY56VG3C45uSetMrx2Y7yXeLCvL9A+We2k6SWbn2iV/5G3woZwxg49xfQrbftJKll6+cw5zZvzi4KbXCdp2Xbmy1tR0kl+ql3gAxw2ehu9Grr0aa/Zx+D9962nSK15ObBtN+Bz4NPcajE8gdg2mVefcTNuz4ogec92190CPXZc0VEp/IOkBYAB+inwztyQh+PPhL2znIvd+p612nnQfuOtlMoW9p3hNN+ajtF6nnB008YnUXF6itsh0gVWgAcgBHdWjB5hCdXxIo+q/vQX736rK53desDx2lHeMY7bkJ07Xt14Dy/xojMlPLS02ynSAVaAOxHt1Y5XFnUAy+u8kvNHrj3+miDjmqa036s9/1V9MmAU8+1nSL11NXCvTd4dYlxB+QfUlaqi3nsh34Cfo+8gI/gST0oyPZo09+cO+CLcttJUk/X3roojPraocN1FqA5tm+NNgVGPNgUCC1AnpAdJR69b+sN2v3UCGMMfyrqTo82ObajNOzph6INOarpjj8pboeqFB/rIrmURwLsEQdXHyVsVFldPbtjPFn4BVr7XHoHIhyVHaLQF4eTjzHRWwGP/j32Y2Wade/Avx+CMyfbTvJdhv7UyqMi8081ZlLEdhwv0gKgEVOP6MjIHh59omTFMlj0L9spUlMgC4YeE/NhdoqPhfUteS+sS5EfqJAvizXVtcTjenFRDdxPHqNyQ0wuqKZDrIXAkGPgnw9AuD4O6TLMon9Bp25w1BjbSb7LmAlU9A0CV1lO4kl6C6ABx/ZqxU+GerQ7fPMGePRvtlOkroMHx/zo1yY3m3trC/Xk30RZxtAuK3630wR4uSaL32xryZr6QGwHy8uHAYfHJVdGemwWfPax7RSNMFdIWekk2ym8SAuAb+neOpvLx3T35qJwVXvggZt1j/NY9BsU08vL3QAP17ajWvSt0xwdsmI8UTdgl+swY3sBH9XHOKHZ77D4BMpE4froSoG7d9pO0hCDkQek/J3Y3vxpSD/F9tEiy8c1J/cmL8uD/ywRF2bfDNsqbCdJbX0PafZLI8D8unbU48XqMDXkOobcBKyjHRLDzTvzCcdykL6HxitOZtrxZfQzKhLTTyFRCiDytGxZoftC78ODZzo7HAN/PLEHB7XKsh2lYU8Ww4fv2U6R2oyBwuZv4rQiXMAO8eATISmmRYI20igL+3i+Ooam3Y5ddT+IWH38ATw5x3aKxvTE8T0iskR73/bSAmCvn4/swpHdPLoN7PKX4ZVnbadIfa3aQVbzTxCles8/LvKcxH3sLKrObv6Ls3OgVZv4hclUrzwHbyy0naIxRZS3vt52CK/QAgAY168NEwd3sB2jYRvXa9NfvBQ0/6mOKnEod+N//zoTZfsSd5X9SdjHTjeGj7WCVvELk8nm3xudDfAiw2VSVjrNdgwvyPgCoE/7XH57QlfbMRq2qxJm36KPJsVLDN3/laKzhvGSyH9JAb6IxPCxlqWbA8VFJALFt0DldttJGma4R8pKjrAdw7aMLgBaZvuYOaEn2X4P/jNEIjD7VqjcZjtJ+vA1//69Nv7Fj0nwffbaWDaD82uPR9zsqow2BXryAkZyMPxTylcX2k5ikwfPfMnhdwwzJvSkUwuPNv0tuA8+ed92ivRSV9vslxYYTy53mpIiCd64qq0Tw88qht8R1YCN6728wmJ3cJ+QNWs8ehJIvIwtAH55bBcGdymwHaNhrz4Pr79kO0X6qa1u9kvbmDDZWgTERX0CC4ACI3T0xbDqawy/I6oRy5fCshdsp2jMsbSru9V2CFsysgA4cUAbzhzo0cdBN6yDx4ttp0hP279s9rbJPoT+Pr06jIeaSOIKgCNyQjS7x1Bc2P5FXPOovZ54AD5aYztFI8z/SHnJz22nsCHjCoBDOuZ5t+mv8ku4/0avLqSR+kK1sLP5PRWjAntwTGKnrzPBngTtHucY4Zz8GIq0HV9CfSh+gdTXIhF44CbkS88uZHa3bFl9vO0QyZZRBUDbPD8zxvckkMDnkJstXA/33+zVpTTTx6efNPul7U09I/1VcQyTeVxgTyQxG7OdnVdHd38Mx/6s+b8b6gBU7SF0742IN5cyD+DIfPmy9CDbQZLJg2fCxPA7hqtO7EH7fI8+y/3YvfDpR7ZTpL/178T08qLALg7WWwHNtiMUIRF3AI7Oqef8gprYDrJeV9pMNPezDeyac7ftGI2QToT5p3z4YQyrSaWWjCkALj3+IAZ19mjT3+Kn4a3FtlNkhrWrY3q5QZiUvZ3jArv1dkATCVARiu8jYT4DE/Nr+L/Wcfh5rC2JTyj1vWrfWEr1C0/ZjtEIGUnBnnttp0iWjCgAzhzYnlMOaWc7RsPWvwvPPGg7RebYugU2fRjTIQzCuMAuLsnZyjB/Ffn6dMAB2R6KUOPGp2hq5Qjj8+q4q91Ozm9RE/sqDRvXwxfl8YimDsDu+XMIvbvKdoyGGSZLWckltmMkQ9ovbzawUz6/PLb5G8Ak1PatUHxrdKc/lTxvLYYe/WI+TDsT5vSsSk6jkj3iYw8OxLIITRoToCbLRWKchHNEaO0IbXxufJdmemtJPI+m9sd12TnrVtpOvxVfYSfbab7LcIeUlbxvOg9dajtKIqV1AVBYEGDmhJ74HQ9+KNeHok1/VbttJ8k8by6BCZPitvGLAVqYCC2IoAsGfg+vzjfuqow+q64Sbt+3h1u1m8q7rqPtFTdhsmPYxTExAntXCjzCdBq8wXaYRPHqWzJmWb7oSn+tcz1Y44jAw3fBZu06tiJcD0ufsZ1CecXif+njf5aEP9vIzvtub/b6HAnWDtwnZMuKtN0GNG0LgEtHdWVAB4/+3F58HFa9ZjtFZlv6H6j43HYKZdvWsuj2tcqaupVvUPWff9qO0ZghOL60bQpMywJg4uAOnDSgre0YDfugBJ57zHYKFQnDP+/36pWHSgYRmD/Lo5vVpKlGNoLa88TD1K1+O8lhDthPpaL0t7ZDJELaFQBDDyrgZ0d5tOlv6xaYezu42vTnCeveiT6CqTLTwqeiT+Eo+8Rl599vJbzlM9tJGiZyk5StOtl2jHhLqwKgU4ssrjyxJz4v/l/V1sD9N0G1riTnKf9+GD7WXRczzofvwbP/sJ1C7UNqq9l55/VItSc3ZPJhzEOydWVf20HiyYunymbJDThcc3JPWuV4cD9vEfjHXVDu0eo2k0UiMOs62Jy2jb7q27Zsij6Bo4/fJt9+brmFyzez8/7bohszeU9bXOdp2fZmS9tB4iUtCgADXDa6G73a5tqO0rDnHoXSN22nUI2prYG//xk+32g7iUq0zRvgnquhZo/tJKoRdSXL2fOvR23HaMwh1GfPEUmPBT/SogD4ybCOnNCnte0YDXtnObzwuO0Uan92VcKd0z28ZamK2fp3oz/jXZW2k6j9qHr6MWrfftV2jMacTUXpH22HiIeULwBGdGvBlCM8uJIURB8ze+iv2mmeKqqr4O4gPDffq1OQqjlE4OVn4W/XQI0n7y+rbxNh1+w7CX++yXaSxlwj5aWn2Q4Rq5QuALq2zubKoh54caE/avbAvddFp5dV6oi40cc07wxC+WbbaVSsyj6Fv06Hxx+I9nuolCG1NVTecQ3unl22ozTEAfmHlK061HaQWKRsAZAX8DFzQk8Ksr3Y9OfCnDt0c5FU9tEauPG30RNH5TbbaVRTVW6Dfz4AN12mT3mksMiXW9n595u9+uh0CxzzhGxf0cp2kOby4Dq5+2eM4Y9F3ejRxnPrR0c9/VB0wR+V2iKR6NTxay/B8OPgqDHQ59BGFzNRlokLH38Aby6Gla9GF3tS3tKMt05ozWr2/PNBCiZNiX+eWAkDqHMeE5l/qjGTUm6KKSULgKkjOnJ0D48WXaVv6uIy6SZcH90t7q0l0Lo9HDwY+g2Ebn2gQyfwpeTbKPVFwtGlfDd/Auvfg3WrdbYmTVU99zj+7r3IGTnKdpTvMmYC5f1nANNtR2mqlPvkOrZXK34yrKPtGA37fKM2/aW7yi/hzUXRLwDHgVZtITsXAgG72TJFfT3U1cDO7V6dGlYJsGv2X/F16kKgpwfX4jFypZSVvmc6D5lvO0pTpFQB0L11NpeP6e7NGdiqPfDATRCqs51EJZPrwo4vbadQKjXEcG0k9SF23nk9bWfcitPSc499G4w8IOXvfGA6HZ4y60unTBNgiywf15zcm7wsD0aOuDD7ZviywnYSpZRKW5HtX1B59w2IN/s7CiDytGxZ0d52kAPlwbPpdxlj+OOJPTioVZbtKA17sji6trhSSqmEql//PnsenW07RmN64vgeEVmSErPrKVEA/PyozhzZrYXtGA1b/jK88qztFEoplTGqF/6bmldetB2jMUVsbX2d7RAHwvMFwNh+bZg0pIPtGA3b/Ak89nfbKZRSKuPsfnAW9Z+ssx2jYcLvpaxkqu0Y++PpAqBP+1x+d0JX2zEatqsS7r0B6kO2kyilVMaRcD2Vd16Hu8Ojj34a8zfZsmqE7Rjfx7MFQMvs6Ep/2X4PRoxEYPat+syxUko1RZyf4HIrd1B5z41IuD6+B44LycExj0v56kLbSRrjwbMrdGqRxZ9P6U2nFh5t+ltwH3yiy4sqpZRt9R+tZfdD99qO0Zju4D4lZSU9bQdpiKcKAJ8DPxjUnvsmDeDQjnm24zTs1efh9Zdsp1BKKbVXzcsvULP4OdsxGnM0hvelrCQoa9Z46qrWMwVAn/a5/PXsflxy7EHkBjwT65s2rIPHi22nUEqpFJW4Vdx2PXIvoXWefRw7F8MM2oXelvLVR9kO8xXrZ9psv8PPRnbmb+f0Z0AHj171Q3TZ0dm36AYjSinlReEIO++5icj2L2wn+T6Hg/u6lJfMki/WWn+23WoBcFT3lsw+dwDnDinE8eLyvl8J18N9N0aLAKWUUp7k7qqk8q/XIt5ekt0BLiJSs1YqVp1jO0jSTRzUrsPlY7tz7Sm96FjgqVsiDZt/H3z6ke0USimV2pKwT1p40yfsmntP4geKXRfE/FPKS56Rz9/tZiNAUq+7RcSwteR8Ef5iMJ7bzaFBi5+Gp+baTqGUUimvtl7YWZuc26gtzr2QvAlnJmWsONgJzKDjh3cZMymSrEGTNgMg5asPo6L0NcTMTZmT//p34ZkHbadQSinVRLvnFxN6d5XtGAeqFXAHW/suly2rhyVr0IQXALJhSY6UlQTBXQEcnejx4mb7F1B8a3SnP6WUUrFL5pyz67Jz1q1EtpYncdAYiRmG474l5aV/kfLV+YkeLqEFgGxZNYrcNiUYZgDZiRwrrupDcP9NULXbdhKllFLN5FbtpvKu65C6WttRmsIPcim470hF6fhEDpSQAkA2vdNGyktm4ZilIAcnYoyEEYGH74pu9KOUUipuTDK6AL8l/NlGdt5/R/SzPbX0RuQFqSiZL2WrErIjXtwLACkrmUh2ZB1wEUluMoyLl56AVa/ZTqGUUipO6la8TtWzj9uO0TzCRByzTipKLxKRuJ5T41YASMWKPlJe8gKG+YBH9+/dj7Wl8OyjtlMopZSKsz2PP0Td6rdtx2geoQ0is9haulS2rIjbrHrMBYDIioCUl/wa8a0GEnq/IqG2boEFkdtOAAAgAElEQVQ5t4GrTX9KKZUQNmfhxWXn328lvOUziyFiJIzC8ZdIWUlQPvww5r66mAoAqSg5hgrfKuAOIOEdi4kSrquLNv1VV9mOopRSKkGktpqdd14PdTVJe9Y+/iQHwwwK9rwjZaVjYjlSswoA2b6ilZSX/gXhFeCwWALYJgIlTz0L5SlcFSqllDog4fLNVM+7ezOQ2tO9hv4YWSRlpfPkszVtm3OIJhcAUr76dELOu9HHFPA1Z1AvmbeynLL319mOoZRS6c8jbeGh5ct2Ybjado44MBg5n0D9GqlYNbmpLz7gAkC+WNVFykr/Ce7TYKysWxxvr2/cxUMrt9qOoZRSKtkKh1yNYYHtGPEhnRAzV8pL/i1bVvU40FfttwAQEUcqSi8iYtZixOrORfH0WWUdNyzehKTes6FKKaViZIwRTNYFwHu2s8TRqTjmfSkrvVxk/n5n6L+3AJCKVYOpKH0DkVmA9b2L42V3KMKVz31CdSi1bwEppZRqPlM4cA84ZwBf2s4SR3kYuYGKfiukrOSI7/vGBgsAkSV+KSsJImYFcGRCIlriCly3cBOf7wzZjqKUUsoy02nwBhz3fCCFnwxo0BAMr0tFyQyRJf6GvuE7BYB8sbYF5a3+vXf9/gZflMoeeKuMtz/VNf6VUkpFmcLhzyP8yXaOBPAjBNna+mnZuqbg23/5jQJAtqzIw635N8ZMSF6+5Hl6zTYeK9WmP6WUUt9kOg+9Cbjddo6EEE7GDT3+7ZmAb17h+3xzEEYlNViSPL9uO3cu22w7Rkqqd3yU5PVifW5nKn351Ju0mxhSKi4EqMXHTnKoMDlEEr/j+n/5cWntVjOsdjPn7F5JXkRvczZZxyGXsbW0DcJU21ESYDwVre4CfvHVH/z3k1wqVk1GmGglVgKFXeG+N8t44p0vrK5CmYrCxuGJdkfxSLvj2O3LtR1HqdQiQjgUIlJXm7yN6HyteTu/C/cVHMWx9ZuYsfUZciScpMFTnzHGFZEL2Lr6XURuAAK2M8WXuVgqSpaZjkMfhr23AGTLijzEXGc3WPxt3FHLb576iMf15N9ku325/KH7edxbeKKe/JVqDmPwZ2eTlV+AcZI3EwDgirDM350fHHQxWwKtkzr29/PISkDfwxgjpuOQ28A5HlhjO0/ciVwvW1bkwVc9AD7nd8BBNjPFUygiFC8v5xcL1vPB1mrbcVJO2DjM7DqRd/J72o6iVMozPh9Z+fkYk/yT3y7xc0HH86hx0uxCNglMp8FvsS1rGHAlmFrbeeLHdMPx/QbAERGD8HPbkeLlnbIqLl6wjodXVRB29bq/Oea3O5ZSPfkrFTfGcfDn5FgZe4/4mFF4ppWxU50ZODBkOg29FhM+DHjJdp64MfxCRIyfraXHpMPSvrtDEe5/s4xn39+m0/0xqHMCzG93tO0YSqUdXyCLcF0tYuHC5A1/V3b5cmkZqUn62OnAdBzxMTBeykomYrgb6GA7U0yErmwtGengcpbtLLF6af0Opv5jLf/Rk3/MVuT3Zo/PzpWKUmnNgM9vZypeRFjQcriVsdOJ6Tx0ASIDEfOg7SyxM2f7wRxGip42y3bV8Zdln7PiM13YJ14+zOliO4JSacv47G2g+k522rR5WWU6D/sCmCxbVt2P48wCOdh2pmYRBjoY6WM7R1NFXHjy3S/5+fz1evKPsx3+fNsRlEpbxrHXBb/dybM2djoyXYa9Qs2OoQgzgRRcdMH09kfv/6fODMD7FdX8//buPEqqKs8T+Pe+FxEZW7LIKiCKGyiigCkIqIgssskOrqBT3T3TNed0V/UyNTPnzPRUL2f61EzX2D1dXctUd1Uh5UaypqwCWqCCsokiCqhsgrKD5Is93rvzB2ixJElm3Bvxlvh+ztEjmRm/+yPNjPjFe/f+fs+vP4z9p3kvqxxsUdnjSkRVRbpXADj83dZO9BqRBfBDefTDhYD9CwA+2kAle4YAmQPg+Zu+qbyNuVuOYslHJ8HN/URE5BWi6907pZTDcPz92ZDieQDXuZ1TC2QNQJ5zO4treffgOfzhq3uxaCdf/ImIyHvONxAa+AKMgl82CZ4LQeAEJDx5DPBEKo9/fusINh7wfI1CREQE0XnQUQBz5NHtCwD8xLPH7IU8bQBik9t5XE5KieUfn8IfvLKXL/5EROQ7ouvABjhOHwj5IwC22/lcQWKHAUf+zu08LrbvVBZ/uvgzPL/hMNIF733PiIioVNV1D1d0q0uLLgP/CwzUAdjidj6XEMabBuzCm/DAEYZc0cH/e/dLfHfhHvbvJyKiwBCdB+xAl7NDIfCfAHjhBS6HQm6lIXoMPgVgoZuZbDnUiD94dQ/m7zgB23EzEyIiIv2EGFEUXQb8A2DcBSlWuZxOvegx+NT5g6GO/TcAKj40+kymgB+9eQj/dcU+HG10/SIEERFRWYmu9+wX1/cfBxiTABxxIQUbUv49cGEcsOhWtxsSv6xgAnLFJ6fxnZf3YM2eMxVcloiIyH2i6z2vIWf2A/CvqOTmCIGfi+sHfgxcKAAAAGbkBwA+rcDqu7ccOvfE/1n/BRrz3ORHRETVSdx49xnRdcAfwZEPA2J3BVbcDdv+wTd/+rYAEJ37WnCcyRAo11vyHAR+iMZE/x+s2Le5TGsQEZFHCfc6IXua6DZwAxoT/SHwQwC5Mi1zHIacJLrVfbsJ8ZLm0KLbvZ/AdkYDOKV54fVw7P6iy4C/FrfdVq6/HBERkS+J227LiS4D/hqO3R/Aes3hj8ExxonOAy65yn/FdAjR7d5tEOYgCLldw6KnAfmH6NJ/hOhWV4HLG0RERP4lutXtRpf+IwD5hwBOawi5FY49SHS754rX9FCTCXS5e5+U8wfh+K3/HlL8LYAOrVzQBvBriNB/E136HSshYaoipgG0j4XRPhaGqLJGIVRd7KKN46eLOJ3Kw67GwSYuTkP0EyGEBPBv8tjOZZCFvwbEdwCEWxnmHKT4n+h65sdCjGjylF+TBcD5BGbZAH4mv9j1KsL52QCeBDD4Ggt+BYh6GPInl19qILrcDW2jeGpgZwy5qQ2SNabb6RBVTGOuiLc/PYUXNh3CFxxtTldx4Q30H8vj7/8YtvxjCPEkgOubf5TcCWm8iKj8hWjf/2xzX3nVAuDbBG7oexrAPwH4J/nl1p4wwvcAzi2Q8gYIIw+JsxA4AeFsQ+cBO4UQbOVD1zTlro747tDuMDminKpQbU0I4+7qgtF3dMb/feNzLNr+pdspkYddeEP9F1LO/wGO9bkTKA6CNHpCONcBogghT8MRuwFsEdcPPNDSuNcsAC5JolvdIQCHWpc60aWm9euI/zisu9tpELkuZAr8+ehbISCwcLsbPWHITy5cmd954R9lfP9FFdWzXQ3+wxC++BNd7E8euRk3XhdzOw2qMiwAqKKeubcLL/sTXSZkCswZ2tPtNKjK8KmYKiZkCNx/Y1u30yDypGG3dkTIDPgu+YD/9fyGBQBVTOdkGPEIf+SImpKsMdG5Nup2GlRF+GxMFdMm2qo9p0RVp12MvyNUOSwAqGJ49Y+oeYHvlV+FvY+8jAUAERFRFWIBQEREVIVYABAREVUhFgBERERViAUAERFRFeKZE/ItWSygeISjKb5hXtcRRm15Gy05jV/DPn2yrGv4Sah7T4hQa6e0VrGgn3LwGRYA5FvCDKHx1z9B4eDnbqfiOmGG0OHvfwaUuQCQ+TzO/N0PIIuFsq7jB6GevdDhh8+7nQZRyXgLgPxLCCSf+I7bWXhCbPREmJ26lH0ds0MnxEZOKPs6flA76zuA4FMo+Rd/esnXIn36IdL3HrfTcJWIx5GYMLNi6yUmzYIRT1ZsPS+K9O1f9T93pWEnIC9hAUC+V+3vxBLjpsNI1lZsPSOeRHzslIqt5zlCIDnzWbezIFJWvc+aFBihnr0QvW+Y22m4wmjXHvHRj1V83fjYKTDbd6z4ul4QHfQAwjfe4nYaRMpYAFAgJGfMgTCrb09rctKTEDWVnyAnwhEkHptV8XVdFzKRnPqM21n4F+8AeAoLAAoEs1MXxIaPcTuNijK7dkfswdGurR8bPgah63u4tr4b4g+NhdnlerfTINKCBQAFRmLyExDRuNtpVExy+mwgZLqXgGEgMfVp99avMFETRWLS426nQaQNCwAKDKNNO8THVP5+uBvCvW5D9N4hbqeBaN1QhG/p7XYaFREfOwVG23Zup+FvgZ937C8sAChQEuOmwWhT3mY4XpCc8aw3nkyrZEe8kWyDxKNT3U6DSCsWABQoIhqr6Jl4N0T6DUTkzrvdTuNbkd53IdJvoNtplFVi0uMQsZjbaRBpxQKAAic2cjzMTl3dTqM8hDh/799jamc+F9heDGbHzoiNGOt2GkTaBfM3lqqaMENITnnK7TTKInr/cE+eQQ/dcBOigx90O42ySE59mgN/KJBYAFAgRYc8hNCNN7udhl4h09OFTXL67MC9UIZ63ITokOFup0FUFiwAKJiEgeS0YDVsiY8YB7Ozd29tmB07I/bwo26noVVy1rOBvbXhCjYC8hT+ZFNg1dxdh8gd3tksp0JEY0hM9H7nvSBtlovc3hc1/e51Ow2ismEBQIGWnDHHG8flFCUenQKjjffPoBu1bZEYE4xBQdVwvJGqGwsACrTwzbejxgMNc1QYtW0RHzvZ7TRaLD7WH8VKc2rqhiJ8ax+30wicANTigcICgAKvdvpswHSxZa6ixOTHfdXiWERj/h4UZARv/whRU1gAUOCZXbsj9sAot9MoidmpC2IP++8Mevxhb29YbE7sodFVN+SIqhMLAKoKyclPQkRq3E6j1ZLTZvtzzHHIRNKHg4JEOMKBP1Q1WABQVTDaX4f46Ilup9EqoZ69EB38gNtplCw6+CFPNi1qTnzMJJjtO7qdBlFFsAAgX7CPfQmZTivFSIyfASNRqymj8qudoX4GvXDwc1ceC8CzbYuvxkjUIjF+ulIMmU7DPvalpoyIyosFAPmCk2pEatUipRginkB8gtoTfKXoGLBT2Psx8u9vLvnx+fc3I797p1IOXhtc1JzEhBkQ8YRSjNTKhXBSjZoyIiovFgDkG+lVS2CfOakUIz7qMZjXddKUUZloGrHbuGCucgyr/gVAqrVvS858zvPnv4z2HRAbOV4phnP2DNJrXtOUEVH5sQAg35CFPFKvzVeKIcJhJKY8oSmj8ojWDUP4lt5KMXLb30Xh00+Ucyns24PcjtKvIgBA+KZbEa0bqpxLOSWnPa28SdRqeBkyl9WUEVH5sQAgX8msfx3Frw4rxYgNG4lQ956aMtLMNJFQ3T3vOLAW/VZPPgCs+XMB21aKkZw+Gwh5sxdD6PruiA0ZoRTDPnoEmbfWaMooyDgMwEtYAJC/OA5Si19Ui2EYnt2cFhs+BqHruyvFyLyzDsUjhzRlBBSPHkZm05tKMcwu3RB7cLSmjPRKzvx3yo2irIXzgKJakURUaSwAyHeyWzei8PkepRg1AwYjfNsdmjLSQ4QjSCoO/JGFAlJLXtGU0e9Zi16EzOeUYiQnPQlRE9WUkR7hm3ujpv99SjEK+z9FdtsmTRkRVQ4LAPIfKWHVq29wq53hrWEv8bFTYbTvoBQjvfY12KdPaMro95wzp5BZt0IphtGuPeJjJmnKSI/kTPVhUdaCucobJauHtzeDVhsWAORL+T0fIb9zu1KM8O13oqb/IE0ZqTGSbZAYO1UphkynkF6xUFNGV0otq1c+4pYYPw1Gm7aaMlJTM2AQIn36KcXI79yO/McfasqIqLJYAJBvNdb/BpCOUozkLPX7vzokJs6EiKsN/EktXwDHKt8ZdCdtIb1SsRdDNK7cbEcLw0By+hy1GFKev/dP5FMsAMi3il8cQPa9t5RinN8B/rCehEpkduikfgb9zGmk1y7TlNHVpV9Xv8UQGzURZid3BwXFhj6ifBIk++569W6JRC5iAUC+Zi2cB1ksKMVITnsGIhzRlFEJ6099BiIUVophLXlJeZNeS8hCHqkGxV4MZgiJye71YhDhMBJTn1QLUrRhLXlJT0JELmEBQL5mnzyOzO9WK8Uw2ndA7BG1d+ClCvW4CdGhw5ViFI8eRuaddZoyurbMW2tQ/PILpRixoQ8j1PNmTRm1cu2RE5S7QabfXAn7+FFNGRG5gwUA+V6q4VXITEYpRmLSLBjxpKaMWi45Y47ywB9rwTzlRj2t4jiwVHsxCAPJaZUfFyzicSQmzFSKIbMZpJapXQUh8gIWAOR7TuPXSK9eohTDiCcRH6e2C7+1wrf3Rc09dUoxCvv2Irf9XU0ZtVxu60YUPtutFKPmnvsQ6VPZQUGJ8TNgJNUmQqZWL4Fz7qymjIjcwwKAAkHHk3L80ckVnQVfq2Hgj7VAfVhPyWtr6MWg4xx+Sxnt2iM+aqJSDB3FJpFXsACgQJDZjIZBQREkHlPrxNdSNfcOQfjWPkoxch9uRf4T986g5/fuQm7nNqUY4ZtvR82AwZoyal5y8lPKnQhTS9VvNxF5BQsACoz079Q3Zp3vxd9DU0ZXYRhITntGLYbUO/CnVNb8ueq9GGbOKXsvBrNrd8QeGKUUwz5xDJn1ahtOibyEBQAFR9FW35xmGEiovjhfQ+yBUQh1u0EpRnbTBhQP7tOUUemKhw8gu2m9UoxQ1x6IDXtEU0ZNq9UwjdBapH7klMhLWABQoGTf26DcnCWq4fL81YhwGInJjyvFkHbRU2fQrcUvqvdimPI0RKRGU0aXCve6DTX3DlGKUTy0H9n33taUEZE3sACgYNHRnlUIJDVs0GtKfPQk5TPomXUrYJ/wzhl0++RxZN5cpRTDaH8d4iPVNuhdTXLms8obDXW0nSbyGhYAFDg6BrREbu+LSL+BmjI6T8QTiI+fphRDZtNILa/XlJE+WnoxTJwBI6F2RO9ykX4DEblD7ahhfs9HyH/0vqaMiLyDBQAFklX/G+XjcbUzn1Nu0nMxHS9wqRWL4Zz7WlNG+jjWOaRWKQ4K0lAgXRrQQHL6bLUYmkZP0wWcBuwpLAAokAoHPkN260alGKEbbkJ08INa8tFxids5dxbpNa9pyacc0quXwvlasReDhlsk34je/xDCN96iFCO79R0UPt+jJR8ir2EBQIFlLZwHFNVa5Canz1Ye1APo2eRmLX0ZMptWzqVcZC6LVMMrSjF0bJIEzg8cSk55Si2IbSOleqqEyMNYAFBg2ce+ROatNUoxzI6dEXv4UaUYOo652SeOIbte7e9SCekNq2Ef+0opho5jkrFHxsLsrDZyOLNhDYpfHVGKQZdxp2klXQULAAo0q+FlyFxWKUZi0uMQsVjJj9fR6MZa8AKkXVSKURFFG9ZixQZFio2SRDSGxES1jo6ykFfuLEnkdSwAKNCcs2eU75sbtW2RGDOlpMfqaHVbPLQf2S3vKMWopOzmt5V7Mai0Sk6MnQqjTTul9dOrlsA+c1IpBpHXsQCgwEutXAjHalSKER87BUbb1r+o6Bh20zj/V/46gy4lrFd+pRwmOaP1vRiM2raIPzpJaV0nbSG9igN/yoGHALyFBQAFnkynkVqmdnZeRGOtHhSkY9xtftcO5Hd9oBTDDfndO5XzjvRu/bjkxJQnIKJxpXVTDa/CSVtKMYj8gAUAVYXM2mXK3fPiw8e1fGOZMJCc9rTSen4/g67jykVyxpwW92IwO3VBbLjahk371Alk1q1QikHkFywAqCpIu4jUUrUjagiZSE5t2Yt6bOjDCPW8WWk5HffS3aRj70Kox02IDh3eoq9NTpsNYYaU1rMW/5YDf8qJ9wA8hQUAVY3Mxt+heEhtgl508LWbywgzhMTkJ5TW0bKb3gN0nF5ITn3mmr0YQj17ITr4AaV1dEw2JPITFgBUPaQDa5FiYxchrtleNjZqIsxOamfQ0xtWKZ+n9wL7xDFk1r+uFMPs0AmxkeOb/RodbZutBS8Ajo82WxIpYgFAVSX3wRbkd+9UihHpNxCRO5ve3CeicSRUB/7kskg1vKoUw0tSGjoYJibOhIg3vbkv0vsuRO4aoBS/sPdj5D7YqhSDWoCNgDyFBQBVHav+BeVBQcmZzzV5vC8xfpqWM+iqPfW9xDn3NdKvK/ZiSLZB4tGpV35C0+jmxgX+3WxJVCoWAFR1Cvv2ILdjs1KM8E23Ilo39JKPGe3aIz5G8Qy6dQ6p1YuVYnhRauUiOOcUBwWNmwqjfYdLPhatG4bwLb2V4ua2v4vCp58oxSDyIxYAVJWs+XMBW31QEEK/b/GbnPQkRE1UKWaq4VXITEYphhfJbAap5QuUYohwBMmLW/yaJhItPJVxVY4Da5H/N1sSlYIFAFWl4tHDyGx8QymG2aUbYg+OvuK/S2WfPI7Mm6uUYnhZZt0K5V4MseFjELq++xX/XXJOb69D8cghpRhEfsUCgKqWtfglyHxOKcY37/ovvxpQWj4vBvoMurSLsJa8pBbkwrv+K64GlJJPoaDeG4Jah30APIUFAFUt58wppNctV4phtGuPNn/wp1fsB2it4hfVcQY9u2kDil8cUIoRrRuGNn/0/Sv2A7RWeu1rsE+fUIpB5GcsAKiqpZbVw0mpDQqK3veA8sAfq36uvwb+lEo658/bqxDi/PdcJY10CunlC9XyIPI5FgBU1WQ6hfSKRa7mkN+7C7md21zNoZJyH25F/pMPXc0htWyBcuFH5HcsAKjqpdc0uHop2M8Df0plLVDvxVAq58xppNctc2VtIi9hAUBVTxYKSDXMd2Xt3NaNKHy225W13VTYtxe5bZtcWdtaor75kygIWAAQAci8tQbFL7+o7KJVfga9ceE85V4MrVU8ehiZd9ZVdE26CFsBewoLACLg/IvxYsVBQa2U2bAGxa8OV3RNL7GPHkHm7bUVXdNaUPmig8irWAAQXVDJy/GykA/UwJ9SWUtfrtjl+MK+vchtf7ciaxH5AQsAoos0VmhDXvr1BthnTlZkLS9zzpxGek1lNuTpGAJFitgIyFNYABBdpLB3F3IflncsrJO2kF4ZvIE/pUqtWADHKu+RvNwHW5Hf7e7RQyKvYQFAdJnz7xTL15RHR/OhIDnfi6GMTXlkdW+2JLoaFgBElykePoDspg1lie2cOYXMWrX2w0FUzra82Y3rUTy0ryyxqbV4D8BLWAAQNcFaNK8sg3msRS9CFvLa4/qdLBSQWqJ/MI+0i7CWvqw9LlEQsAAgaoJ96gQyb6zUGrP41RFkNr2pNWaQZN7RP5o3s3a58ghioqBiAUB0FanX5kNmMtriWfW/5hn05jgOrIXztIWT2TRSKxZoi0cUNCwAiK7Csc4htUrPoKDCvj3I7diiJVaQ5d5/D4VPP9ESK7ViMZxzX2uJRRRELACImpF+vQGyoL4XIPVaPc+gt1BKw4kAWSggvaZBQzZEwcUCgKgZNf0GQoTD6nEGDNaQTXWoGaj+vRLhMGruGqAhG9KLRbCXsAAguhrDQGLq01pCxR4YiVD3nlpiBVmoaw/Ehj6iJVZy+mwgZGqJRRRELACIriI2fAxC1/fQE8wwkJz2jJ5YAZac9Sxg6nnRNrt2R+zB0VpiEQURCwCiJohwBInHZmmNWTPwfoRvu0NrzCAJ39wbNf0HaY2ZnPQkRE1Ua0wqHdsAeQsLAKImxMdOgdm+o/a4tTOe1R4zKJIz5wBC70uE0a494qMf0xqTKChYABBdxognER87pSyxw7ffiZp77itLbD+r6T8IkT79yhI7MW46jGRtWWIT+RkLAKLLJCbNghFPli1+cuYcwOCv3reEgaSmzZZNho/HkZgws2zxqRV4D8BT+CxEdBGjfQfEHhlf1jVC3W9EbMjDZV3DT2LDRiDUs1d51xg5AeZ1ncq6BpHfsAAgukhy+myIcCQw63idCIeRmPpUYNYh8hMWAEQXVPKdeSWuNPhBJd+ZV+JKA10D+wB5CgsAogsqfW++3HsNvK7i9+bLvNeAyG9YABDBnd355Txt4Adu7M4v52kDIr9hAUAE987nl6vfgNe5eT6/HP0GiPyIBQBVPTc79JWj46AfuNmhrxwdB4n8iAUAVTcP9OjXOnPAB7zQo1/nzAEiv2IBQFUtNvQR5Sl99omjaklonDroB8lpzyhP6VP9noe69kBsyAilGFQC3nnxFBYAVLXOnw1/UimGtIs48+P/geLBfUpxonVDEb6lt1IMPwj3ug3RuqFKMYpfHMCZ//1XkMWCUpzktKchIjVKMYj8jAUAVa34qMeUz6Bn3lgJ+9hXsBbOU0tGCCRnBn9QUHLGs8ob8BrrfwP7xFFk3lytFMdo3wGxkezFQNWLBQBVJRFPID5+ulIMmc0gtaweAJDbuQ35Tz5UihfpfRci/QYqxfCySL+BiNx5t1KM/N5dyO/cDgBINbwCmckoxUtMnAkjwUFBFSN5D8BLWABQVUpMmKF8Bj21chGcc2e//bNVPxeQaq3Oamc+B4gA/loKgeT02cphrPq53/63Y51DavVipXhGPIn4uGmqaRH5UgCfaYiaZ7S/DvFRE5ViOI1fI/36a5d8rLD/U+S2bVKKG7rhJkQHP6gUw4ui9w9H+MZblGJkt25E4bPdl3wsvXopnK/PXuURLRMfo34riMiPWABQ1UlOeUp581dqySuQ2fQVH29cOA+wbaXYyemzIUJhpRieEjKRnKI4iMdxkFr02ys+LLMZpF6brxRahCNITKq+XgxELACoqoS69kBs2EilGPaJY8isb3oDmn30CDJvr1WKb3bsjNjDjyrF8JL4iHEwO3dVipHZsAbFrw43+bn0+vMbMVXEHhyNULcblGIQ+Q0LAKoqyRmzlRvAWAtfgLSLV//80pch8zmlNRKTHoeIxZRieIGIxpCYqPbuWhbySDW8evUvKNqwlryotAYMDgqi6sMCgKpG+ObbUTPwfqUYxUP7kd38TrNf45w5jfSaZUrrGLVtkRjj/0FBiUenwGjTTilG+vUG2GdONvs12ffeQuHg50rr1NQNRfjWPkox6Bp4CMBTWABQ1R0hehIAAA/LSURBVNAxBKZx/q8B6Vzz61IrFsCxGpXWio9Vf/F0k1HbFvGxk5ViOGkL6ZUt2OkvJawFLyitBVzoU0BUJVgAUFWoubsOkT6KZ9B370R+144Wfa1Mp5BasUBpPRGN+XpQUGLy4xDRuFKM1Gvz4aRaVkjlP3of+V0fKK0X6d0XNf3uVYpB5BcsACj4hIaBP1LCqm/dO8zM2mWwT59QWjb+sPoGOjeYnbogNlxtI6Nz5hQy61a06jHWAvVeDMlZzwazF4MnqP2/Ib34U06BFx3yEEI33qwUI7vlbRT27WnVY2ShgNTil5XWRcj05ea05DT1o4zWot9CFvKtekzhwGfIbm1+j8a1hHrchOiQ4UoxiPyABQAFmjBD6mfQizasRaXtMs9sfAPFI4eUlo8Ofki5iU4lhXr2QnTwA0oxil8dQWbT70p6rFXf/CmNlkhOfTpYvRiImsACgAItNnI8zE5ql9DTG1bDPvZlaQ92HFgLFTenaWqjWyk62hlb839dckMl+8RRZNevUVrf7NgZsRFjlWJQE3gHwFNYAFBgiWgciQkzlGLIXBaphleUYuTe34zCp58oxdAxSKcSIr3vQuSuAUoxCp/vQe6DLUoxrKUvNdmpsTWC0ouB6GpYAFBgJcZNVT+DrqHXPAA0vvIr9c1pM59TPsZYVppGGje+qv69cs5dOauhtYxkGyTGclAQBRcLAAoko01bxMc8phTDsc4htWqRlnwK+/Ygt0PtXW34plsRrRuqJZ9yiNYNQ/iW3koxcu+/p3y15BuplYsvmdZYivijk2G09W8vBs/xcP1ajVgAUCAlJz+l5Qy66rz5i1n1pd/X/kZy+mwgpNbKuCxMEwnV0wqOA2vhPD35AJDZNFIrFirFEDVRJCY9oSkjIm9hAUCBY3bqgujw0Uox7FMnkHljpaaMzlPZ2f4Ns0s3xB5U+7uVQ+yh0Qhd310pho4TE1fEXLsc9omjSjHiDz0Ks8v1mjIi8g4WABQ4yRlzIMyQUgxr0TzIYkFTRhfHbf3Z9sslJz0JURPVlJE6EY4odyzU0jOhqbh2EdZSHb0YFBtJEQDeAfAaFgAUKKGevRC9b5hSjOLhA8hu2qApo0uV0t3ucka79oiPVtvfoFN87BSY7TsqxdDRNfFqshvXo3hon1KM6KAHfNWLgaglWABQoNTO+o76GfT6F1o08KdUrelvfzWJCdNhtGmrKaPS6dgpr2NuQvMLOLAW/VYthhBIPvEdPfkQeQQLAAqMSN/+iPS9RylGfs8u5D7cqimjprV4wl0zRDSOxPjpmjIqXWLiTIi44mZLDZMTryX3wVbkd3+oFCPSp5/yz1fVk7wJ4CUsACgYNJ1BtxbM1ZDMtbVkxv21xEZNVO5yqMLs0AmxkeOVYjhnTiO9ZpmmjJp3/sqOWn8BHVeYiLyCP8kUCDru0ea2bkThs92aMmqeLOSRanhVKYYwQ0hMdu+IWnLqM+oDf5a+DJnPacqoeYV9e5Hb/q5SDB17TIi8ggUA+Z+OXdqOA2txaQN/SpXZsAbFrw4rxYgNfRihnmqTDkuhY2KeffQIMm+v1ZRRy1gL5qn3YtBwyqRq8Q6Ap7AAIN+LPzRW+Zx25q01KH75haaMWsjRsTnNQHJa5ccFJ2fMAQy1p4/Gheovxq1VPHoYmXfWKcUwO3VBbPgYTRkRuYcFAPmaiMaQmPS4UgxZKCDVMF9TRq2j47ZDzT33IdKncoOCwrf3Rc09dUoxCvv2Irdtk6aMWsda8pLybYfE5CeUO00SuY0FAPmajl7t6dcbynYGvSWsevWNh8mZcyo2KKhWy2ZL9Q15pXLOnEZ6rdrGQ6NNO+VZE0RuYwFAvmUk2yDx6FSlGDKdQnqlnoE/pcrv3YXczm1KMcI3346a/oM0ZXR1NQPvR/jWPkoxch9uRf4TtSN5qlLLF6j3Yhg3zRO9GIhKxQKAfEvHvPbUsnrlFwIdrPlzlZsPJWc9C5hlHBRkGEhOU9xsqaMpjwYynUJ6uVrhJ6IxJCbM1JQRUeWxACBfMjt2RmzEWKUYzplTSK9brikjNcXDB5B9V639cKhrD8SGPqIpoyvFHhiJUPeeSjGym9ajeFCtLa8u6bXqt35iI8e72ouBSAULAPKl5NSn1c+gL1bfDKaTtei3ygOIklOfgojUaMro90Q4rNxzQMtgHo1koYDU0leUYggzhOSUpzRlRFRZLADId3ScQS8ePYzMxjc0ZaSHffI4Mm+uVophtO+A+MgJmjL6vfioSTCv66QUI/PGStjH1Ubz6pZ5e53yCOLokIcQurHyvRiIVLEAIN9JznpWfeDP/LkVP4PeEqmGVyAzGaUYiYkzYSRqNWUEiHgC8QmKA3+yGaSW1WvKSCNtvRg4Lrhl3Dn5QU1jAUC+Erm9L2r63asUo7BvD3I7NmvKSC/HOofUasVBQfEE4uPVXrAvlpg4Q7mgSK1cBOfcWU0Z6ZXb/i4Kn36iFKPm7jpE7qhcLwYiHVgAkK9oGfijYShMOaVXL4XztdqLZXy0+iV7ADDaX4f4yIlKMZxzZ5F+/TXlXMqpUcMQqOSMyvViINKBBQD5Rk3dUPUz6Ds2I797p6aMykNmM+qDgsJhJCardUgEgOSUp5U3FaaWvgKZTSvnUk6FvR8j98EWpRjhm29Hzb1DNGVEVH4sAMgfzJCeM+gVHvhTqvSGVbCPfaUUI/bAKJjdbyj58WbX7ogNUztWaJ84hsz615ViVIpV/wLgqPViqJ0+G+CgIPIJFgDkC+GevRC6vodSjOzG9Sge2q8pozIr2rAWK25OMwxE64aW/PDo4AeUGwtZC1+AtItKMSqleOQgspvWK8Uwu3ZHuGcvTRkRlRcLAPIHxV3/58+gv6QpmcrIbn4bhYOfqwVR+b4pfs+Lh/Yju/kdpRiVZi1W78Wg+n0jqhT+pFJVyKxdBvvEMbfTaB0ptQwKckvj/F8ptzeuNPvUCWTWrXA7DaKKYAFAgSfTaW+eQW+B/K4dyO/6wO00Wi2/e6cv8waAVMOrcNKW22kQlR0LAAq81MqFcCz3B/6UynfvpKWE9cqv3M6iZE7aQnrVErfTICo7FgAUaM7ZM0iv8fYZ9GspHtqP7NaNbqfRYtktGvYuuCy9agnsMyfdToOorFgAUKBZDS9D5rJup6HMqvfJbvqiDWuRP45aNkcW8ki9Nt/tNIjKigUABZZ99Agyb61xOw0t7BNHkV3v/b9LesNq2Me+dDsNLTIb1qD41WG30wgYdkr0EhYAFFjWwnlA0XsDf0plLX3J0x31ZC6LVIPaeF1PsW2kfNI4iqgULAAokAr7P0V22ya309DKOfe1p3vq65hh4DXZrRtR+HyP22kQlQULAAoka8FcTw/8KVVq5WJPTtVzrHNIrVrkdhr6+bwXA1FzWABQ4OR3bkf+4w/dTqMsZDaN1PIFbqdxhVTDq5CZjNtplEV+z0fIf/S+22kQaccCgIJFyvP3/gMss24F7BNH3U7jW/bJ48i8ucrtNMqqsf43/urFQNQCLAAoULLvbfD9GfRrkXYR1hLvzDWwFr+o3j/f44qH9iP73ttup+F7gocAPIUFAAVH0fbNuF9V2U0bUDy4z+00UDx8QHmCnl9Yi+YFvtCh6sICgAIj/buVsI9759J4WUkH1iLFccEaWPPnVs2lcfvEMWTWr3Y7DSJtWABQIMhspuo6t+U+3Ir8J+5tdszv3YXczm2ure+G1NLgbnasiOAdzPE1FgAUCKnVSzx5PK7crAUvuHbcsRqPxzmNXyO9moOCKBhYAJDvVfOTcmHfXuS2v1vxdXNbN6Lw2e6Kr+sF1VpsUvCwACDfq/bLstaCeYBdwZbHjlM1my2bUo23myiYWACQr9knj1f9xqzi0cPIvLOuYutl3lqD4pdfVGw9L6qqDacUWCwAyNeshTyaBQDWkpcg87myryMLeaQa+O4XRdtTvRiIStHitgx//tl9NxTDxjgBDIGUdwDoBKAWQKjca5ebkN7JxX1CoEzfDyEMMypq4jpjFp1Cy1793fo/LC98RyvAEGZIwChrUS/hOI60i+Vcwy+khAgZ4bDOmFknl3GkLMv9HCGkhHBcH48pPPDcLwEphdD3eymlgAPh2NK0bYTsggxLR5b9DfaF5xZbCOSEIY7CEJuEWfznn/besaVFj7/WF3xv//2DheH8jZQYBV4xICIiuia7KFHMOnAKlT+lY4TESTMs/vO/9Nn6q+a+7qoFwPf333+TFPY/AGJac19HRERETbOLEsW0A8eufCEgQsZhJyQe/+UdWzY2+fmmPvj9g3XDpDQWAehc1uyIiIiCTkrkUw5sF64GQECGIsZf/PTOrc9f+anLfO/gfc9Ain8DEKlIckRERFWgkHZQzFW+dbYAYNaIn//0zm3fvfzj3/qzQ4MedBysBV/8iYiItMunHNh5d+ZnGFHxlz+/Y9uPv/nztwXAnxy69xbDMTcDuM6VzIiIiIJOAtnGIspz1uMaBGRNwhzxz7dtWQ9ctKvfkOa/gC/+RERE5SOASMJ0Z20JUcjY3zbyMADgT/bfNxwSj7qTERERUfUwTAEz7M7hOsdG5z/+5N6/AC4UAIYQf+9KJkRERFUoHHOxrU4RfwUA4s8O3tfXkeIj9zIhIiKqPrlGG07RnXHeosaYYDgOHnNldSIioirm1m0AABAQ3zUgxDDXMiAiIqpSRti92wDCduoMAHe4lgEREVGVEi4dBgAAx0EHA0BX91IgIiKqTuLbf1WelDJkAIi5szwREVF1c3HSnjAAZN1bn4iIiFwgDQDH3c6CiIio2kh5/h83CIGiAWC3O8sTERFVL+m49OoPQAicNSTkRtcyICIiqlJOwb21hWG8bxgwl7uXAhERUXVyCu6MBQYACPmvAgC+f2DQDgnc414mRERE1UNKIPt1EXDhLoAwkPnFPdvjBgAIIf975VMgIiKqTsW048qLPwCYIeNHwEVHEL93YNAbAEa4kw4REVF1kDaQbXTp3b8pvv7F3dvaARfGAQOAYZrfA2BVPh0iIqLqIAHk07Y77/4FZChiP/vNH78tAJ6/YdNOITEbgIu7EoiIiIKrmHJcGwEcihj/+C99diz95s+XjCL6x16bl0DiL+HanQkiIqJgKmYlinl33mObEbHkp3du/fOLP3bFLMJ/6rX5eQE8BuBcxTIjIiIKKAmgkHJQyNiVX1xAmjXmj37Wd9vUKz91FX/2xZB+jmP/BBIPlTc7IiKiYHKKEoW0A8eu/IV1MyTOGmH7uYsv+1/smoOIvndw0ERI/C2A/tqzIyIiCiBpA4WsA9uFS/7CQMaMGP/rp3ds/WGzX9fSgN/ff19/CDFBQgwDZB8AHQHUKuZJRETka1ICkIC0JZyihF2QlXvHLyCFQFEInDVMY4eE/OXP+m6rb8lD/z/OiU5DUA47wwAAAABJRU5ErkJggg==;" vertex="1" parent="1">
          <mxGeometry x="847.5" y="570" width="60" height="60" as="geometry" />
        </mxCell>
        <mxCell id="HLB04OiPP8K-Rc5S-tSk-50" value="&lt;font size=&quot;1&quot; color=&quot;#6082b6&quot; style=&quot;&quot;&gt;&lt;b style=&quot;font-size: 20px;&quot;&gt;System Architecture&lt;/b&gt;&lt;/font&gt;" style="text;html=1;strokeColor=none;fillColor=none;align=center;verticalAlign=middle;whiteSpace=wrap;rounded=0;" vertex="1" parent="1">
          <mxGeometry x="1602" y="520" width="276" height="30" as="geometry" />
        </mxCell>
      </root>
    </mxGraphModel>
  </diagram>
</mxfile>
